<svg xmlns="http://www.w3.org/2000/svg" width="32" height="32" fill="none" viewBox="0 0 32 32">
  <path fill="#B75FFF" d="M0 0h32v32H0z"/>
  <path fill="#fff" d="M5.313 19.798c-1.873-2.357-1.742-5.84.39-8.04a5.694 5.694 0 0 1 8.228 0c2.272 2.343 2.272 6.141 0 8.485a5.69 5.69 0 0 1-8.016.207l5.136-5.299.617.637-3.136 3.235c1.172.53 2.588.3 3.547-.69a3.373 3.373 0 0 0 0-4.666 3.13 3.13 0 0 0-4.524 0c-1.11 1.143-1.234 2.918-.374 4.204l-1.868 1.927Zm15.444-2.604v-.898H28c-.147 3.08-2.552 5.547-5.543 5.678-3.424.15-6.239-2.8-6.04-6.328.175-3.14 2.782-5.631 5.79-5.631s5.48 2.361 5.771 5.384h-2.634c-.272-1.531-1.574-2.692-3.137-2.692-1.97 0-3.523 1.842-3.129 3.948.244 1.3 1.238 2.322 2.5 2.571 1.614.317 3.067-.62 3.602-2.032h-4.423Z"/>
</svg>
