<svg xmlns="http://www.w3.org/2000/svg" width="32" height="32" fill="none" viewBox="0 0 32 32">
  <path fill="#00DE73" d="M0 0h32v32H0z"/>
  <path fill="#fff" fill-rule="evenodd" d="m5.909 19.747 6.038-1.617.003-.003 3.492-6.049-1.617-6.041-2.836.758 1.616 6.042a1.988 1.988 0 0 1-.2 1.52c-.269.466-.7.797-1.216.935L5.15 16.91l.759 2.838Zm14.493-1.617 6.038 1.617.758-2.838-6.038-1.617a1.986 1.986 0 0 1-1.216-.934 1.988 1.988 0 0 1-.2-1.521l1.616-6.042-2.836-.758-1.617 6.041 3.491 6.049.004.003Zm-.738 1.276 4.422 4.424-2.075 2.076-4.422-4.424a1.983 1.983 0 0 0-1.416-.586c-.538 0-1.037.207-1.417.586l-4.421 4.424L8.26 23.83l4.422-4.424h6.982Z" clip-rule="evenodd"/>
</svg>
