<svg width="141" height="128" viewBox="0 0 141 128" fill="none" xmlns="http://www.w3.org/2000/svg">
<path d="M93.1166 85.8201L121.195 113.914L108.021 127.096L79.9417 99.0022C77.5343 96.5935 74.361 95.2796 70.9469 95.2796C67.5328 95.2796 64.3594 96.5935 61.952 99.0022L33.8732 127.096L20.6983 113.914L48.7771 85.8201H93.0947H93.1166Z" fill="black"/>
<path d="M97.8 77.7181L136.143 87.9879L140.958 69.9665L102.615 59.6968C99.332 58.8209 96.5963 56.7188 94.8892 53.7626C93.1822 50.8284 92.7445 47.3906 93.6199 44.106L103.884 5.74218L85.8725 0.924805L75.6083 39.2886L97.7781 77.6962L97.8 77.7181Z" fill="black"/>
<path d="M44.1155 77.7181L5.77252 87.9879L0.957764 69.9665L39.3007 59.6968C42.5835 58.8209 45.3192 56.7188 47.0262 53.7626C48.7333 50.8284 49.171 47.3906 48.2956 44.106L38.0314 5.74218L56.043 0.924805L66.3072 39.2886L44.1374 77.6962L44.1155 77.7181Z" fill="black"/>
</svg>
