<svg xmlns="http://www.w3.org/2000/svg" width="32" height="32" fill="none" viewBox="0 0 32 32">
  <path fill="#00DE73" d="M0 0h32v32H0z"/>
  <path fill="#fff" d="m24.086 23.83-2.074 2.076-4.422-4.424c-.38-.38-.88-.586-1.417-.586-.538 0-1.037.207-1.416.586l-4.422 4.424L8.26 23.83l4.422-4.425h6.982l4.422 4.425ZM15.44 12.08l-3.49 6.047-.004.004-6.039 1.618-.758-2.838 6.038-1.617a1.99 1.99 0 0 0 1.217-.935 1.99 1.99 0 0 0 .2-1.522l-1.617-6.04 2.837-.76 1.616 6.043Zm5.92-5.284-1.617 6.041a1.99 1.99 0 0 0 .2 1.522c.268.465.7.797 1.216.934l6.038 1.618-.758 2.838-6.038-1.618-.004-.003-3.49-6.048 1.615-6.042 2.837.758Z"/>
</svg>
