<svg width="422" height="422" viewBox="0 0 422 422" fill="none" xmlns="http://www.w3.org/2000/svg">
<rect width="421.06" height="421.06" transform="translate(0.873108 0.557129)" fill="white"/>
<rect x="0.873108" y="0.557129" width="421.06" height="421.06" fill="white"/>
<path d="M113.296 135.815H142.41L161.186 291.933H136.503L133.76 257.966H120.68L117.937 291.933H94.5196L113.296 135.815ZM124.899 205.224L122.368 237.291H132.072L129.33 205.224L127.431 178.22H126.798L124.899 205.224ZM212.92 291.933H187.814V135.815H220.726C238.658 135.815 249.629 146.363 249.629 165.351V203.747C249.629 222.523 238.658 233.072 220.726 233.072H212.92V291.933ZM213.131 214.296H218.616C222.835 214.296 224.523 210.498 224.523 203.747V165.351C224.523 158.389 222.835 154.591 218.616 154.591H213.131V214.296ZM278.548 291.933V135.815H327.493V156.49H303.653V202.692H324.961V223.367H303.653V271.258H327.493V291.933H278.548Z" fill="#0054FA"/>
</svg>
