<svg xmlns="http://www.w3.org/2000/svg" width="32" height="32" fill="none"><path fill="#0054FA" d="M0 0h32v32H0z"/><path fill="#fff" d="M8.45 9.969h2.25l1.45 12.062h-1.906l-.212-2.624h-1.01l-.213 2.624H7L8.45 9.969Zm.897 5.363-.195 2.477h.75l-.212-2.477-.147-2.087h-.05l-.146 2.087Zm6.8 6.699h-1.939V9.969h2.543c1.385 0 2.233.815 2.233 2.282v2.967c0 1.45-.848 2.265-2.233 2.265h-.603v4.548Zm.017-5.998h.424c.326 0 .456-.294.456-.815V12.25c0-.538-.13-.831-.456-.831h-.424v4.613Zm5.054 5.998V9.969H25v1.597h-1.842v3.57h1.646v1.597h-1.646v3.7H25v1.598h-3.782Z"/></svg>