<svg width="32" height="32" viewBox="0 0 32 32" fill="none" xmlns="http://www.w3.org/2000/svg">
<rect width="32" height="32" fill="#2C374B"/>
<path d="M18.2762 15.0801L19.8919 12.3386L24.2467 19.1215L24.2487 20.4231L24.2345 11.4658C24.2242 11.2469 24.1079 11.0466 23.9224 10.9284L16.0821 6.41857C15.8987 6.32845 15.6661 6.32941 15.4831 6.42137C15.4584 6.4338 15.4351 6.44725 15.4129 6.46193L15.3856 6.47913L7.77529 10.8893L7.74573 10.9026C7.70777 10.9201 7.6694 10.9423 7.63335 10.9681C7.48909 11.0716 7.39323 11.2246 7.36223 11.3963C7.35759 11.4223 7.35418 11.4488 7.35254 11.4755L7.36449 18.7748L11.4208 12.4877C11.9315 11.654 13.0442 11.3855 14.0771 11.4001L15.2895 11.4321L8.14642 22.8875L8.98844 23.3723L16.2171 11.4437L19.4122 11.4321L12.2021 23.6617L15.2067 25.3899L15.5657 25.5963C15.7175 25.658 15.8966 25.6611 16.0497 25.6059L24.0002 20.9984L22.4802 21.8792L18.2762 15.0801ZM18.8926 23.9583L15.8579 19.1954L17.7104 16.052L21.6958 22.3337L18.8926 23.9583Z" fill="#2D374B"/>
<path d="M15.8579 19.1953L18.8926 23.9582L21.6959 22.3337L17.7104 16.0519L15.8579 19.1953Z" fill="#28A0F0"/>
<path d="M24.2494 20.4232L24.2474 19.1216L19.8925 12.3387L18.2769 15.0802L22.4809 21.8793L24.0009 20.9986C24.15 20.8775 24.2402 20.6998 24.2497 20.508L24.2494 20.4232Z" fill="#28A0F0"/>
<path d="M6.00007 21.6508L8.14659 22.8876L15.2896 11.4322L14.0773 11.4002C13.0444 11.3856 11.9317 11.6541 11.421 12.4878L7.36465 18.7749L6 20.8717V21.6508H6.00007Z" fill="white"/>
<path d="M19.4119 11.4324L16.2169 11.444L8.98828 23.3726L11.5149 24.8274L12.202 23.662L19.4119 11.4324Z" fill="white"/>
<path d="M25.5953 11.4158C25.5686 10.7476 25.2068 10.1358 24.6401 9.77972L16.697 5.21189C16.1364 4.92958 15.4361 4.92923 14.8746 5.21168C14.8082 5.24514 7.15007 9.6866 7.15007 9.6866C7.04411 9.73739 6.94204 9.79795 6.84598 9.86664C6.34007 10.2292 6.03168 10.7926 6 11.4117V20.8717L7.36465 18.775L7.3527 11.4756C7.35434 11.4489 7.35769 11.4227 7.3624 11.3968C7.39319 11.225 7.48911 11.0718 7.63351 10.9683C7.66956 10.9425 15.4585 6.43398 15.4833 6.42156C15.6664 6.32959 15.899 6.32864 16.0823 6.41876L23.9226 10.9286C24.1081 11.0467 24.2244 11.2471 24.2347 11.466V20.5081C24.2252 20.6999 24.1494 20.8775 24.0003 20.9986L22.4803 21.8794L21.696 22.3339L18.8927 23.9585L16.0498 25.6061C15.8967 25.6614 15.7176 25.6583 15.5658 25.5965L12.2022 23.6619L11.5151 24.8272L14.5379 26.5676C14.6378 26.6244 14.7269 26.6747 14.8 26.7158C14.9132 26.7793 14.9903 26.8217 15.0175 26.8349C15.2324 26.9392 15.5414 27 15.82 27C16.0754 27 16.3244 26.9531 16.5601 26.8608L24.8174 22.0787C25.2914 21.7115 25.5702 21.1578 25.5953 20.5579V11.4158Z" fill="#96BEDC"/>
</svg>
