<svg xmlns="http://www.w3.org/2000/svg" width="32" height="32" fill="none" viewBox="0 0 32 32">
  <path fill="url(#a)" d="M0 0h32v32H0z"/>
  <path fill="url(#b)" d="M8 24c.136-4.162.832-8.046 1.995-11.067C11.468 9.108 13.601 7 16 7c2.4 0 4.532 2.107 6.005 5.934.766 1.99 1.33 4.354 1.664 6.927.03.23.055.463.081.696.009.015.014.028.012.039 0 0 .197 1.243.238 3.404h-.022c-.291-.242-3.726-2.979-9.419-2.186.086-.977.204-1.928.357-2.839l.025-.137a22.555 22.555 0 0 1 5.686.539l-.016-.11c-.308-1.944-.763-3.726-1.349-5.247-.958-2.489-2.208-4.035-3.262-4.035-1.054 0-2.304 1.546-3.262 4.035a21.305 21.305 0 0 0-.633 1.92 28.83 28.83 0 0 0-.668 3.035 38.68 38.68 0 0 0-.49 5.025H8Z"/>
  <defs>
    <linearGradient id="a" x1="16" x2="16" y1="0" y2="32" gradientUnits="userSpaceOnUse">
      <stop stop-color="#011330"/>
      <stop offset="1" stop-color="#264D71"/>
    </linearGradient>
    <linearGradient id="b" x1="16" x2="16" y1="7" y2="24" gradientUnits="userSpaceOnUse">
      <stop offset=".663" stop-color="#fff"/>
      <stop offset="1" stop-color="#fff" stop-opacity=".5"/>
    </linearGradient>
  </defs>
</svg>
