<svg xmlns="http://www.w3.org/2000/svg" width="32" height="32" fill="none" viewBox="0 0 32 32">
  <path fill="url(#a)" d="M0 0h32v32H0z"/>
  <path fill="#fff" d="M16 8a3 3 0 0 0-2.683 1.658l-5 10A3 3 0 0 0 11 24h10a3 3 0 0 0 2.683-4.342l-5-10A3 3 0 0 0 16 8Zm0 1.222c.678 0 1.287.377 1.59.983l5 10a1.767 1.767 0 0 1-.078 1.73 1.767 1.767 0 0 1-1.512.843H11c-.62 0-1.186-.316-1.512-.843a1.767 1.767 0 0 1-.078-1.73l5-10A1.768 1.768 0 0 1 16 9.222Z"/>
  <defs>
    <linearGradient id="a" x1="16" x2="16" y1="0" y2="32" gradientUnits="userSpaceOnUse">
      <stop stop-color="#81C439"/>
      <stop offset="1" stop-color="#56BF38"/>
    </linearGradient>
  </defs>
</svg>
