<svg width="32" height="32" viewBox="0 0 32 32" fill="none" xmlns="http://www.w3.org/2000/svg">
<rect width="32" height="32" rx="16" fill="white"/>
<rect width="32" height="32" fill="#E84142"/>
<path fill-rule="evenodd" clip-rule="evenodd" d="M11.4718 23.3588H8.37082C7.71921 23.3588 7.39733 23.3588 7.20108 23.2333C6.9891 23.0958 6.85957 22.8682 6.84387 22.6169C6.83208 22.3854 6.99304 22.1027 7.31491 21.5374L14.9717 8.04124C15.2975 7.46814 15.4624 7.18159 15.6704 7.07561C15.8942 6.96178 16.1611 6.96178 16.3848 7.07561C16.5929 7.18159 16.7578 7.46814 17.0835 8.04124L18.6576 10.789L18.6657 10.803C19.0175 11.4178 19.196 11.7296 19.2739 12.0569C19.3602 12.4141 19.3602 12.7909 19.2739 13.1481C19.1954 13.4778 19.0188 13.7919 18.6615 14.416L14.6396 21.5256L14.6292 21.5439C14.275 22.1638 14.0955 22.4779 13.8467 22.715C13.5758 22.9741 13.25 23.1624 12.8928 23.2686C12.567 23.3588 12.202 23.3588 11.4718 23.3588ZM19.3029 23.3588H23.7464C24.4019 23.3588 24.7317 23.3588 24.9281 23.2294C25.14 23.092 25.2734 22.8603 25.2853 22.6092C25.2966 22.3852 25.1391 22.1135 24.8306 21.5811C24.82 21.5629 24.8093 21.5445 24.7985 21.5257L22.5727 17.7182L22.5474 17.6753C22.2347 17.1464 22.0768 16.8793 21.874 16.7761C21.6504 16.6622 21.3872 16.6622 21.1636 16.7761C20.9594 16.8821 20.7946 17.1608 20.4688 17.7221L18.251 21.5297L18.2434 21.5428C17.9187 22.1032 17.7564 22.3833 17.7681 22.6131C17.7838 22.8643 17.9134 23.0958 18.1253 23.2333C18.3177 23.3588 18.6474 23.3588 19.3029 23.3588Z" fill="white"/>
</svg>
