<svg xmlns="http://www.w3.org/2000/svg" width="32" height="32" fill="none" viewBox="0 0 32 32">
  <path fill="#F47226" d="M0 0h32v32H0z"/>
  <g clip-path="url(#a)">
    <path fill="#171717" d="M21.14 19.585v-1.263c.778-.267 1.344-1.095 1.344-2.075 0-.98-.566-1.81-1.343-2.075v-1.263c.732-.25 1.278-1.001 1.338-1.909h-.89v.386c0 .297-.182.56-.448.69v-.18c0-.264-.232-.48-.516-.48h-.046c-.284 0-.515.216-.515.48v.18a.774.774 0 0 1-.448-.69V11h-.891c.06.908.606 1.659 1.339 1.909v1.263c-.775.264-1.344 1.092-1.344 2.075 0 .983.566 1.81 1.344 2.075v1.263c-.733.25-1.279 1.001-1.339 1.909h.89v-.386c0-.297.182-.56.449-.69v.18c0 .264.231.48.515.48h.046c.284 0 .516-.216.516-.48v-.18c.266.13.448.39.448.69v.386h.89c-.06-.908-.606-1.659-1.338-1.909ZM19.617 16.8v-1.106c0-.297.18-.56.448-.69v.18c0 .264.231.48.515.48h.046c.284 0 .516-.216.516-.48v-.18c.266.13.448.39.448.69V16.8c0 .297-.182.56-.448.69v-.18c0-.264-.232-.48-.516-.48h-.046c-.284 0-.515.216-.515.48v.18a.779.779 0 0 1-.448-.69Zm6.989.118v-1.345c.777-.266 1.343-1.095 1.343-2.075 0-.98-.566-1.81-1.343-2.075V11H25.53v.423c-.777.267-1.343 1.095-1.343 2.075 0 .98.566 1.81 1.343 2.075v1.345c-.777.267-1.343 1.095-1.343 2.075 0 .98.566 1.81 1.343 2.075v.424h1.075v-.424c.777-.267 1.343-1.095 1.343-2.075 0-.98-.566-1.808-1.343-2.075ZM25.08 14.05v-1.106c0-.297.181-.56.448-.69v.18c0 .264.231.48.516.48h.042c.285 0 .516-.216.516-.48v-.18c.267.13.448.39.448.69v1.106c0 .297-.18.56-.448.69v-.18c0-.264-.231-.48-.516-.48h-.045c-.284 0-.516.216-.516.48v.18a.781.781 0 0 1-.445-.69Zm1.973 5.498a.777.777 0 0 1-.448.69v-.265c0-.264-.232-.48-.516-.48h-.043c-.284 0-.516.216-.516.48v.265a.774.774 0 0 1-.447-.69V18.44c0-.297.18-.559.447-.69v.096c0 .264.232.48.516.48h.046c.284 0 .515-.216.515-.48v-.096c.267.131.448.39.448.69v1.107h-.002Zm-12.07-4.373a.787.787 0 0 0-.042-.154c.007-.012 1.678-2.176.13-3.514-1.544-1.338-3.349.408-3.359.417a4.304 4.304 0 0 0-.863-.16h-.002c-.59-.09-1.414 0-1.414 0a4.4 4.4 0 0 0-.856.158c-.01-.01-1.814-1.755-3.36-.417-1.544 1.338.124 3.504.132 3.514a1.179 1.179 0 0 0-.043.154C5.14 16.1 4 16.385 4 18c0 1.644 1.19 2.94 3.62 2.94h.997c.005.005.39.515 1.185.545 0 0 .184.02.607.005.843 0 1.253-.54 1.255-.547h.997c2.43 0 3.62-1.296 3.62-2.94.008-1.612-1.131-1.9-1.297-2.827Z"/>
  </g>
  <defs>
    <clipPath id="a">
      <path fill="#fff" d="M4 11h24v10.517H4z"/>
    </clipPath>
  </defs>
</svg>
