<svg xmlns="http://www.w3.org/2000/svg" width="32" height="32" fill="none" viewBox="0 0 32 32">
  <path fill="#F7931A" d="M0 0h32v32H0z"/>
  <path fill="#fff" d="M23.053 13.723c.318-2.13-1.303-3.274-3.52-4.038l.72-2.884-1.756-.438-.7 2.809a73.205 73.205 0 0 0-1.407-.331l.705-2.827-1.755-.438-.72 2.883a58.75 58.75 0 0 1-1.12-.263l.002-.01-2.422-.604-.467 1.876s1.303.298 1.275.317c.711.177.84.648.819 1.02l-.82 3.287c.05.012.113.03.183.058l-.186-.046-1.148 4.603c-.087.216-.307.54-.804.417.017.026-1.276-.318-1.276-.318l-.872 2.01 2.285.569c.425.106.841.218 1.251.323l-.726 2.917 1.753.438.72-2.887c.479.13.944.25 1.4.363l-.718 2.873 1.756.438.726-2.912c2.994.567 5.245.338 6.193-2.37.764-2.18-.038-3.438-1.613-4.258 1.147-.264 2.011-1.019 2.242-2.578Zm-4.012 5.625c-.542 2.18-4.213 1.001-5.403.706l.964-3.865c1.19.297 5.006.885 4.44 3.159Zm.543-5.657c-.495 1.983-3.55.976-4.541.729l.874-3.506c.99.247 4.183.708 3.667 2.777Z"/>
</svg>
