<svg width="513" height="513" viewBox="0 0 513 513" fill="none" xmlns="http://www.w3.org/2000/svg">
<path d="M256.954 512.454C398.339 512.454 512.954 397.839 512.954 256.454C512.954 115.069 398.339 0.453613 256.954 0.453613C115.569 0.453613 0.953613 115.069 0.953613 256.454C0.953613 397.839 115.569 512.454 256.954 512.454Z" fill="#F25D00"/>
<path d="M160.763 203.097V281.151C160.763 283.837 162.94 286.015 165.627 286.015H243.681C246.367 286.015 248.545 283.837 248.545 281.151V203.097C248.545 200.41 246.367 198.233 243.681 198.233H165.627C162.94 198.233 160.763 200.41 160.763 203.097Z" fill="white"/>
<path d="M160.792 312.791V390.845C160.792 393.532 162.97 395.709 165.657 395.709H243.711C246.397 395.709 248.575 393.532 248.575 390.845V312.791C248.575 310.105 246.397 307.927 243.711 307.927H165.657C162.97 307.927 160.792 310.105 160.792 312.791Z" fill="white"/>
<path d="M270.476 312.798V390.853C270.476 393.539 272.653 395.717 275.34 395.717H353.394C356.08 395.717 358.258 393.539 358.258 390.853V312.798C358.258 310.112 356.08 307.934 353.394 307.934H275.34C272.653 307.934 270.476 310.112 270.476 312.798Z" fill="white"/>
<path d="M270.476 203.071V281.126C270.476 283.812 272.653 285.99 275.34 285.99H353.394C356.08 285.99 358.258 283.812 358.258 281.126V203.071C358.258 200.385 356.08 198.207 353.394 198.207H275.34C272.653 198.207 270.476 200.385 270.476 203.071Z" fill="white"/>
<path d="M243.681 88.5151H165.627C162.94 88.5151 160.763 90.6929 160.763 93.3792V171.434C160.763 174.12 162.94 176.298 165.627 176.298H243.681C246.367 176.298 248.545 174.12 248.545 171.434V93.3792C248.545 90.6929 246.367 88.5151 243.681 88.5151Z" fill="white"/>
</svg>
