<svg xmlns="http://www.w3.org/2000/svg" width="32" height="32" fill="none" viewBox="0 0 32 32">
  <path fill="#211D1D" d="M0 0h32v32H0z"/>
  <path fill="#fff" d="M23.597 25.511 22.184 26l-1.403-4.177s-.184-.69-.741-.69h-8.087s-.444-.096-.78.864c-.335.957-1.307 3.996-1.307 3.996l-1.462-.497 1.52-4.6s.596-1.322 2.049-1.322h8.163s1.576-.047 2.105 1.637c.528 1.685 1.356 4.303 1.356 4.303v-.003Z"/>
  <path fill="#fff" d="m26 22.503-1.381.639-1.966-4.251s-.282-.658-.741-.69c-.374-.024-11.553-.022-11.835 0-.282.023-.437-.067-1 1.123-.513 1.08-1.68 3.795-1.68 3.795L6 22.492l2.049-4.532s.49-1.332 2.048-1.323c1.453.009 11.356-.022 11.911 0 .555.022 1.39.085 2.069 1.562.808 1.68 1.92 4.304 1.92 4.304H26Z"/>
  <path fill="#FFD966" d="m6 9.392 1.381-.638 1.966 4.25s.282.659.741.69c.374.024 11.553.022 11.835 0 .282-.023.437.067 1-1.123.514-1.08 1.68-3.795 1.68-3.795L26 9.403l-2.049 4.532s-.49 1.332-2.048 1.323c-1.453-.009-11.356.022-11.911 0-.555-.022-1.39-.085-2.069-1.562C7.113 12.016 6 9.392 6 9.392Z"/>
  <path fill="#FFD966" d="M8.404 6.489 9.817 6l1.404 4.177s.183.69.74.69h8.088s.443.096.779-.864 1.307-3.994 1.307-3.994l1.462.498-1.52 4.598s-.596 1.324-2.049 1.324h-8.162s-1.577.046-2.105-1.638c-.528-1.685-1.357-4.302-1.357-4.302Z"/>
</svg>
