<svg xmlns="http://www.w3.org/2000/svg" width="32" height="32" fill="none" viewBox="0 0 32 32">
  <path fill="#000" d="M0 0h32v32H0z"/>
  <path fill="#F0B90B" d="M10.337 9.063 15.644 6l5.307 3.063L19 10.195l-3.356-1.932-3.356 1.932-1.951-1.132Zm10.614 3.864L19 11.795l-3.356 1.932-3.356-1.932-1.951 1.132v2.263l3.356 1.932v3.863l1.95 1.132 1.952-1.132v-3.863l3.356-1.932v-2.263Zm0 6.127V16.79L19 17.922v2.263l1.951-1.131Zm1.386.8-3.357 1.931v2.264l5.308-3.064v-6.127l-1.951 1.132v3.864Zm-1.952-8.859 1.952 1.132v2.263l1.95-1.132v-2.263l-1.95-1.132-1.952 1.132Zm-6.692 11.61v2.263L15.643 26l1.952-1.132v-2.263l-1.951 1.132-1.951-1.132Zm-3.356-3.551 1.95 1.131v-2.263l-1.95-1.132v2.264Zm3.356-8.059 1.95 1.132 1.952-1.132-1.951-1.132-1.951 1.132ZM8.95 12.127l1.951-1.132-1.95-1.132L7 10.995v2.264l1.951 1.131v-2.263Zm0 3.863L7 14.858v6.127l5.307 3.064v-2.264l-3.356-1.931V15.99Z"/>
</svg>
