<svg width="32" height="32" viewBox="0 0 32 32" fill="none" xmlns="http://www.w3.org/2000/svg">
<rect width="32" height="32" fill="white"/>
<path d="M13.8947 23.8947C17.0922 23.8947 19.6842 21.3027 19.6842 18.1052C19.6842 14.9077 17.0922 12.3157 13.8947 12.3157C10.6973 12.3157 8.10526 14.9077 8.10526 18.1052C8.10526 21.3027 10.6973 23.8947 13.8947 23.8947ZM13.8947 25.9999C9.53474 25.9999 6 22.4652 6 18.1052C6 13.7452 9.53474 10.2104 13.8947 10.2104C18.2547 10.2104 21.7895 13.7452 21.7895 18.1052C21.7895 22.4652 18.2547 25.9999 13.8947 25.9999Z" fill="#FBCC5C"/>
<path d="M18.1052 19.6842C21.3027 19.6842 23.8947 17.0922 23.8947 13.8947C23.8947 10.6973 21.3027 8.10526 18.1052 8.10526C14.9077 8.10526 12.3157 10.6973 12.3157 13.8947C12.3157 17.0922 14.9077 19.6842 18.1052 19.6842ZM18.1052 21.7895C13.7452 21.7895 10.2104 18.2547 10.2104 13.8947C10.2104 9.53474 13.7452 6 18.1052 6C22.4652 6 25.9999 9.53474 25.9999 13.8947C25.9999 18.2547 22.4652 21.7895 18.1052 21.7895Z" fill="#35D07F"/>
<path d="M18.366 21.7894C18.9134 21.126 19.3058 20.3488 19.5145 19.5145C20.3488 19.3059 21.126 18.9136 21.7894 18.3662C21.7591 19.3325 21.551 20.2849 21.1755 21.1757C20.2847 21.5512 19.3323 21.7592 18.366 21.7894ZM12.4854 12.4854C11.6511 12.694 10.8738 13.0863 10.2104 13.6336C10.2407 12.6673 10.4488 11.7149 10.8243 10.8241C11.7152 10.4487 12.6676 10.2406 13.6338 10.2104C13.0864 10.8738 12.6941 11.651 12.4854 12.4854Z" fill="#5EA33B"/>
</svg>
