<svg xmlns="http://www.w3.org/2000/svg" width="32" height="32" fill="none"><path fill="#FF931E" d="M0 0h32v32H0z"/><path fill="#fff" d="m19.127 5.244.76.252a1.074 1.074 0 0 1-.675 2.039l-.76-.253a1.074 1.074 0 0 1 .675-2.038Zm-.113 2.897-.76-.252a1.074 1.074 0 0 0-.675 2.039l.76.252a1.074 1.074 0 0 0 .675-2.039Zm-.398 2.946-1.8-.596a1.074 1.074 0 0 0-.676 2.038l1.8.597a1.074 1.074 0 0 0 .675-2.039Zm-.656 2.86-2.321-.767a1.074 1.074 0 0 0-.675 2.04l2.322.766a1.074 1.074 0 0 0 .675-2.039Zm-3.242 2.009 2.322.767a1.074 1.074 0 0 1 .531 1.65c-.36.105-.736.244-1.12.413a1.1 1.1 0 0 1-.086-.024l-1.906-.63c-.067-.713-.211-1.456-.484-2.151.229-.094.49-.11.743-.025Zm-.974-1.143-.535-.177a4.2 4.2 0 0 0-1.215-1.036 1.073 1.073 0 0 1 1.402-1.167l1.02.338c.037.014.075.027.112.044-.525-.109-.805.277-.979.802-.173.525-.18 1.002.31 1.227a.73.73 0 0 1-.115-.03Zm6.424 3.602a1.07 1.07 0 0 0-.704-.755l-.003-.003-1.02-.338a.741.741 0 0 0-.115-.03c.377.173.46.495.4.873.087-.005.172-.006.254-.004.588.015.575.018.533.026-.023.005-.054.01.005.022.254.048.468.12.65.209Zm-.973-4.069 1.02.338.003.003c.563.184.87.795.682 1.357-.184.563-.794.87-1.357.682l-1.02-.337c-.037-.014-.074-.028-.112-.045.525.11.805-.276.979-.8.174-.526.18-1.003-.31-1.228a.73.73 0 0 1 .115.03Zm1.712-2.512-1.02-.338a.72.72 0 0 0-.116-.03c.491.225.485.702.31 1.227-.173.525-.453.91-.978.801.038.017.075.03.113.044l1.02.338a1.073 1.073 0 0 0 1.356-.682 1.073 1.073 0 0 0-.682-1.357l-.003-.003Z"/><path fill="#fff" d="m21.176 8.847-1.02-.337a.729.729 0 0 0-.116-.031c.491.225.484.702.31 1.227-.173.525-.453.91-.978.801.038.017.075.031.113.045l1.019.337a1.072 1.072 0 0 0 1.357-.682 1.073 1.073 0 0 0-.682-1.357l-.003-.003Zm-5.7.379 1.02.337a.728.728 0 0 0 .115.03c-.49-.224-.484-.702-.31-1.227.174-.525.453-.91.978-.8-.037-.018-.075-.031-.112-.045l-1.02-.338a1.073 1.073 0 0 0-1.357.682c-.187.563.12 1.173.682 1.357l.004.004Zm-1.483 2.591 1.019.337a.731.731 0 0 0 .116.03c-.491-.224-.484-.701-.31-1.226.174-.526.453-.91.978-.802-.037-.017-.075-.03-.112-.044l-1.02-.338a1.072 1.072 0 0 0-1.357.682c-.187.563.12 1.173.682 1.357l.004.004Zm.535 7.203.88.29-.982.706.102-.995Z"/><path fill="#fff" fill-rule="evenodd" d="M10.859 25.485h.001c-.054.09-1.14 1.943 1.458 2.625 2.213.581 2.841-.548 2.904-1.572-.835-.066-1.728-.317-2.201-1.018.057.03.829.404 2.35.382.528-.148 2.126-.8 2.593-3.335.638-3.454 2.557-1.773 2.557-1.773s.546-1.494-1.163-1.777c-1.708-.283-5.161 1.855-5.836 3.028 0 0 1.21-7.726-3.754-8.438.232.02.924 2.727.385 4.08-.203.513-.476.93-.734 1.323-.904 1.381-1.627 2.485 1.44 6.475Zm2.162.035-.004-.001v-.004l.004.005Z" clip-rule="evenodd"/></svg>