<svg xmlns="http://www.w3.org/2000/svg" width="32" height="32" fill="none"><path fill="#171717" d="M0 0h32v32H0z"/><path fill="#38FF9C" fill-rule="evenodd" d="M16 28C9.383 28 4 22.615 4 16S9.383 4 16 4c6.616 0 12 5.383 12 12s-5.384 12-12 12Zm0-21.663c-5.328 0-9.663 4.335-9.663 9.663s4.335 9.663 9.663 9.663 9.662-4.335 9.662-9.663S21.327 6.337 16 6.337Zm2.19 8.606a1.168 1.168 0 0 1-.826-1.995l3.022-3.022a1.169 1.169 0 0 1 1.653 1.652l-3.022 3.023a1.166 1.166 0 0 1-.826.342Zm-8.23 7.039a1.166 1.166 0 0 0 1.652 0l3.023-3.022a1.168 1.168 0 1 0-1.653-1.653L9.96 20.33a1.169 1.169 0 0 0 0 1.653Zm5.778-10.19c-2.09.15-3.779 1.83-3.92 3.921a.467.467 0 0 1-.138.3l-1.697 1.7a.177.177 0 0 1-.297-.079 6.59 6.59 0 0 1-.223-1.652 6.56 6.56 0 0 1 8.256-6.33.15.15 0 0 1 .066.25l-1.755 1.755a.462.462 0 0 1-.292.135Zm6.32 2.393-1.756 1.754a.463.463 0 0 0-.136.293c-.15 2.089-1.83 3.778-3.92 3.92a.474.474 0 0 0-.3.137l-1.7 1.698a.178.178 0 0 0 .079.297 6.598 6.598 0 0 0 1.652.223 6.56 6.56 0 0 0 6.329-8.256.149.149 0 0 0-.248-.066Z" clip-rule="evenodd"/></svg>