<svg width="32" height="32" viewBox="0 0 32 32" fill="none" xmlns="http://www.w3.org/2000/svg">
<rect width="32" height="32" fill="#ED4E33"/>
<path d="M13.5577 9.45679C9.75554 10.9223 9.40724 14.6756 8.317 16.4284C7.21386 18.2021 4.68659 19.1807 5.03219 20.0846C5.37777 20.9884 7.90805 20.0177 9.90987 20.5944C11.888 21.1643 14.648 23.7197 18.4501 22.2541C20.387 21.5076 21.7896 19.971 22.4345 18.1509C22.5039 17.9555 22.3742 17.7466 22.1684 17.7273C22.0406 17.7152 21.9178 17.7824 21.8602 17.8976C21.2768 19.0643 20.2759 20.0252 18.9663 20.5299C16.8041 21.3633 14.4383 20.709 12.9854 19.0679C12.6554 18.6953 12.3732 18.2712 12.1504 17.8023C12.0892 17.6733 12.0309 17.5421 11.9793 17.4065C11.9273 17.2708 11.8832 17.1342 11.8426 16.9971C12.9854 16.4622 14.3041 15.8957 15.7992 15.3196C17.2649 14.7546 18.5991 14.2963 19.7868 13.9297C20.5903 13.6819 21.3269 13.4757 21.9919 13.3071C22.0401 13.2951 22.0874 13.283 22.1346 13.2712C22.2351 13.2462 22.3385 13.3002 22.3756 13.3973L22.3763 13.3991C22.3982 13.4567 22.4171 13.5145 22.4376 13.5724C22.569 13.946 22.6676 14.3234 22.7326 14.7018C22.7612 14.8673 22.9413 14.9575 23.0891 14.8779C23.635 14.5836 24.1343 14.2966 24.5804 14.0204C26.2431 12.9924 27.1648 12.1205 26.9756 11.6263C26.7868 11.1319 25.5208 11.1035 23.6001 11.4563C22.9897 11.5684 22.313 11.7192 21.5837 11.9058C21.4575 11.938 21.3298 11.9715 21.2008 12.0059C20.587 12.1693 19.9397 12.3565 19.2656 12.5661C18.0121 12.9559 16.6672 13.4229 15.2787 13.958C13.9799 14.4588 12.7488 14.978 11.6198 15.4953C11.606 13.2996 12.9281 11.2238 15.0902 10.3905C16.3996 9.88581 17.7839 9.92712 18.9951 10.4026C19.1146 10.4496 19.2506 10.417 19.338 10.3221C19.4778 10.1698 19.4349 9.92741 19.2532 9.82853C17.5611 8.90989 15.4947 8.7103 13.5577 9.45679Z" fill="#FAF1E4"/>
</svg>
