<svg xmlns="http://www.w3.org/2000/svg" width="32" height="32" fill="none" viewBox="0 0 32 32">
  <path fill="#1969FF" d="M0 0h32v32H0z"/>
  <path fill="#fff" d="M15.03 5.088c.539-.284 1.359-.284 1.898 0l5.5 2.9c.325.171.504.426.535.69h.006v14.575c-.007.288-.187.573-.54.759l-5.5 2.9c-.54.284-1.36.284-1.9 0l-5.5-2.9c-.351-.185-.52-.473-.528-.759V8.677h.002c.025-.266.195-.514.526-.689l5.5-2.9Zm7.064 11.693-5.168 2.733c-.538.285-1.357.285-1.895 0l-5.156-2.727v6.421l5.156 2.713c.304.163.621.322.93.329h.018c.308.001.606-.155.91-.304l5.205-2.761v-6.404ZM8.138 22.938c0 .558.065.925.192 1.184.106.215.265.379.555.578l.017.011c.064.044.134.09.22.142l.1.063.31.188-.444.74-.346-.211-.059-.036a7.776 7.776 0 0 1-.26-.169c-.827-.562-1.136-1.176-1.142-2.452v-.038h.857Zm7.425-10.032a.79.79 0 0 0-.112.048l-5.492 2.91a.701.701 0 0 0-.017.008l-.005.003.01.005.012.007 5.492 2.909a.79.79 0 0 0 .111.048v-5.938Zm.874 0v5.938a.786.786 0 0 0 .112-.048l5.492-2.91a.585.585 0 0 0 .017-.008l.005-.003-.01-.005-.012-.007-5.492-2.909a.786.786 0 0 0-.111-.048Zm5.657-3.187-4.938 2.594 4.938 2.593V9.72Zm-12.219 0v5.187l4.938-2.594L9.875 9.72Zm6.67-3.856c-.286-.15-.804-.15-1.09 0L9.96 8.77a.584.584 0 0 0-.017.01l-.005.002.01.005.012.007 5.497 2.906c.285.151.803.151 1.088 0l5.497-2.906a.54.54 0 0 0 .017-.009l.005-.003-.01-.005-.012-.007-5.497-2.906Zm6.367.293.346.211.059.036c.1.063.183.116.26.169.827.562 1.136 1.176 1.142 2.452v.039h-.857c0-.56-.065-.927-.192-1.185-.106-.215-.265-.379-.556-.578l-.016-.011a6.672 6.672 0 0 0-.22-.142l-.1-.063-.31-.188.444-.74Z"/>
</svg>
