<svg xmlns="http://www.w3.org/2000/svg" width="32" height="32" fill="none" viewBox="0 0 32 32">
  <path fill="#fff" d="M0 0h32v32H0z"/>
  <path fill="#E62058" d="m20.866 13.53-9.868-.008c-2.69 0-4.927 2.122-4.998 4.85a.131.131 0 0 0 .131.133L16 18.51c2.69.002 4.927-2.12 4.997-4.847a.131.131 0 0 0-.13-.133v-.001Zm5.003-7.473-14.87-.008C8.306 6.05 6.07 8.171 6 10.9a.131.131 0 0 0 .131.133l14.87.007c2.692 0 4.928-2.122 4.999-4.848a.13.13 0 0 0-.131-.133v-.001ZM8.501 25.95a2.498 2.498 0 0 0 2.502-2.494A2.498 2.498 0 0 0 8.5 20.961 2.498 2.498 0 0 0 6 23.456a2.498 2.498 0 0 0 2.501 2.495Z"/>
</svg>
