<svg xmlns="http://www.w3.org/2000/svg" width="32" height="32" fill="none" viewBox="0 0 32 32">
  <path fill="#000" d="M0 0h32v32H0z"/>
  <path fill="#fff" d="M12.299 14.333c1.445-1.448 3.822-1.424 5.297.054a.962.962 0 1 1-1.36 1.362c-.726-.726-1.882-.75-2.578-.054l-2.693 2.699c-.695.696-.671 1.854.054 2.58.725.726 1.88.75 2.576.054l1.281-1.283h-.001a.962.962 0 1 1 1.36 1.361l-1.28 1.283a3.62 3.62 0 0 1-1.8.984V26h-1.923v-2.712a3.839 3.839 0 0 1-2.525-2.53H6v-1.925h2.623c.145-.663.472-1.29.982-1.802l2.694-2.698ZM20.766 6v2.709a3.818 3.818 0 0 1 1.574.955c.456.458.773 1.001.951 1.576h2.707l.002.001v1.926h-2.623a3.644 3.644 0 0 1-.982 1.802L19.7 17.667a3.656 3.656 0 0 1-2.6 1.07 3.808 3.808 0 0 1-2.698-1.124.962.962 0 1 1 1.36-1.362c.725.726 1.882.75 2.578.054l2.693-2.699c.696-.696.671-1.854-.053-2.58a1.882 1.882 0 0 0-1.313-.561 1.744 1.744 0 0 0-1.265.507l-1.28 1.283a.962.962 0 1 1-1.36-1.362l1.28-1.284a3.638 3.638 0 0 1 1.8-.985V6h1.923Z"/>
</svg>
