<svg width="86" height="86" fill="none" xmlns="http://www.w3.org/2000/svg">
<g clip-path="url(#a)">
<path fill="#B4F9BA" d="M.73.306h84.752v84.751H.73z"/>
<path d="m34.564 21.658 8.191-4.73a.758.758 0 0 1 .756 0l21.59 12.464a.76.76 0 0 1 .378.653l.03 8.573a.755.755 0 0 1-.38.657L56.95 44a.757.757 0 0 1-1.135-.653l-.027-7.693a.756.756 0 0 0-.379-.653L34.564 22.968a.756.756 0 0 1 0-1.31ZM29.272 60.49l-8.19-4.729a.752.752 0 0 1-.378-.655V30.177a.76.76 0 0 1 .377-.655l7.41-4.313a.752.752 0 0 1 .759 0l8.18 4.724a.758.758 0 0 1 .002 1.31l-6.648 3.869a.754.754 0 0 0-.377.655v24.07c0 .583-.63.946-1.135.654v-.002ZM65.508 45.647v9.457c0 .271-.143.52-.379.655l-21.59 12.464a.754.754 0 0 1-.753 0l-7.44-4.261a.758.758 0 0 1-.381-.658V53.86a.758.758 0 0 1 1.132-.657l6.676 3.824a.76.76 0 0 0 .753 0L64.371 44.99a.756.756 0 0 1 1.135.655l.002.002Z" fill="#010101"/>
</g>
<defs>
<clipPath id="a">
<path fill="#fff" transform="translate(.518 .094)" d="M0 0h84.963v84.963H0z"/>
</clipPath>
</defs>
</svg>
