<svg width="32" height="32" viewBox="0 0 32 32" fill="none" xmlns="http://www.w3.org/2000/svg">
<rect width="32" height="32" fill="#071927"/>
<path fill-rule="evenodd" clip-rule="evenodd" d="M15.94 21.6958C15.309 21.6958 14.7228 21.5707 14.2443 21.3338L9.09156 18.7832L7.54754 19.6616C6.81362 20.0791 6.82644 20.7189 7.57613 21.09L14.7028 24.6178C15.049 24.7891 15.4915 24.8733 15.94 24.8733C16.4636 24.8733 16.9948 24.7587 17.3903 24.5338L24.3671 20.5645C25.101 20.1469 25.0881 19.5069 24.3384 19.1361L22.8569 18.4023L17.8999 21.2226C17.3634 21.5277 16.6674 21.6958 15.94 21.6958Z" fill="url(#paint0_linear_1187_29539)"/>
<path fill-rule="evenodd" clip-rule="evenodd" d="M24.3839 14.9125L23.1467 14.291L20.2658 15.954L19.7711 16.2395L19.2768 16.5249L17.9282 17.3035C17.3904 17.6142 16.6923 17.785 15.9631 17.785C15.3306 17.785 14.7428 17.6577 14.263 17.417L12.7179 16.6407L12.2065 16.3841L11.6951 16.1273L8.84804 14.697L7.5486 15.4472C6.81274 15.872 6.82535 16.5227 7.57703 16.9004L9.06284 17.6465L9.57425 17.9033L10.0854 18.1603L14.7228 20.4894C15.0696 20.6635 15.5135 20.7491 15.9631 20.7491C16.4879 20.7491 17.0209 20.6326 17.417 20.4038L21.8755 17.8301L22.3701 17.5447L22.8645 17.2594L24.4126 16.3656C25.1484 15.941 25.1355 15.2901 24.3839 14.9125Z" fill="url(#paint1_linear_1187_29539)"/>
<path fill-rule="evenodd" clip-rule="evenodd" d="M24.3839 11.1053L17.238 7.57888C16.8913 7.40753 16.4476 7.32349 15.9977 7.32349C15.473 7.32349 14.9401 7.43818 14.5438 7.66294L7.5486 11.6309C6.81274 12.0481 6.82535 12.6876 7.57703 13.0586L8.81418 13.6692L9.32559 13.9216L9.83701 14.174L12.684 15.5792L13.1955 15.8313L13.7069 16.0838L14.7228 16.5855C15.0696 16.7565 15.5135 16.8405 15.9631 16.8405C16.4879 16.8405 17.0209 16.7259 17.417 16.5011L18.2541 16.0264L18.7486 15.7459L19.2431 15.4654L22.1239 13.8313L22.6185 13.5508L23.1128 13.2703L24.4126 12.5332C25.1484 12.1159 25.1355 11.4763 24.3839 11.1053Z" fill="url(#paint2_linear_1187_29539)"/>
<defs>
<linearGradient id="paint0_linear_1187_29539" x1="15.9573" y1="7.88754" x2="15.9573" y2="24.8733" gradientUnits="userSpaceOnUse">
<stop stop-color="#B3F9BA"/>
<stop offset="1" stop-color="#F6FB8C"/>
</linearGradient>
<linearGradient id="paint1_linear_1187_29539" x1="15.9805" y1="7.90071" x2="15.9805" y2="24.4826" gradientUnits="userSpaceOnUse">
<stop stop-color="#B1FFBF"/>
<stop offset="1" stop-color="#FFF16D"/>
</linearGradient>
<linearGradient id="paint2_linear_1187_29539" x1="15.9805" y1="7.32349" x2="15.9805" y2="24.5307" gradientUnits="userSpaceOnUse">
<stop stop-color="#B3F9BA"/>
<stop offset="1" stop-color="#F6FB8C"/>
</linearGradient>
</defs>
</svg>
