<svg xmlns="http://www.w3.org/2000/svg" width="32" height="32" fill="none" viewBox="0 0 32 32">
  <path fill="#000" d="M0 0h32v32H0z"/>
  <path fill="#B4F9BA" d="m12.562 8.017 3.287-1.898a.304.304 0 0 1 .303 0l8.663 5.001a.305.305 0 0 1 .152.262l.012 3.44c0 .11-.058.21-.152.264l-3.283 1.896a.304.304 0 0 1-.455-.262l-.01-3.087a.303.303 0 0 0-.153-.262l-8.364-4.828a.303.303 0 0 1 0-.526Zm-2.124 15.582L7.152 21.7A.302.302 0 0 1 7 21.44V11.435c0-.108.058-.208.151-.263l2.974-1.73a.301.301 0 0 1 .304 0l3.283 1.895a.304.304 0 0 1 0 .526l-2.667 1.552a.303.303 0 0 0-.151.263v9.659a.303.303 0 0 1-.456.262Zm14.541-2.161v-3.795a.303.303 0 0 0-.456-.263l-8.365 4.83a.304.304 0 0 1-.302 0l-2.679-1.535a.304.304 0 0 0-.454.264v3.79a.3.3 0 0 0 .153.263l2.985 1.71a.302.302 0 0 0 .303 0l8.663-5.001a.302.302 0 0 0 .152-.263Z"/>
</svg>
