<svg width="32" height="32" viewBox="0 0 32 32" fill="none" xmlns="http://www.w3.org/2000/svg">
<rect width="32" height="32" fill="#04795B"/>
<path fill-rule="evenodd" clip-rule="evenodd" d="M16.0072 6C18.8555 6 21.4282 7.19404 23.2429 9.09987C23.4955 9.35245 23.7329 9.63565 23.932 9.91123L15.9995 17.8484L8.06706 9.91886C8.2891 9.63565 8.52647 9.36013 8.77146 9.09987C10.5938 7.19404 13.1588 6 16.0072 6ZM22.1556 9.84997C20.5247 8.20435 18.3502 7.3012 16.0072 7.3012C13.6642 7.3012 11.4973 8.20435 9.85875 9.84997L16.0072 15.9961L22.1556 9.84997ZM24.5678 10.822L22.9522 12.437C23.4882 13.0799 23.8097 13.8913 23.8097 14.7944C23.8097 16.8227 22.1635 18.4683 20.1345 18.4683C19.2386 18.4683 18.4193 18.1469 17.7761 17.6111L16.0074 19.3792L14.2387 17.6111C13.5956 18.1469 12.7839 18.4683 11.8804 18.4683C9.85133 18.4683 8.20516 16.8227 8.20516 14.7944C8.20516 13.8989 8.52673 13.0799 9.06272 12.437L8.23574 11.6103L7.44712 10.822C6.5283 12.3375 6 14.1056 6 16.0038C6 21.5299 10.4792 25.9999 15.9998 25.9999C21.5204 25.9999 25.9996 21.5223 25.9996 16.0038C26.0149 14.0979 25.4866 12.3298 24.5678 10.822ZM22.1866 13.1871C22.5311 13.631 22.7302 14.1821 22.7302 14.7791C22.7302 16.2181 21.5664 17.3815 20.1345 17.3738C19.5296 17.3738 18.9783 17.1748 18.5419 16.8304L22.1866 13.1871ZM13.481 16.8382C13.0369 17.1826 12.4856 17.3816 11.8884 17.3816C10.4489 17.3816 9.285 16.2182 9.29268 14.7869C9.29268 14.1822 9.49173 13.6311 9.8363 13.1948L13.481 16.8382Z" fill="white"/>
</svg>
