<svg xmlns="http://www.w3.org/2000/svg" width="32" height="32" fill="none" viewBox="0 0 32 32">
  <path fill="url(#a)" d="M0 0h32v32H0z"/>
  <path fill="#fff" d="M26.924 9.688a.562.562 0 0 0-.78-.2l-14.478 8.837A4.93 4.93 0 0 1 11.088 16c0-2.729 2.204-4.941 4.923-4.941a4.89 4.89 0 0 1 3.083 1.09l-3.08 2.123 8.004-4.64a.362.362 0 1 0-.384-.61l-1.96 1.35A7.928 7.928 0 0 0 16.01 8c-4.402 0-7.97 3.582-7.97 8 0 1.423.37 2.758 1.019 3.916L5 22.393l4.168-2.29A7.96 7.96 0 0 0 16.01 24c4.402 0 7.97-3.582 7.97-8v-.955c0-.749.302-1.706 1.374-2.283a.186.186 0 0 0 .073-.256.184.184 0 0 0-.251-.067l-9.505 5.508c1.061-.453 1.872-.728 2.947-.945 2.24-.451 2.297.62 1.432 1.829-.58.81-1.887 2.11-4.04 2.11a4.914 4.914 0 0 1-4.166-2.31l14.862-8.166a.566.566 0 0 0 .217-.777Z"/>
  <defs>
    <linearGradient id="a" x1="24.5" x2="6.5" y1="2.5" y2="28.5" gradientUnits="userSpaceOnUse">
      <stop offset=".396" stop-color="#010101"/>
      <stop offset="1" stop-color="#B35B2B"/>
    </linearGradient>
  </defs>
</svg>
