<svg width="32" height="32" viewBox="0 0 32 32" fill="none" xmlns="http://www.w3.org/2000/svg">
<rect width="32" height="32" fill="url(#paint0_linear_1187_29483)"/>
<path d="M20.5786 8C18.6722 8 17.1221 9.55005 17.1221 11.4564V15.287C16.7658 15.3048 16.4095 15.3227 16.0175 15.3227C15.6434 15.3227 15.2692 15.3405 14.9129 15.3583V11.4386C14.8772 9.53224 13.3094 8 11.403 8.03563C9.53223 8.07127 8.03563 9.56787 8 11.4386V20.5786C8.03563 22.485 9.6035 24.0172 11.5099 23.9815C13.3806 23.9459 14.8772 22.4493 14.9129 20.5786V16.7658C15.2692 16.748 15.6255 16.7302 16.0175 16.7302C16.3917 16.7302 16.7658 16.7123 17.1221 16.6946V20.5964C17.1578 22.5028 18.7256 24.035 20.6321 23.9994C22.5028 23.9638 23.9994 22.4672 24.035 20.5964V11.4386C24.035 9.53224 22.485 8 20.5786 8ZM11.4564 9.40752C12.5789 9.40752 13.4875 10.3162 13.5054 11.4386V15.5008C12.4898 15.6434 11.5099 15.9284 10.5656 16.3382C10.1558 16.5164 9.78167 16.748 9.42534 17.0152V11.4386C9.42534 10.3162 10.334 9.40752 11.4564 9.40752ZM13.5054 20.5786C13.5054 21.701 12.5967 22.6275 11.4564 22.6275C10.334 22.6275 9.40752 21.7188 9.40752 20.5786V19.6699C9.40752 18.8682 10.0489 18.0842 11.1179 17.621C11.884 17.3003 12.668 17.0687 13.4875 16.9262V20.5786H13.5054ZM20.5786 22.6275C19.4561 22.6275 18.5475 21.7188 18.5297 20.5964V16.5342C19.5452 16.3917 20.5252 16.1066 21.4695 15.6968C21.8792 15.5186 22.2534 15.287 22.6097 15.0198V20.5786C22.6097 21.701 21.701 22.6275 20.5786 22.6275ZM20.8993 14.414C20.1332 14.7347 19.3492 14.9663 18.5297 15.1089V11.4386C18.5297 10.3162 19.4383 9.3897 20.5786 9.3897C21.701 9.3897 22.6275 10.2984 22.6275 11.4386V12.3473C22.6275 13.1668 21.9861 13.933 20.8993 14.414Z" fill="white"/>
<defs>
<linearGradient id="paint0_linear_1187_29483" x1="2.07794" y1="29.9964" x2="30.0528" y2="2.08264" gradientUnits="userSpaceOnUse">
<stop stop-color="#00ADE8"/>
<stop offset="1" stop-color="#69FABC"/>
</linearGradient>
</defs>
</svg>
