<svg width="215" height="215" viewBox="0 0 215 215" fill="none" xmlns="http://www.w3.org/2000/svg">
<path d="M107.62 0.200012C48.36 0.200012 0.320007 48.24 0.320007 107.5C0.320007 166.76 48.36 214.8 107.62 214.8C166.88 214.8 214.92 166.76 214.92 107.5C214.92 48.24 166.88 0.200012 107.62 0.200012ZM102.97 43.56C105.95 42.1 109.09 42.2 111.98 43.84C122 49.55 131.99 55.31 141.93 61.13C145.13 63.01 146.77 66.02 146.78 69.72C146.84 82.69 146.82 95.65 146.78 108.62C146.78 109.1 146.47 109.8 146.08 110.03C142.23 112.33 138.33 114.54 134.1 116.98C134.1 116.13 134.1 115.54 134.1 114.94C134.1 101.6 134.06 88.27 134.13 74.93C134.14 72.37 133.26 70.72 130.99 69.43C119.36 62.82 107.79 56.09 96.2 49.4C95.7 49.11 95.21 48.8 94.45 48.34C97.45 46.65 100.13 44.95 102.97 43.56ZM100.84 176.25C100.19 175.92 99.71 175.69 99.24 175.42C83.89 166.57 68.56 157.66 53.16 148.88C48.84 146.42 46.87 142.91 46.92 137.98C47.01 127.5 46.98 117.02 46.93 106.53C46.91 101.8 48.83 98.37 52.99 96.01C63.8 89.86 74.55 83.62 85.3 77.37C86.23 76.83 86.91 76.74 87.88 77.32C91.59 79.55 95.37 81.68 99.32 83.96C98.57 84.41 98 84.75 97.42 85.09C85.78 91.81 74.16 98.55 62.49 105.23C60.58 106.32 59.69 107.74 59.71 109.96C59.77 118.22 59.78 126.48 59.71 134.74C59.69 137.02 60.6 138.47 62.56 139.59C74.87 146.63 87.13 153.75 99.43 160.81C100.47 161.41 100.91 162.03 100.89 163.27C100.78 167.49 100.84 171.72 100.84 176.25ZM100.84 152.59C99.77 151.98 99 151.55 98.23 151.1C88.47 145.47 78.72 139.82 68.94 134.23C67.88 133.63 67.49 132.98 67.5 131.75C67.57 125.4 67.54 119.05 67.52 112.7C67.52 111.84 67.65 111.25 68.5 110.77C72.1 108.76 75.66 106.66 79.23 104.61C79.49 104.46 79.77 104.35 80.24 104.12C80.24 106.63 80.24 108.94 80.24 111.25C80.24 115.11 80.3 118.98 80.22 122.84C80.17 125.04 81.02 126.53 82.94 127.61C88.47 130.73 93.93 133.97 99.46 137.08C100.55 137.69 100.88 138.37 100.86 139.57C100.79 143.8 100.84 148.03 100.84 152.59ZM89.57 69.24C87.5 68.02 85.73 68.03 83.66 69.24C72.06 76.02 60.41 82.71 48.77 89.43C48.28 89.71 47.77 89.98 46.9 90.45C47.21 86.03 46.26 81.86 47.77 77.82C48.59 75.61 50.13 73.95 52.17 72.77C61.88 67.16 71.58 61.54 81.31 55.96C84.86 53.92 88.48 53.97 92.03 56.02C103.08 62.38 114.12 68.76 125.14 75.16C125.61 75.43 126.2 76.04 126.2 76.5C126.28 81.04 126.25 85.59 126.25 90.46C122.24 88.15 118.54 86.01 114.84 83.87C106.41 79 97.96 74.17 89.57 69.24ZM167.22 140.63C166.93 144.2 164.84 146.73 161.75 148.51C149.92 155.31 138.1 162.15 126.28 168.97C122.57 171.11 118.86 173.25 115.14 175.39C114.69 175.65 114.23 175.87 113.62 176.19C113.58 175.57 113.53 175.12 113.53 174.67C113.52 170.75 113.55 166.84 113.51 162.92C113.5 162.03 113.72 161.49 114.54 161.02C131.78 151.1 149.01 141.15 166.23 131.21C166.49 131.06 166.78 130.94 167.27 130.71C167.27 134.19 167.48 137.43 167.22 140.63ZM167.31 115.95C167.28 120.01 165.09 122.86 161.62 124.86C148.14 132.61 134.67 140.4 121.2 148.18C118.74 149.6 116.27 151.01 113.63 152.53C113.59 151.86 113.54 151.42 113.54 150.97C113.53 147.11 113.58 143.24 113.51 139.38C113.49 138.28 113.86 137.7 114.81 137.15C127.06 130.12 139.27 123.01 151.54 116.02C153.72 114.78 154.68 113.25 154.66 110.69C154.57 97.35 154.62 84.01 154.62 70.67C154.62 70.04 154.62 69.4 154.62 68.34C157.82 70.27 160.82 71.86 163.56 73.8C166.06 75.57 167.32 78.25 167.33 81.34C167.36 92.87 167.39 104.41 167.31 115.95Z" fill="black"/>
</svg>
