<svg width="215" height="215" viewBox="0 0 215 215" fill="none" xmlns="http://www.w3.org/2000/svg">
<circle cx="107" cy="108" r="107" fill="white"/>
<path d="M107.62 0.200195C48.3601 0.200195 0.320068 48.2402 0.320068 107.5C0.320068 166.76 48.3601 214.8 107.62 214.8C166.88 214.8 214.92 166.76 214.92 107.5C214.92 48.2402 166.88 0.200195 107.62 0.200195ZM102.97 43.5602C105.95 42.1002 109.09 42.2002 111.98 43.8402C122 49.5502 131.99 55.3102 141.93 61.1302C145.13 63.0102 146.77 66.0202 146.78 69.7202C146.84 82.6902 146.82 95.6502 146.78 108.62C146.78 109.1 146.47 109.8 146.08 110.03C142.23 112.33 138.33 114.54 134.1 116.98C134.1 116.13 134.1 115.54 134.1 114.94C134.1 101.6 134.06 88.2702 134.13 74.9302C134.14 72.3702 133.26 70.7202 130.99 69.4302C119.36 62.8202 107.79 56.0902 96.2001 49.4002C95.7001 49.1102 95.2101 48.8002 94.4501 48.3402C97.4501 46.6502 100.13 44.9502 102.97 43.5602ZM100.84 176.25C100.19 175.92 99.7101 175.69 99.2401 175.42C83.8901 166.57 68.5601 157.66 53.1601 148.88C48.8401 146.42 46.8701 142.91 46.9201 137.98C47.0101 127.5 46.9801 117.02 46.9301 106.53C46.9101 101.8 48.8301 98.3702 52.9901 96.0102C63.8001 89.8602 74.5501 83.6202 85.3001 77.3702C86.2301 76.8302 86.9101 76.7402 87.8801 77.3202C91.5901 79.5502 95.3701 81.6802 99.3201 83.9602C98.5701 84.4102 98.0001 84.7502 97.4201 85.0902C85.7801 91.8102 74.1601 98.5502 62.4901 105.23C60.5801 106.32 59.6901 107.74 59.7101 109.96C59.7701 118.22 59.7801 126.48 59.7101 134.74C59.6901 137.02 60.6001 138.47 62.5601 139.59C74.8701 146.63 87.1301 153.75 99.4301 160.81C100.47 161.41 100.91 162.03 100.89 163.27C100.78 167.49 100.84 171.72 100.84 176.25ZM100.84 152.59C99.7701 151.98 99.0001 151.55 98.2301 151.1C88.4701 145.47 78.7201 139.82 68.9401 134.23C67.8801 133.63 67.4901 132.98 67.5001 131.75C67.5701 125.4 67.5401 119.05 67.5201 112.7C67.5201 111.84 67.6501 111.25 68.5001 110.77C72.1001 108.76 75.6601 106.66 79.2301 104.61C79.4901 104.46 79.7701 104.35 80.2401 104.12C80.2401 106.63 80.2401 108.94 80.2401 111.25C80.2401 115.11 80.3001 118.98 80.2201 122.84C80.1701 125.04 81.0201 126.53 82.9401 127.61C88.4701 130.73 93.9301 133.97 99.4601 137.08C100.55 137.69 100.88 138.37 100.86 139.57C100.79 143.8 100.84 148.03 100.84 152.59ZM89.5701 69.2402C87.5001 68.0202 85.7301 68.0302 83.6601 69.2402C72.0601 76.0202 60.4101 82.7102 48.7701 89.4302C48.2801 89.7102 47.7701 89.9802 46.9001 90.4502C47.2101 86.0302 46.2601 81.8602 47.7701 77.8202C48.5901 75.6102 50.1301 73.9502 52.1701 72.7702C61.8801 67.1602 71.5801 61.5402 81.3101 55.9602C84.8601 53.9202 88.4801 53.9702 92.0301 56.0202C103.08 62.3802 114.12 68.7602 125.14 75.1602C125.61 75.4302 126.2 76.0402 126.2 76.5002C126.28 81.0402 126.25 85.5902 126.25 90.4602C122.24 88.1502 118.54 86.0102 114.84 83.8702C106.41 79.0002 97.9601 74.1702 89.5701 69.2402ZM167.22 140.63C166.93 144.2 164.84 146.73 161.75 148.51C149.92 155.31 138.1 162.15 126.28 168.97C122.57 171.11 118.86 173.25 115.14 175.39C114.69 175.65 114.23 175.87 113.62 176.19C113.58 175.57 113.53 175.12 113.53 174.67C113.52 170.75 113.55 166.84 113.51 162.92C113.5 162.03 113.72 161.49 114.54 161.02C131.78 151.1 149.01 141.15 166.23 131.21C166.49 131.06 166.78 130.94 167.27 130.71C167.27 134.19 167.48 137.43 167.22 140.63ZM167.31 115.95C167.28 120.01 165.09 122.86 161.62 124.86C148.14 132.61 134.67 140.4 121.2 148.18C118.74 149.6 116.27 151.01 113.63 152.53C113.59 151.86 113.54 151.42 113.54 150.97C113.53 147.11 113.58 143.24 113.51 139.38C113.49 138.28 113.86 137.7 114.81 137.15C127.06 130.12 139.27 123.01 151.54 116.02C153.72 114.78 154.68 113.25 154.66 110.69C154.57 97.3502 154.62 84.0102 154.62 70.6702C154.62 70.0402 154.62 69.4002 154.62 68.3402C157.82 70.2702 160.82 71.8602 163.56 73.8002C166.06 75.5702 167.32 78.2502 167.33 81.3402C167.36 92.8702 167.39 104.41 167.31 115.95Z" fill="black"/>
</svg>
