<svg xmlns="http://www.w3.org/2000/svg" width="32" height="32" fill="none" viewBox="0 0 32 32">
  <path fill="#000" d="M0 0h32v32H0z"/>
  <path fill="#fff" d="M15.306 6.466a1.389 1.389 0 0 1 1.344.041 438.76 438.76 0 0 1 4.466 2.579c.477.28.722.729.723 1.28.01 1.934.006 3.867 0 5.801 0 .072-.046.176-.104.21-.574.343-1.156.673-1.787 1.037v-.305c0-1.989-.006-3.977.005-5.966.001-.381-.13-.627-.468-.82-1.735-.985-3.46-1.989-5.188-2.987-.075-.043-.148-.089-.26-.158.446-.252.846-.505 1.27-.712Zm-.317 19.786c-.097-.05-.169-.084-.239-.124-2.289-1.32-4.575-2.648-6.87-3.958-.645-.366-.939-.89-.931-1.625.013-1.563.009-3.125.001-4.69-.003-.705.283-1.216.904-1.568a593.755 593.755 0 0 0 4.818-2.78c.138-.08.24-.094.384-.007.554.332 1.117.65 1.706.99l-.283.168c-1.736 1.002-3.468 2.007-5.209 3.004-.284.162-.417.374-.414.705.009 1.232.01 2.463 0 3.695-.003.34.133.556.425.723 1.835 1.05 3.663 2.112 5.498 3.164.155.09.22.182.217.367-.016.63-.007 1.26-.007 1.936Zm0-3.528c-.16-.091-.275-.155-.39-.223-1.455-.84-2.909-1.682-4.367-2.515-.158-.09-.216-.187-.215-.37.01-.947.006-1.894.003-2.84 0-.129.02-.217.146-.288.537-.3 1.068-.613 1.6-.919.04-.022.081-.039.151-.073v1.063c0 .576.01 1.153-.003 1.728-.007.329.12.55.406.712.824.465 1.639.948 2.463 1.412.163.09.212.192.209.371-.01.63-.003 1.262-.003 1.942Zm-1.68-12.43c-.31-.181-.573-.18-.882 0-1.73 1.012-3.467 2.01-5.202 3.011-.074.042-.15.082-.28.153.047-.66-.095-1.281.13-1.884a1.44 1.44 0 0 1 .656-.753c1.448-.836 2.895-1.674 4.346-2.506.53-.305 1.069-.297 1.598.009 1.648.948 3.294 1.9 4.937 2.854.07.04.159.13.159.2.011.676.007 1.355.007 2.081-.598-.344-1.15-.663-1.701-.983-1.258-.726-2.518-1.446-3.769-2.181ZM24.886 20.94c-.043.532-.355.91-.816 1.175-1.764 1.014-3.526 2.034-5.289 3.051-.553.32-1.106.638-1.66.957-.068.04-.136.072-.227.12-.006-.093-.014-.16-.014-.227-.001-.584.003-1.167-.003-1.752-.001-.133.032-.213.154-.283 2.57-1.48 5.14-2.963 7.707-4.446.04-.022.082-.04.156-.074 0 .519.03 1.002-.008 1.48Zm.014-3.68c-.005.605-.331 1.03-.849 1.329-2.01 1.155-4.018 2.317-6.027 3.477l-1.129.649c-.006-.1-.013-.166-.013-.233-.002-.576.006-1.153-.005-1.728-.003-.164.052-.25.194-.333 1.827-1.048 3.647-2.108 5.477-3.15.325-.185.468-.414.465-.795-.013-1.99-.006-3.979-.006-5.968v-.347c.477.287.925.525 1.333.814.373.264.561.663.563 1.124.004 1.72.009 3.44-.003 5.161Z"/>
</svg>
