<svg xmlns="http://www.w3.org/2000/svg" width="32" height="32" fill="none" viewBox="0 0 32 32">
  <path fill="#7132F5" d="M0 0h32v32H0z"/>
  <path fill="#fff" d="M28 16c0-6.627-5.373-12-12-12S4 9.373 4 16s5.373 12 12 12 12-5.373 12-12Zm-10.287 8.981c0 .814-.668 1.476-1.617 1.495h-.113C10.205 26.466 5.523 21.78 5.523 16c0-5.786 4.691-10.476 10.477-10.476h.093c1.07.02 1.62.681 1.62 1.495 0 .829-.733 1.438-1.509 1.438-.776 0-.814 0-1.556.06-.743.06-1.511.669-1.511 1.495 0 .83.675 1.5 1.51 1.5h6.588c.833 0 1.508.67 1.508 1.495 0 .826-.675 1.495-1.508 1.495H11.089c-.836 0-1.51.672-1.51 1.5 0 .826.674 1.496 1.51 1.496h5.115c.834 0 1.509.669 1.509 1.497 0 .826-.675 1.495-1.509 1.495h-1.556c-.836 0-1.511.67-1.511 1.496 0 .828.692 1.433 1.51 1.495l.179.013c.288.022.445.034.603.041.19.008.38.008.8.008.833 0 1.484.612 1.484 1.438Z"/>
</svg>
