<svg xmlns="http://www.w3.org/2000/svg" width="32" height="32" fill="none" viewBox="0 0 32 32">
  <path fill="#326CFF" d="M0 0h32v32H0z"/>
  <path fill="#fff" d="M15.298 17.84a.165.165 0 0 1-.156-.11l-1.378-3.888a.111.111 0 0 1 .105-.147h.607a.11.11 0 0 1 .105.077l1.28 3.653 1.265-3.653a.111.111 0 0 1 .107-.077h.613c.076 0 .13.075.105.147l-1.378 3.887a.166.166 0 0 1-.156.11h-1.119Zm9.53-.146-1.71-3.808a.136.136 0 0 1 .124-.19h.599c.054 0 .104.032.124.082l1.285 2.946 1.193-2.944a.136.136 0 0 1 .126-.085h.62c.097 0 .163.1.125.19l-2.335 5.513a.136.136 0 0 1-.125.084h-.595a.136.136 0 0 1-.125-.19l.694-1.598Zm-2.581-3.968h-.452c-.115 0-.19.063-.19.184v.336a1.797 1.797 0 0 0-1.312-.54 2.071 2.071 0 0 0-2.096 2.08c0 1.123.899 2.084 2.096 2.084.52.01.972-.21 1.313-.525v.326c0 .12.074.189.19.189h.45c.122 0 .19-.069.19-.19v-3.76c0-.121-.068-.184-.19-.184Zm-1.954 3.42c-.72 0-1.33-.61-1.33-1.361 0-.752.61-1.366 1.33-1.366.777 0 1.392.62 1.392 1.366 0 .746-.614 1.36-1.392 1.36Zm-13.655.77c1.272 0 1.947-.911 1.947-2.073v-3.158a.167.167 0 0 0-.167-.167h-2.93a.128.128 0 0 0-.129.128v.53c0 .07.058.127.128.127h2.257v2.387c0 .765-.244 1.426-1.106 1.426-.538 0-.977-.304-1.107-.834a.129.129 0 0 0-.124-.099h-.602a.128.128 0 0 0-.128.145c.13.956.96 1.587 1.96 1.587Z"/>
  <path fill="url(#a)" d="M10.236 17.427a.411.411 0 0 1-.292-.12c-.842-.843-.855-2.2-.029-3.027.824-.823 2.178-.808 3.02.035a.413.413 0 0 1-.584.584c-.52-.52-1.35-.536-1.852-.035-.5.501-.491 1.338.029 1.858a.413.413 0 0 1-.292.705Z"/>
  <path fill="url(#b)" d="M11.393 17.891a2.04 2.04 0 0 1-1.45-.585.413.413 0 0 1 .584-.584c.47.469 1.308.453 1.795-.035.493-.492.506-1.311.029-1.789a.413.413 0 0 1 .584-.584c.794.794.78 2.148-.029 2.957a2.14 2.14 0 0 1-1.514.62Z"/>
  <defs>
    <linearGradient id="a" x1="11.874" x2="9.7" y1="13.674" y2="17.737" gradientUnits="userSpaceOnUse">
      <stop stop-color="#fff"/>
      <stop offset=".22" stop-color="#fff"/>
      <stop offset="1" stop-color="#fff" stop-opacity="0"/>
    </linearGradient>
    <linearGradient id="b" x1="10.878" x2="13.479" y1="17.863" y2="13.891" gradientUnits="userSpaceOnUse">
      <stop stop-color="#fff"/>
      <stop offset=".22" stop-color="#fff"/>
      <stop offset="1" stop-color="#fff" stop-opacity="0"/>
    </linearGradient>
  </defs>
</svg>
