<svg xmlns="http://www.w3.org/2000/svg" width="32" height="32" fill="none" viewBox="0 0 32 32">
  <path fill="#BFF009" d="M0 0h32v32H0z"/>
  <path fill="#040404" d="M16.156 11.468c0-.717.568-1.301 1.264-1.301h2.262V7H17.42c-2.396 0-4.34 2-4.34 4.468 0 .644.134 1.256.372 1.809-1.861.81-3.097 2.531-3.385 4.71-.336 2.39.595 4.97 2.621 6.216 1.809 1.173 4.636 1.096 6.164-.531v1.08H22V12.77h-4.579c-.696 0-1.265-.584-1.265-1.302Zm2.766 4.47v3.008c0 1.661-1.308 3.007-2.92 3.007-1.613 0-2.921-1.347-2.921-3.007 0-1.66 1.308-3.008 2.92-3.008h2.921Z"/>
</svg>
