<svg xmlns="http://www.w3.org/2000/svg" width="32" height="32" fill="none" viewBox="0 0 32 32">
  <path fill="#fff" d="M0 0h32v32H0z"/>
  <path fill="#1A1A1A" fill-rule="evenodd" d="M20.145 12.717c.902-.75 1.908-1.034 2.873-.962 1.03.077 1.982.557 2.693 1.254.711.698 1.2 1.631 1.278 2.638.079 1.016-.263 2.08-1.164 3.015-.082.086-.167.17-.253.254-4.087 4.008-9.516 4.019-9.572 4.019-.028 0-5.475 0-9.573-4.02a16.29 16.29 0 0 1-.25-.252h-.001c-.902-.934-1.244-1.998-1.165-3.014.078-1.007.566-1.94 1.277-2.638s1.664-1.178 2.693-1.255c.965-.073 1.971.212 2.873.96.097-1.154.603-2.053 1.337-2.67.782-.66 1.802-.98 2.809-.98 1.007 0 2.026.32 2.809.98.734.617 1.24 1.516 1.336 2.67Zm-3.958 9.812v-.006.006Zm-.374 0v-.006.006Zm3.257-5.566c-.111 0-.15.159-.079.242.127.15.203.34.203.549a.866.866 0 0 1-.874.857.866.866 0 0 1-.874-.857c0-.026-.034-.038-.049-.018-.138.186-.23.395-.269.613-.022.123-.124.226-.252.226h-.07c-.168 0-.306-.134-.282-.295.17-1.106 1.28-1.908 2.546-1.908 1.266 0 2.377.802 2.547 1.908.025.161-.114.295-.281.295-.167 0-.3-.134-.337-.293-.165-.725-.933-1.319-1.928-1.319Zm-7.76.79c0-.033-.043-.05-.064-.024a1.461 1.461 0 0 0-.29.627c-.025.133-.136.243-.274.243h-.052c-.168 0-.306-.133-.281-.294.17-1.106 1.28-1.908 2.546-1.908 1.266 0 2.377.802 2.546 1.908.025.161-.113.294-.28.294-.168 0-.3-.133-.337-.293-.165-.725-.934-1.318-1.929-1.318-.09 0-.123.125-.063.19.14.152.227.354.227.576a.866.866 0 0 1-.874.857.866.866 0 0 1-.874-.857Zm5.662 2.067c.118-.115.301-.171.448-.093.147.078.203.26.097.386-.345.412-.904.673-1.52.673-.615 0-1.175-.258-1.52-.673-.106-.127-.05-.308.098-.386.147-.078.33-.02.448.095.228.222.573.373.974.373.4 0 .747-.152.975-.375Z" clip-rule="evenodd"/>
</svg>
