<svg xmlns="http://www.w3.org/2000/svg" width="32" height="32"><defs><linearGradient id="b" x1="0%" x2="100%" y1="0%" y2="100%"><stop offset="0%" stop-color="#feeadf"/><stop offset="20%" stop-color="#e8e8f4"/><stop offset="40%" stop-color="#fdf2ee"/><stop offset="60%" stop-color="#f3ecf1"/><stop offset="80%" stop-color="#f5ebf3"/><stop offset="100%" stop-color="#ffecde"/></linearGradient><clipPath id="a"><path d="M0 0h32v32H0z"/></clipPath></defs><g clip-path="url(#a)"><path fill="url(#b)" d="M0 0h32v32H0z"/></g><path fill="#2C2D30" fill-rule="evenodd" d="M20.547 13.162a4.304 4.304 0 0 1 2.913-1.139c2.508.001 4.54 2.002 4.54 4.473 0 2.136-2.148 3.964-2.686 4.384C22.803 22.85 19.531 24 16 24c-3.531 0-6.803-1.151-9.314-3.12C6.152 20.46 4 18.63 4 16.496c0-2.471 2.033-4.473 4.538-4.473a4.3 4.3 0 0 1 2.915 1.14l.079-.04A4.458 4.458 0 0 1 16 9a4.458 4.458 0 0 1 4.468 4.123l.08.04Zm.907 4.446c.345.34.592.749.73 1.197h.002c.064.204-.08.417-.293.453a.368.368 0 0 1-.409-.255 2.14 2.14 0 0 0-.543-.887 2.203 2.203 0 0 0-1.556-.634c-.023 0-.046.002-.068.003a.983.983 0 0 1-.067.003c.33.15.562.478.562.86 0 .526-.43.95-.965.95a.957.957 0 0 1-.964-.95c0-.12.024-.238.067-.343a2.14 2.14 0 0 0-.668.998.365.365 0 0 1-.41.255c-.213-.036-.356-.25-.292-.453.137-.448.384-.857.73-1.197a2.939 2.939 0 0 1 2.072-.844c.78 0 1.52.3 2.072.844Zm-8.9-.123c.023-.001.045-.003.068-.003.589 0 1.141.226 1.556.634.256.253.44.556.543.887a.368.368 0 0 0 .41.255c.213-.036.356-.249.292-.453a2.845 2.845 0 0 0-.73-1.197 2.939 2.939 0 0 0-2.071-.844c-.782 0-1.52.3-2.073.845a2.85 2.85 0 0 0-.729 1.196c-.064.204.08.417.293.453a.365.365 0 0 0 .409-.255 2.14 2.14 0 0 1 .668-.998.915.915 0 0 0-.067.343c0 .523.43.95.965.95a.955.955 0 0 0 .964-.95.948.948 0 0 0-.562-.86h-.003a.773.773 0 0 0 .068-.003Zm3.45 3.471c.56 0 1.074-.21 1.464-.553a.377.377 0 0 1 .495-.006.353.353 0 0 1 .009.53 2.942 2.942 0 0 1-1.969.75 2.948 2.948 0 0 1-1.968-.75.354.354 0 0 1 .009-.53.373.373 0 0 1 .494.006 2.21 2.21 0 0 0 1.465.553Z" clip-rule="evenodd"/></svg>