<svg xmlns="http://www.w3.org/2000/svg" width="32" height="32" fill="none" viewBox="0 0 32 32">
  <path fill="#000" d="M0 0h32v32H0z"/>
  <path fill="#fff" d="m10.117 13.013-3.033-1.545a9.977 9.977 0 0 0-.6 1.454l3.238 1.049c.106-.33.238-.651.395-.958Zm2.574-2.723 1.679 2.895a3.28 3.28 0 0 1 .78-.325l-.869-3.23c.22-.058.446-.109.673-.144l-.534-3.362a9.857 9.857 0 0 0-1.526.367l1.038 3.185a6.816 6.816 0 0 0-.962.4l-1.524-2.98a9.894 9.894 0 0 0-1.335.823l2.006 2.747a7.23 7.23 0 0 1 .574-.375Zm9.015 2.398-2.894 1.681c.142.246.253.51.327.78l3.23-.87c.061.22.11.445.145.67l3.361-.534a9.586 9.586 0 0 0-.37-1.527l-3.181 1.043a6.808 6.808 0 0 0-.4-.962l2.98-1.529a9.885 9.885 0 0 0-.823-1.334l-2.747 2.008c.131.184.256.377.372.574ZM20.527 7.08a9.977 9.977 0 0 0-1.453-.6l-1.046 3.24c.326.106.648.238.957.395l1.542-3.033Zm-1.21 3.153-1.7 2.95c.246.14.474.316.674.516l4.765-4.783A10.13 10.13 0 0 0 21.863 7.9L19.9 10.61a5.86 5.86 0 0 0-.582-.377Zm-9.084 2.445 2.947 1.701a3.31 3.31 0 0 1 .516-.675L8.92 8.936c-.37.37-.711.773-1.018 1.193l2.709 1.967c-.134.187-.26.382-.377.582Zm6.797-3.25.515-3.309A10.174 10.174 0 0 0 15.997 6h-.007v6.75h.008c.283 0 .567.035.838.108l.874-3.288a6.09 6.09 0 0 0-.68-.142Zm-4.172 5.734-3.288-.876c-.059.223-.107.45-.142.679l-3.309-.517C6.041 14.958 6 15.481 6 16h6.75c0-.286.037-.567.108-.838Zm9.025 3.826 3.033 1.544c.238-.466.438-.954.6-1.453l-3.238-1.049a6.45 6.45 0 0 1-.395.957Zm-2.577 2.718-1.679-2.894a3.224 3.224 0 0 1-.78.324l.869 3.23c-.22.059-.446.11-.674.145l.535 3.362a9.857 9.857 0 0 0 1.526-.367l-1.038-3.185c.332-.109.653-.243.962-.4l1.527 2.98a9.885 9.885 0 0 0 1.334-.823l-2.005-2.75c-.185.14-.377.264-.577.378Zm-9.013-2.395 2.894-1.683a3.283 3.283 0 0 1-.326-.78l-3.23.87a6.088 6.088 0 0 1-.145-.67l-3.362.534c.08.516.205 1.03.37 1.527l3.182-1.04c.109.328.243.652.4.961l-2.98 1.53c.238.463.514.913.823 1.333l2.747-2.007a7.972 7.972 0 0 1-.373-.575Zm1.18 5.608a9.97 9.97 0 0 0 1.454.6l1.046-3.238a6.689 6.689 0 0 1-.957-.395l-1.543 3.033Zm1.208-3.152 1.699-2.95a3.264 3.264 0 0 1-.674-.516l-4.764 4.782c.37.37.772.712 1.192 1.018L12.1 21.39c.187.134.382.26.582.377Zm9.083-2.445-2.947-1.702a3.348 3.348 0 0 1-.516.676l4.78 4.767c.37-.37.71-.772 1.017-1.192l-2.709-1.967c.135-.19.261-.383.375-.582Zm-6.602-.18-.874 3.288c.223.059.451.107.68.142l-.515 3.309c.51.078 1.028.119 1.547.119h.008v-6.75H16a3.32 3.32 0 0 1-.838-.108ZM19.25 16a3.2 3.2 0 0 1-.108.838l3.288.876a6.53 6.53 0 0 0 .142-.678l3.309.516C25.959 17.043 26 16.52 26 16h-6.75Z"/>
</svg>
