<svg xmlns="http://www.w3.org/2000/svg" width="32" height="32" fill="none" viewBox="0 0 32 32">
  <path fill="#00CFFF" d="M0 0h32v32H0z"/>
  <path fill="#000" d="M26.512 15.197a11.778 11.778 0 0 0-1.057-.712 2.642 2.642 0 0 1-.436-.346c-.272-.268-.726-.74-.874-1.03-.096-.179-.057-.519.018-.838a2.182 2.182 0 0 0-.271-1.633l-.474-.772a5.143 5.143 0 0 1-.522-1.122 3.269 3.269 0 0 0-.83-1.334c-.77-.753-2.905-1.122-4.677-1.183a3.254 3.254 0 0 0-.333-.078c-.791-.135-1.632-.356-2.388-.21-1.12.208-2.255.56-3.1 1.425-.179.178-.439.258-.622.423-.365.33-.855.33-1.18.695-.19.214-.277.908-.774 1.173-.822.442-1.424.926-1.63 1.174-.15.187-.266.404-.412.595-.146.19-.859.534-1.069.732a1.5 1.5 0 0 0-.356 1.303c.013.055.021.1.029.136.081.302.302.849.25 1.1-.058.297-.824 2.513.891 3.104a.765.765 0 0 1 .545.726c.035.296.12.584.251.852.114.217.282.4.488.534.22.21.427.43.621.664.606 1.12.437 1.68 1.603 2.06.298.099.584.23.853.39.328.198.679.354 1.046.463l.046.017a41.12 41.12 0 0 1 .78-1.769 5.164 5.164 0 0 1-1.34-5.182.12.12 0 0 1 .142-.082c.02.004.038.013.053.027.438.385 1.77 1.77 1.613 4.274.461-.92.908-1.731 1.318-2.422a5.223 5.223 0 0 1-.041-5.382.12.12 0 0 1 .16-.04.12.12 0 0 1 .043.04c.308.456 1.141 1.96.625 4.105.376-.573.68-.997.878-1.263.534-3.561 3.227-4.727 3.934-4.975a.12.12 0 0 1 .16.123 6.194 6.194 0 0 1-3.638 5.027 24.592 24.592 0 0 0-1.081 1.548c1.191-.934 2.863-1.372 4.252-1.035a.121.121 0 0 1 .07.19c-.4.535-1.988 2.316-4.986 1.902a40.228 40.228 0 0 0-1.379 2.541c1.291-.975 3.179-1.351 4.643-.858a.122.122 0 0 1 .082.145.12.12 0 0 1-.029.053c-.454.49-2.204 2.096-5.084 1.458-.27.572-.673 1.509-.869 1.972-.068.16-.13.32-.178.484-.127.377-.3.85-.504 1.321a.535.535 0 0 0 .315.713c2.271.811 4.738.903 7.063.261a.534.534 0 0 0 .345-.306l.096-.223s1.005-2.332 1.152-3.35c.043-.32.143-.63.294-.915a.96.96 0 0 1 .79-.495c.763-.04 2.393-.147 2.986-.334.788-.252.447-1.687.404-1.84-.043-.153.38-.515.466-.725.088-.21-.213-.281-.336-.513-.123-.231.304-.395.365-.605.06-.21-.139-.438-.22-.593a1.266 1.266 0 0 1-.111-.356s.577-.422.89-.69c.313-.266.25-.485.248-.534"/>
</svg>
