<svg xmlns="http://www.w3.org/2000/svg" width="32" height="32" fill="none" viewBox="0 0 32 32">
  <path fill="#000" d="M0 0h32v32H0z"/>
  <path fill="#F2B705" d="M15.784 4.48a8.624 8.624 0 0 0-8.471 10.248l1.114-.763c1.959-1.343 5.136-1.343 7.094 0l1.17.8.633.436c1.765 1.21 4.625 1.21 6.389 0l.52-.356a8.63 8.63 0 0 0-8.446-10.361l-.003-.004Z"/>
  <path fill="#53CBC8" d="M20.63 18.285c-1.299 0-2.541-.353-3.477-.994l-1.801-1.234c-.862-.593-2.02-.92-3.258-.92-1.237 0-2.395.324-3.258.92l-1.164.797a.507.507 0 0 1-.786-.51.505.505 0 0 1 .214-.325l1.164-.797c1.03-.707 2.39-1.095 3.83-1.095s2.8.388 3.83 1.095l1.8 1.234a5.567 5.567 0 0 0 5.812 0l.684-.468a.507.507 0 1 1 .571.835l-.684.468c-.94.643-2.177.994-3.476.994Z"/>
  <path fill="#53CBC8" d="M12.057 21.907v-4.873c-.004-.103 0-.205.013-.307a.55.55 0 0 1 .545-.487.532.532 0 0 1 .515.487c.021.169.027.34.018.51v9.715c-.03.36-.255.598-.559.591-.303-.006-.523-.253-.524-.618v-3.239l-.008-1.78Zm-1.025-2.453v2.422c0 .414-.221.688-.534.678-.313-.01-.55-.288-.552-.683V17.03c0-.425.247-.71.568-.694.322.016.514.273.515.696.005.808.003 1.615.003 2.422Zm3.146-.004v-1.7c0-.395.21-.65.521-.65.312 0 .552.263.556.635.011 1.159.011 2.317 0 3.474 0 .395-.233.632-.552.629-.32-.003-.525-.246-.528-.65V19.45l.003.002Zm-6.344.355v-1.703c0-.394.21-.649.521-.649.312 0 .552.263.556.635.01 1.158.01 2.316 0 3.474 0 .395-.234.632-.552.628-.318-.003-.524-.245-.528-.65v-1.737l.003.002Zm8.988-1.449h.002a.534.534 0 0 1 .534.535v.926a.535.535 0 0 1-.535.534h-.001a.535.535 0 0 1-.535-.534v-.926a.534.534 0 0 1 .535-.535Zm2.118.811h.002a.534.534 0 0 1 .534.534v5.192a.535.535 0 0 1-.534.535h-.002a.533.533 0 0 1-.534-.535v-5.192a.534.534 0 0 1 .534-.534Zm2.103.201h.002a.535.535 0 0 1 .534.535v4.412a.535.535 0 0 1-.535.534h-.001a.533.533 0 0 1-.534-.534v-4.412a.531.531 0 0 1 .534-.535Zm2.133-.503h.001a.534.534 0 0 1 .535.534v1.903a.535.535 0 0 1-.535.535h-.001a.534.534 0 0 1-.534-.535V19.4a.532.532 0 0 1 .534-.534Z"/>
</svg>
