<svg width="32" height="32" viewBox="0 0 32 32" fill="none" xmlns="http://www.w3.org/2000/svg">
<rect width="32" height="32" fill="#1E0E2D"/>
<path d="M17.2418 5.92017C15.2911 5.92093 13.4206 6.69649 12.0416 8.07626C10.6627 9.45603 9.88826 11.327 9.88867 13.2777C9.88867 13.2829 9.88867 13.2878 9.88867 13.2931V13.3051C9.89392 13.3975 9.93437 13.4844 10.0017 13.5479C10.069 13.6114 10.1582 13.6467 10.2507 13.6465H24.2328C24.3253 13.6467 24.4144 13.6114 24.4817 13.5479C24.549 13.4844 24.5895 13.3975 24.5947 13.3051L24.5953 13.2931C24.5953 13.2878 24.5953 13.2829 24.5953 13.2777C24.5957 11.327 23.8212 9.45591 22.4422 8.07613C21.0632 6.69635 19.1926 5.92083 17.2418 5.92017Z" fill="#53CBC8"/>
<path d="M5.02045 21.4925C5.02038 21.581 4.99407 21.6675 4.94486 21.741C4.89566 21.8146 4.82576 21.8718 4.74399 21.9057C4.66223 21.9395 4.57227 21.9483 4.4855 21.931C4.39872 21.9137 4.31902 21.8711 4.25647 21.8085C4.19392 21.7459 4.15132 21.6662 4.13407 21.5794C4.11682 21.4926 4.12569 21.4027 4.15955 21.3209C4.19342 21.2392 4.25075 21.1693 4.32431 21.1201C4.39788 21.071 4.48436 21.0447 4.57285 21.0447C4.63165 21.0447 4.68987 21.0563 4.7442 21.0788C4.79852 21.1013 4.84787 21.1343 4.88943 21.1759C4.931 21.2175 4.96396 21.2668 4.98644 21.3212C5.00892 21.3755 5.02048 21.4337 5.02045 21.4925Z" fill="#E1147B"/>
<path d="M23.7466 19.0154H8.74387C8.66754 19.0155 8.59255 19.0354 8.52621 19.0731C8.45988 19.1109 8.40447 19.1652 8.3654 19.2308C8.32634 19.2963 8.30495 19.3709 8.30332 19.4472C8.3017 19.5235 8.3199 19.599 8.35614 19.6661C8.35854 19.6708 8.36107 19.6755 8.36359 19.6801C8.40137 19.75 8.45737 19.8084 8.52566 19.849C8.59394 19.8897 8.67196 19.9111 8.75143 19.9109H23.7394C23.8189 19.911 23.8969 19.8896 23.9652 19.849C24.0335 19.8083 24.0895 19.75 24.1273 19.6801L24.1347 19.6661C24.1709 19.5989 24.1891 19.5235 24.1874 19.4472C24.1858 19.3708 24.1644 19.2963 24.1253 19.2307C24.0862 19.1651 24.0307 19.1108 23.9643 19.0731C23.898 19.0353 23.823 19.0155 23.7466 19.0154Z" fill="#E1147B"/>
<path d="M25.7399 14.9563H8.74335C8.68335 14.9564 8.62402 14.9688 8.56896 14.9927C8.5139 15.0165 8.46428 15.0513 8.42311 15.0949C8.38195 15.1386 8.3501 15.1902 8.32952 15.2465C8.30895 15.3029 8.30007 15.3628 8.30343 15.4227C8.30343 15.4274 8.30342 15.4321 8.30414 15.4368C8.31047 15.5491 8.35962 15.6548 8.44147 15.732C8.52333 15.8092 8.63166 15.8521 8.74418 15.8519H25.7399C25.8524 15.8521 25.9607 15.8092 26.0426 15.732C26.1244 15.6547 26.1736 15.5491 26.1799 15.4368C26.1799 15.4321 26.1799 15.4274 26.1807 15.4227C26.184 15.3628 26.1751 15.3027 26.1545 15.2463C26.1339 15.1899 26.1019 15.1383 26.0607 15.0946C26.0194 15.051 25.9697 15.0162 25.9146 14.9924C25.8594 14.9686 25.8 14.9563 25.7399 14.9563Z" fill="#E1147B"/>
<path d="M19.3405 25.1038H11.6806C11.5812 25.1038 11.4847 25.1374 11.4069 25.1991C11.329 25.2608 11.2742 25.3471 11.2515 25.4438C11.2287 25.5405 11.2393 25.6421 11.2815 25.7321C11.3237 25.822 11.3951 25.8951 11.484 25.9394L11.5121 25.9535C11.5731 25.9838 11.6404 25.9995 11.7085 25.9993H19.3122C19.3804 25.9995 19.4477 25.9838 19.5088 25.9535L19.5367 25.9394C19.6256 25.8951 19.697 25.8221 19.7392 25.7321C19.7814 25.6422 19.792 25.5407 19.7693 25.444C19.7466 25.3472 19.6919 25.261 19.6141 25.1993C19.5363 25.1375 19.4399 25.1039 19.3405 25.1038Z" fill="#E1147B"/>
<path d="M24.0204 23.0742H16.3607C16.2614 23.0744 16.1651 23.1081 16.0873 23.1698C16.0095 23.2316 15.9548 23.3177 15.9321 23.4144C15.9094 23.5111 15.92 23.6126 15.9621 23.7025C16.0042 23.7924 16.0755 23.8655 16.1643 23.9099L16.1922 23.9239C16.2533 23.9542 16.3206 23.9699 16.3888 23.9697H23.992C24.0602 23.9699 24.1275 23.9542 24.1886 23.9239L24.2165 23.9099C24.3053 23.8655 24.3765 23.7925 24.4187 23.7026C24.4608 23.6127 24.4714 23.5112 24.4487 23.4146C24.426 23.3179 24.3714 23.2318 24.2937 23.17C24.216 23.1082 24.1197 23.0745 24.0204 23.0742Z" fill="#E1147B"/>
<path d="M13.576 21.7994L13.563 21.7854C13.5046 21.7225 13.4659 21.644 13.4515 21.5594C13.4372 21.4748 13.4478 21.3879 13.4821 21.3092C13.5164 21.2306 13.573 21.1637 13.6448 21.1167C13.7165 21.0697 13.8005 21.0447 13.8863 21.0447H26.3183C26.4041 21.0447 26.488 21.0697 26.5598 21.1167C26.6316 21.1637 26.6881 21.2306 26.7225 21.3092C26.7568 21.3879 26.7674 21.4748 26.753 21.5594C26.7387 21.644 26.6999 21.7225 26.6416 21.7854L26.6286 21.7994C26.5872 21.8437 26.5372 21.879 26.4816 21.9032C26.426 21.9275 26.3661 21.9401 26.3054 21.9402H13.8991C13.8385 21.9401 13.7785 21.9275 13.723 21.9032C13.6674 21.879 13.6174 21.8437 13.576 21.7994Z" fill="#E1147B"/>
<path d="M6.17116 21.0447H12.1078C12.2071 21.0449 12.3034 21.0785 12.3812 21.1403C12.459 21.202 12.5137 21.2882 12.5364 21.3849C12.5591 21.4815 12.5486 21.583 12.5064 21.6729C12.4643 21.7629 12.3931 21.836 12.3042 21.8804L12.2763 21.8944C12.2152 21.9247 12.148 21.9404 12.0798 21.9402H6.19983C6.13164 21.9404 6.06434 21.9247 6.00327 21.8944L5.97532 21.8804C5.88654 21.836 5.81533 21.763 5.77318 21.6731C5.73104 21.5832 5.72043 21.4818 5.74308 21.3851C5.76573 21.2885 5.8203 21.2023 5.89798 21.1406C5.97566 21.0788 6.07191 21.045 6.17116 21.0447Z" fill="#E1147B"/>
<path d="M7.59271 15.404C7.59267 15.4925 7.56639 15.579 7.51719 15.6525C7.468 15.7261 7.3981 15.7834 7.31633 15.8173C7.23457 15.8511 7.14462 15.8599 7.05783 15.8426C6.97105 15.8254 6.89134 15.7827 6.82877 15.7201C6.76621 15.6576 6.72361 15.5779 6.70635 15.4911C6.68909 15.4043 6.69794 15.3143 6.7318 15.2326C6.76566 15.1508 6.82299 15.0809 6.89656 15.0318C6.97013 14.9826 7.05663 14.9563 7.14512 14.9563C7.2039 14.9563 7.26212 14.9679 7.31643 14.9904C7.37074 15.0129 7.42009 15.0459 7.46165 15.0874C7.50322 15.129 7.53619 15.1784 7.55868 15.2327C7.58116 15.287 7.59273 15.3452 7.59271 15.404Z" fill="#E1147B"/>
<path d="M18.1422 17.5544C18.1434 17.5498 18.1446 17.545 18.1459 17.5405C18.1634 17.4752 18.1657 17.4067 18.1525 17.3404C18.1392 17.2741 18.111 17.2117 18.0698 17.1581C18.0286 17.1045 17.9757 17.0611 17.915 17.0312C17.8544 17.0013 17.7877 16.9858 17.7201 16.9858H5.28613C5.21852 16.9858 5.1518 17.0013 5.09114 17.0311C5.03048 17.061 4.97751 17.1044 4.93633 17.1581C4.89515 17.2117 4.86688 17.2741 4.85368 17.3404C4.84049 17.4067 4.84274 17.4752 4.86025 17.5405C4.86145 17.545 4.86277 17.5498 4.86409 17.5544C4.88931 17.6481 4.94465 17.7308 5.02158 17.7899C5.0985 17.849 5.19274 17.8811 5.28973 17.8813H17.7165C17.8135 17.8811 17.9077 17.849 17.9846 17.7899C18.0616 17.7308 18.117 17.6481 18.1422 17.5544Z" fill="#E1147B"/>
<path d="M4.13519 17.4336C4.13515 17.522 4.10886 17.6085 4.05967 17.6821C4.01047 17.7557 3.94056 17.813 3.85879 17.8468C3.77702 17.8806 3.68706 17.8895 3.60027 17.8722C3.51348 17.8549 3.43377 17.8122 3.37121 17.7496C3.30865 17.6871 3.26606 17.6073 3.24882 17.5205C3.23157 17.4337 3.24044 17.3438 3.27432 17.262C3.30819 17.1803 3.36555 17.1104 3.43913 17.0612C3.51271 17.0121 3.59922 16.9858 3.68771 16.9858C3.80641 16.9859 3.92023 17.0331 4.00414 17.1171C4.08805 17.201 4.13519 17.3149 4.13519 17.4336Z" fill="#E1147B"/>
<path d="M7.59271 19.4631C7.59267 19.5516 7.56639 19.6381 7.51719 19.7116C7.468 19.7852 7.3981 19.8425 7.31633 19.8763C7.23457 19.9102 7.14462 19.919 7.05783 19.9017C6.97105 19.8844 6.89134 19.8418 6.82877 19.7792C6.76621 19.7167 6.72361 19.6369 6.70635 19.5501C6.68909 19.4634 6.69794 19.3734 6.7318 19.2917C6.76566 19.2099 6.82299 19.14 6.89656 19.0908C6.97013 19.0417 7.05663 19.0154 7.14512 19.0154C7.26384 19.0154 7.37769 19.0626 7.46162 19.1466C7.54556 19.2305 7.59271 19.3444 7.59271 19.4631Z" fill="#E1147B"/>
<path d="M15.2099 23.5222C15.2099 23.6107 15.1836 23.6972 15.1344 23.7707C15.0852 23.8443 15.0153 23.9016 14.9335 23.9354C14.8518 23.9693 14.7618 23.9781 14.675 23.9608C14.5882 23.9435 14.5085 23.9009 14.446 23.8383C14.3834 23.7757 14.3408 23.696 14.3235 23.6092C14.3063 23.5224 14.3151 23.4325 14.349 23.3507C14.3828 23.269 14.4402 23.1991 14.5138 23.1499C14.5873 23.1007 14.6738 23.0745 14.7623 23.0745C14.8211 23.0745 14.8793 23.086 14.9336 23.1085C14.9879 23.131 15.0373 23.164 15.0788 23.2056C15.1204 23.2472 15.1534 23.2965 15.1759 23.3509C15.1984 23.4052 15.2099 23.4634 15.2099 23.5222Z" fill="#E1147B"/>
<path d="M10.5297 25.5517C10.5297 25.6402 10.5034 25.7267 10.4542 25.8003C10.405 25.8738 10.3351 25.9311 10.2533 25.965C10.1716 25.9988 10.0816 26.0076 9.9948 25.9903C9.90801 25.973 9.8283 25.9304 9.76574 25.8678C9.70318 25.8052 9.66059 25.7255 9.64335 25.6387C9.6261 25.5519 9.63497 25.4619 9.66885 25.3802C9.70273 25.2984 9.76008 25.2286 9.83367 25.1794C9.90725 25.1302 9.99375 25.104 10.0822 25.104C10.141 25.104 10.1992 25.1156 10.2535 25.1381C10.3078 25.1606 10.3572 25.1936 10.3987 25.2352C10.4403 25.2768 10.4732 25.3261 10.4957 25.3804C10.5182 25.4347 10.5297 25.4929 10.5297 25.5517Z" fill="#E1147B"/>
</svg>
