<svg xmlns="http://www.w3.org/2000/svg" width="32" height="32" fill="none" viewBox="0 0 32 32">
  <path fill="#1E0E2D" d="M0 0h32v32H0z"/>
  <path fill="#53CBC8" d="M17.242 5.92a7.356 7.356 0 0 0-7.353 7.358v.027a.362.362 0 0 0 .362.341h13.982a.362.362 0 0 0 .362-.34v-.029a7.356 7.356 0 0 0-7.353-7.358Z"/>
  <path fill="#E1147B" d="M5.02 21.492a.447.447 0 1 1-.894 0 .447.447 0 0 1 .894 0Zm18.727-2.477H8.744a.44.44 0 0 0-.388.651l.008.014a.44.44 0 0 0 .387.23H23.74a.44.44 0 0 0 .388-.23l.008-.014a.441.441 0 0 0-.388-.65Zm1.993-4.059H8.743a.443.443 0 0 0-.439.48.44.44 0 0 0 .44.416H25.74a.44.44 0 0 0 .44-.415v-.014a.443.443 0 0 0-.44-.467Zm-6.4 10.148h-7.66a.44.44 0 0 0-.196.835l.028.014c.061.03.128.047.197.046h7.603a.44.44 0 0 0 .197-.046l.028-.014a.44.44 0 0 0-.196-.835Zm4.68-2.03h-7.66a.441.441 0 0 0-.196.836l.028.014a.44.44 0 0 0 .197.046h7.603a.44.44 0 0 0 .197-.046l.027-.014a.441.441 0 0 0-.196-.836ZM13.576 21.8l-.013-.015a.44.44 0 0 1 .323-.74h12.432a.44.44 0 0 1 .323.74l-.012.014a.443.443 0 0 1-.324.141H13.9a.442.442 0 0 1-.323-.14Zm-7.405-.755h5.937a.441.441 0 0 1 .197.835l-.028.014a.439.439 0 0 1-.197.046H6.2a.44.44 0 0 1-.196-.046l-.028-.014a.442.442 0 0 1 .195-.835Zm1.422-5.641a.448.448 0 1 1-.895 0 .448.448 0 0 1 .895 0Zm10.549 2.15.004-.014a.44.44 0 0 0-.426-.554H5.286a.44.44 0 0 0-.422.568.441.441 0 0 0 .426.327h12.426a.442.442 0 0 0 .426-.327Zm-14.007-.121a.447.447 0 1 1-.894 0 .447.447 0 0 1 .894 0Zm3.458 2.03a.448.448 0 1 1-.896 0 .448.448 0 0 1 .896 0Zm7.617 4.059a.447.447 0 1 1-.894 0 .447.447 0 0 1 .894 0Zm-4.68 2.03a.447.447 0 1 1-.894 0 .447.447 0 0 1 .894 0Z"/>
</svg>
