<svg xmlns="http://www.w3.org/2000/svg" width="32" height="32" fill="none" viewBox="0 0 32 32">
  <path fill="#1BE500" d="M0 0h32v32H0z"/>
  <path fill="#0E0E11" d="M14.829 10.614c.133.043.275.045.412.08.994.255 1.65 1.132 1.715 2.136.02.307-.059.846.018 1.112.109.373.661.487.928.203.932-.895 1.769-2.015 2.704-2.892a2.537 2.537 0 0 1 1.294-.646c.226-.007.435-.014.623.006.977 0 1.972.943 1.972 1.983l.005 7.857c-.107 1.235-1.95 1.207-2.066.058-.086-.844.066-1.824 0-2.68-.05-.672-.713-1.029-1.23-.536-1.143 1.09-2.16 2.427-3.307 3.528-1.164 1.021-3.007.582-3.561-.863-.261-.681-.029-1.27-.15-1.906a.573.573 0 0 0-.915-.342l-2.963 3.127c-2.31 1.792-5.125-1.084-3.129-3.35 1.893-2.15 4.014-4.118 5.913-6.267.35-.318.903-.565 1.377-.61h.36v.002Z"/>
</svg>
