<svg width="32" height="32" viewBox="0 0 32 32" fill="none" xmlns="http://www.w3.org/2000/svg">
<rect width="32" height="32" fill="black"/>
<path d="M18.6018 13.0012H13.402C13.181 13.0012 13.002 13.1803 13.002 13.4012V18.6012C13.002 18.8221 13.181 19.0012 13.402 19.0012H18.6018C18.823 19.0012 19.0021 18.8221 19.0021 18.6012V13.4012C19.0021 13.1803 18.823 13.0012 18.6018 13.0012Z" fill="white"/>
<path d="M12.6 7H7.4C7.17903 7 7 7.17903 7 7.4V12.6C7 12.8209 7.17903 13 7.4 13H12.6C12.8209 13 13 12.8209 13 12.6V7.4C13 7.17903 12.8209 7 12.6 7Z" fill="white"/>
<path d="M24.5997 7H19.3998C19.1786 7 18.9995 7.17903 18.9995 7.4V12.6C18.9995 12.8209 19.1786 13 19.3998 13H24.5997C24.8209 13 25 12.8209 25 12.6V7.4C25 7.17903 24.8209 7 24.5997 7Z" fill="white"/>
<path d="M12.6 19H7.4C7.17903 19 7 19.179 7 19.4V24.6C7 24.8209 7.17903 25 7.4 25H12.6C12.8209 25 13 24.8209 13 24.6V19.4C13 19.179 12.8209 19 12.6 19Z" fill="white"/>
<path d="M24.5997 19H19.3998C19.1786 19 18.9995 19.179 18.9995 19.4V24.6C18.9995 24.8209 19.1786 25 19.3998 25H24.5997C24.8209 25 25 24.8209 25 24.6V19.4C25 19.179 24.8209 19 24.5997 19Z" fill="white"/>
</svg>
