<svg xmlns="http://www.w3.org/2000/svg" width="32" height="32" fill="none" viewBox="0 0 32 32">
  <path fill="#FF0420" d="M0 0h32v32H0z"/>
  <path fill="#fff" fill-rule="evenodd" d="M8.994 19.58c.609.449 1.39.673 2.342.673 1.153 0 2.074-.268 2.762-.805.689-.544 1.173-1.365 1.453-2.462a26.74 26.74 0 0 0 .432-2.077c.04-.256.06-.469.06-.637 0-.56-.14-1.04-.42-1.44a2.52 2.52 0 0 0-1.152-.913c-.489-.209-1.041-.313-1.658-.313-2.265 0-3.67 1.101-4.215 3.303-.192.808-.34 1.501-.444 2.077-.04.256-.06.473-.06.649 0 .84.3 1.489.9 1.945Zm3.651-1.453c-.312.264-.692.396-1.14.396-.77 0-1.154-.368-1.154-1.104 0-.177.016-.345.048-.505a26.75 26.75 0 0 1 .433-1.97c.136-.544.36-.948.672-1.212.32-.264.705-.396 1.153-.396.76 0 1.14.364 1.14 1.092 0 .177-.015.349-.047.517a29.18 29.18 0 0 1-.42 1.97c-.136.544-.365.948-.685 1.212Zm3.747 1.922a.254.254 0 0 0 .204.084h1.633c.08 0 .156-.028.228-.084a.344.344 0 0 0 .132-.216l.553-2.63h1.62c1.05 0 1.874-.22 2.475-.66.608-.441 1.012-1.122 1.212-2.042.048-.216.072-.425.072-.625 0-.696-.272-1.229-.816-1.597-.536-.368-1.249-.552-2.138-.552h-3.194a.366.366 0 0 0-.228.084.344.344 0 0 0-.132.216l-1.658 7.806a.287.287 0 0 0 .037.216Zm5.331-4.78a1.43 1.43 0 0 1-.876.276h-1.381l.456-2.15h1.441c.328 0 .56.065.697.193.136.12.204.296.204.528 0 .104-.012.225-.036.36-.08.345-.248.609-.505.793Z" clip-rule="evenodd"/>
</svg>
