<svg width="32" height="32" viewBox="0 0 32 32" fill="none" xmlns="http://www.w3.org/2000/svg">
<rect width="32" height="32" fill="#FF0420"/>
<path d="M11.3361 20.2525C10.3834 20.2525 9.60287 20.0283 8.99442 19.58C8.39397 19.1237 8.09375 18.4753 8.09375 17.6346C8.09375 17.4585 8.11378 17.2423 8.15378 16.9861C8.25791 16.4097 8.40601 15.7172 8.59813 14.9086C9.14252 12.707 10.5476 11.6062 12.8132 11.6062C13.4297 11.6062 13.9821 11.7103 14.4705 11.9184C14.9588 12.1185 15.3431 12.4228 15.6233 12.8311C15.9035 13.2314 16.0436 13.7117 16.0436 14.2721C16.0436 14.4402 16.0236 14.6524 15.9835 14.9086C15.8635 15.6211 15.7194 16.3137 15.5512 16.9861C15.271 18.0829 14.7867 18.9035 14.0982 19.4479C13.4097 19.9843 12.489 20.2525 11.3361 20.2525ZM11.5042 18.5233C11.9526 18.5233 12.3329 18.3912 12.6451 18.127C12.9654 17.8628 13.1935 17.4585 13.3296 16.9141C13.5137 16.1615 13.6539 15.505 13.7499 14.9446C13.7819 14.7765 13.7979 14.6044 13.7979 14.4282C13.7979 13.6997 13.4177 13.3354 12.6571 13.3354C12.2088 13.3354 11.8245 13.4675 11.5042 13.7317C11.1921 13.996 10.9679 14.4002 10.8318 14.9446C10.6877 15.481 10.5435 16.1375 10.3995 16.9141C10.3674 17.0742 10.3514 17.2423 10.3514 17.4184C10.3514 18.155 10.7357 18.5233 11.5042 18.5233Z" fill="white"/>
<path d="M16.5957 20.1325C16.5076 20.1325 16.4395 20.1045 16.3915 20.0484C16.3515 19.9844 16.3395 19.9124 16.3555 19.8323L18.0127 12.0265C18.0287 11.9385 18.0727 11.8664 18.1448 11.8103C18.2169 11.7543 18.2929 11.7263 18.373 11.7263H21.5673C22.456 11.7263 23.1685 11.9104 23.7049 12.2787C24.2493 12.647 24.5215 13.1794 24.5215 13.8759C24.5215 14.076 24.4975 14.2842 24.4494 14.5003C24.2493 15.421 23.845 16.1016 23.2366 16.5419C22.6361 16.9822 21.8115 17.2024 20.7627 17.2024H19.1415L18.5892 19.8323C18.5731 19.9204 18.5291 19.9924 18.4571 20.0484C18.385 20.1045 18.3089 20.1325 18.2289 20.1325H16.5957ZM20.8468 15.5451C21.183 15.5451 21.4752 15.453 21.7234 15.2689C21.9796 15.0848 22.1477 14.8206 22.2278 14.4763C22.2518 14.3402 22.2638 14.2201 22.2638 14.1161C22.2638 13.8839 22.1958 13.7078 22.0597 13.5877C21.9236 13.4596 21.6914 13.3956 21.3632 13.3956H19.9221L19.4658 15.5451H20.8468Z" fill="white"/>
</svg>
