<svg width="32" height="32" viewBox="0 0 32 32" fill="none" xmlns="http://www.w3.org/2000/svg">
<rect width="32" height="32" fill="#7B3FE4"/>
<path d="M26.6663 16.3735V21.2005C26.6646 21.5015 26.5851 21.7969 26.4355 22.0579C26.2859 22.3188 26.0714 22.5363 25.813 22.6891L21.6463 25.0976C21.3883 25.2519 21.0934 25.3334 20.793 25.3334C20.4926 25.3334 20.1977 25.2519 19.9397 25.0976L15.773 22.6891C15.5146 22.5363 15.3001 22.3188 15.1505 22.0579C15.001 21.7969 14.9214 21.5015 14.9197 21.2005V19.8457L17.053 18.6031V20.958L20.7863 23.1323L24.5197 20.958V16.6194L20.7863 14.4451L12.0397 19.5296C11.7792 19.6769 11.4853 19.7543 11.1863 19.7543C10.8874 19.7543 10.5935 19.6769 10.333 19.5296L6.16633 17.1111C5.91189 16.956 5.70153 16.7377 5.55557 16.4772C5.40961 16.2168 5.33297 15.923 5.33301 15.6242V10.7972C5.33473 10.4962 5.41429 10.2008 5.56385 9.93991C5.71345 9.67899 5.92793 9.46147 6.18633 9.30867L10.353 6.90019C10.6116 6.74735 10.9062 6.66675 11.2063 6.66675C11.5064 6.66675 11.8011 6.74735 12.0597 6.90019L16.2263 9.30867C16.4848 9.46147 16.6992 9.67899 16.8488 9.93991C16.9984 10.2008 17.0779 10.4962 17.0797 10.7972V12.152L14.933 13.3863V11.0448L11.1997 8.87047L7.46633 11.0448V15.3783L11.1997 17.5527L19.9463 12.4681C20.2068 12.3208 20.5007 12.2435 20.7997 12.2435C21.0986 12.2435 21.3925 12.3208 21.653 12.4681L25.8197 14.8866C26.0766 15.0401 26.2896 15.2577 26.438 15.5183C26.5863 15.7788 26.665 16.0735 26.6663 16.3735Z" fill="white"/>
</svg>
