<svg xmlns="http://www.w3.org/2000/svg" width="32" height="32" fill="none" viewBox="0 0 32 32">
  <path fill="url(#a)" d="M0 0h32v32H0z"/>
  <path fill="#fff" d="m20.364 19.268 4.27-2.474a.737.737 0 0 0 .366-.637v-4.948a.74.74 0 0 0-.366-.637l-4.27-2.474a.733.733 0 0 0-.732 0l-4.27 2.474a.738.738 0 0 0-.366.637v8.843l-2.994 1.734-2.994-1.734v-3.47l2.994-1.735 1.975 1.144v-2.327l-1.609-.932a.733.733 0 0 0-.733 0l-4.27 2.474a.737.737 0 0 0-.365.637v4.948c0 .261.14.506.366.637l4.27 2.474c.225.13.506.13.732 0l4.27-2.474a.738.738 0 0 0 .365-.637V11.95l.055-.031 2.94-1.704 2.994 1.735v3.47l-2.994 1.734-1.972-1.143v2.328l1.606.93a.73.73 0 0 0 .732 0Z"/>
  <defs>
    <linearGradient id="a" x1="-5.848" x2="27.187" y1="2.63" y2="22.846" gradientUnits="userSpaceOnUse">
      <stop stop-color="#A229C5"/>
      <stop offset="1" stop-color="#7B3FE4"/>
    </linearGradient>
  </defs>
</svg>
