<svg xmlns="http://www.w3.org/2000/svg" width="32" height="32" fill="none" viewBox="0 0 32 32">
  <path fill="#CF0" d="M0 0h32v32H0z"/>
  <path fill="#1C180D" d="M18.215 11.511H14.02a.453.453 0 0 0-.387.187l-3.009 3.612c-.442.535-.552 1.03-.552 1.739v3.691c-.98 2.662-1.602 4.468-2.057 6.1-.041.107.014.16.11.16h.456a.22.22 0 0 0 .193-.107c3.438-8.48 7.178-12.68 9.525-15.195.097-.107.056-.187-.083-.187Z"/>
  <path fill="#1C180D" d="M18.34 7.351c-.263.12-.4.148-.677.388a35.138 35.138 0 0 0-2.857 2.649c-.097.093-.055.187.083.187h4.652c.428 0 .676.24.676.655v5.083c0 .134.11.174.193.054l2.803-3.545c.455-.575.593-.749.717-1.551.166-1.178.07-2.983-.662-3.732-.649-.67-3.576-.696-4.928-.188Z"/>
  <path fill="#1C180D" d="M19.044 12.527c-2.885 3.117-5.136 6.394-7.22 10.34-.055.107.014.187.138.147l4.307-1.284c.483-.12.76-.334.994-.709l1.919-3.063a.548.548 0 0 0 .055-.24v-5.11c0-.134-.097-.188-.193-.08Z"/>
</svg>
