<svg xmlns="http://www.w3.org/2000/svg" width="32" height="32" fill="none" viewBox="0 0 32 32">
  <path fill="#004DE5" d="M0 0h32v32H0z"/>
  <path fill="#F5F8FC" fill-rule="evenodd" d="M8 21.36V7.487a1.73 1.73 0 0 1 1.73-1.73h12.54A1.73 1.73 0 0 1 24 7.487V21.36a1.73 1.73 0 0 1-.649 1.349l-6.54 5.25a1.298 1.298 0 0 1-1.622 0l-6.54-5.25A1.73 1.73 0 0 1 8 21.359Zm13.405-11.28v3.46a1.73 1.73 0 0 1-1.727 1.73 1.73 1.73 0 0 1 1.73 1.73v3.119a1.73 1.73 0 0 1-.649 1.35l-2.676 2.148a.216.216 0 0 1-.352-.168v-6.017a1.297 1.297 0 0 0-1.297-1.297h-1.946a.216.216 0 0 0-.216.216v7.098a.216.216 0 0 1-.352.168l-2.677-2.149a1.728 1.728 0 0 1-.649-1.349V10.081a1.73 1.73 0 0 1 1.73-1.73h7.351a1.73 1.73 0 0 1 1.73 1.73Zm-6.919 4.325h1.946a1.297 1.297 0 0 0 1.297-1.298v-2.81a.216.216 0 0 0-.216-.217h-3.027a.216.216 0 0 0-.216.216v3.892a.216.216 0 0 0 .216.216Z" clip-rule="evenodd"/>
</svg>
