<svg xmlns="http://www.w3.org/2000/svg" width="32" height="32" fill="none" viewBox="0 0 32 32">
  <path fill="#000" d="M0 0h32v32H0z"/>
  <path fill="#FF931E" d="M16.014 11.492a2.743 2.743 0 0 0 2.74-2.746A2.744 2.744 0 0 0 16.014 6a2.744 2.744 0 0 0-2.741 2.746 2.744 2.744 0 0 0 2.74 2.746Z"/>
  <path fill="#FF931E" d="M23.63 17.234a2.739 2.739 0 0 0-3.743 1.005 2.756 2.756 0 0 0-.368 1.433c.03 1.214-1.063 1.84-2.095 1.214-.04-.02-.08-.05-.13-.07-1.042-.587-1.042-1.83 0-2.408a2.758 2.758 0 0 0 1.44-2.418v-.06c-.03-1.214 1.063-1.84 2.096-1.214a2.723 2.723 0 0 0 2.79.03 2.75 2.75 0 0 0 1.003-3.75 2.739 2.739 0 0 0-5.114 1.432c.03 1.214-1.062 1.84-2.085 1.214a2.696 2.696 0 0 0-1.43-.408 2.78 2.78 0 0 0-1.43.398c-1.033.617-2.115-.01-2.086-1.214a2.745 2.745 0 0 0-1.37-2.438 2.742 2.742 0 0 0-3.744 1.015 2.753 2.753 0 0 0 1.013 3.751 2.746 2.746 0 0 0 2.79-.03c1.033-.626 2.116 0 2.086 1.214v.06c0 1.045.576 1.95 1.44 2.418 1.043.587 1.043 1.83 0 2.408-.04.02-.08.05-.12.07-1.032.617-2.114-.01-2.085-1.214a2.816 2.816 0 0 0-.367-1.443 2.739 2.739 0 0 0-3.744-1.005 2.778 2.778 0 0 0-1.003 3.771A2.739 2.739 0 0 0 11.118 22c.02-.01.03-.02.05-.03 1.032-.627 2.115 0 2.085 1.214v.07A2.749 2.749 0 0 0 15.993 26a2.75 2.75 0 0 0 2.742-2.746v-.06c-.03-1.214 1.062-1.84 2.095-1.214.02.01.04.02.06.04a2.739 2.739 0 0 0 3.743-1.005c.755-1.343.308-3.025-1.003-3.781Z"/>
</svg>
