<svg xmlns="http://www.w3.org/2000/svg" width="32" height="32" fill="none" viewBox="0 0 32 32">
  <path fill="#FFEEDA" d="M0 0h32v32H0z"/>
  <path fill="#FFEEDA" d="M23.847 19.217V8.605A1.615 1.615 0 0 0 22.235 7H11.16a4.383 4.383 0 0 0-4.31 4.388c0 .806.217 1.5.546 2.11.28.504.722.981 1.157 1.338.126.099.063.056.441.288a4.923 4.923 0 0 0 1.115.476l-.007 6.35c.014.302.042.59.126.863a2.825 2.825 0 0 0 1.71 1.914c.35.14.75.23 1.178.238l8.845.028c1.76 0 3.19-1.43 3.19-3.196.007-1.052-.519-1.99-1.304-2.58Z"/>
  <path fill="#EBC28E" d="M24.064 21.874a2.112 2.112 0 0 1-2.11 2.04l-6.084-.022c.484-.56.778-1.29.778-2.088 0-1.248-.743-2.11-.743-2.11h6.056c1.164 0 2.11.946 2.11 2.11l-.007.07Z"/>
  <path fill="#101010" d="M9.134 13.94c-.7-.667-1.191-1.522-1.191-2.545v-.105c.056-1.739 1.486-3.14 3.224-3.19h11.075c.287.014.518.218.518.512v9.372c.253.042.379.077.624.168.197.07.463.224.463.224V8.612a1.615 1.615 0 0 0-1.612-1.605H11.16a4.383 4.383 0 0 0-4.31 4.388c0 1.395.637 2.586 1.674 3.42.07.056.14.134.323.134.322 0 .554-.26.54-.54 0-.238-.106-.323-.253-.47Z"/>
  <path fill="#101010" d="M21.954 18.6H13.27a1.06 1.06 0 0 0-1.052 1.059v1.248a1.108 1.108 0 0 0 1.094 1.065h.645v-1.066h-.652v-1.22h.35c1.1 0 1.907 1.017 1.907 2.11 0 .968-.883 2.202-2.355 2.104-1.304-.085-2.012-1.248-2.012-2.103V11.213a.873.873 0 0 0-.87-.87h-.868v1.087h.645v10.374c-.036 2.11 1.5 3.168 3.105 3.168L21.96 25c1.76 0 3.19-1.43 3.19-3.196a3.196 3.196 0 0 0-3.197-3.203Zm2.11 3.274a2.112 2.112 0 0 1-2.11 2.04l-6.084-.022c.484-.56.778-1.29.778-2.088 0-1.248-.743-2.11-.743-2.11h6.056c1.164 0 2.11.946 2.11 2.11l-.007.07Zm-4.451-10.248h-6.546V10.54h6.546a.54.54 0 0 1 .54.54.533.533 0 0 1-.54.546Z"/>
  <path fill="#101010" d="M19.613 16.722h-6.546v-1.08h6.546a.54.54 0 0 1 .54.54.531.531 0 0 1-.54.54Zm1.157-2.552h-7.704v-1.086h7.697a.54.54 0 0 1 .54.54.527.527 0 0 1-.533.547Z"/>
</svg>
