<svg xmlns="http://www.w3.org/2000/svg" width="32" height="32" fill="none" viewBox="0 0 32 32">
  <path fill="#fff" d="M0 0h32v32H0z"/>
  <path fill="url(#a)" fill-rule="evenodd" d="M15.97 28c3.564 0 6.767-1.547 8.97-4.004a2.858 2.858 0 0 0-3.66-.064l-.209.168a4.825 4.825 0 0 1-6.617-.54 2.575 2.575 0 0 0-3.591-.24L8.46 25.377A12 12 0 0 0 15.97 28Zm3.9-5.81a5.11 5.11 0 0 1 6.407.002A11.921 11.921 0 0 0 28 16c0-2.517-.777-4.853-2.105-6.783a2.854 2.854 0 0 0-2.488.653l-.2.177a4.825 4.825 0 0 1-6.636-.234 2.576 2.576 0 0 0-3.598-.074l-2.797 2.624-1.538-1.63 2.796-2.625a4.825 4.825 0 0 1 6.741.138 2.576 2.576 0 0 0 3.543.125l.2-.177a5.081 5.081 0 0 1 2.097-1.116A12.003 12.003 0 0 0 15.969 4C9.862 4 4.818 8.54 4.042 14.42a4.938 4.938 0 0 1 5.656.998 2.686 2.686 0 0 0 3.57.24l1.563-1.22a5.215 5.215 0 0 1 6.622.178l3.045 2.645-1.475 1.688-3.044-2.645a2.965 2.965 0 0 0-3.766-.1l-1.564 1.218a4.936 4.936 0 0 1-6.557-.44 2.686 2.686 0 0 0-3.754-.081L4 17.218a11.934 11.934 0 0 0 2.838 6.595L9.4 21.62a4.825 4.825 0 0 1 6.728.448 2.576 2.576 0 0 0 3.533.288l.208-.168Z" clip-rule="evenodd"/>
  <defs>
    <linearGradient id="a" x1="15.98" x2="15.98" y1="27.899" y2="4" gradientUnits="userSpaceOnUse">
      <stop stop-color="#B52A2A"/>
      <stop offset="1" stop-color="#780000"/>
    </linearGradient>
  </defs>
</svg>
