<svg xmlns="http://www.w3.org/2000/svg" width="32" height="32" fill="none" viewBox="0 0 32 32">
  <path fill="#000" d="M0 0h32v32H0z"/>
  <path fill="url(#a)" d="m23.918 19.991-2.642 2.76a.612.612 0 0 1-.448.19H8.307a.313.313 0 0 1-.169-.05.301.301 0 0 1-.113-.13.291.291 0 0 1 .057-.323l2.644-2.76a.612.612 0 0 1 .447-.19h12.52c.06 0 .118.018.168.05a.292.292 0 0 1 .056.454Zm-2.642-5.557a.612.612 0 0 0-.448-.19H8.307a.313.313 0 0 0-.169.05.292.292 0 0 0-.056.454l2.644 2.758a.614.614 0 0 0 .447.19h12.52a.312.312 0 0 0 .282-.18.292.292 0 0 0-.057-.322l-2.642-2.76Zm-12.97-1.982h12.522a.627.627 0 0 0 .448-.19l2.642-2.76a.297.297 0 0 0 .057-.322.302.302 0 0 0-.114-.131.313.313 0 0 0-.168-.049h-12.52a.627.627 0 0 0-.447.19l-2.643 2.76a.296.296 0 0 0-.057.322.3.3 0 0 0 .113.13c.05.033.108.05.168.05Z"/>
  <defs>
    <linearGradient id="a" x1="9.351" x2="22.098" y1="23.273" y2="8.522" gradientUnits="userSpaceOnUse">
      <stop offset=".08" stop-color="#9945FF"/>
      <stop offset=".3" stop-color="#8752F3"/>
      <stop offset=".5" stop-color="#5497D5"/>
      <stop offset=".6" stop-color="#43B4CA"/>
      <stop offset=".72" stop-color="#28E0B9"/>
      <stop offset=".97" stop-color="#19FB9B"/>
    </linearGradient>
  </defs>
</svg>
