<svg xmlns="http://www.w3.org/2000/svg" width="32" height="32" fill="none" viewBox="0 0 32 32">
  <path fill="#000" d="M0 0h32v32H0z"/>
  <path fill="#F0F0F0" d="M5 15.407h.772c.22 0 .412-.043.58-.13.167-.098.302-.221.405-.37.116-.16.2-.333.251-.518.065-.198.097-.395.097-.593v-2.981c0-.457.045-.858.135-1.204.103-.346.27-.636.502-.87.232-.247.54-.432.927-.556.4-.123.895-.185 1.487-.185h1.564v1.204h-1.641c-.541 0-.927.117-1.159.352-.219.234-.328.66-.328 1.277v2.556c0 .827-.129 1.438-.386 1.833-.258.383-.554.642-.889.778.335.148.631.426.889.833.257.408.386 1 .386 1.778v2.556c0 .617.116 1.043.347 1.277.232.235.618.352 1.159.352h1.622V24h-1.564c-.592 0-1.088-.062-1.487-.185-.386-.124-.695-.309-.927-.556a2.045 2.045 0 0 1-.502-.87 4.798 4.798 0 0 1-.135-1.204v-2.981c0-.186-.032-.37-.097-.556a1.406 1.406 0 0 0-.25-.518 1.197 1.197 0 0 0-.406-.39 1.018 1.018 0 0 0-.56-.147H5v-1.186Zm22 1.186h-.772c-.22 0-.412.049-.58.148-.154.086-.29.21-.405.37a1.976 1.976 0 0 0-.251.519 2.133 2.133 0 0 0-.078.574v2.981c0 .457-.051.858-.154 1.204-.09.346-.258.636-.502.87-.232.247-.547.432-.946.556-.387.123-.876.185-1.468.185H20.28v-1.204h1.641c.541 0 .92-.117 1.14-.351.231-.235.347-.661.347-1.278V18.61c0-.827.129-1.432.386-1.815.258-.395.554-.66.889-.796-.335-.148-.631-.426-.889-.833-.257-.408-.386-1-.386-1.778v-2.556c0-.617-.116-1.043-.347-1.277-.232-.235-.618-.352-1.159-.352H20.28V8h1.564c.592 0 1.081.062 1.468.185.399.124.714.309.946.556.245.234.412.524.502.87.103.346.154.747.154 1.204v2.981c0 .186.026.377.078.574.051.186.128.358.231.519.116.148.252.272.406.37.167.1.36.148.58.148H27v1.186ZM16.12 20.12a6.31 6.31 0 0 1-2.131-.354 8.003 8.003 0 0 1-1.698-.814l.608-.83c.449.308.946.553 1.49.738.545.184 1.175.276 1.89.276.663 0 1.154-.118 1.474-.353.331-.236.497-.507.497-.814a.851.851 0 0 0-.096-.4c-.054-.123-.166-.24-.337-.353-.16-.113-.4-.22-.72-.323a11.47 11.47 0 0 0-1.282-.307c-1.015-.205-1.778-.481-2.29-.83-.503-.348-.754-.799-.754-1.351 0-.605.273-1.107.817-1.506.545-.41 1.351-.614 2.42-.614.597 0 1.174.097 1.73.291a5.877 5.877 0 0 1 1.409.661l-.64.814a4.142 4.142 0 0 0-1.202-.568 4.602 4.602 0 0 0-1.41-.215c-.448 0-.806.05-1.073.153-.257.093-.443.22-.56.384a.965.965 0 0 0-.161.538c0 .318.176.568.529.753.363.174.94.338 1.73.491.865.175 1.527.37 1.986.584.47.215.79.461.961.738.182.276.273.604.273.983 0 .41-.134.783-.4 1.121-.268.328-.658.594-1.17.8-.513.204-1.143.306-1.89.306Z"/>
</svg>
