<svg xmlns="http://www.w3.org/2000/svg" width="32" height="32" fill="none" viewBox="0 0 32 32">
  <path fill="#fff" d="M0 0h32v32H0z"/>
  <path fill="#000" d="M19.453 4.494a12 12 0 0 1 6.977 5.562 12.016 12.016 0 0 1-4.006 16.082 11.984 11.984 0 0 1-8.77 1.628s4.063-4.017 6.276-6.22a11.335 11.335 0 0 0 1.813-2.24c1.583-2.577 1.154-5.835-1.039-8.03a6.647 6.647 0 0 0-6.253-1.76l5.002-5.022Z"/>
  <path fill="#000" d="M9.569 5.867a11.984 11.984 0 0 1 8.758-1.637s-4.064 4.015-6.277 6.221a11.203 11.203 0 0 0-1.812 2.237 6.461 6.461 0 0 0 1.046 8.04 6.654 6.654 0 0 0 6.254 1.762l-5.013 5.01a12.002 12.002 0 0 1-6.96-5.567 12.018 12.018 0 0 1-1.208-8.835 12 12 0 0 1 5.212-7.231Z"/>
</svg>
