<svg xmlns="http://www.w3.org/2000/svg" width="32" height="32" fill="none" viewBox="0 0 32 32">
  <path fill="url(#a)" d="M0 0h32v32H0z"/>
  <path fill="#F5F5F5" d="M26 17.126C25.436 22.118 21.183 26 16.017 26a10.05 10.05 0 0 1-3.852-.762c.48-.58.995-1.145 1.527-1.674l.001-.002A23.246 23.246 0 0 1 26 17.127Zm-7.96 1.301a25.11 25.11 0 0 0-7.108 5.956l-.133.162a10.18 10.18 0 0 1-1.708-1.307l.086-.087c1.957-1.937 5.083-3.59 8.862-4.724Zm.435-1.682c-2.065.562-3.98 1.275-5.647 2.105-1.903.946-3.48 2.032-4.692 3.226l-.054.054A9.92 9.92 0 0 1 6 16.745h12.475ZM8.136 9.924c1.211 1.193 2.788 2.279 4.69 3.224 1.67.833 3.583 1.544 5.647 2.106H6a9.92 9.92 0 0 1 2.082-5.385l.054.055ZM16.017 6c5.166 0 9.418 3.882 9.981 8.872a23.24 23.24 0 0 1-12.306-6.436 24.656 24.656 0 0 1-1.527-1.674A10.07 10.07 0 0 1 16.017 6Zm-5.088 1.618a25.317 25.317 0 0 0 1.704 1.876 25.178 25.178 0 0 0 5.407 4.082c-3.543-1.065-6.513-2.583-8.483-4.368l-.38-.36-.086-.086a10.06 10.06 0 0 1 1.706-1.306l.132.162Z"/>
  <defs>
    <radialGradient id="a" cx="0" cy="0" r="1" gradientTransform="matrix(-32 0 0 -32 32 32)" gradientUnits="userSpaceOnUse">
      <stop stop-color="#FBE1D4"/>
      <stop offset=".248" stop-color="#FD8D5F"/>
      <stop offset=".499" stop-color="#C99264"/>
      <stop offset=".755" stop-color="#294461"/>
      <stop offset="1" stop-color="#121C26"/>
    </radialGradient>
  </defs>
</svg>
