<svg xmlns="http://www.w3.org/2000/svg" width="32" height="32" fill="none" viewBox="0 0 32 32">
  <path fill="url(#a)" d="M0 0h32v32H0z"/>
  <path fill="#F5F5F5" d="m18.04 18.426.003-.002-.005.003h.003l-.001-.001Z"/>
  <path fill="#F5F5F5" d="M18.039 18.427c-3.78 1.133-6.904 2.788-8.862 4.725l-.086.086c.52.492 1.091.932 1.708 1.307l.132-.163a25.016 25.016 0 0 1 7.108-5.956Zm.436-1.681H6a9.918 9.918 0 0 0 2.082 5.384l.054-.054c1.212-1.195 2.79-2.28 4.692-3.226 1.668-.83 3.583-1.542 5.647-2.104Zm-4.783-8.31a23.24 23.24 0 0 0 12.306 6.436C25.435 9.882 21.183 6 16.017 6a10.07 10.07 0 0 0-3.852.762c.482.58.997 1.145 1.527 1.674Zm-4.516.412c1.958 1.94 5.085 3.592 8.864 4.728a25.18 25.18 0 0 1-5.407-4.082 25.273 25.273 0 0 1-1.704-1.876l-.132-.162c-.617.374-1.188.813-1.706 1.305l.086.087Zm4.516 14.716a23.632 23.632 0 0 0-1.527 1.674c1.185.49 2.488.762 3.852.762 5.166 0 9.418-3.882 9.983-8.874a23.246 23.246 0 0 0-12.306 6.436l-.002.002Zm-.867-10.417v.002c-1.9-.946-3.477-2.033-4.689-3.225l-.054-.054A9.918 9.918 0 0 0 6 15.254h12.472c-2.063-.563-3.976-1.275-5.647-2.107Z"/>
  <defs>
    <radialGradient id="a" cx="0" cy="0" r="1" gradientTransform="matrix(-32 0 0 -32 32 32)" gradientUnits="userSpaceOnUse">
      <stop stop-color="#FBE1D4"/>
      <stop offset=".248" stop-color="#FD8D5F"/>
      <stop offset=".499" stop-color="#C99264"/>
      <stop offset=".755" stop-color="#294461"/>
      <stop offset="1" stop-color="#121C26"/>
    </radialGradient>
  </defs>
</svg>
