<svg xmlns="http://www.w3.org/2000/svg" width="32" height="32" fill="none" viewBox="0 0 32 32">
  <path fill="url(#a)" d="M0 0h32v32H0z"/>
  <path fill="#F8FBD3" d="M15.512 11.392c.114-.312.426-.495.71-.33.259.155.33.491.365.774.106 1.143.126 2.321.148 3.474.58.013 1.175.03 1.742.047.652.041 1.33.023 1.973.167.732.21.609.954-.11 1.072-.966.141-1.777.13-2.782.165l-.824.021c-.013.584-.03 1.182-.047 1.753-.041.652-.023 1.33-.167 1.972-.209.733-.954.61-1.072-.11-.14-.965-.13-1.777-.165-2.78l-.021-.83a15.276 15.276 0 0 1-.224-.008c-.68-.019-1.328-.028-2.004-.06-.562-.047-1.16-.01-1.7-.187-.312-.114-.495-.425-.33-.71.156-.259.492-.33.774-.364 1.145-.107 2.326-.127 3.48-.15l.007-.212c.019-.68.028-1.328.06-2.004.047-.562.01-1.16.187-1.7Zm-3.171 1.12c.579-.028 1.159-.051 1.159.497 0 .497-.565.581-.567.581-1.163.167-3.078.5-4.071.914-1.493.624-1.616 1.245-1.616 1.496 0 .25.123.871 1.616 1.495.993.415 2.908.749 4.071.914.002 0 .567.084.567.582 0 .548-.58.525-1.16.497C8.86 19.323 6 17.89 6 15.98s2.86-3.3 6.34-3.468Zm6.159.497c0-.548.58-.525 1.16-.498 3.48.165 6.34 1.556 6.34 3.466v.002c0 1.91-2.86 3.344-6.34 3.51-.58.027-1.16.05-1.16-.498 0-.497.563-.581.567-.582 1.163-.165 3.078-.499 4.071-.913 1.493-.625 1.616-1.245 1.616-1.496 0-.25-.123-.872-1.616-1.496-.993-.415-2.908-.747-4.071-.914-.004 0-.567-.084-.567-.581Z"/>
  <defs>
    <linearGradient id="a" x1="16" x2="16" y1="0" y2="32" gradientUnits="userSpaceOnUse">
      <stop stop-color="#62839F"/>
      <stop offset="1" stop-color="#8A98A3"/>
    </linearGradient>
  </defs>
</svg>
