<svg xmlns="http://www.w3.org/2000/svg" width="32" height="32" fill="none" viewBox="0 0 32 32">
  <path fill="url(#a)" d="M0 0h32v32H0z"/>
  <path fill="#E8FBF7" d="M15.985 17.101c.99-.6 2.403-1.431 3.514-1.431 1.777 0 3.264 1.258 3.264 3.65 0 3.813-4.535 7.33-10.942 5.798a.034.034 0 0 0-.041.033v2.062a.03.03 0 0 0 .021.03c.883.331 1.816.56 2.784.674 7.507.882 13.993-5.38 13.374-12.913a11.772 11.772 0 0 0-2.086-5.826c-.01-.013-.025-.021-.047-.01l-9.835 5.685c-1.118.638-2.403 1.436-3.512 1.436-1.778 0-3.264-1.259-3.264-3.65 0-3.814 4.535-7.33 10.942-5.798a.033.033 0 0 0 .041-.033v-2.03a.033.033 0 0 0-.021-.031A11.983 11.983 0 0 0 16 4C9.373 4 4 9.372 4 16c0 2.514.774 4.847 2.095 6.775.01.015.03.02.045.01l9.845-5.684Z"/>
  <defs>
    <linearGradient id="a" x1="16" x2="16" y1="0" y2="32" gradientUnits="userSpaceOnUse">
      <stop stop-color="#011F1E"/>
      <stop offset="1" stop-color="#033428"/>
    </linearGradient>
  </defs>
</svg>
