<svg xmlns="http://www.w3.org/2000/svg" width="32" height="32" fill="none" viewBox="0 0 32 32">
  <path fill="#fff" d="M0 0h32v32H0z"/>
  <path fill="#000" d="m24.613 8.617-2.89 1.45-13.955 7.001A8.093 8.093 0 0 1 8.8 11.934a8.25 8.25 0 0 1 3.007-2.988 8.41 8.41 0 0 1 4.117-1.124 8.413 8.413 0 0 1 4.14 1.04l1.654-.83.247-.125a10.286 10.286 0 0 0-10.577-.816 10.096 10.096 0 0 0-4.047 3.686 9.889 9.889 0 0 0-1.466 5.986c.028.358-.053.716-.231 1.029a1.835 1.835 0 0 1-.772.73L4 18.96v2.043l2.568-1.29.832-.418.819-.41 14.711-7.383 1.653-.83L28 8.958V6.915l-3.387 1.702ZM28 11.002l-18.945 9.5-1.653.832L4 23.04v2.041l3.378-1.695 2.89-1.45 13.969-7.011a8.093 8.093 0 0 1-1.031 5.146 8.25 8.25 0 0 1-3.012 2.991 8.41 8.41 0 0 1-4.122 1.122 8.412 8.412 0 0 1-4.143-1.046l-.101.053-1.793.9a10.286 10.286 0 0 0 10.575.818 10.097 10.097 0 0 0 4.047-3.684 9.889 9.889 0 0 0 1.468-5.992 1.797 1.797 0 0 1 .23-1.028c.18-.313.447-.567.772-.73l.873-.438v-2.036Z"/>
</svg>
