<svg xmlns="http://www.w3.org/2000/svg" width="32" height="32" fill="none" viewBox="0 0 32 32">
  <path fill="#011829" d="M0 0h32v32H0z"/>
  <path fill="#F7F7F8" fill-rule="evenodd" d="M20.802 14.29a6.175 6.175 0 0 1 1.333 3.845 6.176 6.176 0 0 1-1.37 3.89l-.075.092-.019-.116a5.596 5.596 0 0 0-.059-.3c-.429-1.9-1.826-3.528-4.125-4.847-1.553-.888-2.442-1.958-2.675-3.173-.15-.786-.039-1.575.178-2.251.216-.676.538-1.242.812-1.583l.894-1.103a.39.39 0 0 1 .608 0l4.498 5.546Zm1.415-1.102-5.995-7.392a.285.285 0 0 0-.444 0l-5.995 7.392-.02.024A8.052 8.052 0 0 0 8 18.257c0 4.447 3.582 8.053 8 8.053s8-3.606 8-8.053a8.05 8.05 0 0 0-1.764-5.045l-.02-.024Zm-11 1.078.537-.662.016.123c.013.096.029.193.047.291.347 1.836 1.586 3.366 3.659 4.552 1.801 1.033 2.85 2.222 3.152 3.526.126.544.149 1.08.094 1.547l-.003.03-.026.012c-.813.4-1.727.625-2.693.625-3.388 0-6.135-2.765-6.135-6.175 0-1.465.506-2.81 1.352-3.869Z" clip-rule="evenodd"/>
</svg>
