<svg xmlns="http://www.w3.org/2000/svg" width="32" height="32" fill="none"><path fill="#2F43EC" d="M0 0h32v32H0z"/><path fill="#fff" d="m26.075 18.33-.027.03a2.477 2.477 0 0 1-.04.04l-7.619 7.606a3.403 3.403 0 0 1-4.806 0l-2.104-2.1a.38.38 0 0 1 .155-.634c2.255-.696 4.088-1.5 5.497-2.41 3.357-2.17 6.339-3.014 8.944-2.532Zm-1.597-6.257c2.813.886 2.485 2.955 2.522 3.771-3.08-1.615-6.787-1.023-11.118 1.777-3.229 2.086-5.933 2.946-8.114 2.58-2.18-.366-2.67-3.028-2.768-3.736 2.396 1.211 5.606.516 9.632-2.085 3.75-2.425 7.033-3.194 9.846-2.307Zm-6.089-6.08 1.977 1.974a.381.381 0 0 1-.194.643c-2.861.577-5.15 1.42-6.866 2.529-2.94 1.9-5.446 2.783-7.516 2.65v-.002l7.793-7.793a3.402 3.402 0 0 1 4.806 0Z"/></svg>