<svg xmlns="http://www.w3.org/2000/svg" width="32" height="32" fill="none" viewBox="0 0 32 32">
  <path fill="#E81899" d="M0 0h32v32H0z"/>
  <path fill="#fff" d="m25.58 20.54-3.427-4.682a2.174 2.174 0 0 0-1.511-.88.43.43 0 0 1-.341-.596 2.196 2.196 0 0 0-.004-1.756L17.978 7.3A2.158 2.158 0 0 0 16 6a2.16 2.16 0 0 0-1.979 1.3l-2.318 5.326a2.201 2.201 0 0 0-.004 1.755.427.427 0 0 1-.341.596 2.173 2.173 0 0 0-1.51.881L6.42 20.54a2.183 2.183 0 0 0-.131 2.374 2.16 2.16 0 0 0 2.11 1.072l5.746-.643a2.17 2.17 0 0 0 1.513-.874.425.425 0 0 1 .685 0c.35.477.889.805 1.513.874l5.745.643a2.156 2.156 0 0 0 2.11-1.072 2.183 2.183 0 0 0-.131-2.374Zm-12.378-7.246 2.322-5.331A.522.522 0 0 1 16 7.649a.52.52 0 0 1 .477.314l2.323 5.331a.547.547 0 0 1-.043.516.54.54 0 0 1-.454.246h-4.607a.542.542 0 0 1-.496-.762Zm1.192 8.116a.541.541 0 0 1-.424.296l-5.751.643a.522.522 0 0 1-.478-.83l3.43-4.688a.539.539 0 0 1 .905.05l.004.007 2.297 4 .004.006c.092.16.096.354.014.518l-.001-.002Zm2.079-1.81a.546.546 0 0 1-.946.002l-1.764-3.073a.549.549 0 0 1 .472-.823h3.529a.55.55 0 0 1 .473.822L16.471 19.6Zm7.82 2.49a.522.522 0 0 1-.51.26l-5.752-.643a.544.544 0 0 1-.41-.812l.004-.007 2.297-4 .004-.006a.54.54 0 0 1 .904-.05l3.431 4.686a.527.527 0 0 1 .032.573Z"/>
</svg>
