<svg width="43" height="12" viewBox="0 0 43 12" fill="none" xmlns="http://www.w3.org/2000/svg">
<path d="M24.4556 9.16491C24.2451 9.46441 23.9659 9.68702 23.6178 9.83273C23.2697 9.97034 22.8812 10.0391 22.4521 10.0391C22.1122 10.0391 21.8005 9.99867 21.5172 9.91772C21.242 9.83677 20.9991 9.71535 20.7887 9.55346C20.5782 9.38347 20.4123 9.17705 20.2908 8.93421C20.1694 8.68327 20.1087 8.39995 20.1087 8.08425C20.1087 7.73618 20.1775 7.44072 20.3151 7.19788C20.4527 6.94694 20.6389 6.74457 20.8737 6.59077C21.1165 6.43697 21.3998 6.32364 21.7236 6.25079C22.0474 6.16984 22.3874 6.12937 22.7435 6.12937H24.3827C24.3827 5.65987 24.2775 5.29561 24.067 5.03657C23.8566 4.77754 23.4883 4.64398 22.9621 4.63588C22.6545 4.63588 22.3874 4.6885 22.1607 4.79373C21.9422 4.89896 21.7965 5.073 21.7236 5.31584H20.303C20.3515 4.97586 20.4608 4.6885 20.6308 4.45375C20.8089 4.219 21.0194 4.02472 21.2622 3.87092C21.5131 3.71712 21.7884 3.60784 22.0879 3.54309C22.3955 3.47833 22.7031 3.44595 23.0107 3.44595C23.4073 3.44595 23.7756 3.49856 24.1156 3.6038C24.4556 3.70903 24.7511 3.88711 25.002 4.13805C25.2853 4.42946 25.4755 4.77754 25.5727 5.18228C25.6698 5.58702 25.7184 6.02818 25.7184 6.50577V9.95415H24.5163L24.4556 9.16491ZM24.3827 7.11288H23.0471C22.8124 7.11288 22.5776 7.13312 22.3429 7.17359C22.1081 7.20597 21.9057 7.29097 21.7357 7.42858C21.5739 7.5581 21.4929 7.74832 21.4929 7.99926C21.4929 8.30686 21.6022 8.54161 21.8207 8.70351C22.0474 8.85731 22.3226 8.93421 22.6464 8.93421C22.8973 8.93421 23.1281 8.90183 23.3385 8.83707C23.5571 8.77231 23.7433 8.66708 23.8971 8.52137C24.0509 8.36757 24.1682 8.17735 24.2492 7.95069C24.3382 7.71594 24.3827 7.43667 24.3827 7.11288Z" fill="#FAFAFA"/>
<path d="M27.9939 0.896094C28.2448 0.896094 28.4512 0.972994 28.6131 1.12679C28.7831 1.2806 28.8681 1.49106 28.8681 1.75819C28.8681 2.01722 28.7831 2.22364 28.6131 2.37744C28.4512 2.53124 28.2448 2.60814 27.9939 2.60814C27.7268 2.60814 27.5123 2.53124 27.3504 2.37744C27.1885 2.22364 27.1075 2.01722 27.1075 1.75819C27.1075 1.49106 27.1885 1.2806 27.3504 1.12679C27.5123 0.972994 27.7268 0.896094 27.9939 0.896094ZM27.2896 9.95415V3.55523H28.6739V9.95415H27.2896Z" fill="#FAFAFA"/>
<path d="M39.6751 3.44595C40.1851 3.44595 40.6344 3.5269 41.0229 3.68879C41.4115 3.85069 41.7393 4.07734 42.0064 4.36875C42.2816 4.65207 42.4881 4.9961 42.6257 5.40084C42.7633 5.80558 42.8321 6.25484 42.8321 6.74862C42.8321 7.25049 42.7633 7.7038 42.6257 8.10854C42.4962 8.50518 42.2978 8.84921 42.0307 9.14062C41.7636 9.43203 41.4317 9.65464 41.035 9.80844C40.6465 9.96224 40.1932 10.0391 39.6751 10.0391C39.1652 10.0391 38.7159 9.96224 38.3273 9.80844C37.9388 9.64655 37.611 9.42394 37.3438 9.14062C37.0848 8.84921 36.8865 8.50114 36.7489 8.0964C36.6194 7.69166 36.5546 7.2424 36.5546 6.74862C36.5546 6.25484 36.6194 5.80558 36.7489 5.40084C36.8865 4.9961 37.0888 4.65207 37.356 4.36875C37.6231 4.07734 37.9509 3.85069 38.3395 3.68879C38.728 3.5269 39.1733 3.44595 39.6751 3.44595ZM39.6751 8.83707C39.9908 8.83707 40.2579 8.78445 40.4765 8.67922C40.7032 8.56589 40.8853 8.41614 41.0229 8.22996C41.1686 8.04378 41.2738 7.82522 41.3386 7.57428C41.4115 7.32335 41.4479 7.05217 41.4479 6.76076C41.4479 6.46935 41.4115 6.19817 41.3386 5.94723C41.2738 5.6882 41.1686 5.4656 41.0229 5.27942C40.8853 5.09324 40.7032 4.94753 40.4765 4.8423C40.2579 4.73707 39.9908 4.68445 39.6751 4.68445C39.3675 4.68445 39.1044 4.73707 38.8859 4.8423C38.6673 4.94753 38.4852 5.09324 38.3395 5.27942C38.1938 5.4656 38.0845 5.6882 38.0116 5.94723C37.9469 6.19817 37.9145 6.46935 37.9145 6.76076C37.9145 7.05217 37.9469 7.32335 38.0116 7.57428C38.0845 7.82522 38.1897 8.04378 38.3273 8.22996C38.4731 8.41614 38.6552 8.56589 38.8737 8.67922C39.1004 8.78445 39.3675 8.83707 39.6751 8.83707Z" fill="#FAFAFA"/>
<path d="M32.6435 6.16579H31.6478V1.62353L30.2757 1.62353V9.95415H31.6478V7.36787H32.7285L34.4162 9.95415H36.019L33.8334 6.60291L35.849 3.55523H34.2948L32.6435 6.16579Z" fill="#FAFAFA"/>
<path d="M19.1727 3.53705L17.5337 3.53705V1.62353H17.1102L15.1183 4.32977V4.67972H16.1412V7.84684C16.1412 8.59445 16.3096 9.13257 16.6464 9.4612C16.9915 9.78982 17.5625 9.95413 18.3594 9.95413H19.1234V8.74644H18.4826C18.1129 8.74644 17.8623 8.65607 17.7309 8.47533C17.5994 8.29458 17.5337 8.01936 17.5337 7.64966V4.67972H19.1727V3.53705Z" fill="#FAFAFA"/>
<path d="M13.3036 9.34977L11.0974 6.35235C10.8577 6.02664 10.5028 5.83152 10.1249 5.78851C10.0388 5.77852 9.96201 5.72859 9.919 5.65331C9.87521 5.57803 9.8706 5.48661 9.90517 5.40672C10.0565 5.05797 10.0657 4.65314 9.90286 4.28288L8.4103 0.873718C8.18906 0.36749 7.68898 0.0410156 7.13666 0.0410156C6.58434 0.0410156 6.08426 0.368258 5.86302 0.873718L4.37046 4.28288C4.20837 4.65314 4.21682 5.05797 4.36816 5.40672C4.40272 5.48661 4.39735 5.57803 4.35433 5.65331C4.31054 5.72859 4.23449 5.77852 4.14846 5.78851C3.77051 5.83152 3.41562 6.02664 3.17595 6.35235L0.969746 9.34977C0.642503 9.79455 0.609471 10.3907 0.885247 10.8692C1.16179 11.347 1.6949 11.6167 2.24338 11.556L5.94215 11.1442C6.3439 11.0997 6.69035 10.89 6.9162 10.5842C6.96766 10.5143 7.04986 10.4728 7.13666 10.4728C7.22347 10.4728 7.30489 10.5143 7.35713 10.5842C7.58297 10.89 7.92942 11.0997 8.33117 11.1442L12.0299 11.556C12.5784 11.6174 13.1115 11.3478 13.3881 10.8692C13.6639 10.3907 13.6308 9.79455 13.3036 9.34977ZM5.33529 4.71076L6.83016 1.29775C6.88393 1.17561 7.00453 1.09649 7.13743 1.09649C7.27032 1.09649 7.39093 1.17561 7.4447 1.29775L8.93957 4.71076C8.98643 4.8183 8.97644 4.94274 8.91192 5.04107C8.84739 5.1394 8.73831 5.19855 8.62001 5.19855L5.65408 5.19855C5.53655 5.19855 5.4267 5.1394 5.36218 5.04107C5.29765 4.94274 5.28766 4.8183 5.33452 4.71076H5.33529ZM6.1027 9.9067C6.04969 10.0119 5.94676 10.0826 5.82999 10.0957L2.12738 10.5074C1.99526 10.522 1.86621 10.4575 1.79937 10.3423C1.73254 10.227 1.74099 10.0834 1.82012 9.97584L4.02862 6.97534C4.09852 6.88085 4.21068 6.82708 4.32821 6.834C4.44574 6.84014 4.55175 6.90543 4.6109 7.0076L4.6132 7.01144L6.09194 9.57254L6.09425 9.57638C6.1534 9.67855 6.15647 9.80299 6.10346 9.90747L6.1027 9.9067ZM7.44086 8.74829C7.37787 8.8566 7.26264 8.9242 7.13666 8.9242C7.01145 8.9242 6.89545 8.85737 6.83246 8.74906L5.69633 6.78176C5.63334 6.67345 5.63334 6.53902 5.69633 6.4307C5.75932 6.32239 5.87455 6.25479 6.00053 6.25479L8.27203 6.25479C8.39724 6.25479 8.51323 6.32085 8.57622 6.42993C8.63921 6.53901 8.63921 6.67268 8.57622 6.78099L7.44086 8.74829ZM12.4747 10.3423C12.4079 10.4575 12.2796 10.5228 12.1467 10.5082L8.4441 10.0964C8.32733 10.0834 8.2244 10.0127 8.17139 9.90747C8.11839 9.80223 8.12146 9.67778 8.18061 9.57638L8.18292 9.57254L9.66166 7.01144L9.66396 7.0076C9.72311 6.90543 9.82912 6.84014 9.94665 6.834C10.0642 6.82785 10.1763 6.88085 10.2462 6.97534L12.4547 9.97584C12.5339 10.0834 12.5415 10.227 12.4755 10.3423H12.4747Z" fill="#E81899"/>
</svg>
