<svg xmlns="http://www.w3.org/2000/svg" width="32" height="32" fill="none" viewBox="0 0 32 32">
  <path fill="#4141FC" d="M0 0h32v32H0z"/>
  <path fill="#fff" d="M15.98 24.904H11.6c-.524 0-.649-.091-.745-.619-.198-1.098-.378-2.198-.57-3.297-.279-1.601-.563-3.202-.84-4.803-.231-1.34-.455-2.68-.686-4.021-.239-1.37-.481-2.741-.719-4.112A2.673 2.673 0 0 1 8 7.608c.002-.305.16-.498.458-.501a146.33 146.33 0 0 1 2.888-.003c.321.003.427.25.484.506.098.446.179.896.258 1.346.201 1.14.398 2.281.596 3.422.318 1.82.634 3.641.956 5.462.096.544.198 1.087.31 1.628a2.073 2.073 0 0 0 2.005 1.684 2.1 2.1 0 0 0 2.078-1.557c.24-.905.347-1.836.514-2.757.292-1.62.576-3.242.86-4.864.226-1.297.446-2.595.668-3.893.01-.053.013-.106.022-.159.128-.745.223-.826.964-.826.773 0 1.545-.002 2.318.001.481.003.679.198.607.667-.18 1.165-.384 2.327-.582 3.489-.275 1.601-.553 3.203-.83 4.804-.235 1.35-.474 2.7-.708 4.051l-.696 4.019c-.013.074-.025.146-.04.219-.093.433-.235.555-.673.555-1.492.002-2.983 0-4.476 0l-.001.003Z"/>
</svg>
