<svg xmlns="http://www.w3.org/2000/svg" width="32" height="32" fill="none" viewBox="0 0 32 32">
  <path fill="#2C2C2C" d="M0 0h32v32H0z"/>
  <path fill="#F9F9F8" d="M21.008 7.347A9.844 9.844 0 0 0 16 6c-1.807 0-3.47.444-5.008 1.347a10.048 10.048 0 0 0-3.645 3.645C6.444 12.53 6 14.193 6 16s.444 3.47 1.347 5.008a10.047 10.047 0 0 0 3.645 3.645C12.53 25.556 14.193 26 16 26s3.47-.444 5.008-1.347a10.047 10.047 0 0 0 3.645-3.645C25.556 19.47 26 17.807 26 16s-.444-3.47-1.347-5.008a10.047 10.047 0 0 0-3.645-3.645Zm-4.39 12.266c-1.125 0-2.028-.317-2.726-.966a3.215 3.215 0 0 1-.935-1.617h10.777a7.657 7.657 0 0 1-.793 2.583h-6.339.016Zm-3.645-4.611c.143-.619.46-1.157.92-1.601.68-.65 1.6-.983 2.725-.983h6.37c.413.809.666 1.664.762 2.584H12.973Zm-3.724-2.98a7.895 7.895 0 0 1 2.82-2.868C13.26 8.44 14.575 8.092 16 8.092c1.426 0 2.742.349 3.93 1.062a8.107 8.107 0 0 1 1.633 1.283h-5.04c-1.141 0-2.155.238-3.043.714-.887.475-1.585 1.125-2.076 1.965a5.05 5.05 0 0 0-.665 1.901H8.265a7.607 7.607 0 0 1 .983-2.979v-.016ZM19.93 22.846c-1.188.713-2.504 1.062-3.93 1.062-1.426 0-2.742-.349-3.93-1.062-1.189-.713-2.14-1.664-2.821-2.868a7.65 7.65 0 0 1-.983-2.932h2.473a5.05 5.05 0 0 0 .665 1.902 5.28 5.28 0 0 0 2.076 1.965c.888.475 1.902.713 3.043.713h4.992a8.04 8.04 0 0 1-1.585 1.236v-.016Z"/>
</svg>
