<svg xmlns="http://www.w3.org/2000/svg" width="32" height="32" fill="none" viewBox="0 0 32 32">
  <path fill="#416CAB" d="M0 0h32v32H0z"/>
  <path fill="#B8B5B1" d="M27.974 14.84C25.212-1.111 4.372 1.968 4 14.84c1.195.611 1.965 1.01 1.965 1.01s-.638.37-1.965 1.247c2.416 15.66 22.912 13.378 24-.027-1.3-.796-2.018-1.22-2.018-1.22s.584-.293 1.992-1.01Zm-10.275 5.575-1.965-3.371-1.964 3.37-1.513-.106 2.84-4.777-2.548-4.115 1.54-.132 1.805 3.052 1.805-2.92 1.434.027-2.363 4.061 2.628 4.857-1.699.054Z"/>
  <path fill="#fff" d="M26.991 14.203C23.248.03 6.124 3.851 4.956 14.203a629.087 629.087 0 0 1 2.92 1.646s-.93.584-2.92 1.858c2.548 13.643 21.026 11.016 22.035-.026-1.858-1.168-2.973-1.858-2.973-1.858s2.522-1.354 2.973-1.62ZM17.7 20.441l-1.965-3.37-1.99 3.37-1.514-.106 2.84-4.778-2.548-4.114 1.54-.133 1.805 3.053 1.806-2.92 1.433.027-2.363 4.06 2.655 4.858-1.699.053Z"/>
</svg>
