<svg xmlns="http://www.w3.org/2000/svg" width="32" height="32" fill="none" viewBox="0 0 32 32">
  <path fill="#254C82" d="M0 0h32v32H0z"/>
  <path fill="#B8B5B1" fill-rule="evenodd" d="M4 14.843c.372-12.876 21.213-15.956 23.974 0a336.73 336.73 0 0 1-1.992 1.009c.014.008.73.432 2.018 1.22C26.912 30.48 6.416 32.763 4 17.1c1.327-.876 1.965-1.247 1.965-1.247s-.77-.398-1.965-1.009Zm22.991-.638C23.248.03 6.124 3.852 4.956 14.205a563.154 563.154 0 0 1 2.92 1.647 496 496 0 0 0-2.92 1.858c2.549 13.646 21.026 11.017 22.035-.027a568.769 568.769 0 0 0-2.973-1.858c.012-.007 2.523-1.355 2.973-1.62Z" clip-rule="evenodd"/>
  <path fill="#fff" d="m15.735 17.073 1.964 3.371 1.7-.053-2.655-4.858 2.362-4.062-1.433-.027-1.806 2.92-1.805-3.053-1.54.133 2.549 4.115-2.84 4.78 1.512.105 1.992-3.371Z"/>
</svg>
