<svg width="32" height="32" viewBox="0 0 32 32" fill="none" xmlns="http://www.w3.org/2000/svg">
<circle cx="16" cy="16" r="16" fill="white"/>
<mask id="mask0_3750_69963" style="mask-type:alpha" maskUnits="userSpaceOnUse" x="21" y="18" width="3" height="5">
<path d="M21.8191 18.3367H23.4062V22.9998H21.8191V18.3367Z" fill="black"/>
</mask>
<g mask="url(#mask0_3750_69963)">
<path d="M23.0935 18.3367H19.0439C18.8719 18.3367 18.7324 18.4758 18.7324 18.6475V22.6889C18.7324 22.8606 18.8719 22.9997 19.0439 22.9997H23.0935C23.2655 22.9997 23.405 22.8606 23.405 22.6889V18.6475C23.405 18.4758 23.2655 18.3367 23.0935 18.3367Z" fill="black" fill-opacity="0.5"/>
</g>
<mask id="mask1_3750_69963" style="mask-type:alpha" maskUnits="userSpaceOnUse" x="21" y="9" width="3" height="5">
<path d="M21.8191 9H23.4062V13.6631H21.8191V9Z" fill="url(#paint0_linear_3750_69963)"/>
</mask>
<g mask="url(#mask1_3750_69963)">
<path d="M23.0935 9H19.0439C18.8719 9 18.7324 9.13918 18.7324 9.31087V13.3522C18.7324 13.5239 18.8719 13.6631 19.0439 13.6631H23.0935C23.2655 13.6631 23.405 13.5239 23.405 13.3522V9.31087C23.405 9.13918 23.2655 9 23.0935 9Z" fill="black" fill-opacity="0.5"/>
</g>
<mask id="mask2_3750_69963" style="mask-type:alpha" maskUnits="userSpaceOnUse" x="24" y="9" width="1" height="5">
<path d="M24.2065 9H24.9961V13.6631H24.2065V9Z" fill="black"/>
</mask>
<g mask="url(#mask2_3750_69963)">
<path d="M24.6843 9H20.6347C20.4627 9 20.3232 9.13918 20.3232 9.31087V13.3522C20.3232 13.5239 20.4627 13.6631 20.6347 13.6631H24.6843C24.8563 13.6631 24.9958 13.5239 24.9958 13.3522V9.31087C24.9958 9.13918 24.8563 9 24.6843 9Z" fill="black" fill-opacity="0.3"/>
</g>
<mask id="mask3_3750_69963" style="mask-type:alpha" maskUnits="userSpaceOnUse" x="24" y="18" width="2" height="5">
<path d="M24.2114 18.3367H25.001V22.9998H24.2114V18.3367Z" fill="black"/>
</mask>
<g mask="url(#mask3_3750_69963)">
<path d="M24.6872 18.3367H20.6377C20.4657 18.3367 20.3262 18.4758 20.3262 18.6475V22.6889C20.3262 22.8606 20.4657 22.9997 20.6377 22.9997H24.6872C24.8593 22.9997 24.9987 22.8606 24.9987 22.6889V18.6475C24.9987 18.4758 24.8593 18.3367 24.6872 18.3367Z" fill="black" fill-opacity="0.3"/>
</g>
<path d="M16.0261 13.6743H11.9958C11.8245 13.6743 11.6857 13.8118 11.6857 13.9815V17.9749C11.6857 18.1446 11.8245 18.2821 11.9958 18.2821H16.0261C16.1974 18.2821 16.3362 18.1446 16.3362 17.9749V13.9815C16.3362 13.8118 16.1974 13.6743 16.0261 13.6743Z" fill="black"/>
<path d="M11.3611 9H7.3115C7.13947 9 7 9.13918 7 9.31087V13.3522C7 13.5239 7.13947 13.6631 7.3115 13.6631H11.3611C11.5331 13.6631 11.6726 13.5239 11.6726 13.3522V9.31087C11.6726 9.13918 11.5331 9 11.3611 9Z" fill="black"/>
<path d="M20.704 9H16.6545C16.4824 9 16.343 9.13918 16.343 9.31087V13.3522C16.343 13.5239 16.4824 13.6631 16.6545 13.6631H20.704C20.876 13.6631 21.0155 13.5239 21.0155 13.3522V9.31087C21.0155 9.13918 20.876 9 20.704 9Z" fill="black"/>
<path d="M11.3611 18.3259H7.3115C7.13947 18.3259 7 18.4651 7 18.6368V22.6781C7 22.8498 7.13947 22.989 7.3115 22.989H11.3611C11.5331 22.989 11.6726 22.8498 11.6726 22.6781V18.6368C11.6726 18.4651 11.5331 18.3259 11.3611 18.3259Z" fill="black"/>
<path d="M20.704 18.3259H16.6545C16.4824 18.3259 16.343 18.4651 16.343 18.6368V22.6781C16.343 22.8498 16.4824 22.989 16.6545 22.989H20.704C20.876 22.989 21.0155 22.8498 21.0155 22.6781V18.6368C21.0155 18.4651 20.876 18.3259 20.704 18.3259Z" fill="black"/>
<defs>
<linearGradient id="paint0_linear_3750_69963" x1="21.6834" y1="11.6008" x2="23.39" y2="11.2545" gradientUnits="userSpaceOnUse">
<stop/>
<stop offset="1" stop-color="white"/>
</linearGradient>
</defs>
</svg>
