<svg width="64" height="50" viewBox="0 0 64 50" fill="none" xmlns="http://www.w3.org/2000/svg">
<mask id="mask0_11375_9273" style="mask-type:alpha" maskUnits="userSpaceOnUse" x="54" y="0" width="10" height="17">
<rect width="9.24107" height="16.3335" transform="matrix(-1 0 0 1 63.3438 0.628906)" fill="black"/>
</mask>
<g mask="url(#mask0_11375_9273)">
<path d="M62.2559 0.628906H48.1006C47.4992 0.628906 47.0117 1.11642 47.0117 1.7178V15.8734C47.0117 16.4748 47.4992 16.9623 48.1006 16.9623H62.2559C62.8572 16.9623 63.3447 16.4748 63.3447 15.8734V1.7178C63.3447 1.11642 62.8572 0.628906 62.2559 0.628906Z" fill="white" fill-opacity="0.5"/>
</g>
<mask id="mask1_11375_9273" style="mask-type:alpha" maskUnits="userSpaceOnUse" x="54" y="33" width="10" height="17">
<rect width="9.24107" height="16.3335" transform="matrix(-1 0 0 1 63.3438 33.293)" fill="black"/>
</mask>
<g mask="url(#mask1_11375_9273)">
<path d="M62.2559 33.293H48.1006C47.4992 33.293 47.0117 33.7805 47.0117 34.3819V48.5375C47.0117 49.1389 47.4992 49.6264 48.1006 49.6264H62.2559C62.8572 49.6264 63.3447 49.1389 63.3447 48.5375V34.3819C63.3447 33.7805 62.8572 33.293 62.2559 33.293Z" fill="white" fill-opacity="0.5"/>
</g>
<path d="M31.9844 17.002H17.8962C17.2977 17.002 16.8125 17.4837 16.8125 18.0779V32.0659C16.8125 32.6601 17.2977 33.1418 17.8962 33.1418H31.9844C32.5829 33.1418 33.0681 32.6601 33.0681 32.0659V18.0779C33.0681 17.4837 32.5829 17.002 31.9844 17.002Z" fill="white"/>
<path d="M15.6777 0.626953H1.52246C0.921097 0.626953 0.433594 1.11447 0.433594 1.71585V15.8715C0.433594 16.4728 0.921097 16.9603 1.52246 16.9603H15.6777C16.2791 16.9603 16.7666 16.4728 16.7666 15.8715V1.71585C16.7666 1.11447 16.2791 0.626953 15.6777 0.626953Z" fill="white"/>
<path d="M48.3379 0.626953H34.1826C33.5813 0.626953 33.0938 1.11447 33.0938 1.71585V15.8715C33.0938 16.4728 33.5813 16.9603 34.1826 16.9603H48.3379C48.9393 16.9603 49.4268 16.4728 49.4268 15.8715V1.71585C49.4268 1.11447 48.9393 0.626953 48.3379 0.626953Z" fill="white"/>
<path d="M15.6778 33.293H1.52246C0.921097 33.293 0.433594 33.7805 0.433594 34.3819V48.5375C0.433594 49.1389 0.921097 49.6264 1.52246 49.6264H15.6778C16.2791 49.6264 16.7666 49.1389 16.7666 48.5375V34.3819C16.7666 33.7805 16.2791 33.293 15.6778 33.293Z" fill="white"/>
<path d="M48.3379 33.293H34.1826C33.5813 33.293 33.0938 33.7805 33.0938 34.3819V48.5375C33.0938 49.1389 33.5813 49.6264 34.1826 49.6264H48.3379C48.9393 49.6264 49.4268 49.1389 49.4268 48.5375V34.3819C49.4268 33.7805 48.9393 33.293 48.3379 33.293Z" fill="white"/>
</svg>
