<?xml version="1.0" encoding="UTF-8"?>
<svg width="256px" height="256px" viewBox="0 0 256 256" version="1.1" xmlns="http://www.w3.org/2000/svg" xmlns:xlink="http://www.w3.org/1999/xlink">
    <title>编组 5</title>
    <g id="Xone" stroke="none" stroke-width="1" fill="none" fill-rule="evenodd">
        <g id="画板" transform="translate(-1273.000000, -35.000000)" fill-rule="nonzero">
            <g id="编组-5" transform="translate(1273.000000, 35.000000)">
                <path d="M178.312229,0 L77.6875886,0 C34.7818971,0 0,34.781957 0,77.6876545 L0,178.312217 C0,221.217824 34.7818971,256 77.6875886,256 L178.312229,256 C221.217829,256 256,221.217824 256,178.312217 L256,77.6876545 C256,34.781957 221.217829,0 178.312229,0 Z" id="路径" fill="#FF0420"></path>
                <path d="M204.62585,59.9653135 C204.62585,57.892438 203.495124,56.0539534 201.756252,55.2766708 C201.122346,54.9928429 200.439678,54.8571429 199.780931,54.8571429 C198.675046,54.8571429 197.582041,55.2396617 196.687764,55.9799352 L141.058599,102.003274 C139.952714,102.916165 139.319728,104.261286 139.319728,105.692305 L139.319728,150.32072 C139.319728,151.751738 139.952714,153.09686 141.058599,154.009751 L196.674884,200.032632 C198.203067,201.291856 200.364235,201.501117 202.115987,200.551674 C203.657051,199.711887 204.62585,198.03414 204.62585,196.159012 L204.62585,169.630336 C204.62585,168.199317 203.991944,166.854196 202.886059,165.929425 L172.165077,140.511935 C170.835622,139.400748 170.065551,137.785141 170.065551,136.057135 L170.065551,119.955889 C170.065551,118.227884 170.835622,116.611362 172.165077,115.501089 L202.886059,90.0835994 C203.991944,89.1707081 204.62585,87.8258611 204.62585,86.3822318 L204.62585,59.9653135 Z" id="路径" fill="#FFFFFF"></path>
                <path d="M114.941398,154.010268 C116.047285,153.096464 116.680272,151.752258 116.680272,150.320328 L116.680272,105.691968 C116.680272,104.260951 116.047285,102.915831 114.941398,102.002941 L59.3123389,55.9799338 C58.4178769,55.2396612 57.3246865,54.8571429 56.2190755,54.8571429 C55.548275,54.8571429 54.8773825,54.9928428 54.2438436,55.2766703 C52.5046937,56.053952 51.3741497,57.8924342 51.3741497,59.9653072 L51.3741497,86.3821928 C51.3741497,87.813484 52.0077806,89.1585121 53.1133915,90.0841956 L83.8348767,115.501654 C85.1641492,116.611926 85.9343139,118.228445 85.9343139,119.955534 L85.9343139,136.057675 C85.9343139,137.784764 85.1641492,139.401284 83.8348767,140.511555 L53.1133915,165.929014 C52.0077806,166.841904 51.3741497,168.198903 51.3741497,169.630834 L51.3741497,196.158564 C51.3741497,198.033689 52.3307143,199.712347 53.8835563,200.551219 C55.6227982,201.501576 57.809179,201.291401 59.3247594,200.033093 L114.954279,154.010268 L114.941398,154.010268 Z" id="路径" fill="#FFFFFF"></path>
            </g>
        </g>
    </g>
</svg>