<svg xmlns="http://www.w3.org/2000/svg" width="32" height="32" fill="none" viewBox="0 0 32 32">
  <path fill="#7D3FE4" d="M0 0h32v32H0z"/>
  <path fill="#fff" fill-rule="evenodd" d="M25.822 17.096c-.002 1.024-.004 2.05.005 3.074.008.895-.381 1.54-1.15 1.976-1.499.85-2.998 1.7-4.497 2.552l-.007.004-2.992 1.697c-.774.44-1.56.466-2.339.026-1.238-.7-2.474-1.401-3.71-2.103-1.263-.717-2.524-1.433-3.788-2.147-.813-.46-1.202-1.129-1.196-2.073a712.92 712.92 0 0 0 0-8.42c-.005-.946.395-1.609 1.205-2.067 2.467-1.394 4.93-2.793 7.39-4.198.834-.477 1.648-.48 2.482-.004a1422.32 1422.32 0 0 0 7.324 4.148c.882.494 1.312 1.2 1.284 2.23a85.8 85.8 0 0 0-.014 2.87 196.815 196.815 0 0 1 .003 2.435Zm-1.753-1.278c-.671.452-1.418.59-2.22.581a318.547 318.547 0 0 0-4.043-.008l-1.64.002-1.719.002c-1.482.003-2.964.006-4.446-.007-1.06-.009-1.75.573-2.347 1.343a.601.601 0 0 0-.113.38v.228c0 .609-.002 1.218.008 1.828.004.348.172.607.481.782a2912.17 2912.17 0 0 1 7.43 4.215c.365.208.7.203 1.063-.004a2556.31 2556.31 0 0 1 7.396-4.193c.322-.182.509-.44.511-.807.008-1.266.008-2.533.009-3.799v-.351c0-.293-.117-.362-.37-.192Zm-8.662 2.718c.005.349.004.698 0 1.047-.014.958-.58 1.53-1.528 1.547-.188.002-.376.001-.564 0h-.282v-.004l-.325.002c-.24.003-.482.007-.722-.006-.737-.038-1.288-.591-1.31-1.324-.011-.344-.01-.688-.008-1.032.002-.247.003-.494 0-.74-.004-.305.127-.428.433-.443.927-.043.946-.032.947.899 0 .136 0 .273.002.41l.002.476c0 .263.119.4.39.397a75.78 75.78 0 0 1 1.168-.001c.273.002.38-.137.377-.402a34.56 34.56 0 0 1 0-.72c.001-.216.002-.433 0-.65-.002-.264.105-.4.38-.404l.087-.001c.56-.009.796-.012.893.102.07.084.068.23.063.482a8.31 8.31 0 0 0-.003.365Zm5.895 1.278a1.347 1.347 0 0 1-1.286 1.307c-.24.014-.482.01-.724.007l-.323-.003c-.11 0-.219.001-.328.003-.24.003-.48.007-.72-.006-.73-.042-1.297-.585-1.337-1.315-.022-.405-.018-.81-.014-1.217.002-.212.004-.424.002-.636-.002-.255.128-.362.373-.366l.088-.001c.56-.01.796-.013.894.102.073.084.07.233.065.49-.002.1-.004.218-.002.354l.002.133c.004.224.008.448-.002.672-.014.316.137.436.436.43a28.79 28.79 0 0 1 1.087-.002c.29.005.416-.132.414-.416-.001-.202 0-.404.003-.607.002-.24.004-.481.001-.722-.004-.305.137-.423.439-.438.927-.043.94-.037.94.902 0 .125 0 .25.002.374.002.319.003.638-.01.955Zm2.651-8.97a.872.872 0 0 1 .475.786c.014.563.012 1.127.003 1.691a.59.59 0 0 1-.099.34c-.604.753-1.288 1.367-2.341 1.363-1.448-.004-2.895-.003-4.343-.002h-1.86c-.563 0-1.124.002-1.686.003-1.386.003-2.77.006-4.156-.009-.737-.007-1.411.148-2.025.55-.277.182-.385.106-.384-.205v-1.045c.002-.873.002-1.747.005-2.62.001-.415.196-.696.563-.902 2.457-1.383 4.909-2.776 7.358-4.17.348-.199.674-.21 1.026-.009a2426.72 2426.72 0 0 0 7.464 4.229Zm-8.923 3.025c.278 0 .382-.127.379-.394-.004-.242-.002-.484 0-.726.001-.335.003-.671-.007-1.007-.025-.856-.597-1.423-1.458-1.46a11.626 11.626 0 0 0-.591-.003 22.437 22.437 0 0 1-.595 0 13.24 13.24 0 0 0-.667.004c-.834.034-1.404.614-1.42 1.44-.006.295-.005.591-.004.886v.364c0 .463 0 .692.116.804.116.113.349.106.817.097.335-.008.456-.144.45-.462a28.257 28.257 0 0 1-.001-.888l.003-.442c0-.257.101-.401.384-.393.39.011.779.01 1.168 0 .279-.005.386.13.382.393-.006.252-.003.504 0 .756l.001.05c.007.534-.033.779.07.89.106.114.362.09.973.091Zm5.015-.09c.117.114.352.106.827.094.303-.008.449-.114.438-.427a17.015 17.015 0 0 1-.003-.639l.002-.246v-.256c.002-.184.003-.367 0-.55-.019-.846-.554-1.428-1.393-1.466a21.862 21.862 0 0 0-1.933 0c-.815.034-1.372.613-1.407 1.427-.016.388-.01.778-.005 1.168.007.537-.036.783.067.894.105.114.359.089.968.091.273 0 .39-.119.385-.389-.003-.186 0-.373.001-.56a16.43 16.43 0 0 0-.004-.769c-.013-.352.136-.482.478-.465.362.018.725.012 1.088.004.258-.006.367.118.37.362l.001.178c.002.25.005.5.005.75 0 .458 0 .687.115.799Z" clip-rule="evenodd"/>
</svg>
