<svg xmlns="http://www.w3.org/2000/svg" width="133" height="27" viewBox="0 0 133 27" fill="none">
<path d="M27.1821 15.7275C27.1821 16.9774 27.1821 18.2275 27.1821 19.4775C26.989 19.6427 26.7492 19.6323 26.516 19.6324C20.5075 19.6354 14.4988 19.6367 8.4903 19.6315C7.684 19.6308 7.53459 19.4819 7.53322 18.6878C7.52722 15.4355 7.52749 12.1834 7.53309 8.93111C7.53445 8.11883 7.68237 7.9775 8.53096 7.97659C13.1002 7.97163 17.6693 7.97489 22.2385 7.97424C23.1999 7.97411 23.2007 7.97346 23.2006 7.04754C23.2005 6.43875 23.1954 5.82983 23.2016 5.22117C23.205 4.87818 23.0579 4.71674 22.6948 4.7315C22.5112 4.73894 22.3266 4.73045 22.1426 4.73045C15.1131 4.73032 8.08353 4.73072 1.05409 4.73006C0.0113278 4.72993 -0.000543473 4.72836 0.0147391 3.74602C0.0298852 2.77191 -0.0518493 1.79622 0.0600411 0.823545C8.96679 0.823545 17.8735 0.826027 26.7803 0.814272C27.1243 0.81388 27.1934 0.878664 27.1921 1.2082C27.1761 4.76585 27.1821 8.32363 27.1821 11.8813C26.9234 12.0875 26.6111 12.0342 26.3154 12.0345C21.8164 12.0379 17.3176 12.0366 12.8187 12.037C11.7748 12.0371 11.7743 12.0378 11.7746 13.036C11.7747 13.6924 11.7655 14.3488 11.7782 15.005C11.7877 15.4917 11.8529 15.5485 12.3672 15.568C12.6847 15.58 13.0026 15.5719 13.3204 15.5719C17.6521 15.5722 21.9837 15.5708 26.3154 15.5744C26.6111 15.5745 26.9234 15.5211 27.1821 15.7275Z" fill="#E13022"/>
<path d="M27.1818 26.6889C18.3255 26.6889 9.4694 26.6863 0.613278 26.6973C0.202558 26.6978 0.0542354 26.6445 0.0557364 26.1932C0.0757948 20.328 0.0730657 14.4628 0.0596935 8.59763C0.0588747 8.22198 0.15521 8.11854 0.548054 8.13056C1.5013 8.15968 2.45674 8.15772 3.41026 8.13212C3.84568 8.1205 3.97927 8.24824 3.9779 8.67574C3.96235 13.3551 3.97122 18.0345 3.96112 22.7138C3.96044 23.0258 4.00355 23.1497 4.38043 23.1491C11.9308 23.1371 19.4813 23.14 27.0317 23.1396C27.0818 23.1396 27.1318 23.1343 27.1819 23.1314C27.1818 24.3171 27.1818 25.5031 27.1818 26.6889Z" fill="#E13022"/>
<path d="M54.8443 18.9756C54.8443 19.5602 54.8443 20.8523 54.8443 22.1443C54.6545 22.3151 54.4186 22.3043 54.1893 22.3044C48.281 22.3075 43.0765 22.3089 37.1681 22.3035C36.3753 22.3028 36.2284 22.1489 36.227 21.3281C36.2211 17.9664 36.2214 16.0197 36.2269 12.6581C36.2282 11.8185 36.3737 11.6724 37.2081 11.6714C41.7011 11.6663 46.194 11.6697 50.6871 11.669C51.6325 11.6689 51.6333 11.6682 51.6332 10.7111C51.633 10.0819 51.6281 9.45248 51.6341 8.82335C51.6375 8.46883 51.4928 8.30196 51.1358 8.31722C50.9553 8.32491 50.7738 8.31614 50.5928 8.31614C43.6805 8.316 44.1479 8.31641 37.2356 8.31573C36.2102 8.3156 36.1986 8.31398 36.2136 7.2986C36.2285 6.29158 36.1483 5.9905 36.2581 4.98511C45.0164 4.98511 45.6909 4.98768 54.4492 4.97553C54.7874 4.97512 54.8555 5.04208 54.8541 5.38271C54.8384 9.06 54.8443 11.3226 54.8443 14.9999C54.5899 15.2131 54.2828 15.158 53.992 15.1583C49.5681 15.1618 45.1443 15.1604 40.7204 15.1608C39.6939 15.161 39.6934 15.1616 39.6937 16.1935C39.6938 16.8719 39.6848 17.5504 39.6973 18.2287C39.7065 18.7317 39.7707 18.7905 40.2764 18.8106C40.5886 18.823 40.9012 18.8146 41.2137 18.8146C45.4732 18.8149 49.7326 18.8136 53.992 18.8172C54.2828 18.8175 54.5901 18.7622 54.8443 18.9756Z" fill="#E13022"/>
<path d="M120.365 22.5115V11.6098C120.365 10.985 120.528 10.4177 120.854 9.90796C121.181 9.39823 121.61 8.98716 122.143 8.67474C122.692 8.36232 123.285 8.20612 123.921 8.20612H132.217V11.4372H124.049C123.963 11.4372 123.886 11.47 123.817 11.5358C123.766 11.5851 123.74 11.6509 123.74 11.7331V22.5115H120.365Z" fill="#E13022"/>
<path d="M114.124 22.5113V8.20596H117.499V22.5113H114.124ZM114.124 6.77542V3.51971H117.499V6.77542H114.124Z" fill="#E13022"/>
<path d="M99.789 22.5115C99.1362 22.5115 98.535 22.3553 97.9853 22.0429C97.4528 21.7305 97.0233 21.3194 96.697 20.8096C96.3878 20.2999 96.2332 19.7326 96.2332 19.1078V13.731H108.034V11.7331C108.034 11.6509 108 11.5851 107.931 11.5358C107.88 11.47 107.811 11.4372 107.725 11.4372H96.2332V8.20612H107.854C108.507 8.20612 109.099 8.36232 109.632 8.67474C110.182 8.98716 110.611 9.39823 110.92 9.90796C111.247 10.4177 111.41 10.985 111.41 11.6098V22.5115H99.789ZM99.9178 19.2805H108.034V16.6414H99.6086V18.9845C99.6086 19.0667 99.6344 19.1407 99.6859 19.2065C99.7546 19.2558 99.8319 19.2805 99.9178 19.2805Z" fill="#E13022"/>
<path d="M77.7672 22.5116V4.75317H94.8507V8.03355H81.1942V11.9799H92.1709V15.2849H81.1942V22.5116H77.7672Z" fill="#E13022"/>
<path d="M57.2085 22.5116V4.75323H60.6355V11.9799H64.9901L71.3288 4.75323H75.0392V5.69048L68.0821 13.6324L75.065 21.5744V22.5116H71.3288L64.9901 15.285H60.6355V22.5116H57.2085Z" fill="#E13022"/>
</svg>
