<svg xmlns="http://www.w3.org/2000/svg" width="32" height="32" fill="none" viewBox="0 0 32 32">
  <path fill="#FF4E17" d="M0 0h32v32H0z"/>
  <path fill="#fff" d="M21.22 14.506c.322-.66.547-1.486.547-2.514 0-1.411-.56-2.688-1.575-3.597-1.003-.896-2.359-1.37-3.922-1.37L10.883 7A1.89 1.89 0 0 0 9 8.899V25h9.424C21.944 25 24 22.04 24 19.37a5.693 5.693 0 0 0-2.78-4.864Zm-4.95-6.092c2.529 0 4.12 1.528 4.12 3.578 0 2.75-2.055 4.008-4.135 4.008-1.954 0-3.563-1.623-3.563-4.137v-1.389c0-.912-.54-1.73-1.377-2v-.06h4.954Z"/>
</svg>
