<svg xmlns="http://www.w3.org/2000/svg" width="32" height="32" fill="none" viewBox="0 0 32 32">
  <path fill="#F7C2FF" d="M0 0h32v32H0z"/>
  <path fill="#000" d="M15.634 6.007a10 10 0 0 1 4.999 1.13l-2.177 4.166c-.256.49-.86.665-1.395.529a4.306 4.306 0 0 0-3.326.513 4.301 4.301 0 0 0 3.5 7.774c.529-.158 1.14-.008 1.416.47L21 24.66a10 10 0 1 1-5.367-18.653Zm3.858 12.5c.261-.363.738-.545 1.144-.357l4.436 2.057a10 10 0 0 1-2.186 3.044l-3.367-3.545c-.308-.325-.288-.835-.027-1.198Zm6.326-4.408a10 10 0 0 1 .01 3.748l-4.805-.903c-.44-.082-.722-.508-.723-.956-.001-.447.278-.875.718-.96l4.8-.928ZM22.75 8.623a10 10 0 0 1 2.242 3.003l-4.397 2.14c-.402.195-.882.021-1.15-.337-.267-.36-.298-.868.004-1.199l3.301-3.607Z"/>
</svg>
