<svg xmlns="http://www.w3.org/2000/svg" width="32" height="32" fill="none" viewBox="0 0 32 32">
  <path fill="#F5B5FF" d="M0 0h32v32H0z"/>
  <path fill="#000" d="m14.206 14.038-.863-1.768c-.08-.171 0-.352.19-.392l6.106-1.467c.19-.05.341.08.341.271v2.27a.29.29 0 0 1-.21.272l-4.863 1.165a.654.654 0 0 0-.48.603l-.01 1.95c0 .2-.161.411-.362.451l-1.484.342c-.31.07-.571-.13-.571-.452v-1.899c0-.2.16-.402.36-.452l1.595-.372c.25-.05.36-.291.25-.522Z"/>
  <path fill="#000" d="m12.22 18.71 3.299-.764c.29-.07.42-.342.29-.613l-.761-1.577c-.12-.252 0-.513.27-.573l4.341-1.035c.19-.05.341.08.341.271v2.1c0 .221-.18.442-.391.493l-3.008.723c-.29.06-.42.341-.29.613l.832 1.718c.08.17 0 .352-.19.392l-4.602 1.065c-.19.04-.341-.08-.341-.272v-2.27c0-.12.09-.241.21-.272Z"/>
  <path fill="#000" d="M15.986 26.16a.66.66 0 1 1 0 1.319.66.66 0 0 1 0-1.32Zm-2.488-1.806a.878.878 0 1 1 0 1.756.878.878 0 0 1 0-1.756Zm5.195 0a.66.66 0 1 1 0 1.32.66.66 0 0 1 0-1.32Zm-8.12-1.805a.66.66 0 1 1-.001 1.32.66.66 0 0 1 0-1.32Zm5.413 0a.66.66 0 1 1 0 1.321.66.66 0 0 1 0-1.321Zm5.414 0a.66.66 0 1 1 0 1.321.66.66 0 0 1 0-1.321ZM7.865 20.744a.66.66 0 1 1-.001 1.32.66.66 0 0 1 .001-1.32Zm10.828 0a.66.66 0 1 1 0 1.321.66.66 0 0 1 0-1.32Zm5.416 0a.66.66 0 1 1 0 1.321.66.66 0 0 1 0-1.32Zm-2.853-2.192a.879.879 0 1 1 0 1.757.879.879 0 0 1 0-1.757Zm-10.666.438a.44.44 0 1 1-.002.879.44.44 0 0 1 .002-.879Zm7.978-1.396a.438.438 0 1 1 0 .876.438.438 0 0 1 0-.876Zm-10.703-.46a.66.66 0 1 1 0 1.32.66.66 0 0 1 0-1.32Zm16.242 0a.66.66 0 1 1 .001 1.32.66.66 0 0 1 0-1.32ZM21.4 15.33a.66.66 0 1 1 .001 1.32.66.66 0 0 1 0-1.32Zm-10.874-.292a.615.615 0 1 1 0 1.23.615.615 0 0 1 0-1.23Zm13.595-1.756a.879.879 0 1 1 0 1.758.879.879 0 0 1 0-1.758Zm-16.256.242a.66.66 0 1 1-.001 1.32.66.66 0 0 1 .001-1.32Zm2.707-1.804a.66.66 0 1 1 0 1.32.66.66 0 0 1 0-1.32Zm10.828 0a.66.66 0 1 1 0 1.32.66.66 0 0 1 0-1.32ZM7.878 10.228a.879.879 0 1 1 0 1.758.879.879 0 0 1 0-1.758Zm5.401-.313a.66.66 0 1 1 .001 1.32.66.66 0 0 1 0-1.32Zm10.83 0a.66.66 0 1 1 0 1.32.66.66 0 0 1 0-1.32Zm-8.123-1.287a.438.438 0 1 1 0 .877.438.438 0 0 1 0-.877Zm-5.414-.518a.66.66 0 1 1 .001 1.32.66.66 0 0 1 0-1.32Zm10.828 0a.66.66 0 1 1 .001 1.32.66.66 0 0 1 0-1.32Zm-2.72-2.096a.88.88 0 1 1-.001 1.758.88.88 0 0 1 0-1.758Zm-5.4.29a.66.66 0 1 1-.001 1.321.66.66 0 0 1 0-1.32ZM15.985 4.5a.66.66 0 1 1 0 1.321.66.66 0 0 1 0-1.321Z"/>
</svg>
