<svg xmlns="http://www.w3.org/2000/svg" width="32" height="32" fill="none" viewBox="0 0 32 32">
  <path fill="#F7C2FF" d="M0 0h32v32H0z"/>
  <path fill="#000" d="M14.875 23.313H9.25v-1.375a2 2 0 0 1 2-2h7.278c.116-.05.26-.124.397-.226.255-.191.45-.437.45-.9 0-.462-.195-.708-.45-.9a1.934 1.934 0 0 0-.397-.224h-5.34c-.18 0-.358-.03-.528-.085L13.187 16l-.527 1.603-.002-.001-.01-.003-.015-.005-.042-.015a5.493 5.493 0 0 1-.488-.207c-.29-.14-.684-.36-1.086-.677-.803-.634-1.767-1.776-1.767-3.508 0-1.73.963-2.873 1.767-3.507a5.92 5.92 0 0 1 1.574-.884l.042-.015.015-.005.01-.003h.001s.01.024.386 1.168l-.386-1.169c.17-.056.35-.085.528-.085h1.688V7h3.375v1.688h4.5v1.374a2 2 0 0 1-2 2h-7.217a2.506 2.506 0 0 0-.425.266c-.322.255-.483.518-.483.86 0 .34.162.604.483.859.146.114.299.202.425.265h5.28c.138 0 .275.018.41.051L18.812 16l.41-1.637.002.001h.003l.007.002.018.005.045.012a4.913 4.913 0 0 1 .515.182c.304.127.717.332 1.137.647.87.652 1.8 1.813 1.8 3.6 0 1.788-.93 2.948-1.8 3.6a5.311 5.311 0 0 1-1.652.83l-.045.012-.018.005-.007.002h-.004v.001s-.002 0-.412-1.637l.411 1.637a1.71 1.71 0 0 1-.41.05h-.563V25h-3.375v-1.688Zm-1.142-8.91-.003-.002h-.004a.074.074 0 0 1 .007.003Zm-.007-2.43h.004c.003 0 .003-.002.003-.002l-.007.002Z"/>
</svg>
