<svg xmlns="http://www.w3.org/2000/svg" width="32" height="32" fill="none" viewBox="0 0 32 32">
  <g clip-path="url(#a)">
    <path fill="#2A136A" d="M0 0h32v32H0z"/>
    <path fill="#fff" d="M27 15.996v-.034c-.01-1.473-.469-2.942-1.374-4.13-.632-.829-1.472-1.433-2.24-2.112-.667-.589-1.185-1.342-1.738-2.046a7.11 7.11 0 0 0-3.76-2.404l-.056-.015A7.79 7.79 0 0 0 15.997 5c-.037 0-.093 0-.159.004a8.194 8.194 0 0 0-1.393.177c-1.07.217-2.1.666-2.97 1.36-.77.618-1.352 1.429-1.963 2.206-1.202 1.529-2.945 2.384-3.828 4.215a6.935 6.935 0 0 0-.633 2.197l-.015.118a6.74 6.74 0 0 0-.03.414l-.001.044a5.63 5.63 0 0 0-.002.423v.06a7.358 7.358 0 0 0 .067.766 6.776 6.776 0 0 0 1.307 3.182c.593.776 1.372 1.372 2.103 1.997.644.55 1.136 1.223 1.66 1.89a7.919 7.919 0 0 0 1.89 1.75l.01.007.105.066c2.057 1.368 4.9 1.482 7.08.366.227-.117.446-.248.656-.395.782-.506 1.487-1.166 2.115-1.965.53-.676 1.04-1.306 1.69-1.86.738-.63 1.499-1.231 2.073-2.037.825-1.16 1.235-2.558 1.241-3.955v-.038.003Zm-14.034 9.187a5.08 5.08 0 0 1-1.656-2.771.287.287 0 0 1 .043-.224.265.265 0 0 1 .188-.116c.12-.013.239-.03.357-.051 1.87-.34 3.31-1.592 4.085-3.247.076.165.156.328.245.486.903 1.588 2.448 2.55 4.133 2.793.036-.235.052-.474.05-.713-1.013-.27-1.923-1.018-2.543-1.982-1.137-1.768-1.274-4.174-.36-6.08.504-1.048 1.395-2.04 2.454-2.497.407-.175.833.204.751.655a4.983 4.983 0 0 1-1.59 2.843 4.897 4.897 0 0 1-1.793 1.012 6.032 6.032 0 0 0-.037.673h-.003v.095h.003c.002.215.014.428.038.64a5.059 5.059 0 0 1 3.209 3.133c.649 1.879.032 4-1.418 5.277a4.602 4.602 0 0 1-.201.164c-1.863 1.369-4.162 1.288-5.953-.088l-.002-.002Zm0-18.364c2.015-1.558 4.481-1.332 6.298.207.562.54 1.01 1.21 1.272 1.975.067.194.12.39.16.589a.285.285 0 0 1-.045.217.263.263 0 0 1-.184.113c-1.42.178-2.77.868-3.716 2.043-.306.38-.564.8-.768 1.248-.648-1.397-1.77-2.52-3.268-3.029a5.897 5.897 0 0 0-1.09-.254 4.37 4.37 0 0 0-.044.693l.02.005c2.232.644 3.444 3.1 3.482 5.369-.035 2.047-.97 4.135-2.787 5.085-.096.05-.191.094-.288.134-.401.162-.82-.188-.746-.63v-.01c.314-1.852 1.704-3.324 3.386-3.874.03-.242.049-.48.053-.707a6.429 6.429 0 0 0-.056-.704 4.652 4.652 0 0 1-1.209-.58c-1.589-1.068-2.504-2.998-2.173-4.964A4.905 4.905 0 0 1 12.8 6.954c.055-.047.109-.095.165-.139l.001.004Zm12.391 9.832c-.154 1.63-.798 2.913-1.861 3.88a4.533 4.533 0 0 1-.21.178c-.398.319-.97.086-1.086-.424a.017.017 0 0 0-.004-.01c-.554-2.38-2.509-3.79-4.672-4.264a6.876 6.876 0 0 0 1.7-.596c1.466-.751 2.602-2.128 2.972-3.731.115-.499.675-.713 1.077-.415.147.108.286.226.417.352 1.205 1.357 1.847 3.117 1.666 5.027l.001.003ZM8.311 11.622c.132-.125.272-.243.418-.352.4-.298.961-.082 1.076.415.37 1.601 1.506 2.98 2.973 3.731.534.273 1.108.47 1.699.595-2.163.475-4.117 1.884-4.672 4.266 0 .004-.001.006-.003.01-.117.508-.69.74-1.087.423a4.06 4.06 0 0 1-.21-.178c-1.062-.965-1.706-2.25-1.86-3.88-.181-1.911.46-3.67 1.665-5.029l.001-.001Z"/>
  </g>
  <defs>
    <clipPath id="a">
      <path fill="#fff" d="M0 0h32v32H0z"/>
    </clipPath>
  </defs>
</svg>
