<?xml version="1.0" standalone="no"?>
<!DOCTYPE svg PUBLIC "-//W3C//DTD SVG 20010904//EN"
 "http://www.w3.org/TR/2001/REC-SVG-20010904/DTD/svg10.dtd">
<svg version="1.0" xmlns="http://www.w3.org/2000/svg"
 width="700.000000pt" height="700.000000pt" viewBox="0 0 700.000000 700.000000"
 preserveAspectRatio="xMidYMid meet" fill="#000000">
<g transform="translate(0.000000,700.000000) scale(0.100000,-0.100000)"
fill="#000000" stroke="none">
<path d="M712 6989 c-175 -29 -320 -107 -457 -244 -141 -141 -215 -281 -244
-465 -15 -91 -15 -5469 0 -5560 29 -184 103 -324 244 -465 141 -141 281 -215
465 -244 44 -8 928 -11 2785 -11 2618 0 2723 1 2811 19 177 37 318 115 446
249 121 127 190 261 222 432 14 73 16 373 16 2799 0 1836 -4 2737 -11 2781
-26 165 -105 324 -223 447 -118 125 -228 193 -398 245 l-73 23 -2765 1 c-1584
1 -2788 -2 -2818 -7z m4748 -2979 l0 -1280 -680 0 -680 0 0 600 0 600 -600 0
-600 0 0 680 0 680 1280 0 1280 0 0 -1280z m-2390 -1790 l0 -680 -680 0 -680
0 0 680 0 680 680 0 680 0 0 -680z"/>
</g>
</svg>
