<svg xmlns="http://www.w3.org/2000/svg" width="32" height="32" fill="none" viewBox="0 0 32 32">
  <path fill="#F5B5FF" d="M0 0h32v32H0z"/>
  <path fill="#000" fill-rule="evenodd" d="M16.024 4.25 6 10.126v11.739l10.024 5.876 10.024-5.876V10.126L16.024 4.25ZM7 21.292V11.285l3 1.759v-1.16l-2.511-1.472 8.535-5.003 8.535 5.003-2.559 1.5v1.16l3.048-1.787v10.007l-8.524 4.997v-4.011h-1v4.01L7 21.293Z" clip-rule="evenodd"/>
  <path fill="#000" d="m14.206 14.038-.863-1.768c-.08-.171 0-.352.19-.392l6.106-1.467c.19-.05.341.08.341.271v2.27a.29.29 0 0 1-.21.272l-4.863 1.165a.654.654 0 0 0-.48.603l-.01 1.95c0 .2-.161.411-.362.451l-1.484.342c-.31.07-.571-.13-.571-.452v-1.899c0-.2.16-.402.36-.452l1.595-.372c.25-.05.36-.291.25-.522Z"/>
  <path fill="#000" d="m12.22 18.71 3.299-.764c.29-.07.42-.342.29-.613l-.761-1.577c-.12-.252 0-.513.27-.573l4.341-1.035c.19-.05.341.08.341.271v2.1c0 .221-.18.442-.391.493l-3.008.723c-.29.06-.42.341-.29.613l.832 1.718c.08.17 0 .352-.19.392l-4.602 1.065c-.19.04-.341-.08-.341-.272v-2.27c0-.12.09-.241.21-.272Z"/>
</svg>
