<svg xmlns="http://www.w3.org/2000/svg" width="32" height="32" fill="none" viewBox="0 0 32 32">
  <path fill="#6CF9D8" d="M0 0h32v32H0z"/>
  <path fill="#2D2E33" fill-rule="evenodd" d="m22.576 8 1.632 1.632-5.455 5.456a2.845 2.845 0 0 0-1.633-1.633L22.576 8Zm-7.489 5.455L9.633 8 8 9.632l5.455 5.456a2.846 2.846 0 0 1 1.633-1.633Zm-1.632 3.665L8 22.576l1.632 1.632 5.456-5.455a2.846 2.846 0 0 1-1.633-1.633Zm3.665 1.633 5.456 5.455 1.632-1.632-5.455-5.456a2.845 2.845 0 0 1-1.633 1.633Z" clip-rule="evenodd"/>
</svg>
