<svg xmlns="http://www.w3.org/2000/svg" width="32" height="32" fill="none" viewBox="0 0 32 32">
  <path fill="#000" d="M0 0h32v32H0z"/>
  <path fill="#4BBB93" fill-rule="evenodd" d="M15.238 7.026c0-.567.46-1.026 1.026-1.026h.505A9.23 9.23 0 0 1 26 15.23v6.84a1.026 1.026 0 1 1-2.051 0v-6.84a7.18 7.18 0 0 0-7.18-7.179h-.505a1.026 1.026 0 0 1-1.026-1.025Zm-4.518-.894c.567 0 1.026.459 1.026 1.025v4.28a6.265 6.265 0 0 1 4.253-1.659c3.487 0 6.305 2.84 6.305 6.333v8.863a1.026 1.026 0 1 1-2.051 0v-4.189a6.265 6.265 0 0 1-4.254 1.658c-3.487 0-6.304-2.84-6.304-6.332V7.157c0-.566.459-1.025 1.025-1.025Zm9.533 9.979c0-2.37-1.91-4.282-4.254-4.282-2.344 0-4.253 1.912-4.253 4.282s1.91 4.281 4.253 4.281c2.344 0 4.254-1.912 4.254-4.281ZM7.026 8.639c.566 0 1.025.46 1.025 1.026v7.104a7.18 7.18 0 0 0 7.18 7.18h.505a1.026 1.026 0 0 1 0 2.05h-.505A9.23 9.23 0 0 1 6 16.77V9.665c0-.567.46-1.026 1.026-1.026Z" clip-rule="evenodd"/>
</svg>
