<svg xmlns="http://www.w3.org/2000/svg" width="32" height="32" fill="none" viewBox="0 0 32 32">
  <path fill="#E84142" d="M0 0h32v32H0z"/>
  <path fill="#fff" fill-rule="evenodd" d="M11.524 23h-3.03c-.638 0-.952 0-1.144-.123a.77.77 0 0 1-.35-.602c-.01-.226.146-.503.461-1.055l7.484-13.193c.319-.56.48-.84.683-.944a.772.772 0 0 1 .699 0c.203.104.364.384.683.944l1.538 2.686.008.014c.344.6.519.906.595 1.226.084.349.084.717 0 1.066-.077.322-.25.63-.599 1.24l-3.931 6.95-.01.017c-.347.606-.522.913-.765 1.145a2.288 2.288 0 0 1-.933.54c-.318.089-.675.089-1.389.089Zm7.655 0h4.344c.64 0 .963 0 1.155-.126a.768.768 0 0 0 .349-.607c.01-.219-.143-.484-.445-1.005a7.31 7.31 0 0 1-.031-.054l-2.176-3.722-.024-.041c-.306-.518-.46-.779-.659-.88a.764.764 0 0 0-.694 0c-.2.104-.36.377-.68.925l-2.167 3.722-.008.013c-.317.548-.476.821-.464 1.046a.777.777 0 0 0 .349.606c.188.123.51.123 1.151.123Z" clip-rule="evenodd"/>
</svg>
