<svg xmlns="http://www.w3.org/2000/svg" width="32" height="32" fill="none" viewBox="0 0 32 32">
  <path fill="#2D303D" d="M0 0h32v32H0z"/>
  <path fill="#444" d="M8.904 22.108a3.867 3.867 0 1 0 0-7.734 3.867 3.867 0 0 0 0 7.734Z"/>
  <path fill="#DDD" d="M23.066 22.108a3.867 3.867 0 1 0 0-7.734 3.867 3.867 0 0 0 0 7.734Z"/>
  <mask id="a" width="20" height="10" x="6" y="9" maskUnits="userSpaceOnUse" style="mask-type:alpha">
    <path fill="#C4C4C4" d="M25.47 9.2H6.446v9.459H25.47V9.2Z"/>
  </mask>
  <g mask="url(#a)">
    <mask id="b" width="20" height="27" x="6" y="9" maskUnits="userSpaceOnUse" style="mask-type:alpha">
      <path fill="#E9BCFF" fill-rule="evenodd" d="M15.962 9.344c-5.22 0-9.452 4.107-9.452 9.174v16.975h4.74V18.956c0-2.526 2.11-4.573 4.711-4.573 2.603 0 4.713 2.047 4.713 4.573v16.537h4.74V18.518c0-5.067-4.232-9.174-9.452-9.174Z" clip-rule="evenodd"/>
    </mask>
    <g mask="url(#b)">
      <path fill="#E9BCFF" d="M6.51 18.796a9.452 9.452 0 0 1 18.903 0v16.697H6.51V18.796Z"/>
      <path fill="#2C98F3" d="M7.582 18.94a8.392 8.392 0 0 1 16.785 0v18.226H7.582V18.941Z"/>
      <path fill="#58C971" d="M8.685 18.919a7.166 7.166 0 0 1 14.33 0V39.85H8.685V18.92Z"/>
      <path fill="#FFCA42" d="M10.023 19.062a5.939 5.939 0 0 1 11.877 0v24.13H10.023v-24.13Z"/>
    </g>
  </g>
</svg>
