<svg xmlns="http://www.w3.org/2000/svg" width="32" height="32" fill="none" viewBox="0 0 32 32">
  <path fill="#0E1211" d="M0 0h32v32H0z"/>
  <path fill="url(#a)" d="M23 9v5.96a5.038 5.038 0 0 1-1.578 3.66l-.016.008h-2.797v-5.522h-8.022l.032-.033 2.192-2.061.81-.754C14.536 9.398 15.665 9 16.908 9H23Z"/>
  <path fill="url(#b)" d="m21.405 18.636-.008.008-.008.009-.147.14-.556.53-2.02 1.896-.196.182a4.922 4.922 0 0 1-3.353 1.316H9v-2.665l.008-1.424.017-1.896a5.03 5.03 0 0 1 1.57-3.634h2.592v5.53h8.219v.008Z"/>
  <defs>
    <linearGradient id="a" x1="17.087" x2="16.285" y1="8.412" y2="23.54" gradientUnits="userSpaceOnUse">
      <stop stop-color="#48EF8A"/>
      <stop offset=".546" stop-color="#43B4A6"/>
      <stop offset=".692" stop-color="#2D796F"/>
      <stop offset=".966"/>
    </linearGradient>
    <linearGradient id="b" x1="15.572" x2="13.465" y1="23.468" y2="7.967" gradientUnits="userSpaceOnUse">
      <stop stop-color="#FF5F96"/>
      <stop offset=".61" stop-color="#FF33AF"/>
      <stop offset="1"/>
    </linearGradient>
  </defs>
</svg>
