<svg xmlns="http://www.w3.org/2000/svg" width="32" height="32" fill="none" viewBox="0 0 32 32">
  <path fill="#1F1A30" d="M0 0h32v32H0z"/>
  <path fill="url(#a)" d="m26.427 10.05-.518-.908a.532.532 0 0 0-.84-.112l-1.19 1.19a.535.535 0 0 0-.067.673 9.34 9.34 0 0 1 1.421 6.497A9.337 9.337 0 0 1 16 25.343a9.256 9.256 0 0 1-4.376-1.086l2.014-2.014a6.67 6.67 0 0 0 8.958-5.272 6.666 6.666 0 0 0-.595-3.869.534.534 0 0 0-.858-.146l-1.205 1.197a.533.533 0 0 0-.142.5l.103.432a3.999 3.999 0 0 1-5.876 4.388l-.531-.304a.53.53 0 0 0-.642.086l-4.92 4.917a.534.534 0 0 0 .053.8l.725.556a11.895 11.895 0 0 0 7.296 2.473A12.014 12.014 0 0 0 28 16.042a12.01 12.01 0 0 0-1.573-5.992Z"/>
  <path fill="url(#b)" d="M23.298 6.473A11.892 11.892 0 0 0 16.002 4 12.014 12.014 0 0 0 4 15.961a12.007 12.007 0 0 0 1.576 5.994l.518.908a.534.534 0 0 0 .84.113l1.19-1.189a.537.537 0 0 0 .065-.672 9.336 9.336 0 0 1 7.813-14.45 9.247 9.247 0 0 1 4.375 1.089l-2.015 2.013a6.669 6.669 0 0 0-9.03 6.236c0 .11.03.616.039.703.082.764.294 1.509.628 2.201a.535.535 0 0 0 .86.146l1.205-1.206a.533.533 0 0 0 .143-.498l-.104-.433a3.997 3.997 0 0 1 3.649-4.907 3.999 3.999 0 0 1 2.228.52l.531.304a.534.534 0 0 0 .642-.086l4.919-4.918a.536.536 0 0 0-.052-.8l-.722-.556Z"/>
  <defs>
    <linearGradient id="a" x1="8.739" x2="29.905" y1="28.964" y2="8.943" gradientUnits="userSpaceOnUse">
      <stop stop-color="#B090F5"/>
      <stop offset="1" stop-color="#5FBFFF"/>
    </linearGradient>
    <linearGradient id="b" x1="3.336" x2="20.232" y1="20.131" y2="3.232" gradientUnits="userSpaceOnUse">
      <stop stop-color="#68D7FA"/>
      <stop offset="1" stop-color="#4EE498"/>
    </linearGradient>
  </defs>
</svg>
