<svg xmlns="http://www.w3.org/2000/svg" width="32" height="32" fill="none" viewBox="0 0 32 32">
  <path fill="#1A1919" d="M0 0h32v32H0z"/>
  <path fill="url(#a)" d="M19.442 9.45c.146-.32.492-.659.772-.752.44-.147 1.038.033 1.604.486.147.12 1.245 1.191 2.43 2.376 2.603 2.583 2.81 2.87 2.903 4.055a2.875 2.875 0 0 1-.506 1.83c-.147.22-1.312 1.438-2.597 2.717l-2.33 2.33.167.28c.206.346.273.851.16 1.19-.107.32-.48.74-.82.913a1.386 1.386 0 0 1-1.191-.02c-.42-.206-4.886-4.707-5.126-5.16-.34-.632-.28-1.065.226-1.564.353-.346.752-.5 1.205-.446.58.067.872.286 2.237 1.638l1.305 1.285 2.004-2.018c1.245-1.258 2.05-2.116 2.123-2.276.147-.313.154-.68.014-.946-.053-.106-1.079-1.171-2.277-2.356-1.198-1.192-2.224-2.257-2.284-2.364-.153-.293-.16-.885-.02-1.198Z"/>
  <path fill="url(#b)" d="M10.021 9.164c-.446-.866.04-1.878 1.032-2.144.227-.06.653.02.939.16.126.066 1.285 1.178 2.563 2.463 1.837 1.837 2.377 2.417 2.517 2.696.312.633.213 1.125-.327 1.598-.333.293-.672.413-1.098.373-.566-.047-.919-.293-2.197-1.565l-.666-.653a49.809 49.809 0 0 0-.626-.612c-.06-.053-.532.38-1.93 1.778-1.019 1.019-1.964 1.99-2.104 2.17-.313.393-.393.786-.226 1.139.066.14 1.052 1.171 2.337 2.45 1.464 1.457 2.243 2.283 2.283 2.416.286.906-.133 1.711-.999 1.918-.266.066-.852-.134-1.238-.427-.533-.399-4.58-4.487-4.86-4.906-.446-.672-.579-1.092-.579-1.81-.007-1.306.1-1.459 3.016-4.361L10.2 9.51l-.18-.346Z"/>
  <defs>
    <linearGradient id="a" x1="22.277" x2="7.731" y1="24.063" y2="9.517" gradientUnits="userSpaceOnUse">
      <stop stop-color="#EB8E60"/>
      <stop offset=".51" stop-color="#991CFF"/>
      <stop offset="1" stop-color="#3EA2FC"/>
    </linearGradient>
    <linearGradient id="b" x1="22.277" x2="7.731" y1="24.063" y2="9.517" gradientUnits="userSpaceOnUse">
      <stop stop-color="#EB8E60"/>
      <stop offset=".51" stop-color="#991CFF"/>
      <stop offset="1" stop-color="#3EA2FC"/>
    </linearGradient>
  </defs>
</svg>
