<svg xmlns="http://www.w3.org/2000/svg" width="32" height="32" fill="none" viewBox="0 0 32 32">
  <path fill="#03111C" d="M0 0h32v32H0z"/>
  <path fill="#FBFF3A" fill-rule="evenodd" d="M23.333 19H26c0-.112-.002-.223-.005-.333h-2.08l2.058-.41a10.031 10.031 0 0 0-.076-.699l-1.952.389 1.887-.782a9.92 9.92 0 0 0-.163-.726l-1.846.765 1.733-1.159a9.894 9.894 0 0 0-.263-.746l-1.755 1.173 1.581-1.581a9.967 9.967 0 0 0-.378-.753l-1.647 1.647 1.39-2.08a10.01 10.01 0 0 0-.509-.739l-1.48 2.214 1.109-2.675a10.073 10.073 0 0 0-.651-.693l-1.13 2.729A7.3 7.3 0 0 1 23.332 19ZM8.667 19c0-.202.008-.402.024-.6H6.018A9.966 9.966 0 0 0 6 19h2.667Zm.2-1.708-2.618-.52c.088-.385.197-.76.327-1.125l2.655.528c-.15.358-.272.732-.364 1.117Zm.872-2.113-2.486-1.03a10 10 0 0 1 .616-.971l2.555 1.058c-.252.295-.481.61-.685.943Zm1.442-1.707-2.275-1.52c.267-.269.549-.522.844-.759l2.37 1.583c-.332.207-.645.44-.939.696Zm1.817-1.165-1.98-1.98a9.967 9.967 0 0 1 1.003-.504l2.09 2.09a7.275 7.275 0 0 0-1.113.394Zm1.973-.569-1.597-2.39a9.947 9.947 0 0 1 1.088-.23l1.705 2.55a7.4 7.4 0 0 0-1.196.07Zm1.917-.018-1.126-2.717a10.206 10.206 0 0 1 1.097.033l1.212 2.927a7.31 7.31 0 0 0-1.183-.243Zm1.698.416L18.002 9.2c.354.071.7.162 1.04.27l.633 3.181c-.346-.2-.71-.373-1.089-.516Zm1.392.702V9.822c.32.14.631.295.933.465v3.267a7.366 7.366 0 0 0-.933-.716Zm1.066.84.586-2.944c.276.188.542.39.797.605l-.63 3.169a7.378 7.378 0 0 0-.753-.83Z" clip-rule="evenodd"/>
  <path fill="#FBFF3A" fill-rule="evenodd" d="M20.667 19h2.667a7.39 7.39 0 0 0-.01-.38l-1.327-.024 1.31-.236a7.32 7.32 0 0 0-.143-.935l-1.502.272 1.432-.564a7.264 7.264 0 0 0-.287-.866l-1.639.645 1.502-.965a7.291 7.291 0 0 0-.415-.777l-1.705 1.096 1.485-1.434a7.346 7.346 0 0 0-.523-.669l-1.672 1.615 1.355-1.954a7.377 7.377 0 0 0-.608-.546l-1.51 2.178 1.084-2.495a7.319 7.319 0 0 0-.669-.411l-1.07 2.46A4.664 4.664 0 0 1 20.667 19Zm-9.333 0H8.667c0-.124.003-.247.01-.37l2.668.047a4.32 4.32 0 0 0-.011.323Zm7.617-6.716c-.23-.1-.464-.19-.704-.267l-.57 2.626c.24.093.47.204.689.333l.585-2.692Zm-1.359-.444a7.32 7.32 0 0 0-.71-.12l-.046 2.688c.243.044.48.107.708.187l.048-2.755ZM16 11.667c-.187 0-.372.007-.555.02l.478 2.647a4.932 4.932 0 0 1 .696.04l-.49-2.706-.129-.001Zm-1.391 2.877-1.477-2.295c-.19.08-.375.169-.556.264l1.451 2.257a4.63 4.63 0 0 1 .582-.226Zm-.979.435-1.885-1.952a7.37 7.37 0 0 0-.46.356l1.86 1.925c.154-.12.316-.23.485-.329Zm-3.093-.871a7.36 7.36 0 0 0-.35.42l2.196 1.523a4.7 4.7 0 0 1 .372-.405l-2.218-1.538Zm-.954 1.34c-.083.149-.16.3-.232.456l2.447 1.064a4.79 4.79 0 0 1 .249-.449l-2.464-1.071Zm-.635 1.535a7.274 7.274 0 0 0-.116.464l2.606.566c.034-.157.076-.312.125-.462l-2.615-.568Zm6.677-2.635a4.652 4.652 0 0 0-.653.099l-.985-2.5c.207-.06.418-.11.633-.15l1.005 2.551Z" clip-rule="evenodd"/>
  <path fill="#FBFF3A" fill-rule="evenodd" d="m20.295 19 .372-.013c0-.075-.002-.149-.006-.222l-2.262.079-.04-.007 2.257-.531a4.636 4.636 0 0 0-.045-.252l-2.143.504 2.035-.927a4.646 4.646 0 0 0-.094-.275l-1.905.869 1.74-1.253a4.634 4.634 0 0 0-.151-.288l-1.639 1.18 1.421-1.524a4.703 4.703 0 0 0-.217-.289l-1.347 1.445 1.08-1.745a4.707 4.707 0 0 0-.289-.273l-1.032 1.668.717-1.919a4.685 4.685 0 0 0-.361-.239l-.692 1.85.333-2.043a4.647 4.647 0 0 0-.432-.182l-.323 1.983-.073-2.108a4.638 4.638 0 0 0-.493-.102l.072 2.056-.495-2.1a4.72 4.72 0 0 0-.537-.002l.484 2.056-.917-2.013c-.19.028-.376.068-.557.118l.898 1.97-1.319-1.832c-.188.072-.37.156-.546.25l1.287 1.787-1.67-1.556a4.68 4.68 0 0 0-.498.385l1.619 1.51-1.938-1.2c-.15.162-.29.333-.416.514l1.863 1.153-2.096-.784a4.64 4.64 0 0 0-.296.625l1.991.745-2.124-.346c-.065.23-.113.466-.143.708l1.982.323-2.013.07a4.698 4.698 0 0 0-.003.177H14a2 2 0 1 1 4 0h2.295Z" clip-rule="evenodd"/>
</svg>
