<svg xmlns="http://www.w3.org/2000/svg" width="96" height="96" fill="none" viewBox="0 0 120 120"><path fill="#000" d="M0 0h120v120H0z"/><g fill="#FBFF3A" fill-rule="evenodd" clip-rule="evenodd"><path d="M95.2 78H108c0-.535-.009-1.069-.026-1.6h-9.986l9.882-1.966a48.12 48.12 0 0 0-.365-3.353l-9.368 1.864 9.057-3.752a47.695 47.695 0 0 0-.783-3.486l-8.862 3.671 8.321-5.56a47.63 47.63 0 0 0-1.264-3.581l-8.421 5.627 7.588-7.589a47.82 47.82 0 0 0-1.818-3.612l-7.905 7.905 6.674-9.988a48.117 48.117 0 0 0-2.444-3.543l-7.1 10.626 5.318-12.84a48.293 48.293 0 0 0-3.126-3.323l-5.424 13.097A35.047 35.047 0 0 1 95.2 78Zm-70.4 0c0-.97.04-1.93.116-2.88H12.085A48.748 48.748 0 0 0 12 78h12.8Zm.96-8.2-12.563-2.498a47.63 47.63 0 0 1 1.568-5.398l12.742 2.534a34.93 34.93 0 0 0-1.747 5.363Zm4.19-10.14-11.935-4.943a48.025 48.025 0 0 1 2.955-4.664l12.267 5.081a35.311 35.311 0 0 0-3.288 4.526Zm6.92-8.194-10.92-7.297a48.289 48.289 0 0 1 4.052-3.643l11.373 7.6a35.322 35.322 0 0 0-4.505 3.34Zm8.719-5.59-9.504-9.504a47.822 47.822 0 0 1 4.818-2.423l10.03 10.03a34.94 34.94 0 0 0-5.344 1.897Zm9.471-2.732-7.665-11.472a47.727 47.727 0 0 1 5.225-1.108l8.182 12.245a35.641 35.641 0 0 0-5.742.335Zm9.201-.089L58.86 30.013a48.931 48.931 0 0 1 5.262.161l5.82 14.05a35.024 35.024 0 0 0-5.68-1.169Zm8.153 1.997-2.802-14.09a47.65 47.65 0 0 1 4.989 1.299l3.037 15.27a35.043 35.043 0 0 0-5.224-2.48Zm6.68 3.371V33.948a47.803 47.803 0 0 1 4.48 2.23v15.681a35.33 35.33 0 0 0-4.48-3.436Zm5.12 4.028 2.81-14.127a48.185 48.185 0 0 1 3.827 2.902l-3.026 15.212a35.402 35.402 0 0 0-3.612-3.987Z"/><path d="M82.4 78h12.8c0-.613-.016-1.222-.047-1.827l-6.367-.11 6.281-1.137a35.15 35.15 0 0 0-.68-4.483l-7.213 1.304 6.875-2.708a34.916 34.916 0 0 0-1.376-4.159l-7.867 3.1 7.207-4.636a35.115 35.115 0 0 0-1.99-3.73l-8.185 5.265 7.128-6.884a35.348 35.348 0 0 0-2.508-3.212l-8.026 7.75 6.505-9.376a35.404 35.404 0 0 0-2.92-2.622l-7.251 10.453 5.207-11.977a35.198 35.198 0 0 0-3.213-1.973l-5.135 11.81C78.085 62.779 82.4 69.887 82.4 78Zm-44.8 0H24.8c0-.595.015-1.186.044-1.774l12.809.224c-.035.512-.053 1.029-.053 1.55Zm36.56-32.236a34.949 34.949 0 0 0-3.378-1.282l-2.737 12.606c1.152.444 2.259.98 3.31 1.6l2.806-12.924Zm-6.52-2.133a35.098 35.098 0 0 0-3.404-.579l-.225 12.906a22.24 22.24 0 0 1 3.398.896l.231-13.223ZM60 42.8c-.897 0-1.787.034-2.667.1l2.297 12.703a22.77 22.77 0 0 1 3.34.192l-2.348-12.99A35.75 35.75 0 0 0 60 42.8Zm-6.68 13.813-7.087-11.019c-.91.387-1.801.812-2.67 1.271l6.966 10.83c.9-.42 1.831-.783 2.791-1.082ZM48.623 58.7l-9.05-9.37a35.388 35.388 0 0 0-2.204 1.708l8.925 9.243a22.45 22.45 0 0 1 2.33-1.581Zm-14.846-4.182a35.335 35.335 0 0 0-1.678 2.017l10.539 7.31a22.537 22.537 0 0 1 1.784-1.942l-10.645-7.385Zm-4.58 6.432c-.396.715-.769 1.445-1.116 2.19l11.747 5.108c.36-.743.76-1.462 1.195-2.156L29.197 60.95Zm-3.05 7.369c-.208.732-.394 1.474-.556 2.226l12.511 2.716c.162-.754.363-1.493.599-2.217L26.148 68.32ZM58.2 55.67a22.382 22.382 0 0 0-3.138.475l-4.727-12.002c.996-.284 2.01-.525 3.04-.722l4.825 12.25Z"/><path d="m80.613 78 1.787-.062c-.001-.358-.01-.713-.028-1.067l-10.859.38-.19-.032 10.83-2.55c-.06-.407-.132-.81-.214-1.21l-10.285 2.422 9.767-4.45a22.263 22.263 0 0 0-.45-1.32l-9.147 4.169 8.355-6.015c-.227-.47-.47-.93-.728-1.381l-7.865 5.662 6.82-7.315c-.33-.474-.678-.936-1.043-1.383l-6.465 6.933 5.182-8.375a22.545 22.545 0 0 0-1.383-1.311l-4.955 8.007 3.444-9.212c-.56-.408-1.139-.79-1.735-1.146l-3.32 8.88 1.597-9.807a22.286 22.286 0 0 0-2.073-.875l-1.551 9.521-.353-10.118a22.284 22.284 0 0 0-2.366-.49l.345 9.87-2.374-10.085a22.82 22.82 0 0 0-2.578-.007l2.324 9.869-4.402-9.66c-.91.134-1.803.323-2.674.563l4.31 9.456-6.33-8.793c-.903.345-1.777.747-2.619 1.2l6.176 8.58-8.013-7.473c-.84.563-1.64 1.182-2.395 1.85l7.77 7.247-9.301-5.756a22.518 22.518 0 0 0-1.996 2.465l8.944 5.535-10.064-3.763c-.544.958-1.02 1.96-1.42 3l9.559 3.573-10.197-1.66a22.295 22.295 0 0 0-.685 3.4l9.514 1.55-9.664.337c-.01.281-.015.563-.015.847h12.8a9.6 9.6 0 0 1 9.6-9.6 9.6 9.6 0 0 1 9.6 9.6h11.013Z"/></g></svg>