<svg xmlns="http://www.w3.org/2000/svg" width="32" height="32" fill="none" viewBox="0 0 32 32">
  <path fill="#1C53BD" d="M0 0h32v32H0z"/>
  <path fill="#fff" d="M16 23.826a7.803 7.803 0 0 1-5.604-2.363 14.233 14.233 0 0 0 7.467-3.243 14.252 14.252 0 0 0 5.03-9.464A9.966 9.966 0 0 0 16 6C10.477 6 6 10.477 6 16c0 .486.035.963.102 1.43a10.54 10.54 0 0 0 2.267.315A7.83 7.83 0 0 1 20.563 9.64a12.074 12.074 0 0 1-4.097 6.916A12.1 12.1 0 0 1 6.523 19.2C7.858 23.154 11.596 26 16 26c5.523 0 10-4.477 10-10 0-.107-.002-.213-.005-.32a14.4 14.4 0 0 1-2.261 1.526A7.828 7.828 0 0 1 16 23.826Z"/>
</svg>
