<svg xmlns="http://www.w3.org/2000/svg" width="32" height="32" fill="none" viewBox="0 0 32 32">
  <path fill="#F29FCD" d="M0 0h32v32H0z"/>
  <path fill="#120F1A" d="M16 3a7.057 7.057 0 0 1 6.98 6.02 7.057 7.057 0 0 1 0 13.96 7.057 7.057 0 0 1-13.96 0 7.057 7.057 0 0 1 0-13.96A7.057 7.057 0 0 1 16 3Zm-1.983 6.332v1.475h-1.986v1.71h.882v6.899h-.882v1.71h1.986v1.577h1.351v-1.577h.763v1.577h1.363V21.11c.19-.01.38-.023.532-.043.823-.138 1.48-.472 1.97-1.003.5-.54.749-1.199.749-1.975 0-.61-.191-1.15-.573-1.622a2.654 2.654 0 0 0-1.425-.928 2.29 2.29 0 0 0 1.043-.826 2.23 2.23 0 0 0 .426-1.312c0-.649-.2-1.194-.603-1.636-.391-.452-.92-.747-1.587-.885a4.86 4.86 0 0 0-.532-.054V9.332h-1.363v1.475h-.763V9.332h-1.35Zm3.04 7.165c.49 0 .891.137 1.205.413.323.265.485.609.485 1.032 0 .432-.162.786-.485 1.06-.314.276-.715.414-1.205.414h-2.145v-2.92h2.145Zm-.147-3.98c.401 0 .73.113.984.339.265.216.397.496.397.84 0 .354-.132.644-.397.87-.254.216-.582.324-.984.324h-1.998v-2.373h1.998Z"/>
</svg>
