<svg xmlns="http://www.w3.org/2000/svg" width="32" height="32" fill="none" viewBox="0 0 32 32">
  <path fill="#3A6EA5" d="M0 0h32v32H0z"/>
  <path fill="#fff" d="M16.13 13.847a.275.275 0 0 1 .328-.116.29.29 0 0 1 .186.303l-.327 3.445 2.878.003c.102 0 .197.058.245.152a.299.299 0 0 1-.011.296l-3.546 5.643a.275.275 0 0 1-.327.115.29.29 0 0 1-.186-.302l.327-3.445-2.878-.003a.279.279 0 0 1-.246-.152.299.299 0 0 1 .012-.297l3.546-5.642Zm-2.794 5.511 2.67.003c.08 0 .154.034.208.095.053.06.078.142.07.223l-.245 2.582 2.64-4.2-2.671-.002a.276.276 0 0 1-.208-.096.297.297 0 0 1-.07-.223l.244-2.581-2.638 4.199Z"/>
  <path fill="#fff" d="M22.667 7.74c0-1.516-1.165-2.74-2.635-2.74h-8c-1.47 0-2.699 1.224-2.699 2.74v15.388l-.965.497A.69.69 0 0 0 8 24.24v2.062c0 .38.33.698.698.698h14.667c.368 0 .635-.318.635-.698V24.24a.69.69 0 0 0-.369-.615l-.964-.497V7.74c0-.437 0-.895 0 0Zm0 17.885H9.333v-.96l.965-.498a.69.69 0 0 0 .369-.615V7.74c0-.758.63-1.365 1.365-1.365h8c.735 0 1.301.607 1.301 1.365v15.812c0 .261.143.499.369.616l.965.497v.96Z"/>
  <mask id="a" width="10" height="6" x="11" y="7" maskUnits="userSpaceOnUse" style="mask-type:luminance">
    <path fill="#fff" d="M11.89 8.665c0-.458.359-.829.8-.829h6.624c.442 0 .8.371.8.83v2.9c0 .458-.358.829-.8.829H12.69c-.441 0-.8-.371-.8-.829v-2.9Z"/>
  </mask>
  <g mask="url(#a)">
    <path fill="#fff" d="M10.93 8.664c0-.87.68-1.575 1.52-1.575h7.103c.84 0 1.52.705 1.52 1.575h-1.92v-.083H12.85v.083h-1.92Zm10.143 2.901c0 .87-.68 1.575-1.52 1.575H12.45c-.84 0-1.52-.705-1.52-1.575h1.92v.083h6.304v-.083h1.92ZM12.45 13.14c-.84 0-1.52-.705-1.52-1.575v-2.9c0-.87.68-1.576 1.52-1.576l.4 1.492v3.067l-.4 1.492Zm7.104-6.05c.84 0 1.52.704 1.52 1.574v2.901c0 .87-.68 1.575-1.52 1.575l-.4-1.492V8.581l.4-1.492Z"/>
  </g>
</svg>
