<svg xmlns="http://www.w3.org/2000/svg" width="32" height="32" fill="none" viewBox="0 0 32 32">
  <path fill="#F6F6F6" d="M0 0h32v32H0z"/>
  <path fill="url(#a)" d="M19.452 20.426 22.998 6 6 23.93l10.531-6.126 2.921-2.942v5.564Z"/>
  <path fill="url(#b)" d="M22.998 23.93V6l-3.545 14.426h-5.266l8.811 3.504Z"/>
  <path fill="url(#c)" d="M22.998 23.93H6l13.452-9.068-5.266 5.564 8.812 3.504Z"/>
  <path fill="url(#d)" d="M14.192 20.422 23 22.363v1.567h-5.541l-3.267-3.508Z"/>
  <path fill="url(#e)" d="M22.998 22.407v-4.874l-3.565 2.894h-5.241l8.806 1.98Z"/>
  <defs>
    <linearGradient id="a" x1="14.499" x2="14.499" y1="6" y2="23.93" gradientUnits="userSpaceOnUse">
      <stop stop-color="#3A413E"/>
      <stop offset=".405" stop-color="#80AE92"/>
      <stop offset="1" stop-color="#A3D5BE"/>
    </linearGradient>
    <linearGradient id="b" x1="20.937" x2="25.974" y1="8.766" y2="13.46" gradientUnits="userSpaceOnUse">
      <stop offset=".106" stop-color="#9FB77E"/>
      <stop offset=".792" stop-color="#FACB37"/>
    </linearGradient>
    <linearGradient id="c" x1="21.235" x2="8.724" y1="14.866" y2="25.727" gradientUnits="userSpaceOnUse">
      <stop offset=".203" stop-color="#081B2F"/>
      <stop offset="1" stop-color="#669CA9"/>
    </linearGradient>
    <linearGradient id="d" x1="11.968" x2="23.882" y1="21.511" y2="23.972" gradientUnits="userSpaceOnUse">
      <stop offset=".319" stop-color="#06172B"/>
      <stop offset="1" stop-color="#416D7B"/>
    </linearGradient>
    <linearGradient id="e" x1="22.002" x2="16.994" y1="16.161" y2="21.431" gradientUnits="userSpaceOnUse">
      <stop offset=".157" stop-color="#F5AF23"/>
      <stop offset=".724" stop-color="#F8781E"/>
      <stop offset="1" stop-color="#FC2818"/>
    </linearGradient>
  </defs>
</svg>
