<svg xmlns="http://www.w3.org/2000/svg" width="32" height="32" fill="none" viewBox="0 0 32 32">
  <path fill="#F0EBDE" d="M0 0h32v32H0z"/>
  <path fill="#3E6957" fill-rule="evenodd" d="M16.009 4a11.96 11.96 0 0 1 8.682 3.72c.303.303.588.643.827.974L16 18.218 6.48 8.703c.267-.34.552-.67.846-.983A11.978 11.978 0 0 1 16.009 4Zm7.378 4.62c-1.957-1.975-4.567-3.059-7.378-3.059A10.302 10.302 0 0 0 8.63 8.62l7.379 7.375 7.378-7.375Z" clip-rule="evenodd"/>
  <path fill="#3E6957" d="m26.281 9.786-1.938 1.938a4.38 4.38 0 0 1 1.029 2.83 4.41 4.41 0 0 1-7.24 3.38l-2.123 2.12-2.123-2.12a4.41 4.41 0 0 1-7.24-3.38c0-1.075.386-2.058 1.03-2.83l-1.94-1.938A11.94 11.94 0 0 0 4 16.004C4 22.636 9.375 28 16 28s12-5.373 12-11.996a11.71 11.71 0 0 0-1.719-6.218Z"/>
  <path fill="#3E6957" d="M23.424 12.624c.414.533.652 1.194.652 1.91a3.105 3.105 0 0 1-3.114 3.115 3.062 3.062 0 0 1-1.912-.652l4.374-4.373Zm-10.447 4.382a3.101 3.101 0 0 1-1.911.652 3.105 3.105 0 0 1-3.115-3.114c0-.725.239-1.387.652-1.91l4.374 4.372Z"/>
</svg>
