<svg xmlns="http://www.w3.org/2000/svg" width="32" height="32" fill="none" viewBox="0 0 32 32">
  <path fill="url(#a)" d="M0 0h32v32H0z"/>
  <path fill="#fff" d="M25.642 12.586 21.463 6.5c-.656-.954-2.14-.447-2.091.712.044 1.056.438 2.174 1.382 3.546v.005l-.003.002h-.002c-.386-.29-6.207-4.665-13.126-2.335h-.008c-.763.286-1.153.912-.96 1.645.18.679.875 1.086 1.566.972 1.47-.245 2.928-.362 4.362-.236a11.66 11.66 0 0 1 4.144 1.137c1.306.642 2.49 1.552 3.577 2.593 1.224 1.17 2.741 3.667 2.741 3.667a.77.77 0 0 0 .928.348c.412-.148.603-.622.449-1.03a15.953 15.953 0 0 0-1.18-2.456l-.001-.003v-.002l.003-.002h.003c.512.194.985.434 1.545.302a1.506 1.506 0 0 0 1.044-.854 1.98 1.98 0 0 0-.194-1.925ZM6.358 19.31l4.179 6.086c.656.954 2.14.447 2.091-.711-.044-1.057-.438-2.175-1.382-3.547v-.005l.003-.001h.002c.386.288 6.207 4.665 13.126 2.334h.008c.763-.286 1.153-.912.96-1.645-.18-.679-.875-1.086-1.566-.971-1.47.244-2.928.361-4.362.235a11.667 11.667 0 0 1-4.144-1.137c-1.306-.642-2.49-1.552-3.577-2.593-1.224-1.17-2.741-3.667-2.741-3.667a.77.77 0 0 0-.928-.348c-.412.148-.603.622-.449 1.03.323.85.718 1.673 1.18 2.456l.001.003v.002l-.003.002h-.003c-.512-.193-.985-.433-1.545-.302a1.506 1.506 0 0 0-1.044.854 1.981 1.981 0 0 0 .194 1.925Z"/>
  <defs>
    <linearGradient id="a" x1="-1.694" x2="60.391" y1="-14.638" y2="34.982" gradientUnits="userSpaceOnUse">
      <stop offset=".15" stop-color="#B32EFF"/>
      <stop offset=".42" stop-color="#CE60D3"/>
      <stop offset=".65" stop-color="#E185B3"/>
      <stop offset=".84" stop-color="#EE9C9F"/>
      <stop offset=".96" stop-color="#F2A498"/>
    </linearGradient>
  </defs>
</svg>
