<svg xmlns="http://www.w3.org/2000/svg" width="32" height="32" fill="none" viewBox="0 0 32 32">
  <path fill="#615CCD" d="M0 0h32v32H0z"/>
  <path fill="#fff" d="M14.215 19.89v-1.553c0-.435.357-.776.776-.776h1.553c.435 0 .777.341.777.776v4.66a.769.769 0 0 1-.777.776H8.78a.769.769 0 0 1-.777-.776V12.125a.769.769 0 0 0-.776-.776h-.45c-.684 0-1.041-.84-.544-1.32l2.78-2.796a.769.769 0 0 1 1.103 0l2.764 2.795c.497.482.155 1.32-.543 1.32h-.45a.769.769 0 0 0-.777.777v7.765c0 .435.341.777.776.777h1.553a.769.769 0 0 0 .777-.777Z"/>
  <path fill="#fff" d="M23.533 19.89a.77.77 0 0 0 .777.777h.466c.683 0 1.025.838.543 1.32l-2.78 2.78a.769.769 0 0 1-1.102 0l-2.78-2.78c-.497-.482-.156-1.32.543-1.32h.45a.769.769 0 0 0 .777-.777v-7.765a.769.769 0 0 0-.776-.777h-1.553a.769.769 0 0 0-.777.777v1.553a.769.769 0 0 1-.776.777H14.99a.769.769 0 0 1-.776-.777v-4.66a.77.77 0 0 1 .777-.776h7.765c.435 0 .776.342.776.777V19.89Z"/>
</svg>
