<svg xmlns="http://www.w3.org/2000/svg" width="32" height="32" fill="none" viewBox="0 0 32 32">
  <path fill="#F5B5FF" d="M0 0h32v32H0z"/>
  <path fill="#000" d="m13.38 12.883-1.395-2.86c-.13-.276 0-.568.308-.633l9.874-2.373c.308-.08.551.13.551.44v3.671c0 .195-.146.39-.34.439l-7.864 1.885c-.421.097-.778.536-.778.975l-.016 3.152c0 .325-.26.666-.584.73l-2.4.553c-.502.114-.924-.211-.924-.731v-3.07c0-.326.26-.65.584-.732l2.578-.601c.405-.081.584-.471.405-.845Z"/>
  <path fill="#000" d="m10.169 20.438 5.334-1.235c.47-.113.68-.552.47-.99l-1.232-2.552c-.195-.406 0-.828.438-.926l7.02-1.673c.308-.082.551.13.551.438v3.396c0 .357-.292.715-.632.796l-4.864 1.17c-.47.098-.681.553-.47.991l1.346 2.779c.13.276 0 .568-.309.633l-7.441 1.723c-.308.064-.552-.13-.552-.44v-3.671c0-.195.146-.39.34-.439Z"/>
</svg>
