<svg xmlns="http://www.w3.org/2000/svg" width="32" height="32" fill="none" viewBox="0 0 32 32">
  <path fill="#ECE8E8" stroke="#19191A" stroke-width="2.6" d="M1.3 1.3h29.4v29.4H1.3z"/>
  <path fill="#19191A" d="M19.125 24.879a1.773 1.773 0 1 0-1.769-1.771c0 .977.794 1.77 1.769 1.77Zm-6.366.052c.982 0 1.769-.793 1.769-1.771 0-.979-.787-1.772-1.77-1.772a1.771 1.771 0 0 0 0 3.543Z"/>
  <path fill="#19191A" d="M13.1 6.424c.795 2.149 2.867 8.236 3.018 8.575.038-.17 2.125-6.803 2.715-8.537h4.387v15.133c-.545-.301-1.09-.603-1.68-.942-.408-.207-.786-.434-1.202-.603-.038-2.94-.075-5.861-.166-8.914-.59 1.752-2.625 7.934-2.79 8.103h-2.716s-2.64-7.5-2.768-7.84c-.038 2.884-.076 5.767-.174 8.745-1.619.83-2.58 1.3-2.882 1.413V6.424H13.1Z"/>
</svg>
