<svg xmlns="http://www.w3.org/2000/svg" width="32" height="32" fill="none" viewBox="0 0 32 32">
  <path fill="#FB4D01" d="M0 0h32v32H0z"/>
  <path fill="#F2F2F1" d="M23.084 7.001c-.667 0-1.285.346-1.635.915L17.686 13.5a.4.4 0 0 0 .593.526l3.704-3.212a.15.15 0 0 1 .249.114v10.057a.15.15 0 0 1-.152.15.15.15 0 0 1-.115-.054L10.772 7.679c-.364-.43-.9-.678-1.463-.679h-.392A1.917 1.917 0 0 0 7 8.917v14.165a1.918 1.918 0 0 0 3.55 1.003l3.764-5.586a.4.4 0 0 0-.593-.526l-3.704 3.212a.15.15 0 0 1-.249-.113v-10.06a.15.15 0 0 1 .152-.15c.044 0 .086.02.115.053l11.191 13.406c.365.43.9.677 1.463.679h.392c1.06 0 1.918-.857 1.919-1.916V8.918a1.915 1.915 0 0 0-1.916-1.917Z"/>
</svg>
