<svg xmlns="http://www.w3.org/2000/svg" width="32" height="32" fill="none" viewBox="0 0 32 32">
  <path fill="#FF0420" d="M0 0h32v32H0z"/>
  <path fill="#fff" fill-rule="evenodd" d="M8.9 19.974c.61.448 1.39.672 2.342.672 1.153 0 2.074-.268 2.762-.804.689-.545 1.173-1.365 1.454-2.462a27.14 27.14 0 0 0 .432-2.078c.04-.256.06-.468.06-.636 0-.56-.14-1.04-.42-1.441a2.518 2.518 0 0 0-1.153-.913c-.489-.208-1.041-.312-1.658-.312-2.265 0-3.67 1.1-4.215 3.302-.192.809-.34 1.502-.444 2.078-.04.256-.06.472-.06.648 0 .841.3 1.49.9 1.946Zm3.651-1.453c-.312.264-.692.396-1.14.396-.769 0-1.153-.368-1.153-1.105 0-.176.016-.344.048-.504.144-.777.288-1.433.432-1.97.136-.544.36-.948.673-1.212.32-.265.704-.397 1.152-.397.76 0 1.141.365 1.141 1.093 0 .176-.016.348-.048.516a29.2 29.2 0 0 1-.42 1.97c-.136.544-.364.949-.685 1.213Zm3.747 1.921a.254.254 0 0 0 .204.084h1.633c.08 0 .156-.028.228-.084a.344.344 0 0 0 .132-.216l.553-2.63h1.621c1.049 0 1.873-.22 2.474-.66.608-.44 1.013-1.121 1.213-2.042.048-.216.072-.424.072-.624 0-.697-.272-1.23-.817-1.598-.536-.368-1.249-.552-2.137-.552h-3.195a.366.366 0 0 0-.228.084.344.344 0 0 0-.132.216l-1.657 7.806a.287.287 0 0 0 .036.216Zm5.332-4.78a1.43 1.43 0 0 1-.877.277h-1.381l.456-2.15h1.441c.329 0 .56.064.697.193.136.12.204.296.204.528 0 .104-.012.224-.036.36-.08.344-.248.609-.504.793Z" clip-rule="evenodd"/>
</svg>
