<svg xmlns="http://www.w3.org/2000/svg" width="32" height="32" fill="none" viewBox="0 0 32 32">
  <path fill="#034638" d="M0 0h32v32H0z"/>
  <path fill="#C0ECAA" d="M16 5v3.798c-4.978 0-9 4.067-9 9.1C7 22.934 11.022 27 16 27v-3.798c4.978 0 9-4.067 9-9.1C25 9.066 20.978 5 16 5ZM8.933 23.157c-1.489-1.505-1.377-4.224 0-7.033 0-.045.045-.09.067-.135.689-1.394 1.689-2.787 2.978-4.09a16.467 16.467 0 0 1 4.044-3.011c2.823-1.461 5.578-1.596 7.067-.068 1.511 1.528 1.378 4.292-.067 7.146 0 .045-.044.09-.066.135-3.845-.09-6.956-3.28-6.956-7.19 0 3.954-3.156 7.168-7.067 7.19 3.822.023 6.934 3.146 7.067 7.011-2.822 1.439-5.556 1.528-7.067 0v.045Zm11.111-3.056c-1.266 1.281-2.666 2.315-4.044 3.011.133-3.82 3.178-6.876 6.933-6.966-.689 1.348-1.666 2.697-2.91 3.955h.021Z"/>
</svg>
