<svg xmlns="http://www.w3.org/2000/svg" width="32" height="32" fill="none" viewBox="0 0 32 32">
  <path fill="#fff" d="M0 0h32v32H0z"/>
  <path fill="#000" d="M6.466 21.324V13.25l2.805 1.56c.29.16.47.46.47.781l.014 3.258c.004.902.51 1.742 1.32 2.193l4.435 2.468c.051.031.126-.009.123-.068v-5.104c.006-.67-.137-1.328-.49-1.904a3.781 3.781 0 0 0-1.392-1.361L6 10.687 16.247 5l7.263 4.037-2.076 1.153a.98.98 0 0 1-.939.002c-.845-.395-2.533-1.631-3.521-1.547-.465 0-.922.117-1.32.339l-5.206 2.886c-.054.028-.055.11 0 .138l3.822 2.17a3.948 3.948 0 0 0 1.904.508 3.975 3.975 0 0 0 2.023-.478L26 9.948l-.005 11.345-7.263 4.037v-3.118c0-.322.179-.622.468-.784l2.924-1.64a2.537 2.537 0 0 0 1.312-2.197l.003-4.93a.076.076 0 0 0-.04-.07.082.082 0 0 0-.083 0l-4.636 2.53a3.768 3.768 0 0 0-1.428 1.364 3.588 3.588 0 0 0-.513 1.815V27L6.466 21.324Z"/>
</svg>
