<svg xmlns="http://www.w3.org/2000/svg" width="32" height="32" fill="none" viewBox="0 0 32 32">
  <path fill="#4615C8" d="M0 0h32v32H0z"/>
  <path fill="#fff" d="M27.99 15.906c-.034-.266-.29-.448-.596-.448H12.718c-.136 0-.204-.116-.204-.15 0-.033-.051-.149.068-.232l7.687-6.087c.22-.183.289-.481.17-.713a.545.545 0 0 0-.392-.266.588.588 0 0 0-.459.116l-7.653 6.071a.236.236 0 0 1-.255.017.196.196 0 0 1-.102-.232l.953-4.031a.56.56 0 0 0-.323-.664.595.595 0 0 0-.477.017.536.536 0 0 0-.289.365l-1.105 4.644c-.034.116-.136.15-.17.166-.034 0-.136.017-.221-.083L8.364 12.39a.606.606 0 0 0-.731-.182.562.562 0 0 0-.29.365.543.543 0 0 0 .103.448l1.65 2.09c.05.066.067.149.016.232a.237.237 0 0 1-.204.116H4.606c-.29 0-.544.199-.596.448a.537.537 0 0 0 .12.447.57.57 0 0 0 .425.2h3.758c.136 0 .204.116.204.149a.18.18 0 0 1-.068.232l-2.466 1.94c-.22.183-.289.465-.17.697a.56.56 0 0 0 .391.282c.17.034.34 0 .46-.1l2.448-1.94a.236.236 0 0 1 .256-.016c.034.016.136.099.102.232l-.953 4.03a.555.555 0 0 0 .29.647.635.635 0 0 0 .492 0 .516.516 0 0 0 .307-.365l1.105-4.644c.034-.116.136-.15.17-.166.034 0 .136-.016.221.083l4.881 6.187a.537.537 0 0 0 .408.199h.034a.601.601 0 0 0 .408-.166c.187-.182.187-.497.017-.73l-4.915-6.22c-.05-.066-.068-.15-.017-.232a.237.237 0 0 1 .205-.116h15.322a.52.52 0 0 0 .425-.2.49.49 0 0 0 .12-.43Z"/>
</svg>
