<svg xmlns="http://www.w3.org/2000/svg" width="32" height="32" fill="none" viewBox="0 0 32 32">
  <path fill="url(#a)" d="M0 0h32v32H0z"/>
  <path fill="#fff" fill-rule="evenodd" d="m16 6.867 2.493-1.445-2.243-1.295a.5.5 0 0 0-.5 0l-9.908 5.72a.5.5 0 0 0-.25.433v11.44a.5.5 0 0 0 .25.433l9.908 5.72a.5.5 0 0 0 .5 0l9.907-5.72a.5.5 0 0 0 .25-.433v-2.594l-2.497 1.44L16 25.134l-7.91-4.566v-9.134L16 6.867Zm-.032 16.976 4.713-2.721v-7.805l-6.759-3.902-4.708 2.718 6.754 3.9v7.81Zm10.436-6.032-4.676 2.7v-7.873l-6.7-3.868 4.617-2.666 6.509 3.758a.5.5 0 0 1 .25.432v7.517Z" clip-rule="evenodd"/>
  <defs>
    <linearGradient id="a" x1="32" x2="-4.12" y1="32.447" y2="3.033" gradientUnits="userSpaceOnUse">
      <stop stop-color="#EF41FF"/>
      <stop offset=".67" stop-color="#1F6BFF"/>
      <stop offset="1" stop-color="#7DEFFF"/>
    </linearGradient>
  </defs>
</svg>
