<svg width="601" height="600" viewBox="0 0 601 600" fill="none" xmlns="http://www.w3.org/2000/svg">
<rect x="0.289551" width="600" height="600" fill="white"/>
<path d="M299.69 447.057L388.057 396.038V249.701L261.326 176.533L173.049 227.5L299.69 300.615V447.057Z" fill="url(#paint0_linear_72_2)"/>
<path fill-rule="evenodd" clip-rule="evenodd" d="M300.29 128.75L347.026 101.662L304.972 77.3819C302.075 75.709 298.505 75.709 295.607 77.3819L109.838 184.636C106.94 186.309 105.155 189.4 105.155 192.746V407.254C105.155 410.6 106.94 413.692 109.838 415.364L295.607 522.618C298.505 524.291 302.075 524.291 304.972 522.618L490.741 415.364C493.639 413.692 495.424 410.6 495.424 407.254V358.613L448.597 385.625L300.29 471.25L151.982 385.625V214.375L300.29 128.75Z" fill="url(#paint1_linear_72_2)"/>
<path d="M407.696 384.568L495.367 333.951V193.022C495.367 189.676 493.582 186.584 490.684 184.911L368.636 114.447L282.061 164.431L407.696 236.966V384.568Z" fill="url(#paint2_linear_72_2)"/>
<defs>
<linearGradient id="paint0_linear_72_2" x1="241.758" y1="193.157" x2="207.815" y2="429.887" gradientUnits="userSpaceOnUse">
<stop stop-color="#624AFF"/>
<stop offset="0.98" stop-color="#DD09FF"/>
</linearGradient>
<linearGradient id="paint1_linear_72_2" x1="180.345" y1="494.56" x2="234.458" y2="49.7161" gradientUnits="userSpaceOnUse">
<stop stop-color="#EF41FF"/>
<stop offset="0.67" stop-color="#1F6BFF"/>
<stop offset="1" stop-color="#7DEFFF"/>
</linearGradient>
<linearGradient id="paint2_linear_72_2" x1="372.554" y1="86.2467" x2="320.141" y2="316.686" gradientUnits="userSpaceOnUse">
<stop stop-color="#7DEFFF"/>
<stop offset="0.985" stop-color="#5707FF"/>
</linearGradient>
</defs>
</svg>
