<svg xmlns="http://www.w3.org/2000/svg" width="32" height="32" fill="none" viewBox="0 0 32 32">
  <path fill="url(#a)" d="M0 0h32v32H0z"/>
  <path fill="#fff" d="M15.75 4.127a.5.5 0 0 1 .5 0l2.242 1.295L16 6.866l-7.91 4.568v9.132L16 25.133l7.91-4.567 2.497-1.44v2.594a.5.5 0 0 1-.25.432l-9.907 5.721a.5.5 0 0 1-.5 0l-9.907-5.72a.5.5 0 0 1-.25-.433V10.28c0-.179.095-.343.25-.432l9.907-5.721Zm4.93 9.19v7.805l-4.712 2.72v-7.809l-6.754-3.9 4.708-2.718 6.759 3.902Zm5.474-3.455a.5.5 0 0 1 .25.433v7.516l-4.677 2.7v-7.872l-6.7-3.87 4.618-2.665 6.51 3.758Z"/>
  <defs>
    <linearGradient id="a" x1="32" x2="-4.12" y1="32.447" y2="3.033" gradientUnits="userSpaceOnUse">
      <stop stop-color="#EF41FF"/>
      <stop offset=".67" stop-color="#1F6BFF"/>
      <stop offset="1" stop-color="#7DEFFF"/>
    </linearGradient>
  </defs>
</svg>
