<svg xmlns="http://www.w3.org/2000/svg" width="32" height="32" fill="none" viewBox="0 0 32 32">
  <path fill="#E6FA36" d="M0 0h32v32H0z"/>
  <path fill="#000" d="M19.22 4.813c.538.348.88.878 1.054 1.444.429 1.398.192 2.774-.07 4.304-.127.736-.26 1.509-.327 2.336-.202 2.483.694 5.505 2.575 7.044 1.332 1.09 3.158 1.437 5.438.32 1.766-.864 3.147-3.125 3.735-5.224.11-.392.184-.799.227-1.214v.005A15.908 15.908 0 0 0 30.46 9.14l-.001-.004v.004l-.002-.004c.084.481.14 1.017.176 1.64.096 1.632-.511 4.182-1.527 5.58-.937 1.29-3.053 2.507-5.068 1.433a1.708 1.708 0 0 1-.14-.084c-1.019-.68-2.007-2.854-.787-7.205.69-2.461 1.021-5.23-.675-7.578a4.813 4.813 0 0 0-1.27-1.212C19.723.764 17.83.596 16.14 1.057c-2.82.77-4.385 2.996-5.026 5.756-.456 1.962-.152 3.949.628 5.828.526 1.267 1.12 2.19 1.65 3.016.817 1.27 1.484 2.307 1.52 4l.002.186c.01.75.027 1.89.658 2.292.177.112.401.167.687.14 1.323-.126 1.16-1.628.871-2.559-.279-.902-.84-1.717-1.488-2.661-.39-.566-.81-1.179-1.222-1.884-.82-1.407-1.364-2.438-1.48-4.01a7.879 7.879 0 0 1 1.277-4.842c.882-1.323 2.779-2.572 4.717-1.664.101.047.196.1.285.158Z"/>
  <path fill="#000" fill-rule="evenodd" d="M.634 16.995c-.072.259-.13.525-.173.795L0 16c0 1.167.126 2.305.363 3.402v.001c.335 1.542.89 3 1.633 4.34a7.295 7.295 0 0 1-.113-.436l.004.013c.033.145.069.285.109.422l-.11-.422c-.132-.588-.212-1.253-.26-2.066a5.883 5.883 0 0 1-.01-.29c-.014-1.63.58-3.97 1.537-5.287.937-1.29 3.052-2.507 5.068-1.433.721.385 1.477 1.505 1.493 3.605.007.998-.154 2.217-.565 3.683a16.13 16.13 0 0 0-.45 2.067c-.27 1.874-.11 3.805 1.126 5.513 1.427 1.975 4.038 2.48 6.293 1.864 2.82-.771 4.384-2.997 5.026-5.757a8.308 8.308 0 0 0 .212-2.021c-.02-1.29-.327-2.573-.84-3.808-.526-1.267-1.12-2.19-1.65-3.016-.817-1.27-1.483-2.307-1.52-4v-.007l-.002-.178c-.006-.433-.014-.998-.142-1.475-.155-.577-.486-1.026-1.202-.957-.835.08-1.078.707-1.07 1.394.003.401.093.823.199 1.166.279.902.84 1.717 1.488 2.66.39.567.811 1.18 1.222 1.886.82 1.407 1.364 2.437 1.48 4.01a7.857 7.857 0 0 1-1.277 4.841c-.882 1.322-2.78 2.57-4.718 1.663-.706-.331-1.138-.942-1.34-1.603a5.204 5.204 0 0 1-.178-.796c-.16-1.13.035-2.268.248-3.506.126-.737.259-1.51.326-2.337a8.7 8.7 0 0 0 .028-.754c-.023-4.133-2.86-9.146-8.04-6.61-1.765.864-3.146 3.125-3.734 5.224Z" clip-rule="evenodd"/>
</svg>
