<svg xmlns="http://www.w3.org/2000/svg" width="32" height="32" fill="none" viewBox="0 0 32 32">
  <path fill="#000" d="M0 0h32v32H0z"/>
  <path fill="#999" d="m18.38 4.955.639 1.496a12.387 12.387 0 0 0 6.53 6.53l1.496.639c.391.167.71.406.955.692A12.122 12.122 0 0 0 17.688 4c.285.245.525.563.692.955ZM4.955 13.62l1.496-.639a12.39 12.39 0 0 0 6.53-6.53l.639-1.496c.168-.392.407-.71.692-.955A12.122 12.122 0 0 0 4 14.312a2.57 2.57 0 0 1 .955-.692Zm22.09 4.76-1.496.638a12.387 12.387 0 0 0-6.53 6.531l-.64 1.496c-.166.391-.406.71-.69.955a12.123 12.123 0 0 0 10.31-10.312 2.585 2.585 0 0 1-.954.692ZM13.62 27.045l-.638-1.496a12.391 12.391 0 0 0-6.531-6.53l-1.496-.64a2.585 2.585 0 0 1-.955-.69A12.124 12.124 0 0 0 14.312 28a2.6 2.6 0 0 1-.692-.955Z"/>
  <path fill="#fff" d="m10.557 14.826.737-.314a6.106 6.106 0 0 0 3.219-3.218l.314-.738c.44-1.032 1.905-1.032 2.345 0l.315.738a6.105 6.105 0 0 0 3.218 3.218l.737.314c1.033.441 1.033 1.905 0 2.346l-.737.314a6.104 6.104 0 0 0-3.218 3.219l-.315.736c-.44 1.033-1.904 1.033-2.345 0l-.314-.736a6.105 6.105 0 0 0-3.219-3.219l-.737-.314c-1.033-.441-1.033-1.905 0-2.346Z"/>
</svg>
