<svg xmlns="http://www.w3.org/2000/svg" width="32" height="32" fill="none" viewBox="0 0 32 32">
  <path fill="#fff" stroke="#000" stroke-width=".8" d="M.4.4h31.2v31.2H.4z"/>
  <path fill="#000" d="m10.729 14.328.03.125a1.892 1.892 0 0 1 1.331-.164c1.84.418 1.938 3.113.149 3.668a2.006 2.006 0 0 1-1.487-.113v1.633l-.023.023h-.943l-.023-.023v-5.15h.966Zm1.538 2.51c.204-.189.3-.505.279-.783-.09-1.17-1.9-1.128-1.796.22.058.746 1 1.041 1.517.563Zm10.911-.244c-.017.016.069.148.085.17.341.479 1.115.446 1.505.049l.66.662c-.208.24-.478.395-.778.483-1.354.398-2.69-.54-2.52-2.042.237-2.087 3.204-2.308 3.626-.213.045.221.08.615.054.837-.003.023-.002.04-.023.053h-2.609Zm1.597-.86c-.213-.755-1.367-.735-1.597 0h1.597Z"/>
  <path fill="#000" d="M14.752 16.594c-.017.016.068.147.084.17.347.478 1.111.446 1.505.049l.66.661a1.555 1.555 0 0 1-.744.471c-1.485.466-2.882-.68-2.505-2.292.389-1.662 2.735-1.953 3.44-.387.122.268.179.602.192.897.004.093.013.31-.001.391-.003.018-.008.03-.023.04h-2.608Zm1.597-.86c-.213-.758-1.373-.732-1.597 0h1.597Zm-8.944-1.406v2.164l.019.137c.098.53.87.6 1.08.116.007-.018.042-.118.042-.128v-2.289h.988v2.305c-.123 1.902-2.992 1.893-3.103-.015v-2.29h.974Zm20.595 0v.969h-.647l-.022.023v2.633h-1.004V15.32l-.023-.023h-.525v-.883c0-.023.004-.075.023-.086h.555V13.5h.905c.014 0 .059.008.069.024v.78l.022.024H28Zm-22.278.646c-.037.04-.238.284-.26.29-.052-.003-.074-.057-.13-.08-.169-.07-.39.04-.358.241a.445.445 0 0 0 .07.138c.102.1.469.216.622.31.69.42.815 1.348.195 1.892-.51.448-1.433.35-1.861-.177l.538-.729c.106.23.65.379.703.051.047-.282-.334-.343-.524-.439-.409-.206-.682-.541-.705-1.025-.052-1.118 1.325-1.592 2.047-.853.01.021-.019.049-.03.064-.085.112-.212.215-.307.317Zm15.93 1.063c.37.322.447.864.262 1.312-.326.788-1.384.893-1.998.4-.042-.033-.179-.13-.153-.186l.51-.703.032.01c.095.158.345.277.518.219.134-.045.22-.169.163-.314-.06-.151-.392-.24-.531-.313-.475-.247-.729-.642-.684-1.204.07-.879 1.13-1.274 1.825-.843.04.025.176.123.2.154.01.015.018.025.011.044-.02.065-.083.09-.12.13-.159.176-.312.373-.492.522-.114-.132-.35-.146-.438.021-.109.206.086.315.236.389.23.114.456.186.659.362Zm-2.048-1.709v.969h-.974v2.656h-1.019v-3.625h1.993Z"/>
</svg>
