<svg xmlns="http://www.w3.org/2000/svg" width="32" height="32" fill="none" viewBox="0 0 32 32">
  <path fill="#231F20" d="M0 0h32v32H0z"/>
  <path fill="#fff" d="M13.31 6C10.397 6 8.025 8.533 8 11.657c0 .026.018.045.042.045h2.584c.022 0 .04-.02.04-.043.022-1.546 1.201-2.798 2.645-2.798h10.645c.022 0 .042-.02.042-.045v-2.77c0-.024-.018-.046-.042-.046H13.31Zm-2.601 8.566h10.58c.023 0 .043.02.043.045v2.774c0 .024-.019.046-.043.046H10.71c-.022 0-.043-.02-.043-.046v-2.774c0-.024-.018-.046-.042-.046H8.042c-.022 0-.042.02-.042.046v5.637c0 .024.018.046.042.046H21.29c.023 0 .042.021.042.047-.024 1.544-1.201 2.794-2.645 2.794H8.043c-.022 0-.042.02-.042.045v2.775c0 .023.018.045.042.045h10.646c2.914 0 5.288-2.533 5.31-5.657 0-.026-.018-.045-.042-.045h-2.582c-.022 0-.042-.02-.042-.046v-2.774c0-.024.018-.046.042-.046h2.584c.022 0 .042-.02.042-.045V11.75c0-.024-.018-.046-.042-.046h-13.25c-.021 0-.042.02-.042.046v2.774c0 .024.019.046.043.046v-.005Z"/>
</svg>
