<svg xmlns="http://www.w3.org/2000/svg" width="32" height="32" fill="none" viewBox="0 0 32 32">
  <path fill="#75FB6E" d="M0 0h32v32H0z"/>
  <path fill="#111" d="M13.649 8.262V8.23l.145-.129h2.236V7h-2.236l-.334.328v.457l-.157.129h-.024c.13.11.245.234.37.348Z"/>
  <path fill="#111" d="M13.34 7.9h-.443l-.3.328v.44l.3.327h.442l.317-.328v-.439l-.317-.329Zm1.464 6.485h-.442l-.3.33v1.145l.3.327h.442l.317-.327v-1.146l-.317-.329Zm-1.475 1.825h-.442l-.3.328v.44l.3.328h.442l.317-.329v-.439l-.317-.327Zm5.767 0h-.442l-.3.328v.44l.3.328h.442l.318-.329v-.439l-.318-.327Z"/>
  <path fill="#111" d="m12.94 8.604-.316.038-.094.123-.439.052-1.065 1.394.052.454-.123.156.03.284.344-.042.095-.116.44-.052 1.052-1.393-.052-.448.112-.134-.036-.316Zm-1.967 5.471.318.039.093.122.438.053 1.065 1.394-.052.454.125.155-.032.284-.343-.041-.096-.116-.44-.052-1.051-1.393.05-.449-.111-.133.036-.317Z"/>
  <path fill="#111" d="m11.204 10.587-.228.23-.003.156-.317.318-.025 2.601.309.328-.008.203.193.204.247-.248.008-.153.317-.318.016-2.593-.303-.323.009-.176-.215-.229Zm7.158-2.325V8.23l-.145-.129h-2.24V7h2.236l.334.328v.457l.157.129h.024c-.126.11-.24.234-.366.348Z"/>
  <path fill="#111" d="M18.671 7.9h.442l.301.328v.44l-.3.327h-.443l-.316-.328v-.439l.316-.329Zm-1.463 6.493h.442l.3.329v1.139l-.3.327h-.442l-.317-.327v-1.14l.317-.328Z"/>
  <path fill="#111" d="m19.07 8.604.317.038.095.123.438.052 1.064 1.394-.052.454.126.156-.032.284-.344-.042-.096-.116-.439-.052-1.051-1.393.05-.448-.111-.134.035-.316Zm1.968 5.471-.317.039-.093.122-.44.053-1.063 1.394.051.454-.125.155.032.284.343-.041.096-.116.44-.052 1.052-1.393-.05-.449.11-.133-.036-.317Z"/>
  <path fill="#111" d="m20.806 10.587.23.23.002.156.317.318.025 2.601-.309.328.008.203-.192.204-.247-.248-.01-.153-.316-.318-.016-2.593.303-.323-.01-.176.215-.229ZM9.815 15.29h-.442l-.3.33v.438l.3.328h.442l.317-.328v-.439l-.317-.329Z"/>
  <path fill="#111" d="m9.634 16.084-.229.231-.003.154-.316.32-.024 2.04.307.327-.007.202.193.165.247-.207.008-.153.316-.318.018-2.033-.305-.324.01-.176-.215-.228ZM7 13.954l.055.454 1.56 1.248.44-.058.152.128.273-.035-.043-.354-.112-.098-.054-.454-1.56-1.236-.433.056-.278.349Z"/>
  <path fill="#111" d="m13.346 17.468-.008-.17-.22-.223-.224.237v.155l-.252.266-.056.058v2.279l-.136.135h-2.204l-.13-.135v-.457l-.313-.322h-.442l-.3.322v.457l.3.31h.442l.142.147v.457l.301.31h2.204l.312-.31v-.457l.14-.146h.444l.3-.311v-2.28l-.3-.322Zm8.839-2.178h.442l.3.33v.438l-.3.328h-.442l-.317-.328v-.439l.317-.329Z"/>
  <path fill="#111" d="m22.365 16.084.23.231.003.154.317.32.024 2.04-.308.327.007.202-.193.165-.246-.207-.008-.153-.318-.318-.016-2.033.304-.324-.01-.176.214-.228ZM25 13.954l-.056.454-1.56 1.248-.439-.058-.152.128-.274-.035.044-.354.112-.098.054-.454 1.56-1.236.433.056.278.349Z"/>
  <path fill="#111" d="m18.654 17.468.008-.17.22-.223.225.237-.003.155.254.266.056.058v2.279l.136.135h2.204l.13-.135v-.457l.312-.322h.442l.3.322v.457l-.3.31h-.442l-.141.147v.457l-.301.31H19.55l-.312-.31v-.457l-.142-.146h-.442l-.3-.311v-2.28l.3-.322Zm-3.261 3.6-.004-.003.006-.446-.31-.326-.441-.004-.316.32-.003.444-.132.146-.437-.004-2.1 2.122-.004.457.309.314.442.005 2.1-2.123.004-.447.126-.144.42.004.34-.315Z"/>
  <path fill="#111" d="m11.652 23.774-.139.136H9.308l-.13-.135v-.457l-.312-.322h-.442l-.3.322v.457l.3.31h.442l.142.147v.457l.3.311h2.205l.311-.311v-.457l.142-.147h.005l-.32-.311Zm4.99-2.706.002-.003-.004-.446.309-.326.442-.004.314.32.004.444.132.146.436-.004 2.1 2.122.006.457-.309.314-.442.005-2.1-2.123-.005-.447-.126-.144-.421.004-.338-.315Z"/>
  <path fill="#111" d="m20.383 23.774.138.136h2.204l.13-.135v-.457l.312-.322h.442l.301.322v.457l-.3.31h-.443l-.14.147v.457l-.302.311h-2.204l-.311-.311v-.457l-.143-.147h-.003l.319-.311Z"/>
</svg>
