<svg xmlns="http://www.w3.org/2000/svg" width="32" height="32" fill="none" viewBox="0 0 32 32">
  <path fill="#000" d="M0 0h32v32H0z"/>
  <path fill="url(#a)" d="M28.914 10.55a13.967 13.967 0 0 0-3.76-5.155l-.088-.074a13.929 13.929 0 0 0-3.607-2.22A13.914 13.914 0 0 0 16.007 2a13.959 13.959 0 0 0-9.904 4.1A13.951 13.951 0 0 0 2 16a13.965 13.965 0 0 0 4.87 10.61 13.924 13.924 0 0 0 3.685 2.289c1.727.73 3.562 1.1 5.452 1.1 1.89 0 3.724-.37 5.451-1.1a13.943 13.943 0 0 0 4.453-3A13.95 13.95 0 0 0 30.013 16c.001-1.89-.37-3.723-1.1-5.45ZM16.007 29.247a13.194 13.194 0 0 1-8.349-2.966l13.883-5.843-4.754-4.824-.002.002-.01-.01L7.26 25.942A13.216 13.216 0 0 1 2.754 16c0-7.304 5.945-13.246 13.253-13.246 3.123 0 5.997 1.086 8.265 2.899l-12.253 5.136 4.757 4.816.002-.002.01.009 7.88-9.628A13.21 13.21 0 0 1 29.26 16c0 7.304-5.945 13.246-13.253 13.246ZM9.145 24.91l7.65-8.31 3.546 3.598L9.146 24.91ZM23.01 6.927l-6.273 7.663-3.515-3.56 9.788-4.103Z"/>
  <defs>
    <linearGradient id="a" x1="25.909" x2="6.105" y1="6.098" y2="25.902" gradientUnits="userSpaceOnUse">
      <stop stop-color="#3EF8F3"/>
      <stop offset="1" stop-color="#07AEFE"/>
    </linearGradient>
  </defs>
</svg>
