<svg xmlns="http://www.w3.org/2000/svg" width="32" height="32" fill="none" viewBox="0 0 32 32">
  <path fill="#050912" d="M0 0h32v32H0z"/>
  <path fill="url(#a)" d="M19.138 11.062V7.747l-6.463 3.152 3.364 1.655 3.099-1.492Z"/>
  <path fill="url(#b)" d="m19.712 20.285 3.805 1.914-.027-6.77-3.747 1.867-.031 2.989Z"/>
  <path fill="#0D1C2B" d="m16.013 25.912 3.659-1.822.105-9.982-3.789 1.834.025 9.97Z"/>
  <path fill="url(#c)" d="m12.715 20.939-3.325 1.68v-6.7l3.339 1.634-.014 3.386Z"/>
  <path fill="#5EA9FF" d="m16.065 6.09-9.959 4.884 9.882 4.968 3.789-1.835 6.143-2.998-3.39-1.728-3.392 1.681-3.1 1.492-3.363-1.655 6.463-3.152-3.073-1.658Z"/>
  <path fill="#37679E" d="m6.08 21.008.026-10.034 9.882 4.968.025 9.97-3.311-1.638.026-6.721-3.338-1.634v6.7l-3.31-1.61Z"/>
  <path fill="#0D1C2B" d="m25.921 11.109-6.144 2.998-.033 3.19 3.747-1.869.027 6.771 2.403-1.167v-9.923Z"/>
  <path fill="#0D1C2B" d="m19.743 17.296-3.746 1.876-.009-3.23 3.789-1.834-.034 3.188Z"/>
  <path fill="url(#d)" d="m6.159 20.959 3.152 1.534V15.79l3.497 1.713v.05l-.026 6.67 3.152 1.56-.025-9.793-9.724-4.889-.026 9.857Zm9.917-1.738.017 6.563 3.5-1.743.07-6.616-3.587 1.796ZM9.47 22.49l3.166-1.601.013-3.288-3.18-1.556v6.444Zm10.386-8.334-.032 3.01L23.57 15.3l.027 6.773 2.245-1.09v-9.747l-5.985 2.921Zm-.034 3.189-.03 2.89 3.645 1.834-.025-6.514-3.59 1.79Zm-3.754-1.354.008 3.052 3.588-1.797.032-3.012-3.628 1.757Zm-9.784-5.017 9.705 4.879 3.753-1.818 6.001-2.929-3.214-1.637-3.356 1.663-3.135 1.509-.034-.017-3.509-1.726 6.47-3.156-2.902-1.565-9.779 4.797Zm6.572-.076 3.183 1.566 3.02-1.453V7.874l-6.203 3.025Zm6.361.035 3.277-1.624.036-.018L26 11.06v10.021l-.045.022-2.438 1.185-3.727-1.875-.039 3.678v.049L16.014 26l-.036-.017-3.355-1.66.013-3.255-3.245 1.64L6 21.058l.027-10.133L16.067 6l3.15 1.7v3.234Z"/>
  <defs>
    <linearGradient id="a" x1="16.992" x2="16.992" y1="13.027" y2="1.926" gradientUnits="userSpaceOnUse">
      <stop offset=".045" stop-color="#050A10"/>
      <stop offset=".291" stop-color="#254A76"/>
    </linearGradient>
    <linearGradient id="b" x1="19.966" x2="22.941" y1="17.587" y2="21.553" gradientUnits="userSpaceOnUse">
      <stop offset=".045" stop-color="#050A10"/>
      <stop offset=".791" stop-color="#254A76"/>
    </linearGradient>
    <linearGradient id="c" x1="13.024" x2="9.457" y1="16.991" y2="22.941" gradientUnits="userSpaceOnUse">
      <stop offset=".045" stop-color="#050A10"/>
      <stop offset=".67" stop-color="#254A76"/>
    </linearGradient>
    <linearGradient id="d" x1="20.252" x2="7.154" y1="7.151" y2="19.552" gradientUnits="userSpaceOnUse">
      <stop stop-color="#5EA9FF"/>
      <stop offset=".432" stop-color="#5EA9FF"/>
      <stop offset=".643" stop-color="#5EA9FF"/>
      <stop offset="1" stop-color="#37679E"/>
    </linearGradient>
  </defs>
</svg>
