<svg width="422" height="422" viewBox="0 0 422 422" fill="none" xmlns="http://www.w3.org/2000/svg">
<rect width="422" height="422" fill="black"/>
<g clip-path="url(#clip0_1_15)">
<path d="M81 286.366C81 280.893 85.4505 276.455 90.9404 276.455H329.511C335.001 276.455 339.452 280.893 339.452 286.366V306.188C339.452 311.662 335.001 316.099 329.511 316.099H90.9404C85.4505 316.099 81 311.662 81 306.188V286.366Z" fill="white" fill-opacity="0.5"/>
<path fill-rule="evenodd" clip-rule="evenodd" d="M90.9404 234.828C85.4505 234.828 81 239.266 81 244.739V271.531C83.8432 269.633 87.2622 268.526 90.9404 268.526H329.511C333.188 268.526 336.608 269.633 339.452 271.531V244.739C339.452 239.266 335.001 234.828 329.511 234.828H90.9404ZM339.452 286.366C339.452 280.893 335.001 276.455 329.511 276.455H90.9404C85.4505 276.455 81 280.893 81 286.366V306.19C81 311.664 85.4505 316.101 90.9404 316.101H329.511C335.001 316.101 339.452 311.664 339.452 306.19V286.366Z" fill="white" fill-opacity="0.5"/>
<path fill-rule="evenodd" clip-rule="evenodd" d="M90.9404 193.201C85.4505 193.201 81 197.638 81 203.112V229.903C83.8432 228.006 87.2622 226.899 90.9404 226.899H329.511C333.188 226.899 336.608 228.006 339.452 229.903V203.112C339.452 197.638 335.001 193.201 329.511 193.201H90.9404ZM339.452 244.739C339.452 239.265 335.001 234.828 329.511 234.828H90.9404C85.4505 234.828 81 239.265 81 244.739V271.53C81.2175 271.385 81.4383 271.245 81.6624 271.109C83.8325 269.794 86.3054 268.927 88.9523 268.635C89.6051 268.563 90.2684 268.526 90.9404 268.526H329.511C330.183 268.526 330.846 268.563 331.498 268.635C334.419 268.957 337.128 269.98 339.452 271.53V244.739ZM339.452 286.366C339.452 281.021 335.206 276.663 329.893 276.462C329.767 276.457 329.64 276.455 329.511 276.455H90.9404C85.4505 276.455 81 280.893 81 286.366V306.188C81 311.662 85.4505 316.101 90.9404 316.101H329.511C335.001 316.101 339.452 311.662 339.452 306.188V286.366Z" fill="white" fill-opacity="0.5"/>
<path opacity="0.3" fill-rule="evenodd" clip-rule="evenodd" d="M98.0146 104C88.6177 104 81 111.595 81 120.965V188.276C83.8432 186.379 87.2622 185.272 90.9404 185.272H329.511C333.188 185.272 336.608 186.379 339.452 188.276V120.965C339.452 111.595 331.833 104 322.437 104H98.0146ZM339.452 203.112C339.452 197.638 335.001 193.201 329.511 193.201H90.9404C85.4505 193.201 81 197.638 81 203.112V229.903C81.2175 229.758 81.4383 229.618 81.6624 229.482C83.8325 228.167 86.3054 227.3 88.9523 227.008C89.6051 226.936 90.2684 226.899 90.9404 226.899H329.511C330.183 226.899 330.846 226.936 331.498 227.008C334.419 227.33 337.128 228.352 339.452 229.903V203.112ZM339.452 244.739C339.452 239.393 335.206 235.036 329.893 234.835C329.767 234.83 329.64 234.828 329.511 234.828H90.9404C85.4505 234.828 81 239.265 81 244.739V271.53L81.0707 271.483C81.2653 271.355 81.4625 271.23 81.6624 271.109C81.9083 270.96 82.1581 270.817 82.4117 270.679C84.3953 269.605 86.6054 268.894 88.9523 268.635C89.0052 268.629 89.058 268.624 89.111 268.618C89.7125 268.557 90.3228 268.526 90.9404 268.526H329.511C329.738 268.526 329.965 268.53 330.192 268.539C330.631 268.555 331.067 268.587 331.498 268.635C334.419 268.957 337.128 269.98 339.452 271.53V244.739ZM339.452 286.366C339.452 281.021 335.206 276.663 329.893 276.462L329.865 276.461C329.748 276.457 329.629 276.455 329.511 276.455H90.9404C85.4505 276.455 81 280.893 81 286.366V306.188C81 311.662 85.4505 316.101 90.9404 316.101H329.511C335.001 316.101 339.452 311.662 339.452 306.188V286.366Z" fill="white"/>
<path d="M269.868 131.752C269.868 126.278 274.318 121.84 279.808 121.84H311.618C317.108 121.84 321.558 126.278 321.558 131.752V161.485C321.558 166.959 317.108 171.396 311.618 171.396H279.808C274.318 171.396 269.868 166.959 269.868 161.485V131.752Z" fill="white"/>
</g>
<defs>
<clipPath id="clip0_1_15">
<rect width="259" height="213" fill="white" transform="translate(81 104)"/>
</clipPath>
</defs>
</svg>
