<svg xmlns="http://www.w3.org/2000/svg" width="32" height="32" fill="none" viewBox="0 0 32 32">
  <g clip-path="url(#a)">
    <path fill="#2E7CF6" d="M0 0h32v32H0z"/>
    <path fill="#fff" fill-opacity=".4" fill-rule="evenodd" d="M7.692 18.139A.692.692 0 0 0 7 18.83v1.871a1.24 1.24 0 0 1 .693-.21h16.615c.256 0 .494.078.692.21V18.83a.692.692 0 0 0-.692-.692H7.692ZM25 21.72a.692.692 0 0 0-.692-.674H7.693a.692.692 0 0 0-.693.692v1.385a.692.692 0 0 0 .692.692h16.616c.382 0 .692-.31.692-.692V21.72Z" clip-rule="evenodd"/>
    <path fill="#fff" fill-opacity=".5" d="M7 21.738c0-.382.31-.692.692-.692h16.616c.382 0 .692.31.692.692v1.385c0 .382-.31.692-.692.692H7.692A.692.692 0 0 1 7 23.123v-1.385Z"/>
    <path fill="#fff" fill-opacity=".3" fill-rule="evenodd" d="M8.246 9C7.558 9 7 9.558 7 10.246v4.64a1.24 1.24 0 0 1 .693-.21h16.615c.256 0 .494.078.692.21v-4.64C25 9.558 24.442 9 23.754 9H8.246ZM25 15.905a.692.692 0 0 0-.692-.674H7.693a.692.692 0 0 0-.693.692v1.871a1.24 1.24 0 0 1 .693-.21h16.615c.256 0 .494.078.692.21v-1.89Zm-3.115-5.659a1.73 1.73 0 0 0 0 3.462h.139a1.73 1.73 0 0 0 0-3.462h-.139Z" clip-rule="evenodd"/>
    <path fill="#fff" fill-opacity=".5" d="M7 21.738c0-.382.31-.692.692-.692h16.616c.382 0 .692.31.692.692v1.385c0 .382-.31.692-.692.692H7.692A.692.692 0 0 1 7 23.123v-1.385Z"/>
    <path fill="#fff" fill-opacity=".4" fill-rule="evenodd" d="M7.692 18.139A.692.692 0 0 0 7 18.83v1.871a1.24 1.24 0 0 1 .693-.21h16.615c.256 0 .494.078.692.21V18.83a.692.692 0 0 0-.692-.692H7.692ZM25 21.72a.692.692 0 0 0-.692-.674H7.693a.692.692 0 0 0-.693.692v1.385a.692.692 0 0 0 .692.692h16.616c.382 0 .692-.31.692-.692V21.72Z" clip-rule="evenodd"/>
    <path fill="#fff" fill-opacity=".4" fill-rule="evenodd" d="M7.692 15.243a.692.692 0 0 0-.692.692v1.872a1.24 1.24 0 0 1 .693-.21h16.615c.256 0 .494.077.692.21v-1.872a.692.692 0 0 0-.692-.692H7.692Z" clip-rule="evenodd" opacity=".5"/>
  </g>
  <defs>
    <clipPath id="a">
      <path fill="#fff" d="M0 0h32v32H0z"/>
    </clipPath>
  </defs>
</svg>
