<svg xmlns="http://www.w3.org/2000/svg" width="32" height="32" fill="none" viewBox="0 0 32 32">
  <path fill="#141413" d="M0 0h32v32H0z"/>
  <path fill="#FF5F00" d="M19.09 10.497h-6.2v11.006h6.2V10.497Z"/>
  <path fill="#EB001B" d="M13.283 16a7.012 7.012 0 0 1 2.697-5.503c-3.07-2.391-7.54-1.866-9.96 1.186-2.402 3.034-1.87 7.428 1.22 9.82a7.137 7.137 0 0 0 8.76 0A6.972 6.972 0 0 1 13.283 16Z"/>
  <path fill="#F79E1B" d="M27.457 16c0 3.87-3.17 7-7.087 7A7.07 7.07 0 0 1 16 21.503a6.954 6.954 0 0 0 1.181-9.84A7.396 7.396 0 0 0 16 10.498c3.07-2.391 7.54-1.866 9.94 1.186A6.874 6.874 0 0 1 27.458 16Z"/>
</svg>
