<svg xmlns="http://www.w3.org/2000/svg" width="32" height="32" fill="none" viewBox="0 0 32 32">
  <path fill="#1434CB" d="M0 0h32v32H0z"/>
  <path fill="#fff" d="m12.604 12.16-3.657 8.704H6.562l-1.8-6.947c-.109-.428-.204-.585-.536-.765A9.445 9.445 0 0 0 2 12.412l.053-.253h3.84a1.053 1.053 0 0 1 1.041.887l.95 5.038 2.35-5.925h2.37Zm9.348 5.862c.01-2.297-3.184-2.424-3.162-3.45.007-.313.305-.645.957-.73a4.269 4.269 0 0 1 2.225.39l.397-1.846A6.077 6.077 0 0 0 20.257 12c-2.23 0-3.8 1.183-3.813 2.877-.015 1.254 1.12 1.953 1.976 2.37.879.426 1.174.7 1.17 1.081-.006.585-.7.842-1.35.852a4.73 4.73 0 0 1-2.318-.55l-.409 1.908c.527.241 1.5.451 2.51.462 2.371 0 3.922-1.168 3.929-2.978Zm5.89 2.842h2.088l-1.822-8.705h-1.926a1.03 1.03 0 0 0-.961.639l-3.387 8.066h2.37l.47-1.3h2.896l.273 1.3Zm-2.518-3.085 1.188-3.268.684 3.268h-1.872Zm-9.495-5.62-1.866 8.705h-2.257l1.867-8.705h2.256Z"/>
</svg>
