<svg xmlns="http://www.w3.org/2000/svg" width="1726" height="1726" fill="none"><g opacity=".8"><path fill="#000" d="M847 22c13-6 26-10 39-12h47c38 7 70 30 98 56 45 41 81 91 114 141 47 72 90 147 132 222 41 74 82 149 122 225 88 165 176 331 253 502 21 48 41 98 57 149 3 19 10 38 8 58-2 9-5 19-13 23-7 5-16 2-23 4-7 4-11 12-17 15l-18 2-17 15-15 2c-11 0-14 13-23 15-6 2-13 1-19 1-5 6-10 13-18 16-7 2-13 1-20 1-4 6-8 13-15 16-7 2-14 1-21 0-4 6-7 14-15 15h-21c-4 6-8 13-15 17-7 2-15 0-23 0-3 5-4 12-10 15h-25l-11 18-27-1-9 18c-9 0-19 0-28-2-1 6-2 13-7 18-7 2-15 1-22-2-17-9-31-22-44-36-16-15-31-31-46-48-12-12-21-26-33-38-15-14-28-30-42-45-17-21-37-38-55-57l-28-26c-19-18-39-33-60-48-28-19-59-36-93-40-23-1-45 10-65 22-35 21-66 48-95 76-46 42-89 87-133 130-17 20-35 38-54 56-17 14-32 31-50 45-17 12-34 27-55 28-9-4-12-14-17-22-9 0-18 2-27-1-4-4-5-10-8-15-9-1-19 1-28-2-5-4-7-10-10-16h-25c-5-4-7-11-12-16-8-2-16-1-24-1l-13-17c-7 0-14 1-21-1-7-3-11-10-16-16l-18-1c-8-2-13-10-19-15l-17-3c-6-1-10-6-14-10-7-9-20-4-29-10l-14-12a186 186 0 0 1-37-19c-7-3-15-2-22-5-6-4-11-13-19-14-9-2-20-2-26-10-9-12-7-27-7-40 5-38 20-74 34-109 37-87 82-170 128-251 14-27 29-52 44-77 16-30 36-58 52-88l67-113c13-19 23-39 37-58 55-91 112-181 170-270 60-90 119-181 191-262 34-35 69-72 115-92Zm-70 74c-40 37-73 80-106 123-28 40-57 79-84 121a16123 16123 0 0 0-388 625c-9 13-15 27-23 40-26 46-51 94-76 142-24 44-44 90-63 137-4 17-13 34-13 52 0 9-1 18 1 27 1 8 10 11 17 13 6-11 4-25 8-37 3-13 6-27 11-40 17-48 38-96 62-142 36-72 75-142 114-212l32-59 35-59c10-18 20-36 31-52 10-15 17-30 26-45 26-40 49-82 75-122 42-70 85-139 129-208 20-28 37-58 56-85 42-63 87-124 138-178 30-28 60-57 98-72 24-8 49-16 74-8 46 9 83 41 115 75 26 29 51 61 72 94 51 73 93 152 137 229 43 81 87 162 129 245 51 97 101 195 149 293l49 102c34 75 69 151 91 231 5 15 4 32 10 46 7 0 16-1 17-9 1-17 2-35-4-51-16-53-38-103-60-152-81-176-172-346-263-516-58-109-116-217-179-323-20-33-39-67-61-98-27-41-55-81-88-117-32-35-70-69-117-79-14-1-28-1-41 1-43 10-80 37-110 68Zm45 11c-45 34-81 78-116 122-15 21-31 40-44 61-73 103-138 210-203 317L357 774l-74 124-32 55c-24 40-45 82-68 122-20 38-41 76-60 115-14 27-25 54-38 81-8 17-12 35-19 52-6 16-8 32-7 49 9 0 19 0 26-7 4-7 4-15 7-23 7-30 20-57 30-86 30-68 64-135 99-201 49-92 102-183 154-274 10-17 21-34 29-52l64-106 52-87 68-109c28-45 57-89 87-132 13-16 24-34 38-50 29-37 60-74 98-103 24-19 53-36 84-38l13-1c20 1 40 5 57 15 44 23 77 62 108 101 51 69 94 144 135 219a12590 12590 0 0 1 373 748c13 37 30 72 42 109 7 18 10 36 16 54 5 10 16 12 25 15l2-13c-21-79-57-154-90-229-57-119-117-236-177-354-42-80-83-160-127-240-44-83-89-165-139-245-25-39-50-78-80-114-16-19-31-38-50-52-27-24-60-44-97-42-31-1-59 14-83 32h-1Zm-22 68c-44 42-81 92-116 142-59 85-113 173-167 261l-86 145c-31 49-60 99-88 149-17 27-32 55-48 82-21 39-45 77-65 117l-42 79c-26 51-51 102-72 155-6 17-13 33-14 51 11-2 21-7 29-14 7-5 8-14 11-22 4-16 12-30 18-46 17-45 40-88 60-132l37-70 48-92c17-35 37-67 55-100 43-75 85-150 129-224 53-90 105-180 163-267 31-47 62-94 99-137 31-36 65-71 109-91 23-11 50-13 75-7 33 10 60 33 85 57 50 54 88 118 125 181a13636 13636 0 0 1 354 708c32 71 63 142 89 216 8 10 19 19 32 23-6-23-15-45-23-68-35-87-76-173-117-258-41-87-85-173-129-260-60-117-120-235-184-350-20-33-38-67-60-99-16-26-32-51-51-75-23-30-48-59-78-81-16-11-33-21-52-24-14-1-28-1-41 1-33 7-60 29-84 50h-1Zm94-4c-34 5-62 26-87 49-42 40-76 86-109 133-23 35-46 69-68 105-28 43-53 88-80 132L450 762c-24 38-45 78-67 117-14 25-30 48-43 73-50 89-98 178-142 269-16 35-33 69-45 105 12-3 22-10 32-18 11-9 14-23 19-36 34-78 73-155 112-230 7-16 15-30 23-45l91-167 92-163c24-39 45-79 69-118 33-55 66-111 103-164 33-48 67-97 111-137 23-20 48-39 77-45 12-2 24-2 36-1 17 0 32 7 46 15 24 15 43 35 62 56 20 24 39 49 55 76 51 80 94 164 137 249 12 25 26 49 38 75l64 132c53 111 106 221 155 334 11 27 23 52 33 79 9 19 15 38 23 57 8 11 19 18 31 22 0-5-1-11-4-17l-22-53c-53-123-111-244-170-365l-120-240c-45-89-91-178-142-264-27-42-54-84-87-122-16-17-32-34-52-46-20-14-46-22-71-19Zm-43 65c-25 14-44 36-64 57-19 19-34 41-50 62-13 20-28 39-40 60-17 22-30 46-45 70-62 101-120 204-179 307l-76 138c-25 46-52 91-76 137-23 45-47 89-68 134-4 8-9 15-12 23-8 22-21 42-27 64 12-5 24-13 34-21 6-5 8-11 11-17 15-36 32-71 49-105 10-19 17-39 27-57l34-66c14-26 26-53 42-79 13-26 30-52 42-79a8417 8417 0 0 1 209-371c23-39 49-77 75-114 28-39 58-76 96-105 16-12 35-21 54-25h36c34 8 62 31 85 56 20 23 38 47 54 73 50 78 91 161 133 244 21 43 41 88 63 131l50 108 31 66c44 98 89 195 129 294 5 16 20 24 34 32-2-16-11-30-17-45-9-24-20-46-30-70-76-168-157-335-238-501-47-93-93-186-149-275-27-42-57-85-96-118-19-14-41-27-66-25-20-2-38 7-55 17Zm-14 59c-51 43-89 100-126 156-37 57-70 117-104 175-25 44-50 87-73 132-42 74-83 149-124 225-13 24-25 50-39 74-10 20-23 38-31 59l-44 89c-6 12-14 23-14 37 13-7 27-16 36-28 10-17 16-36 25-53l52-104c29-57 56-115 87-172 16-29 30-60 47-89l37-68c13-26 29-52 43-78 32-58 64-115 99-170 27-43 55-86 89-123 27-30 61-56 102-62 13-1 26 3 38 7 34 14 60 42 82 71 16 21 30 44 45 66 50 87 93 177 135 268 11 20 19 41 29 61 43 91 83 184 124 275l56 134c6 13 18 21 30 28 1-10-4-19-8-27-23-56-49-111-74-167-43-94-86-189-131-282-39-83-79-165-122-245-24-43-48-86-77-126-18-23-36-47-59-66-13-10-28-18-45-24-30-7-61 7-85 27Zm-10 60c-38 35-66 78-94 120-17 29-35 56-51 85-62 106-118 215-177 323-19 38-42 76-61 115-25 46-48 93-72 140-8 19-19 37-27 57 19-6 37-20 44-39l19-40c39-80 77-160 118-238 50-98 101-195 154-291 30-50 59-101 94-149 25-30 49-62 83-81 11-6 22-12 34-12 15 0 30-2 44 5 33 14 57 43 78 71 41 57 72 120 103 182 40 84 78 169 116 254l110 257c4 9 6 19 12 27s16 13 26 17c-10-27-22-52-33-77l-50-115c-18-37-33-76-51-112-36-78-71-156-108-233-36-73-72-147-118-215-16-23-34-45-54-63-17-15-37-28-60-27-31-2-58 18-79 39Zm50 13c-14 6-27 15-38 26-16 15-31 30-43 47-23 30-43 62-63 94-42 69-80 142-118 214L503 965c-24 48-49 95-72 143-6 12-14 23-14 36 11-5 24-11 29-23l26-54 40-83 76-153c23-47 48-93 72-140 35-67 71-134 114-197 25-35 52-72 91-93 21-12 48-14 70-2 19 9 36 23 49 40 35 41 60 90 85 138 36 70 67 143 99 215 40 94 80 188 118 283 4 9 7 20 14 28 5 6 12 9 19 12-1-13-7-24-12-36-60-140-121-281-185-420l-43-89-52-94c-22-35-45-71-78-97-11-8-24-15-38-15-11 0-23-1-34 4Zm-21 62c-32 26-57 60-79 94-31 48-59 98-86 148-48 89-91 180-137 269l-58 119c-7 13-14 26-18 41 15-2 26-15 31-28l44-93c14-30 29-59 42-89 39-78 76-158 118-234 29-51 56-104 93-150 20-26 44-53 76-64 13-2 26-1 38 0 25 7 44 27 60 46 20 26 38 52 52 81 45 83 80 171 117 257l93 231c4 11 14 16 23 21 0-4 0-8-2-12l-52-125-85-198c-34-77-69-155-111-229-17-26-34-53-56-75a97 97 0 0 0-46-28c-21-5-42 5-58 18h1Zm3 47c-25 20-44 46-62 73-23 34-43 70-63 107-34 62-65 127-96 191l-97 201-4 14c8-3 16-6 21-13l10-20c10-23 22-45 31-67l83-179 32-65c13-29 30-55 44-83 14-25 29-50 46-74 21-30 46-62 83-73 16-6 33 1 47 8 20 11 34 30 48 48 14 19 25 40 36 61 43 82 77 168 111 254 19 46 35 93 54 138 5 13 8 27 16 38 3 5 10 5 16 7l-6-17-56-138c-9-22-17-45-28-67-20-51-41-101-64-150-25-54-51-109-85-158-15-21-33-41-56-52-11-3-22-2-33-1-10 4-19 10-28 17Zm11 40c-26 19-45 46-62 73-17 25-32 51-46 78-16 29-31 60-46 90-37 74-71 150-105 225-6 13-14 25-18 38 4 7 13 2 16-4 11-16 17-35 25-53l70-154c16-39 37-76 55-115 24-44 48-89 82-127 15-17 35-30 58-33 26 2 47 19 62 38 33 43 55 91 77 140 36 84 67 170 99 256 5 15 10 30 19 43h10c-12-39-28-76-43-114-16-43-34-85-51-128-17-40-33-80-52-118-17-35-34-70-57-101-14-18-31-37-53-44-14-4-28 4-40 10Zm-16 63c-32 33-53 76-75 116a16456 16456 0 0 0-135 291l-5 15c62-35 126-68 195-84 21-5 43-3 65-3 27 0 53 8 80 16 26 8 53 17 78 30l67 32c-3-19-12-35-17-53-36-97-72-195-117-288-12-22-23-43-38-62-13-18-30-35-53-36-18 2-33 12-45 25v1Zm-21 358c-16 2-30 9-46 13-21 7-41 17-61 26l-62 32c-15 10-32 15-43 29 5 1 10 1 14-2 30-16 58-35 89-50 47-22 97-44 150-47 11-1 21 2 32 3 15 1 30 7 46 9 53 13 104 36 153 63 11 6 22 14 35 16-3-4-4-9-9-11-14-10-30-17-46-25-32-17-66-31-100-42-18-4-35-12-53-13-11-2-22-5-34-5-21 0-43-1-65 4Zm32 23c-17-1-33 4-48 9a545 545 0 0 0-143 64l-56 34c-7 4-13 11-17 18 18-5 32-19 48-27 57-34 116-68 181-85l47-8c15 0 30 6 46 7 16 0 31 7 46 10 15 4 28 11 42 15 32 12 62 30 93 46 16 9 31 20 48 27-1-13-15-17-24-23-46-26-93-51-143-68-16-6-33-9-50-14-22-7-47-5-70-5Zm-52 37c-25 9-49 18-72 31-44 22-86 47-127 74l-27 19c-3 3-3 8-4 12 12-6 23-14 34-21 21-15 44-29 67-43 51-32 106-59 165-73 11-3 23-2 35-2 27-1 53 8 79 14 67 22 129 57 187 96l19 10c-2-15-19-20-30-28-18-12-37-22-56-32-20-13-41-21-62-32-17-6-33-14-50-19-22-8-46-11-69-16-11-1-22-4-33-2-19 3-38 8-56 12Zm23 22c-40 11-78 28-114 48-23 14-48 27-70 44-27 18-56 35-82 56-5 4-8 10-10 16 21-9 37-24 55-37 26-18 53-37 81-53 18-11 36-23 55-32 20-11 41-19 62-28 11-4 22-5 33-8 17-6 35-4 53-4 32 5 63 14 93 26 38 15 72 36 107 56l43 28c15 10 28 22 44 29-2-5-4-11-9-15-15-12-31-21-46-32-32-19-63-40-97-55-23-11-47-22-72-29-14-3-27-11-42-11-13-1-25-5-38-5-16-1-31 4-47 6h1Zm328 20c0 12 12 16 22 19-5-9-11-19-22-19Zm-328 8c-21 5-40 14-60 23-77 36-146 87-214 138-8 6-17 11-23 19-3 3 0 8 1 11 49-38 99-76 151-111 37-23 75-47 116-63 15-5 30-12 45-13 24-3 48-2 72 2 73 18 138 57 199 99 27 19 52 41 80 57-2-10-9-18-18-23-62-46-127-90-199-120-14-5-27-12-42-15-20-4-39-12-60-11-16-1-32 1-48 7Zm-266 27c11-5 25-10 24-23-10 3-22 10-24 23Zm278-2c-36 7-69 24-100 42-19 10-37 22-54 34-21 12-40 28-60 42l-88 67c-12 10-30 18-31 36 16-7 27-20 41-30l53-42c27-22 55-42 84-63l60-38c25-15 51-28 79-36 14-5 28-10 42-10a372 372 0 0 1 156 52 1072 1072 0 0 1 141 98c17 12 32 28 50 39-1-5 0-10-3-13-7-8-16-14-24-20-55-44-112-87-174-119-38-19-76-36-118-42-18 0-36-1-54 3Zm362-4c4 11 13 19 24 23-1-5-2-9-5-13-5-5-12-8-19-10Zm-30 14c2 10 11 17 20 20l-4-13-16-7Zm-668 31c13-5 26-14 30-28-13 5-29 12-30 28Zm331-13a524 524 0 0 0-183 106c-15 11-31 21-45 33-38 31-78 61-115 94-5 6-11 14-7 22 68-57 133-116 205-167 44-31 89-62 140-79 18-3 35-11 53-7l38 8c32 9 62 22 89 39 46 26 87 57 127 91 18 12 33 28 50 42 15 12 28 26 44 37-1-5-1-12-6-17-10-12-24-21-35-32l-80-64c-45-33-92-66-144-87-40-20-87-29-131-19Zm-291 11c-3 3-2 8-2 12 6-4 12-7 17-12 4-4 9-9 5-14-7 4-14 8-20 14Zm709-9c2 5 3 12 8 16l17 8c-3-13-13-21-25-24Zm-34 12c4 13 16 20 28 27-5-13-14-25-28-27Zm-377 12c-48 12-89 41-130 68-18 14-38 27-56 43l-49 38c-32 29-67 55-98 84-15 12-30 24-43 38-6 5-5 13-5 21l59-52c15-16 33-28 49-44l47-40c20-19 44-36 66-54l37-28c39-27 79-54 125-67 13-4 26-2 40-3 19 0 37 9 55 14 14 4 28 12 41 19 39 20 74 47 110 74 17 11 30 27 47 40 29 25 57 51 85 78 9 9 19 19 31 25-2-7-3-14-8-19l-24-23c-15-16-34-29-50-44-18-18-39-34-59-51-40-31-81-62-126-85-18-8-35-18-53-24-15-5-31-8-47-12-15-3-30-1-44 4Zm345-2c2 5 2 12 7 15 5 5 12 9 18 13-2-5-3-11-7-16-5-5-12-8-18-12Zm-744 31c13-6 31-13 32-30-14 5-30 13-32 30Zm37 11c14-7 28-16 33-33-14 7-31 16-33 33Zm826-27c2 16 17 25 31 31-3-6-5-13-10-18-6-5-13-9-21-13Zm-785 23-2 11c12-5 26-13 27-28-9 5-19 9-25 17Zm244 29c-39 24-75 53-110 81-17 14-33 30-51 44l-48 42c-35 31-69 63-105 92-9 7-13 18-12 29 6-3 12-7 17-12 19-18 39-34 57-52l72-67c19-17 36-35 56-50 25-24 52-45 78-66 15-12 30-22 46-32 29-20 61-37 97-43 22-3 44 4 65 11 19 6 36 16 53 25 32 19 62 40 91 65l55 46c19 18 36 38 55 55l52 52c15 14 27 30 43 41-3-11-5-24-14-33-47-45-94-91-143-134l-36-30c-20-16-41-30-62-45-19-13-39-25-59-35-26-14-54-22-83-25-42-3-79 20-114 41Zm505-42c3 15 15 25 28 29 1-16-16-23-28-29Zm-33 11c-1 15 15 22 26 29 0-15-14-24-26-29Zm-851 26c-3 3-9 11-2 14 14-8 29-18 33-34-12 2-22 11-31 20Zm816-14c3 14 15 22 27 27-2-14-14-24-27-27Zm-758 8c-13 7-26 17-28 32 15-7 31-17 37-34-3 0-6 0-9 2Zm392 3c-26 9-47 24-70 38-19 14-40 27-58 44-38 28-73 61-108 94-20 19-42 37-62 57-32 28-62 58-95 84-7 6-15 12-18 20-3 6-2 12-3 17 27-13 46-36 68-55l62-59 49-47c37-36 72-73 113-106 14-10 26-23 41-32 13-7 24-18 38-25 14-9 29-17 45-23 23-7 48-5 72 0 33 11 63 28 91 47l59 46 66 63c40 39 77 81 117 121 14 14 28 29 43 42 0-6 1-12-1-18-3-6-8-10-12-15-15-13-28-27-42-41-21-20-40-41-61-60-32-30-61-62-96-90-15-14-32-25-48-39-38-28-80-54-127-67-21-4-43-5-63 4Zm560 32c-1-19-20-27-33-36 0 18 17 30 33 36Zm-940 5c14-7 32-17 33-34-15 7-32 16-33 34Zm871-29c0 16 16 24 27 33 3-4 3-8 0-11-6-11-17-16-27-22Zm-832 36c10-5 20-11 27-20l1-11c-12 8-30 15-28 31Zm368-24-32 10c-44 20-82 52-119 83l-62 56c-19 16-35 34-53 50l-57 55-43 42c-24 21-48 42-75 59 0 6 2 14 9 12 14-2 25-11 36-19 58-53 111-111 167-166 12-12 22-25 35-36 15-14 29-30 46-44 18-14 34-31 53-44 26-21 56-38 87-48 17-6 35-1 52 5 25 8 49 20 70 36 12 8 25 16 35 26 23 19 46 39 66 60l34 35c17 18 34 35 50 54 16 16 31 33 45 50 24 24 45 51 72 71 4 4 10 3 14 4 0-5 1-10-1-14-6-7-15-12-23-19-30-29-58-60-87-90l-41-44c-24-25-49-48-74-72-23-19-45-40-70-57-27-18-55-40-88-48-15-3-30-9-46-7Zm430-2c1 5-1 12 3 16 7 7 16 13 24 19 3-18-16-26-27-35Zm-975 33c-4 4-5 10-5 15 17-7 36-18 40-38-13 5-26 13-35 23Zm941-21 1 13c5 7 14 12 21 16 0-5 1-11-2-14-6-7-13-11-20-15Zm-908 44c11 1 20-9 28-15 7-5 10-13 11-21-17 7-33 18-39 36Zm871-34c1 7 3 15 10 20 4 3 10 9 16 6-2-14-15-21-26-26Zm199 1c3 19 19 32 36 37-4-18-21-29-36-37Zm-1019 24c-7 5-10 13-9 22 11-8 22-15 31-25 4-4 4-10 4-15-9 5-18 10-26 18Zm986 1c8 10 19 18 30 24-1-5 0-12-4-16-8-9-19-15-29-22 1 4 0 10 3 14Zm-44-9c3 9 4 20 12 27l28 21c-3-9-4-19-12-25-8-9-19-15-28-23Zm-908 22c-4 4-4 9-4 14 15-7 30-17 35-33l-3-3c-10 6-20 13-28 22Zm30 29c10-6 19-13 27-20 7-7 11-16 15-25-20 6-40 23-42 45Zm-207-18c-9 6-12 16-14 26 9-4 17-9 25-16 11-7 23-18 21-32-11 6-22 13-32 22Zm1053-16c2 17 16 29 31 35-1-17-17-29-31-35Zm-36 9c-1 14 11 23 20 31 3 3 7 3 11 4-2-18-18-27-31-35Zm-982 22c-5 5-5 12-6 18 13-5 23-13 33-23 5-4 5-10 5-16-12 5-23 12-32 21Zm1186-19c2 7 3 15 9 21 8 8 19 15 29 22-2-8-3-17-10-23-8-7-18-14-28-20Zm-241 6c2 17 17 29 31 39 0-19-16-32-31-39Zm-903 21c-6 6-9 15-11 23 12-7 23-13 33-23 6-5 7-13 7-20-10 6-20 12-29 20Zm1143 25c-1-7-2-14-8-19-8-8-18-15-28-22 2 20 20 33 36 41Zm-1113 7c10-5 19-11 27-19 7-6 13-14 11-24-15 11-38 21-38 43Zm1041-36c-1 20 18 31 32 41 0-6 2-13-2-18-9-9-20-16-30-23Zm-1003 46c12-5 21-14 30-22 6-5 8-13 10-20-18 7-37 21-40 42Zm-209-22c-6 5-11 14-6 22 9-6 20-12 28-19 7-6 8-14 10-22-11 5-22 12-32 19Zm1172-11c3 7 5 15 11 20l27 21c-3-11-6-21-15-28-6-6-13-14-23-13Zm-1131 22c-9 7-12 17-13 27 10-6 21-12 30-19s15-18 14-29l-32 21h1Zm208 19c12-6 23-14 32-24 4-5 3-12 3-17-16 9-33 21-35 41Zm894-13c8 9 18 16 29 20-3-7-4-16-10-21-7-7-15-12-23-18-3 7 0 14 4 19Zm203-8c6 11 17 19 29 25l3-4c-2-17-20-23-32-33-2 4-3 8 0 11v1Zm-1270 17c-7 7-10 16-8 25 11-7 23-14 33-23 7-7 8-17 11-25-13 6-26 13-36 24v-1Zm1022-21c2 19 18 34 35 42-1-5-1-12-5-17-9-10-19-18-30-25Zm214 23c8 9 19 16 30 21-1-20-20-30-35-39 0 6 1 13 5 18Zm-1195 9c-7 5-9 15-9 24 17-11 40-22 40-45-11 6-21 13-31 21Zm947-21c1 5-1 12 3 16 8 10 18 19 29 25-3-18-17-31-32-41Zm-1123 22c-5 5-5 11-6 18 12-5 24-11 34-20 2-5 7-12 1-16-10 5-20 11-29 18Zm1327-17c-1 20 18 32 35 40l-1-14c-9-11-22-19-34-26Zm-1101 19c-11 7-22 18-20 32 13-8 26-17 36-29 4-5 3-11 4-17l-20 14Zm-160-6c-10 5-19 11-27 18-4 5-8 12-2 16 11-4 22-10 30-19 3-4 7-17-1-15Zm1387 1c4 15 17 27 33 28v-10c-11-7-20-18-33-18Zm-1202 28c-5 5-6 12-6 19 12-6 22-14 31-23 6-6 7-14 9-21-14 4-24 14-34 25Zm1043-12c9 10 21 18 33 25-2-7-4-15-9-21-7-8-16-14-25-19l1 15Zm-40-6c1 6-1 12 3 17 7 10 17 17 27 24 2-4 3-8 1-12-6-13-20-20-31-29Zm-1182 33 4 5c12-6 26-13 32-26 3-3 0-7-1-11-13 9-31 15-35 32Zm219-6c-5 5-5 12-4 19 10-6 19-14 28-23 5-5 7-14 9-21-13 6-24 14-33 25Zm-338-10v11c9-1 18-3 25-9 3-4 3-10 3-15-10 2-19 7-28 13Zm1467-12v14c8 6 17 11 27 15l-1-13c-7-8-17-12-26-16Zm-1304 28c-7 6-7 16-7 24 11-6 21-12 30-20 8-6 10-17 12-26-12 6-24 14-35 22Zm1099-23c0 20 16 34 32 42 0-6 2-13-2-18-9-9-20-17-30-24Zm285 6v10h16c-4-5-9-10-16-10ZM67 1393l16 1v-11c-8 0-13 4-16 10Zm66 4 1 10c12-2 26-6 30-19l-4-6c-10 3-19 8-27 15Zm165 12c-6 6-6 15-6 22 11-5 23-11 32-20 6-7 7-17 7-26-11 8-23 14-33 24Zm1025-26c0 7-1 15 5 21 9 9 18 18 29 26 1-22-19-36-34-47Zm203 0c-1 16 15 23 27 28 6-3 2-10 0-13-7-7-16-15-27-15Zm-1188 38c-7 6-8 16-10 25 12-4 21-12 31-20 9-7 12-20 14-31-12 8-24 16-35 26Zm946-27c2 7 2 16 8 21 8 9 17 17 27 24 1-21-17-36-35-45Zm207 15c7 8 16 15 27 17l-1-14c-7-7-16-12-24-17-2 4-4 9-2 14Zm-1322 11c7 7 16 1 23-3 6-3 8-11 9-18-13 2-28 7-32 21Zm1289 7c7 6 15 13 26 14-1-19-20-27-32-37-5 8 0 17 6 23Zm113-20v14c5 1 10 2 15 1l-1-9-14-6Zm-1195 27c-6 5-4 14-4 21 11-6 22-14 31-24 5-6 4-14 3-20-10 7-20 14-30 23Zm-166-8c-4 4-3 9-4 14 12 2 21-7 30-13v-15c-9 4-18 8-26 14Zm-71 1 17 1v-11c-7 2-13 5-17 10Zm1276-9v17c7 9 18 15 28 21l2-8c-4-15-19-21-30-30Zm-1007 41c-2 4-1 8 0 11 11-8 23-16 32-26 5-6 6-14 6-21-15 9-32 19-38 36Zm1126-36 1 13c3 3 9 4 13 4l5-7-19-10Zm-1286 19c-5 4-2 11 0 16 9-5 20-9 26-17 2-5 1-10 1-15-10 4-19 9-27 16Zm-72 4 18 1 1-13c-8 0-15 5-19 11v1Zm1205 4c7 8 16 17 28 18-1-17-16-28-30-34-6 4-1 11 2 16Zm-1095 6c-6 5-3 14-4 21 9-5 19-9 27-16 6-5 7-14 7-22-11 2-21 9-30 17Zm1209-8c5 6 11 7 18 7l4-7-19-10-3 10Zm-156-4c-2 19 16 31 30 41v-17c-8-10-18-18-30-24Zm-1127 17c6 2 15 7 20 0l-4-11-16 11Zm1089-9c-3 22 17 36 32 48 2-7 3-14-2-20-8-11-19-20-30-28Zm160 0 1 17c7 3 15 4 21-3l-22-14Zm-1140 23c0 4-4 13 4 14 9-4 17-10 24-17 3-5 1-11 2-17-11 4-23 10-30 20Zm-70 6h17l2-13c-8 0-21 3-19 13Zm110 6c-5 6-7 14-4 21 12-6 24-13 31-24 3-5 1-11 1-16-10 5-20 11-28 19Zm1065-2c7 3 14 1 21-2-6-6-12-10-19-14-3 5-4 11-2 16Zm-1026 14c-6 6-7 15-4 23 11-7 22-14 30-24 4-5 2-12 3-18-11 5-20 11-29 19Zm986-17c1 7 1 17 8 21 6 1 11-1 15-3-5-9-13-15-23-18Zm-1102 13c4 2 8 7 13 6s7-6 10-8l-3-8c-8 0-14 4-20 10Zm35 17 9 5c6 2 11-2 16-4l-1-15c-8 4-16 8-24 14Zm1039 8c6 0 15 1 18-6l-24-18c-6 9 1 17 6 24Zm-45-11c0 6-1 13 1 19 5 5 12 8 18 10l7-10-26-19Zm-957 20c6 5 17 9 23 2 1-6 3-13-2-16-8 4-14 9-21 14Zm37 16 10 10c5-3 11-5 14-10 2-4 1-9 2-13-11-1-19 7-26 14v-1Z"/><path stroke="#000" stroke-miterlimit="10" stroke-width="17" d="M1625 1403c-4-5-9-8-14-11-2 4-5 8-3 13m-1505 5c6 3 13 2 19 0l-3-7M847 22c13-6 26-10 39-12h47c38 7 70 30 98 56 45 41 81 91 114 141 47 72 90 147 132 222 41 74 82 149 122 225 88 165 176 331 253 502 21 48 41 98 57 149 3 19 10 38 8 58-2 9-5 19-13 23-7 5-16 2-23 4-7 4-11 12-17 15l-18 2-17 15-15 2c-11 0-14 13-23 15-6 2-13 1-19 1-5 6-10 13-18 16-7 2-13 1-20 1-4 6-8 13-15 16-7 2-14 1-21 0-4 6-7 14-15 15h-21c-4 6-8 13-15 17-7 2-15 0-23 0-3 5-4 12-10 15h-25l-11 18-27-1-9 18c-9 0-19 0-28-2-1 6-2 13-7 18-7 2-15 1-22-2-17-9-31-22-44-36-16-15-31-31-46-48-12-12-21-26-33-38-15-14-28-30-42-45-17-21-37-38-55-57l-28-26c-19-18-39-33-60-48-28-19-59-36-93-40-23-1-45 10-65 22-35 21-66 48-95 76-46 42-89 87-133 130-17 20-35 38-54 56-17 14-32 31-50 45-17 12-34 27-55 28-9-4-12-14-17-22-9 0-18 2-27-1-4-4-5-10-8-15-9-1-19 1-28-2-5-4-7-10-10-16h-25c-5-4-7-11-12-16-8-2-16-1-24-1l-13-17c-7 0-14 1-21-1-7-3-11-10-16-16l-18-1c-8-2-13-10-19-15l-17-3c-6-1-10-6-14-10-7-9-20-4-29-10l-14-12a186 186 0 0 1-37-19c-7-3-15-2-22-5-6-4-11-13-19-14-9-2-20-2-26-10-9-12-7-27-7-40 5-38 20-74 34-109 37-87 82-170 128-251 14-27 29-52 44-77 16-30 36-58 52-88l67-113c13-19 23-39 37-58 55-91 112-181 170-270 60-90 119-181 191-262 34-35 69-72 115-92Zm-70 74c-40 37-73 80-106 123-28 40-57 79-84 121a16123 16123 0 0 0-388 625c-9 13-15 27-23 40-26 46-51 94-76 142-24 44-44 90-63 137-4 17-13 34-13 52 0 9-1 18 1 27 1 8 10 11 17 13 6-11 4-25 8-37 3-13 6-27 11-40 17-48 38-96 62-142 36-72 75-142 114-212l32-59 35-59c10-18 20-36 31-52 10-15 17-30 26-45 26-40 49-82 75-122 42-70 85-139 129-208 20-28 37-58 56-85 42-63 87-124 138-178 30-28 60-57 98-72 24-8 49-16 74-8 46 9 83 41 115 75 26 29 51 61 72 94 51 73 93 152 137 229 43 81 87 162 129 245 51 97 101 195 149 293l49 102c34 75 69 151 91 231 5 15 4 32 10 46 7 0 16-1 17-9 1-17 2-35-4-51-16-53-38-103-60-152-81-176-172-346-263-516-58-109-116-217-179-323-20-33-39-67-61-98-27-41-55-81-88-117-32-35-70-69-117-79-14-1-28-1-41 1-43 10-80 37-110 68Zm45 11c-45 34-81 78-116 122-15 21-31 40-44 61-73 103-138 210-203 317L357 774l-74 124-32 55c-24 40-45 82-68 122-20 38-41 76-60 115-14 27-25 54-38 81-8 17-12 35-19 52-6 16-8 32-7 49 9 0 19 0 26-7 4-7 4-15 7-23 7-30 20-57 30-86 30-68 64-135 99-201 49-92 102-183 154-274 10-17 21-34 29-52l64-106 52-87 68-109c28-45 57-89 87-132 13-16 24-34 38-50 29-37 60-74 98-103 24-19 53-36 84-38l13-1c20 1 40 5 57 15 44 23 77 62 108 101 51 69 94 144 135 219a12590 12590 0 0 1 373 748c13 37 30 72 42 109 7 18 10 36 16 54 5 10 16 12 25 15l2-13c-21-79-57-154-90-229-57-119-117-236-177-354-42-80-83-160-127-240-44-83-89-165-139-245-25-39-50-78-80-114-16-19-31-38-50-52-27-24-60-44-97-42-31-1-59 14-83 32h-1Zm-22 68c-44 42-81 92-116 142-59 85-113 173-167 261l-86 145c-31 49-60 99-88 149-17 27-32 55-48 82-21 39-45 77-65 117l-42 79c-26 51-51 102-72 155-6 17-13 33-14 51 11-2 21-7 29-14 7-5 8-14 11-22 4-16 12-30 18-46 17-45 40-88 60-132l37-70 48-92c17-35 37-67 55-100 43-75 85-150 129-224 53-90 105-180 163-267 31-47 62-94 99-137 31-36 65-71 109-91 23-11 50-13 75-7 33 10 60 33 85 57 50 54 88 118 125 181a13636 13636 0 0 1 354 708c32 71 63 142 89 216 8 10 19 19 32 23-6-23-15-45-23-68-35-87-76-173-117-258-41-87-85-173-129-260-60-117-120-235-184-350-20-33-38-67-60-99-16-26-32-51-51-75-23-30-48-59-78-81-16-11-33-21-52-24-14-1-28-1-41 1-33 7-60 29-84 50h-1Zm94-4c-34 5-62 26-87 49-42 40-76 86-109 133-23 35-46 69-68 105-28 43-53 88-80 132L450 762c-24 38-45 78-67 117-14 25-30 48-43 73-50 89-98 178-142 269-16 35-33 69-45 105 12-3 22-10 32-18 11-9 14-23 19-36 34-78 73-155 112-230 7-16 15-30 23-45l91-167 92-163c24-39 45-79 69-118 33-55 66-111 103-164 33-48 67-97 111-137 23-20 48-39 77-45 12-2 24-2 36-1 17 0 32 7 46 15 24 15 43 35 62 56 20 24 39 49 55 76 51 80 94 164 137 249 12 25 26 49 38 75l64 132c53 111 106 221 155 334 11 27 23 52 33 79 9 19 15 38 23 57 8 11 19 18 31 22 0-5-1-11-4-17l-22-53c-53-123-111-244-170-365l-120-240c-45-89-91-178-142-264-27-42-54-84-87-122-16-17-32-34-52-46-20-14-46-22-71-19Zm-43 65c-25 14-44 36-64 57-19 19-34 41-50 62-13 20-28 39-40 60-17 22-30 46-45 70-62 101-120 204-179 307l-76 138c-25 46-52 91-76 137-23 45-47 89-68 134-4 8-9 15-12 23-8 22-21 42-27 64 12-5 24-13 34-21 6-5 8-11 11-17 15-36 32-71 49-105 10-19 17-39 27-57l34-66c14-26 26-53 42-79 13-26 30-52 42-79a8417 8417 0 0 1 209-371c23-39 49-77 75-114 28-39 58-76 96-105 16-12 35-21 54-25h36c34 8 62 31 85 56 20 23 38 47 54 73 50 78 91 161 133 244 21 43 41 88 63 131l50 108 31 66c44 98 89 195 129 294 5 16 20 24 34 32-2-16-11-30-17-45-9-24-20-46-30-70-76-168-157-335-238-501-47-93-93-186-149-275-27-42-57-85-96-118-19-14-41-27-66-25-20-2-38 7-55 17Zm-14 59c-51 43-89 100-126 156-37 57-70 117-104 175-25 44-50 87-73 132-42 74-83 149-124 225-13 24-25 50-39 74-10 20-23 38-31 59l-44 89c-6 12-14 23-14 37 13-7 27-16 36-28 10-17 16-36 25-53l52-104c29-57 56-115 87-172 16-29 30-60 47-89l37-68c13-26 29-52 43-78 32-58 64-115 99-170 27-43 55-86 89-123 27-30 61-56 102-62 13-1 26 3 38 7 34 14 60 42 82 71 16 21 30 44 45 66 50 87 93 177 135 268 11 20 19 41 29 61 43 91 83 184 124 275l56 134c6 13 18 21 30 28 1-10-4-19-8-27-23-56-49-111-74-167-43-94-86-189-131-282-39-83-79-165-122-245-24-43-48-86-77-126-18-23-36-47-59-66-13-10-28-18-45-24-30-7-61 7-85 27Zm-10 60c-38 35-66 78-94 120-17 29-35 56-51 85-62 106-118 215-177 323-19 38-42 76-61 115-25 46-48 93-72 140-8 19-19 37-27 57 19-6 37-20 44-39l19-40c39-80 77-160 118-238 50-98 101-195 154-291 30-50 59-101 94-149 25-30 49-62 83-81 11-6 22-12 34-12 15 0 30-2 44 5 33 14 57 43 78 71 41 57 72 120 103 182 40 84 78 169 116 254l110 257c4 9 6 19 12 27s16 13 26 17c-10-27-22-52-33-77l-50-115c-18-37-33-76-51-112-36-78-71-156-108-233-36-73-72-147-118-215-16-23-34-45-54-63-17-15-37-28-60-27-31-2-58 18-79 39Zm50 13c-14 6-27 15-38 26-16 15-31 30-43 47-23 30-43 62-63 94-42 69-80 142-118 214L503 965c-24 48-49 95-72 143-6 12-14 23-14 36 11-5 24-11 29-23l26-54 40-83 76-153c23-47 48-93 72-140 35-67 71-134 114-197 25-35 52-72 91-93 21-12 48-14 70-2 19 9 36 23 49 40 35 41 60 90 85 138 36 70 67 143 99 215 40 94 80 188 118 283 4 9 7 20 14 28 5 6 12 9 19 12-1-13-7-24-12-36-60-140-121-281-185-420l-43-89-52-94c-22-35-45-71-78-97-11-8-24-15-38-15-11 0-23-1-34 4Zm-21 62c-32 26-57 60-79 94-31 48-59 98-86 148-48 89-91 180-137 269l-58 119c-7 13-14 26-18 41 15-2 26-15 31-28l44-93c14-30 29-59 42-89 39-78 76-158 118-234 29-51 56-104 93-150 20-26 44-53 76-64 13-2 26-1 38 0 25 7 44 27 60 46 20 26 38 52 52 81 45 83 80 171 117 257l93 231c4 11 14 16 23 21 0-4 0-8-2-12l-52-125-85-198c-34-77-69-155-111-229-17-26-34-53-56-75a97 97 0 0 0-46-28c-21-5-42 5-58 18h1Zm3 47c-25 20-44 46-62 73-23 34-43 70-63 107-34 62-65 127-96 191l-97 201-4 14c8-3 16-6 21-13l10-20c10-23 22-45 31-67l83-179 32-65c13-29 30-55 44-83 14-25 29-50 46-74 21-30 46-62 83-73 16-6 33 1 47 8 20 11 34 30 48 48 14 19 25 40 36 61 43 82 77 168 111 254 19 46 35 93 54 138 5 13 8 27 16 38 3 5 10 5 16 7l-6-17-56-138c-9-22-17-45-28-67-20-51-41-101-64-150-25-54-51-109-85-158-15-21-33-41-56-52-11-3-22-2-33-1-10 4-19 10-28 17Zm11 40c-26 19-45 46-62 73-17 25-32 51-46 78-16 29-31 60-46 90-37 74-71 150-105 225-6 13-14 25-18 38 4 7 13 2 16-4 11-16 17-35 25-53l70-154c16-39 37-76 55-115 24-44 48-89 82-127 15-17 35-30 58-33 26 2 47 19 62 38 33 43 55 91 77 140 36 84 67 170 99 256 5 15 10 30 19 43h10c-12-39-28-76-43-114-16-43-34-85-51-128-17-40-33-80-52-118-17-35-34-70-57-101-14-18-31-37-53-44-14-4-28 4-40 10Zm-16 63c-32 33-53 76-75 116a16456 16456 0 0 0-135 291l-5 15c62-35 126-68 195-84 21-5 43-3 65-3 27 0 53 8 80 16 26 8 53 17 78 30l67 32c-3-19-12-35-17-53-36-97-72-195-117-288-12-22-23-43-38-62-13-18-30-35-53-36-18 2-33 12-45 25v1Zm-21 358c-16 2-30 9-46 13-21 7-41 17-61 26l-62 32c-15 10-32 15-43 29 5 1 10 1 14-2 30-16 58-35 89-50 47-22 97-44 150-47 11-1 21 2 32 3 15 1 30 7 46 9 53 13 104 36 153 63 11 6 22 14 35 16-3-4-4-9-9-11-14-10-30-17-46-25-32-17-66-31-100-42-18-4-35-12-53-13-11-2-22-5-34-5-21 0-43-1-65 4Zm32 23c-17-1-33 4-48 9a545 545 0 0 0-143 64l-56 34c-7 4-13 11-17 18 18-5 32-19 48-27 57-34 116-68 181-85l47-8c15 0 30 6 46 7 16 0 31 7 46 10 15 4 28 11 42 15 32 12 62 30 93 46 16 9 31 20 48 27-1-13-15-17-24-23-46-26-93-51-143-68-16-6-33-9-50-14-22-7-47-5-70-5Zm-52 37c-25 9-49 18-72 31-44 22-86 47-127 74l-27 19c-3 3-3 8-4 12 12-6 23-14 34-21 21-15 44-29 67-43 51-32 106-59 165-73 11-3 23-2 35-2 27-1 53 8 79 14 67 22 129 57 187 96l19 10c-2-15-19-20-30-28-18-12-37-22-56-32-20-13-41-21-62-32-17-6-33-14-50-19-22-8-46-11-69-16-11-1-22-4-33-2-19 3-38 8-56 12Zm23 22c-40 11-78 28-114 48-23 14-48 27-70 44-27 18-56 35-82 56-5 4-8 10-10 16 21-9 37-24 55-37 26-18 53-37 81-53 18-11 36-23 55-32 20-11 41-19 62-28 11-4 22-5 33-8 17-6 35-4 53-4 32 5 63 14 93 26 38 15 72 36 107 56l43 28c15 10 28 22 44 29-2-5-4-11-9-15-15-12-31-21-46-32-32-19-63-40-97-55-23-11-47-22-72-29-14-3-27-11-42-11-13-1-25-5-38-5-16-1-31 4-47 6h1Zm328 20c0 12 12 16 22 19-5-9-11-19-22-19Zm-328 8c-21 5-40 14-60 23-77 36-146 87-214 138-8 6-17 11-23 19-3 3 0 8 1 11 49-38 99-76 151-111 37-23 75-47 116-63 15-5 30-12 45-13 24-3 48-2 72 2 73 18 138 57 199 99 27 19 52 41 80 57-2-10-9-18-18-23-62-46-127-90-199-120-14-5-27-12-42-15-20-4-39-12-60-11-16-1-32 1-48 7Zm-266 27c11-5 25-10 24-23-10 3-22 10-24 23Zm278-2c-36 7-69 24-100 42-19 10-37 22-54 34-21 12-40 28-60 42l-88 67c-12 10-30 18-31 36 16-7 27-20 41-30l53-42c27-22 55-42 84-63l60-38c25-15 51-28 79-36 14-5 28-10 42-10a372 372 0 0 1 156 52 1072 1072 0 0 1 141 98c17 12 32 28 50 39-1-5 0-10-3-13-7-8-16-14-24-20-55-44-112-87-174-119-38-19-76-36-118-42-18 0-36-1-54 3Zm362-4c4 11 13 19 24 23-1-5-2-9-5-13-5-5-12-8-19-10Zm-30 14c2 10 11 17 20 20l-4-13-16-7Zm-668 31c13-5 26-14 30-28-13 5-29 12-30 28Zm331-13a524 524 0 0 0-183 106c-15 11-31 21-45 33-38 31-78 61-115 94-5 6-11 14-7 22 68-57 133-116 205-167 44-31 89-62 140-79 18-3 35-11 53-7l38 8c32 9 62 22 89 39 46 26 87 57 127 91 18 12 33 28 50 42 15 12 28 26 44 37-1-5-1-12-6-17-10-12-24-21-35-32l-80-64c-45-33-92-66-144-87-40-20-87-29-131-19Zm-291 11c-3 3-2 8-2 12 6-4 12-7 17-12 4-4 9-9 5-14-7 4-14 8-20 14Zm709-9c2 5 3 12 8 16l17 8c-3-13-13-21-25-24Zm-34 12c4 13 16 20 28 27-5-13-14-25-28-27Zm-377 12c-48 12-89 41-130 68-18 14-38 27-56 43l-49 38c-32 29-67 55-98 84-15 12-30 24-43 38-6 5-5 13-5 21l59-52c15-16 33-28 49-44l47-40c20-19 44-36 66-54l37-28c39-27 79-54 125-67 13-4 26-2 40-3 19 0 37 9 55 14 14 4 28 12 41 19 39 20 74 47 110 74 17 11 30 27 47 40 29 25 57 51 85 78 9 9 19 19 31 25-2-7-3-14-8-19l-24-23c-15-16-34-29-50-44-18-18-39-34-59-51-40-31-81-62-126-85-18-8-35-18-53-24-15-5-31-8-47-12-15-3-30-1-44 4Zm345-2c2 5 2 12 7 15 5 5 12 9 18 13-2-5-3-11-7-16-5-5-12-8-18-12Zm-744 31c13-6 31-13 32-30-14 5-30 13-32 30Zm37 11c14-7 28-16 33-33-14 7-31 16-33 33Zm826-27c2 16 17 25 31 31-3-6-5-13-10-18-6-5-13-9-21-13Zm-785 23-2 11c12-5 26-13 27-28-9 5-19 9-25 17Zm244 29c-39 24-75 53-110 81-17 14-33 30-51 44l-48 42c-35 31-69 63-105 92-9 7-13 18-12 29 6-3 12-7 17-12 19-18 39-34 57-52l72-67c19-17 36-35 56-50 25-24 52-45 78-66 15-12 30-22 46-32 29-20 61-37 97-43 22-3 44 4 65 11 19 6 36 16 53 25 32 19 62 40 91 65l55 46c19 18 36 38 55 55l52 52c15 14 27 30 43 41-3-11-5-24-14-33-47-45-94-91-143-134l-36-30c-20-16-41-30-62-45-19-13-39-25-59-35-26-14-54-22-83-25-42-3-79 20-114 41Zm505-42c3 15 15 25 28 29 1-16-16-23-28-29Zm-33 11c-1 15 15 22 26 29 0-15-14-24-26-29Zm-851 26c-3 3-9 11-2 14 14-8 29-18 33-34-12 2-22 11-31 20Zm816-14c3 14 15 22 27 27-2-14-14-24-27-27Zm-758 8c-13 7-26 17-28 32 15-7 31-17 37-34-3 0-6 0-9 2Zm392 3c-26 9-47 24-70 38-19 14-40 27-58 44-38 28-73 61-108 94-20 19-42 37-62 57-32 28-62 58-95 84-7 6-15 12-18 20-3 6-2 12-3 17 27-13 46-36 68-55l62-59 49-47c37-36 72-73 113-106 14-10 26-23 41-32 13-7 24-18 38-25 14-9 29-17 45-23 23-7 48-5 72 0 33 11 63 28 91 47l59 46 66 63c40 39 77 81 117 121 14 14 28 29 43 42 0-6 1-12-1-18-3-6-8-10-12-15-15-13-28-27-42-41-21-20-40-41-61-60-32-30-61-62-96-90-15-14-32-25-48-39-38-28-80-54-127-67-21-4-43-5-63 4Zm560 32c-1-19-20-27-33-36 0 18 17 30 33 36Zm-940 5c14-7 32-17 33-34-15 7-32 16-33 34Zm871-29c0 16 16 24 27 33 3-4 3-8 0-11-6-11-17-16-27-22Zm-832 36c10-5 20-11 27-20l1-11c-12 8-30 15-28 31Zm368-24-32 10c-44 20-82 52-119 83l-62 56c-19 16-35 34-53 50l-57 55-43 42c-24 21-48 42-75 59 0 6 2 14 9 12 14-2 25-11 36-19 58-53 111-111 167-166 12-12 22-25 35-36 15-14 29-30 46-44 18-14 34-31 53-44 26-21 56-38 87-48 17-6 35-1 52 5 25 8 49 20 70 36 12 8 25 16 35 26 23 19 46 39 66 60l34 35c17 18 34 35 50 54 16 16 31 33 45 50 24 24 45 51 72 71 4 4 10 3 14 4 0-5 1-10-1-14-6-7-15-12-23-19-30-29-58-60-87-90l-41-44c-24-25-49-48-74-72-23-19-45-40-70-57-27-18-55-40-88-48-15-3-30-9-46-7Zm430-2c1 5-1 12 3 16 7 7 16 13 24 19 3-18-16-26-27-35Zm-975 33c-4 4-5 10-5 15 17-7 36-18 40-38-13 5-26 13-35 23Zm941-21 1 13c5 7 14 12 21 16 0-5 1-11-2-14-6-7-13-11-20-15Zm-908 44c11 1 20-9 28-15 7-5 10-13 11-21-17 7-33 18-39 36Zm871-34c1 7 3 15 10 20 4 3 10 9 16 6-2-14-15-21-26-26Zm199 1c3 19 19 32 36 37-4-18-21-29-36-37Zm-1019 24c-7 5-10 13-9 22 11-8 22-15 31-25 4-4 4-10 4-15-9 5-18 10-26 18Zm986 1c8 10 19 18 30 24-1-5 0-12-4-16-8-9-19-15-29-22 1 4 0 10 3 14Zm-44-9c3 9 4 20 12 27l28 21c-3-9-4-19-12-25-8-9-19-15-28-23Zm-908 22c-4 4-4 9-4 14 15-7 30-17 35-33l-3-3c-10 6-20 13-28 22Zm30 29c10-6 19-13 27-20 7-7 11-16 15-25-20 6-40 23-42 45Zm-207-18c-9 6-12 16-14 26 9-4 17-9 25-16 11-7 23-18 21-32-11 6-22 13-32 22Zm1053-16c2 17 16 29 31 35-1-17-17-29-31-35Zm-36 9c-1 14 11 23 20 31 3 3 7 3 11 4-2-18-18-27-31-35Zm-982 22c-5 5-5 12-6 18 13-5 23-13 33-23 5-4 5-10 5-16-12 5-23 12-32 21Zm1186-19c2 7 3 15 9 21 8 8 19 15 29 22-2-8-3-17-10-23-8-7-18-14-28-20Zm-241 6c2 17 17 29 31 39 0-19-16-32-31-39Zm-903 21c-6 6-9 15-11 23 12-7 23-13 33-23 6-5 7-13 7-20-10 6-20 12-29 20Zm1143 25c-1-7-2-14-8-19-8-8-18-15-28-22 2 20 20 33 36 41Zm-1113 7c10-5 19-11 27-19 7-6 13-14 11-24-15 11-38 21-38 43Zm1041-36c-1 20 18 31 32 41 0-6 2-13-2-18-9-9-20-16-30-23Zm-1003 46c12-5 21-14 30-22 6-5 8-13 10-20-18 7-37 21-40 42Zm-209-22c-6 5-11 14-6 22 9-6 20-12 28-19 7-6 8-14 10-22-11 5-22 12-32 19Zm1172-11c3 7 5 15 11 20l27 21c-3-11-6-21-15-28-6-6-13-14-23-13Zm-1131 22c-9 7-12 17-13 27 10-6 21-12 30-19s15-18 14-29l-32 21h1Zm208 19c12-6 23-14 32-24 4-5 3-12 3-17-16 9-33 21-35 41Zm894-13c8 9 18 16 29 20-3-7-4-16-10-21-7-7-15-12-23-18-3 7 0 14 4 19Zm203-8c6 11 17 19 29 25l3-4c-2-17-20-23-32-33-2 4-3 8 0 11v1Zm-1270 17c-7 7-10 16-8 25 11-7 23-14 33-23 7-7 8-17 11-25-13 6-26 13-36 24v-1Zm1022-21c2 19 18 34 35 42-1-5-1-12-5-17-9-10-19-18-30-25Zm214 23c8 9 19 16 30 21-1-20-20-30-35-39 0 6 1 13 5 18Zm-1195 9c-7 5-9 15-9 24 17-11 40-22 40-45-11 6-21 13-31 21Zm947-21c1 5-1 12 3 16 8 10 18 19 29 25-3-18-17-31-32-41Zm-1123 22c-5 5-5 11-6 18 12-5 24-11 34-20 2-5 7-12 1-16-10 5-20 11-29 18Zm1327-17c-1 20 18 32 35 40l-1-14c-9-11-22-19-34-26Zm-1101 19c-11 7-22 18-20 32 13-8 26-17 36-29 4-5 3-11 4-17l-20 14Zm-160-6c-10 5-19 11-27 18-4 5-8 12-2 16 11-4 22-10 30-19 3-4 7-17-1-15Zm1387 1c4 15 17 27 33 28v-10c-11-7-20-18-33-18Zm-1202 28c-5 5-6 12-6 19 12-6 22-14 31-23 6-6 7-14 9-21-14 4-24 14-34 25Zm1043-12c9 10 21 18 33 25-2-7-4-15-9-21-7-8-16-14-25-19l1 15Zm-40-6c1 6-1 12 3 17 7 10 17 17 27 24 2-4 3-8 1-12-6-13-20-20-31-29Zm-1182 33 4 5c12-6 26-13 32-26 3-3 0-7-1-11-13 9-31 15-35 32Zm219-6c-5 5-5 12-4 19 10-6 19-14 28-23 5-5 7-14 9-21-13 6-24 14-33 25Zm-338-10v11c9-1 18-3 25-9 3-4 3-10 3-15-10 2-19 7-28 13Zm1467-12v14c8 6 17 11 27 15l-1-13c-7-8-17-12-26-16Zm-1304 28c-7 6-7 16-7 24 11-6 21-12 30-20 8-6 10-17 12-26-12 6-24 14-35 22Zm1099-23c0 20 16 34 32 42 0-6 2-13-2-18-9-9-20-17-30-24Zm285 6v10h16c-4-5-9-10-16-10ZM67 1393l16 1v-11c-8 0-13 4-16 10Zm66 4 1 10c12-2 26-6 30-19l-4-6c-10 3-19 8-27 15Zm165 12c-6 6-6 15-6 22 11-5 23-11 32-20 6-7 7-17 7-26-11 8-23 14-33 24Zm1025-26c0 7-1 15 5 21 9 9 18 18 29 26 1-22-19-36-34-47Zm203 0c-1 16 15 23 27 28 6-3 2-10 0-13-7-7-16-15-27-15Zm-1188 38c-7 6-8 16-10 25 12-4 21-12 31-20 9-7 12-20 14-31-12 8-24 16-35 26Zm946-27c2 7 2 16 8 21 8 9 17 17 27 24 1-21-17-36-35-45Zm207 15c7 8 16 15 27 17l-1-14c-7-7-16-12-24-17-2 4-4 9-2 14Zm-1322 11c7 7 16 1 23-3 6-3 8-11 9-18-13 2-28 7-32 21Zm1289 7c7 6 15 13 26 14-1-19-20-27-32-37-5 8 0 17 6 23Zm113-20v14c5 1 10 2 15 1l-1-9-14-6Zm-1195 27c-6 5-4 14-4 21 11-6 22-14 31-24 5-6 4-14 3-20-10 7-20 14-30 23Zm-166-8c-4 4-3 9-4 14 12 2 21-7 30-13v-15c-9 4-18 8-26 14Zm-71 1 17 1v-11c-7 2-13 5-17 10Zm1276-9v17c7 9 18 15 28 21l2-8c-4-15-19-21-30-30Zm-1007 41c-2 4-1 8 0 11 11-8 23-16 32-26 5-6 6-14 6-21-15 9-32 19-38 36Zm1126-36 1 13c3 3 9 4 13 4l5-7-19-10Zm-1286 19c-5 4-2 11 0 16 9-5 20-9 26-17 2-5 1-10 1-15-10 4-19 9-27 16Zm-72 4 18 1 1-13c-8 0-15 5-19 11v1Zm1205 4c7 8 16 17 28 18-1-17-16-28-30-34-6 4-1 11 2 16Zm-1095 6c-6 5-3 14-4 21 9-5 19-9 27-16 6-5 7-14 7-22-11 2-21 9-30 17Zm1209-8c5 6 11 7 18 7l4-7-19-10-3 10Zm-156-4c-2 19 16 31 30 41v-17c-8-10-18-18-30-24Zm-1127 17c6 2 15 7 20 0l-4-11-16 11Zm1089-9c-3 22 17 36 32 48 2-7 3-14-2-20-8-11-19-20-30-28Zm160 0 1 17c7 3 15 4 21-3l-22-14Zm-1140 23c0 4-4 13 4 14 9-4 17-10 24-17 3-5 1-11 2-17-11 4-23 10-30 20Zm-70 6h17l2-13c-8 0-21 3-19 13Zm110 6c-5 6-7 14-4 21 12-6 24-13 31-24 3-5 1-11 1-16-10 5-20 11-28 19Zm1065-2c7 3 14 1 21-2-6-6-12-10-19-14-3 5-4 11-2 16Zm-1026 14c-6 6-7 15-4 23 11-7 22-14 30-24 4-5 2-12 3-18-11 5-20 11-29 19Zm986-17c1 7 1 17 8 21 6 1 11-1 15-3-5-9-13-15-23-18Zm-1102 13c4 2 8 7 13 6s7-6 10-8l-3-8c-8 0-14 4-20 10Zm35 17 9 5c6 2 11-2 16-4l-1-15c-8 4-16 8-24 14Zm1039 8c6 0 15 1 18-6l-24-18c-6 9 1 17 6 24Zm-45-11c0 6-1 13 1 19 5 5 12 8 18 10l7-10-26-19Zm-957 20c6 5 17 9 23 2 1-6 3-13-2-16-8 4-14 9-21 14Zm37 16 10 10c5-3 11-5 14-10 2-4 1-9 2-13-11-1-19 7-26 14v-1Z"/></g></svg>