<svg xmlns="http://www.w3.org/2000/svg" width="32" height="32" fill="none" viewBox="0 0 32 32">
  <path fill="#060000" d="M0 0h32v32H0z"/>
  <path fill="url(#a)" d="M15.776 5.251c.181-.083.362-.138.543-.166h.653c.529.097.974.415 1.363.775.626.567 1.127 1.259 1.586 1.95.654.996 1.252 2.034 1.836 3.071.57 1.024 1.14 2.061 1.697 3.113 1.224 2.282 2.448 4.578 3.519 6.944.292.664.57 1.355.793 2.06.041.264.139.526.11.803-.027.125-.069.263-.18.318-.097.07-.223.028-.32.056-.097.055-.153.166-.236.207l-.25.028-.237.207-.209.028c-.153 0-.194.18-.32.207-.083.028-.18.014-.264.014-.07.083-.139.18-.25.222-.098.027-.181.013-.278.013-.056.083-.112.18-.21.222a.694.694 0 0 1-.291 0c-.056.083-.098.193-.209.207h-.292c-.055.083-.111.18-.208.235-.098.028-.21 0-.32 0-.042.07-.056.166-.14.208h-.347l-.153.249-.376-.014-.125.249c-.125 0-.264 0-.39-.028-.013.083-.027.18-.097.25a.47.47 0 0 1-.306-.028 2.354 2.354 0 0 1-.612-.498 9.7 9.7 0 0 1-.64-.664c-.166-.166-.292-.36-.459-.526-.208-.194-.389-.415-.584-.622-.236-.29-.514-.526-.765-.789l-.39-.36a7.615 7.615 0 0 0-.834-.663c-.389-.263-.82-.498-1.293-.554-.32-.014-.626.138-.904.304-.487.291-.918.665-1.322 1.052-.64.58-1.237 1.203-1.85 1.798a9.914 9.914 0 0 1-.75.775c-.237.193-.445.428-.696.622-.236.166-.473.374-.765.387-.125-.055-.167-.193-.236-.304-.125 0-.25.028-.376-.014-.055-.055-.07-.138-.111-.207-.125-.014-.264.014-.39-.028-.07-.055-.097-.138-.139-.221h-.347c-.07-.055-.098-.152-.167-.221-.111-.028-.223-.014-.334-.014l-.18-.235c-.098 0-.196.013-.293-.014-.097-.042-.153-.139-.222-.222l-.25-.013c-.112-.028-.182-.139-.265-.208l-.237-.041c-.083-.014-.139-.083-.194-.139-.098-.124-.278-.055-.404-.138l-.194-.166a2.59 2.59 0 0 1-.515-.263c-.097-.041-.209-.027-.306-.069-.083-.055-.153-.18-.264-.194-.125-.027-.278-.027-.362-.138-.125-.166-.097-.373-.097-.553.07-.526.278-1.024.473-1.508.514-1.204 1.14-2.352 1.78-3.472.195-.374.403-.72.612-1.065.223-.415.5-.803.723-1.218l.932-1.563c.18-.263.32-.54.515-.802a130.098 130.098 0 0 1 2.364-3.735c.835-1.245 1.655-2.504 2.657-3.624.473-.484.96-.996 1.6-1.273Zm-.973 1.024c-.557.512-1.016 1.107-1.475 1.701-.39.554-.792 1.093-1.168 1.674a222.843 222.843 0 0 0-5.397 8.646c-.125.18-.208.373-.32.553-.361.636-.709 1.3-1.057 1.964a18.048 18.048 0 0 0-.876 1.895c-.055.236-.18.47-.18.72 0 .124-.014.249.013.373.014.11.14.152.237.18.083-.152.055-.346.111-.512.042-.18.084-.373.153-.553a15.32 15.32 0 0 1 .862-1.964c.501-.996 1.044-1.965 1.586-2.933l.445-.816.487-.816c.139-.25.278-.498.431-.72.14-.207.236-.415.362-.622.361-.553.681-1.134 1.043-1.688.584-.968 1.182-1.922 1.794-2.877.278-.387.515-.802.779-1.176.584-.871 1.21-1.715 1.92-2.462.417-.387.834-.788 1.362-.996.334-.11.682-.221 1.03-.11.64.124 1.154.567 1.6 1.037.36.401.708.844 1 1.3.71 1.01 1.294 2.103 1.906 3.168.598 1.12 1.21 2.24 1.794 3.389.71 1.342 1.405 2.697 2.073 4.053l.681 1.41c.473 1.038.96 2.09 1.266 3.196.07.208.055.443.139.637.097 0 .223-.014.236-.125.014-.235.028-.484-.055-.705-.223-.733-.529-1.425-.835-2.103-1.126-2.434-2.392-4.786-3.658-7.138-.806-1.507-1.613-3.001-2.49-4.468-.278-.456-.542-.926-.848-1.355-.375-.567-.765-1.12-1.224-1.619-.445-.484-.973-.954-1.627-1.092a2.601 2.601 0 0 0-.57.013c-.598.139-1.113.512-1.53.941Zm.626.152c-.626.47-1.127 1.08-1.614 1.688-.208.29-.431.553-.612.844-1.015 1.424-1.92 2.904-2.823 4.385l-1.419 2.31-1.03 1.715-.444.76c-.334.554-.626 1.135-.946 1.688-.278.526-.57 1.052-.835 1.591-.194.374-.347.747-.528 1.12-.111.236-.167.485-.264.72a1.608 1.608 0 0 0-.098.678c.125 0 .264 0 .362-.097.056-.097.056-.208.097-.318.098-.415.278-.789.417-1.19.418-.94.89-1.867 1.377-2.78.682-1.273 1.42-2.532 2.142-3.79.14-.236.292-.47.404-.72l.89-1.466.723-1.204.946-1.507c.39-.623.793-1.231 1.21-1.826.18-.222.334-.47.528-.692.404-.512.835-1.024 1.364-1.425.333-.263.737-.498 1.168-.525l.18-.014c.279.014.557.069.794.207.611.318 1.07.858 1.502 1.397.709.955 1.307 1.992 1.877 3.03a173.776 173.776 0 0 1 5.188 10.347c.181.511.418.996.584 1.507.098.25.14.498.223.748.07.138.223.165.348.207l.027-.18c-.292-1.093-.792-2.13-1.251-3.168-.793-1.646-1.628-3.264-2.462-4.896-.584-1.107-1.155-2.214-1.767-3.32-.611-1.148-1.237-2.283-1.933-3.39-.348-.539-.695-1.078-1.113-1.576-.222-.263-.43-.526-.695-.72-.376-.332-.835-.608-1.35-.58-.43-.014-.82.193-1.153.442h-.014Zm-.306.94c-.612.582-1.127 1.273-1.614 1.965-.82 1.176-1.572 2.393-2.323 3.61L9.99 14.948a44.69 44.69 0 0 0-1.224 2.061c-.236.374-.445.761-.667 1.134-.292.54-.626 1.066-.904 1.619l-.585 1.093c-.361.705-.709 1.41-1.001 2.144-.083.235-.18.456-.195.705a.845.845 0 0 0 .404-.193c.097-.07.11-.194.153-.305.055-.221.167-.415.25-.636.236-.622.556-1.217.835-1.826l.514-.968.668-1.273c.236-.484.514-.927.765-1.383.598-1.038 1.182-2.075 1.794-3.099.737-1.245 1.46-2.49 2.267-3.693.431-.65.862-1.3 1.377-1.895.431-.498.904-.982 1.516-1.259A1.59 1.59 0 0 1 17 7.077c.46.139.835.457 1.183.789.695.747 1.224 1.632 1.738 2.504a188.232 188.232 0 0 1 4.924 9.793c.445.982.876 1.964 1.238 2.988a.945.945 0 0 0 .445.318c-.084-.318-.209-.622-.32-.94-.487-1.204-1.057-2.394-1.627-3.57-.57-1.203-1.183-2.392-1.795-3.596-.834-1.618-1.669-3.25-2.559-4.841-.278-.457-.529-.927-.834-1.37a10.44 10.44 0 0 0-.71-1.037c-.32-.415-.667-.816-1.085-1.12-.222-.153-.459-.291-.723-.333a2.6 2.6 0 0 0-.57.014c-.46.097-.835.401-1.168.692h-.014Zm1.307-.055c-.473.07-.862.36-1.21.678-.584.554-1.057 1.19-1.516 1.84-.32.484-.64.954-.946 1.453-.39.594-.737 1.217-1.113 1.825l-1.39 2.38c-.334.525-.626 1.079-.932 1.618-.195.346-.418.664-.598 1.01a68.248 68.248 0 0 0-1.975 3.72c-.223.485-.46.955-.626 1.453.167-.041.306-.138.445-.249.153-.124.194-.318.264-.498.473-1.079 1.015-2.144 1.558-3.181.097-.221.208-.415.32-.623l1.265-2.31 1.28-2.255c.334-.539.626-1.092.96-1.632.459-.76.918-1.535 1.432-2.268.46-.664.932-1.342 1.544-1.895.32-.277.668-.54 1.071-.623.167-.028.334-.028.5-.014.237 0 .446.097.64.208.334.207.599.484.863.774.278.332.542.678.765 1.052.71 1.106 1.307 2.268 1.905 3.444.167.346.362.678.529 1.038l.89 1.825c.737 1.536 1.474 3.058 2.156 4.62.153.374.32.72.459 1.093.125.263.209.526.32.789a.857.857 0 0 0 .431.304.525.525 0 0 0-.056-.235l-.306-.733c-.737-1.702-1.544-3.375-2.364-5.05l-1.67-3.319c-.625-1.231-1.265-2.462-1.974-3.652-.376-.58-.751-1.162-1.21-1.687-.223-.236-.445-.47-.723-.637a1.466 1.466 0 0 0-.988-.263Zm-.598.9c-.348.193-.612.498-.89.788-.264.263-.473.567-.696.858-.18.276-.39.54-.556.83-.236.304-.417.636-.626.968-.862 1.397-1.669 2.822-2.49 4.247L9.517 17.81c-.347.637-.723 1.26-1.057 1.896-.32.622-.653 1.23-.945 1.853-.056.11-.126.208-.167.318-.112.305-.292.581-.376.886.167-.07.334-.18.473-.29.083-.07.111-.153.153-.236.209-.498.445-.982.682-1.452.139-.263.236-.54.375-.789l.473-.913c.195-.36.362-.733.584-1.093.18-.36.417-.719.584-1.092a116.165 116.165 0 0 1 2.907-5.132c.32-.54.682-1.066 1.043-1.577.39-.54.807-1.052 1.336-1.453.222-.166.486-.29.75-.346h.501c.473.111.863.43 1.183.775.278.318.528.65.75 1.01.696 1.079 1.266 2.227 1.85 3.375.293.595.57 1.217.877 1.812l.695 1.494.431.913c.612 1.356 1.238 2.697 1.795 4.067.07.221.278.332.473.442-.028-.22-.154-.415-.237-.622-.125-.332-.278-.636-.417-.968-1.057-2.324-2.184-4.634-3.31-6.93-.654-1.287-1.294-2.573-2.073-3.805-.375-.58-.793-1.175-1.335-1.632-.264-.193-.57-.373-.918-.346-.278-.027-.529.097-.765.236Zm-.195.816c-.71.595-1.238 1.383-1.752 2.158-.515.788-.974 1.618-1.447 2.42-.348.609-.695 1.204-1.015 1.826a164.464 164.464 0 0 0-1.725 3.113c-.18.332-.348.691-.542 1.023-.14.277-.32.526-.431.816l-.612 1.232c-.084.166-.195.318-.195.511.18-.096.375-.221.5-.387.14-.235.223-.498.348-.733l.724-1.439c.403-.788.778-1.59 1.21-2.379.222-.401.417-.83.653-1.231l.515-.94c.18-.36.403-.72.598-1.08.445-.802.89-1.59 1.377-2.351.376-.595.765-1.19 1.238-1.702.375-.415.848-.774 1.419-.857.18-.014.361.041.528.097.473.193.835.58 1.14.982.223.29.418.608.627.913.695 1.203 1.293 2.448 1.877 3.707.153.277.264.567.404.844.598 1.258 1.154 2.545 1.724 3.804l.78 1.853c.083.18.25.29.416.388.014-.139-.055-.263-.11-.374-.32-.775-.683-1.535-1.03-2.31-.598-1.3-1.196-2.614-1.822-3.9a70.122 70.122 0 0 0-1.697-3.39c-.334-.595-.668-1.19-1.071-1.743-.25-.318-.5-.65-.82-.913a2.244 2.244 0 0 0-.627-.332c-.417-.097-.848.097-1.182.374Zm-.139.83c-.528.484-.918 1.079-1.307 1.66-.237.4-.487.774-.71 1.175-.862 1.467-1.64 2.975-2.461 4.468-.265.526-.585 1.052-.849 1.591-.348.637-.668 1.287-1.001 1.937-.112.263-.265.512-.376.788.264-.083.515-.276.612-.54l.264-.553c.543-1.106 1.071-2.213 1.642-3.292a139.102 139.102 0 0 1 2.142-4.025c.417-.692.82-1.397 1.307-2.061.348-.415.682-.858 1.154-1.12.153-.084.306-.167.473-.167.209 0 .417-.027.612.07.46.193.793.594 1.085.982.57.788 1.002 1.66 1.433 2.517a159.28 159.28 0 0 1 1.613 3.514l1.53 3.555c.056.124.083.263.167.373.084.11.223.18.362.235-.14-.373-.306-.719-.46-1.065l-.695-1.59c-.25-.512-.459-1.052-.71-1.55-.5-1.079-.987-2.158-1.501-3.223-.501-1.01-1.002-2.033-1.642-2.974a5.069 5.069 0 0 0-.75-.871c-.237-.208-.515-.388-.835-.374-.431-.027-.807.25-1.099.54Zm.696.18a1.704 1.704 0 0 0-.529.36 4.364 4.364 0 0 0-.598.65c-.32.414-.598.857-.876 1.3-.585.954-1.113 1.964-1.642 2.96l-1.557 2.988c-.334.664-.682 1.314-1.002 1.978-.083.166-.194.318-.194.498.153-.07.333-.152.403-.318l.918-1.896 1.057-2.116c.32-.65.668-1.286 1.001-1.937.487-.926.988-1.853 1.586-2.725.348-.484.723-.995 1.266-1.286.292-.166.667-.194.973-.028.265.125.501.319.682.554.487.567.834 1.245 1.182 1.909.5.968.932 1.978 1.377 2.974.556 1.3 1.113 2.6 1.641 3.914.056.125.098.277.195.388a.66.66 0 0 0 .264.166c-.014-.18-.097-.332-.167-.498a238.523 238.523 0 0 0-2.573-5.81l-.598-1.231-.723-1.3c-.306-.485-.626-.983-1.085-1.342-.153-.111-.334-.208-.529-.208-.153 0-.32-.014-.473.056Zm-.292.857c-.446.36-.793.83-1.1 1.3-.43.664-.82 1.356-1.195 2.048-.668 1.23-1.266 2.49-1.906 3.72l-.807 1.647c-.097.18-.194.36-.25.567.209-.028.362-.207.431-.387l.612-1.287c.195-.415.404-.816.584-1.23.543-1.08 1.057-2.187 1.641-3.238.404-.705.78-1.438 1.294-2.075.278-.36.612-.733 1.057-.885.18-.028.362-.014.529 0 .347.097.612.373.834.636.278.36.529.72.723 1.12.626 1.149 1.113 2.366 1.628 3.556l1.293 3.195c.056.152.195.221.32.29 0-.055 0-.11-.028-.165l-.723-1.73-1.182-2.738c-.473-1.066-.96-2.145-1.544-3.168-.236-.36-.473-.733-.779-1.037a1.351 1.351 0 0 0-.64-.388c-.292-.069-.584.07-.806.25h.014Zm.041.65c-.348.277-.612.637-.862 1.01-.32.47-.598.968-.876 1.48-.473.858-.905 1.757-1.336 2.642l-1.349 2.78-.055.194c.11-.041.222-.083.292-.18l.139-.276c.139-.318.306-.623.43-.927l1.155-2.476.445-.9c.181-.4.418-.76.612-1.147.195-.346.404-.692.64-1.024.292-.415.64-.858 1.155-1.01.222-.083.459.014.653.11.279.153.473.416.668.665.195.263.348.553.5.844.599 1.134 1.072 2.324 1.544 3.513.265.637.487 1.287.752 1.91.07.179.11.373.222.525.042.069.14.069.223.097l-.084-.235-.779-1.91c-.125-.304-.236-.622-.39-.926a34.582 34.582 0 0 0-.89-2.075c-.347-.747-.709-1.508-1.181-2.186-.21-.29-.46-.567-.78-.72a1.306 1.306 0 0 0-.458-.013 1.62 1.62 0 0 0-.39.235Zm.153.554c-.361.262-.626.636-.862 1.01-.237.345-.445.705-.64 1.078-.223.402-.431.83-.64 1.245-.514 1.024-.987 2.075-1.46 3.113-.084.18-.195.345-.25.525.055.097.18.028.222-.055.153-.221.237-.484.348-.733l.973-2.13c.223-.54.515-1.052.765-1.591.334-.609.668-1.231 1.14-1.757.21-.235.488-.415.808-.456.361.027.653.262.862.525.459.595.765 1.259 1.07 1.937.502 1.162.933 2.351 1.378 3.541.07.207.139.415.264.595h.14c-.168-.54-.39-1.052-.599-1.577-.222-.595-.473-1.176-.71-1.77-.236-.554-.458-1.107-.723-1.633-.236-.484-.472-.968-.792-1.397-.195-.25-.431-.512-.738-.609-.194-.055-.389.056-.556.139Zm-.222.871c-.445.457-.738 1.051-1.043 1.605a226.837 226.837 0 0 0-1.878 4.025l-.07.207c.863-.484 1.753-.94 2.713-1.162.292-.069.598-.041.904-.041.375 0 .737.11 1.112.221.362.111.737.236 1.085.415l.932.443c-.042-.263-.167-.484-.236-.733-.501-1.342-1.002-2.697-1.628-3.984-.167-.304-.32-.595-.528-.858-.181-.249-.418-.484-.737-.498-.25.028-.46.166-.626.346v.014Zm-.292 4.952c-.223.028-.418.125-.64.18-.292.097-.57.235-.849.36l-.862.442c-.209.139-.445.208-.598.401.07.014.139.014.195-.027.417-.221.806-.484 1.238-.692.653-.304 1.349-.608 2.086-.65.153-.014.292.028.445.041.208.014.417.097.64.125.737.18 1.446.498 2.128.872.153.082.306.193.487.22-.042-.054-.056-.124-.126-.151-.194-.139-.417-.235-.64-.346a8.691 8.691 0 0 0-1.39-.581c-.25-.055-.487-.166-.738-.18-.152-.028-.305-.07-.472-.07-.293 0-.598-.013-.904.056Zm.445.318c-.237-.013-.46.056-.668.125a7.6 7.6 0 0 0-1.989.885l-.779.47a.679.679 0 0 0-.236.25c.25-.07.445-.263.667-.374.793-.47 1.614-.94 2.518-1.176l.654-.11c.208 0 .417.082.64.096.222 0 .43.097.64.139.208.055.389.152.583.207.445.166.863.415 1.294.637.222.124.431.276.667.373-.014-.18-.208-.235-.333-.318-.64-.36-1.294-.706-1.99-.94-.222-.084-.458-.125-.695-.195-.306-.096-.654-.069-.973-.069Zm-.724.512a6.414 6.414 0 0 0-1.001.429c-.612.304-1.196.65-1.766 1.024l-.376.262c-.042.042-.042.111-.056.166.167-.083.32-.193.473-.29.292-.208.612-.401.932-.595.71-.443 1.474-.816 2.295-1.01.153-.041.32-.027.487-.027.375-.014.737.11 1.099.193.932.305 1.794.789 2.6 1.328l.265.139c-.028-.208-.264-.277-.417-.388-.25-.166-.515-.304-.78-.442-.277-.18-.57-.29-.862-.443-.236-.083-.459-.194-.695-.263-.306-.11-.64-.152-.96-.221-.153-.014-.306-.056-.459-.028-.264.042-.528.11-.779.166Zm.32.305a7.245 7.245 0 0 0-1.585.664c-.32.193-.668.373-.974.608-.375.25-.779.484-1.14.775a.464.464 0 0 0-.14.221c.293-.124.515-.332.765-.512.362-.249.738-.512 1.127-.733.25-.152.5-.318.765-.442.278-.153.57-.263.862-.388.153-.055.306-.069.46-.11.236-.084.486-.056.737-.056.445.07.876.194 1.293.36.529.207 1.002.498 1.488.774l.598.388c.209.138.39.304.612.4-.027-.068-.055-.151-.125-.207-.209-.166-.431-.29-.64-.442-.445-.263-.876-.553-1.349-.761a6.292 6.292 0 0 0-1.001-.401c-.195-.042-.376-.152-.584-.152-.181-.014-.348-.07-.529-.07-.222-.013-.431.056-.654.084h.014Zm4.562.276c0 .166.167.222.306.263-.07-.125-.153-.263-.306-.263Zm-4.562.11c-.292.07-.556.194-.834.319-1.071.498-2.03 1.203-2.977 1.909-.111.083-.236.152-.32.263-.041.041 0 .11.014.152a38.835 38.835 0 0 1 2.1-1.536c.515-.318 1.044-.65 1.614-.871.209-.07.417-.166.626-.18a3.476 3.476 0 0 1 1.001.028c1.016.249 1.92.788 2.768 1.37.376.262.723.566 1.113.788a.48.48 0 0 0-.25-.318c-.863-.637-1.767-1.245-2.768-1.66-.195-.07-.376-.166-.585-.208-.278-.055-.542-.166-.834-.152a1.6 1.6 0 0 0-.668.097Zm-3.7.374c.154-.069.348-.138.334-.318-.139.042-.306.139-.333.318Zm3.867-.027c-.5.097-.96.332-1.39.58a6.853 6.853 0 0 0-.752.47c-.292.167-.556.388-.834.582l-1.224.927c-.167.138-.418.249-.431.498.222-.097.375-.277.57-.415l.737-.581c.376-.305.765-.581 1.168-.872l.835-.525a4.59 4.59 0 0 1 1.099-.498c.194-.07.39-.139.584-.139.768.076 1.51.322 2.17.72.689.399 1.345.852 1.96 1.355.237.166.446.387.696.54-.014-.07 0-.139-.042-.18-.097-.11-.222-.194-.333-.277-.765-.608-1.558-1.203-2.42-1.646-.529-.263-1.058-.498-1.642-.58-.25 0-.5-.015-.75.04Zm5.035-.056a.543.543 0 0 0 .334.318.408.408 0 0 0-.07-.18.607.607 0 0 0-.264-.138Zm-.417.194c.028.138.153.235.278.277l-.056-.18-.222-.097Zm-9.291.429c.18-.07.361-.194.417-.387-.18.069-.403.165-.417.387Zm4.604-.18c-.94.312-1.806.81-2.546 1.466-.208.152-.43.29-.626.457-.528.428-1.084.843-1.599 1.3-.07.083-.153.194-.097.304.945-.788 1.85-1.604 2.85-2.31.613-.429 1.239-.857 1.948-1.093.25-.041.487-.152.737-.096l.529.11c.445.125.862.305 1.238.54.64.36 1.21.788 1.766 1.258.25.166.46.388.695.582.21.165.39.36.613.511-.014-.069-.014-.166-.084-.235-.139-.166-.334-.29-.487-.442l-1.113-.886c-.625-.456-1.28-.913-2.002-1.203-.557-.277-1.21-.401-1.822-.263Zm-4.048.152c-.041.042-.028.11-.028.166.084-.055.167-.097.237-.166.056-.055.125-.124.07-.194-.098.056-.195.111-.279.194Zm9.862-.124c.027.069.041.166.11.22l.237.112a.448.448 0 0 0-.348-.332Zm-.473.166c.055.18.222.276.389.373-.07-.18-.195-.346-.39-.373Zm-5.244.166c-.668.166-1.238.567-1.808.94-.25.194-.529.374-.779.595l-.681.526c-.446.4-.932.76-1.364 1.162-.208.166-.417.332-.598.525-.083.07-.07.18-.07.29l.821-.718c.209-.222.46-.388.682-.61l.654-.552c.278-.263.612-.498.918-.747l.514-.388c.543-.373 1.099-.747 1.739-.927.18-.055.361-.027.556-.041.264 0 .515.124.765.194.195.055.39.166.57.262.543.277 1.03.65 1.53 1.024.237.152.418.373.654.553.403.346.793.706 1.182 1.08.125.124.265.262.431.345-.027-.097-.041-.194-.11-.263l-.335-.318c-.208-.221-.473-.401-.695-.609-.25-.248-.542-.47-.82-.705-.557-.429-1.127-.858-1.753-1.176-.25-.11-.487-.249-.737-.332-.209-.069-.431-.11-.654-.166a1.15 1.15 0 0 0-.612.056Zm4.798-.028c.028.07.028.166.098.207.07.07.167.125.25.18-.028-.069-.041-.152-.097-.221-.07-.07-.167-.11-.25-.166Zm-10.348.429c.181-.083.432-.18.445-.415-.194.069-.417.18-.445.415Zm.515.152c.195-.097.39-.221.46-.457-.196.097-.432.222-.46.457Zm11.489-.374c.027.222.236.346.43.43-.04-.084-.069-.18-.138-.25a1.492 1.492 0 0 0-.292-.18Zm-10.919.319-.027.152c.166-.07.361-.18.375-.388-.125.07-.264.125-.348.236Zm3.394.4c-.542.333-1.043.734-1.53 1.121-.236.194-.459.415-.71.609l-.667.58c-.487.43-.96.872-1.46 1.273a.449.449 0 0 0-.167.402.913.913 0 0 0 .236-.166c.264-.25.543-.47.793-.72l1.001-.926c.265-.236.501-.485.78-.692.347-.332.723-.623 1.084-.913a6.61 6.61 0 0 1 .64-.443c.403-.276.848-.512 1.35-.595.305-.041.611.056.903.153.265.083.501.22.737.345.446.263.863.554 1.266.9l.765.636c.264.249.5.526.765.76l.723.72c.209.194.376.415.598.567-.041-.152-.07-.332-.194-.456-.654-.623-1.308-1.26-1.99-1.854l-.5-.415c-.278-.221-.57-.415-.862-.622a7.071 7.071 0 0 0-.82-.485 3.098 3.098 0 0 0-1.155-.345c-.584-.042-1.1.276-1.586.567Zm7.024-.58a.545.545 0 0 0 .39.4c.013-.22-.223-.317-.39-.4Zm-.459.152c-.014.207.209.304.362.401 0-.207-.195-.332-.362-.401Zm-11.836.36c-.042.041-.126.152-.028.193.195-.11.403-.249.459-.47-.167.028-.306.152-.431.277Zm11.35-.194c.04.194.208.304.375.373-.028-.193-.195-.332-.376-.373Zm-10.544.11c-.18.097-.361.236-.39.443.21-.097.432-.235.516-.47-.042 0-.084 0-.126.028Zm5.453.042c-.362.125-.654.332-.974.526-.264.193-.556.373-.807.608-.528.388-1.015.844-1.502 1.3-.278.264-.584.512-.862.79-.445.386-.863.801-1.322 1.161-.097.083-.208.166-.25.277-.042.083-.028.166-.042.235.376-.18.64-.498.946-.76l.862-.817.682-.65c.515-.498 1.001-1.01 1.572-1.466.194-.139.361-.319.57-.443.18-.097.334-.25.528-.346a3.32 3.32 0 0 1 .626-.318c.32-.097.668-.07 1.002 0 .459.152.876.387 1.265.65l.821.636.918.872c.556.54 1.071 1.12 1.627 1.674.195.193.39.4.599.58 0-.082.013-.165-.014-.248-.042-.083-.112-.139-.167-.208-.209-.18-.39-.373-.584-.567-.293-.277-.557-.567-.849-.83-.445-.415-.848-.858-1.335-1.245-.209-.194-.445-.346-.668-.54-.528-.387-1.112-.746-1.766-.926-.292-.056-.598-.07-.876.055Zm7.788.443c-.014-.263-.278-.374-.459-.498 0 .249.237.415.46.498Zm-13.074.069c.195-.097.445-.235.46-.47-.21.096-.446.22-.46.47Zm12.115-.401c0 .221.222.332.375.456.042-.055.042-.11 0-.152-.083-.152-.236-.221-.375-.304Zm-11.572.498a1.06 1.06 0 0 0 .375-.277l.014-.152c-.167.11-.417.207-.39.429Zm5.118-.332-.445.138c-.612.277-1.14.72-1.655 1.148l-.862.775c-.265.221-.487.47-.738.692l-.792.76-.598.581c-.334.29-.668.581-1.044.816 0 .083.028.194.125.166.195-.027.348-.152.501-.262.807-.734 1.544-1.536 2.323-2.297.167-.166.306-.346.487-.498.208-.193.403-.415.64-.608.25-.194.473-.43.737-.609.361-.29.779-.526 1.21-.664.236-.083.487-.014.723.07.348.11.682.276.974.497.167.11.347.222.486.36.32.263.64.54.919.83l.472.484c.237.249.473.484.696.747.222.221.431.456.626.692.334.332.626.705 1.001.982.056.055.14.041.195.055 0-.07.014-.138-.014-.194-.084-.096-.209-.166-.32-.262-.417-.402-.807-.83-1.21-1.245l-.57-.609c-.334-.346-.682-.664-1.03-.996-.32-.263-.625-.553-.973-.788-.376-.25-.765-.554-1.224-.664-.209-.042-.417-.125-.64-.097Zm5.98-.028c.015.07-.013.166.043.221.097.097.222.18.333.263.042-.249-.222-.36-.375-.484Zm-13.56.456c-.056.056-.07.139-.07.208.237-.097.501-.249.557-.526-.181.07-.362.18-.487.319Zm13.088-.29.014.18c.07.097.195.166.292.221 0-.069.014-.152-.028-.193a.95.95 0 0 0-.278-.208Zm-12.63.609c.154.014.279-.125.39-.208a.398.398 0 0 0 .153-.29c-.236.097-.459.249-.542.498Zm12.115-.47c.014.096.042.207.14.276.055.041.139.124.222.083-.028-.194-.209-.29-.362-.36Zm2.768.013c.042.263.264.443.5.512-.055-.249-.291-.401-.5-.512Zm-14.173.332a.314.314 0 0 0-.125.305c.153-.111.306-.208.431-.346.056-.056.056-.139.056-.208-.125.07-.25.138-.362.25Zm13.714.014c.111.138.264.249.417.332-.014-.07 0-.166-.055-.221-.111-.125-.265-.208-.404-.305.014.056 0 .139.042.194Zm-.612-.125c.042.125.056.277.167.374l.39.29c-.042-.124-.056-.262-.167-.345-.112-.125-.265-.208-.39-.319Zm-12.629.305c-.056.055-.056.124-.056.194.21-.097.418-.236.487-.457l-.042-.042c-.139.084-.278.18-.389.305Zm.417.401c.14-.083.265-.18.376-.277.097-.097.153-.221.208-.346-.278.083-.556.319-.584.623ZM7.71 22.57c-.125.083-.167.221-.194.36.125-.056.236-.125.347-.222.153-.096.32-.249.292-.442-.153.083-.306.18-.445.304Zm14.646-.221c.028.235.223.4.431.484-.014-.235-.236-.401-.43-.484Zm-.5.124c-.015.194.152.318.278.429.041.041.097.041.153.055-.028-.249-.25-.373-.432-.484Zm-13.659.305c-.07.069-.07.166-.083.248.18-.069.32-.18.459-.318.07-.055.07-.138.07-.221-.168.07-.32.166-.446.29Zm16.496-.263c.028.096.041.207.125.29.111.11.264.208.403.305-.027-.111-.041-.236-.139-.319a2.784 2.784 0 0 0-.39-.276Zm-3.352.083c.028.235.236.4.43.54 0-.264-.222-.444-.43-.54Zm-12.56.29a.68.68 0 0 0-.153.318c.167-.096.32-.18.46-.318.083-.069.097-.18.097-.277-.14.084-.279.166-.404.277Zm15.898.346c-.014-.097-.028-.194-.111-.263a2.971 2.971 0 0 0-.39-.304c.028.276.278.456.5.567Zm-15.48.097c.139-.07.264-.152.375-.263.097-.083.18-.194.153-.332-.209.152-.529.29-.529.595Zm14.478-.498c-.013.277.25.429.446.567 0-.083.027-.18-.028-.249-.126-.125-.279-.221-.418-.318Zm-13.95.636c.167-.069.292-.194.417-.304.084-.07.111-.18.14-.277-.251.097-.515.29-.557.581Zm-2.907-.304c-.083.069-.153.194-.083.304.125-.083.278-.166.39-.263.096-.083.11-.193.138-.304-.153.07-.306.166-.445.263Zm16.301-.152c.042.096.07.207.153.276l.376.29c-.042-.151-.084-.29-.209-.387-.084-.082-.18-.193-.32-.18Zm-15.73.304c-.126.097-.168.235-.181.373.139-.082.292-.166.417-.262a.472.472 0 0 0 .195-.402l-.446.291h.014Zm2.892.263c.167-.083.32-.194.445-.332.056-.07.042-.166.042-.235-.222.124-.459.29-.487.567Zm12.435-.18c.111.125.25.221.403.277-.042-.097-.056-.222-.139-.29-.097-.098-.209-.167-.32-.25-.042.097 0 .194.056.263Zm2.823-.11c.084.152.237.262.404.345l.041-.055c-.027-.235-.278-.318-.445-.457-.028.056-.041.111 0 .152v.014Zm-17.664.235a.368.368 0 0 0-.111.345c.153-.097.32-.193.459-.318.097-.097.111-.235.153-.346-.181.083-.362.18-.5.332v-.014Zm14.215-.291c.028.263.25.47.487.581-.014-.07-.014-.166-.07-.235a1.98 1.98 0 0 0-.417-.346Zm2.976.318c.112.125.265.221.418.29-.014-.276-.279-.414-.487-.539a.4.4 0 0 0 .07.25Zm-16.62.125c-.098.069-.126.207-.126.332.237-.152.557-.305.557-.623-.153.083-.293.18-.432.29Zm13.17-.29c.015.068-.013.165.043.22.11.139.25.263.403.346-.042-.249-.236-.428-.445-.567Zm-15.619.303c-.07.07-.07.153-.083.25a1.66 1.66 0 0 0 .473-.277c.028-.07.097-.166.014-.221-.14.069-.278.152-.404.248Zm18.457-.235c-.014.277.25.443.487.554l-.014-.194c-.125-.152-.306-.263-.473-.36Zm-15.313.263c-.153.097-.306.25-.278.443.18-.11.361-.235.5-.401.056-.07.042-.152.056-.236l-.278.194Zm-2.226-.083a1.77 1.77 0 0 0-.375.25c-.056.068-.111.165-.028.22a1.02 1.02 0 0 0 .417-.262c.042-.056.098-.235-.014-.208Zm19.292.014a.518.518 0 0 0 .459.387v-.138c-.153-.097-.278-.249-.46-.249Zm-16.718.387c-.07.07-.084.166-.084.263.167-.083.306-.194.431-.318.084-.083.098-.194.125-.29-.194.055-.333.193-.472.345Zm14.506-.166c.126.139.292.25.46.346-.029-.097-.056-.207-.126-.29a1.28 1.28 0 0 0-.348-.263l.014.207Zm-.556-.083c.014.083-.014.166.042.236.097.138.236.235.375.332.028-.056.042-.111.014-.166-.083-.18-.278-.277-.431-.402ZM7 24.244l.056.069c.166-.083.361-.18.445-.36.041-.041 0-.096-.014-.152-.181.125-.431.208-.487.443Zm3.046-.083c-.07.069-.07.166-.056.263.14-.083.264-.194.39-.319.07-.069.097-.193.125-.29-.18.083-.334.194-.46.346Zm-4.701-.139v.153a.624.624 0 0 0 .347-.125c.042-.055.042-.138.042-.207a1.085 1.085 0 0 0-.39.18Zm20.404-.165v.193c.111.083.236.152.375.208l-.014-.18c-.097-.11-.236-.166-.361-.221Zm-18.137.387c-.097.083-.097.221-.097.332a2.18 2.18 0 0 0 .417-.277c.111-.083.139-.235.167-.36a3.566 3.566 0 0 0-.487.305Zm15.286-.318c0 .276.222.47.445.58 0-.082.027-.18-.028-.248a3.139 3.139 0 0 0-.418-.332Zm3.963.083v.138h.223c-.056-.07-.125-.138-.223-.138Zm-21.933.207.222.014v-.152a.233.233 0 0 0-.223.138Zm.917.055.014.139c.167-.028.362-.083.418-.263l-.056-.083a.993.993 0 0 0-.376.207Zm2.295.166c-.083.083-.083.208-.083.305.153-.07.32-.152.445-.277.083-.097.097-.235.097-.36-.153.111-.32.194-.459.332Zm14.257-.36c0 .098-.014.208.07.291.125.125.25.25.403.36.014-.304-.265-.498-.473-.65Zm2.823 0c-.014.222.209.319.376.388.083-.041.028-.138 0-.18-.098-.096-.223-.207-.376-.207Zm-16.523.526c-.098.083-.112.222-.14.346.168-.055.293-.166.432-.276.125-.097.167-.277.195-.43-.167.112-.334.222-.487.36Zm13.157-.373c.028.097.028.221.112.29.11.125.236.236.375.332.014-.29-.236-.497-.487-.622Zm2.88.207a.673.673 0 0 0 .375.236l-.014-.194c-.097-.097-.222-.166-.334-.235-.027.055-.055.124-.027.194Zm-18.388.153c.098.096.223.013.32-.042.084-.041.111-.152.125-.249-.18.028-.39.097-.445.29Zm17.928.096c.098.083.21.18.362.194-.014-.263-.278-.373-.445-.512-.07.111 0 .235.084.318Zm1.572-.276v.193c.07.014.14.028.209.014l-.014-.124-.195-.083Zm-16.62.373c-.084.07-.056.194-.056.29.153-.082.306-.193.43-.331.07-.083.056-.194.043-.277a4.17 4.17 0 0 0-.418.318Zm-2.31-.11c-.055.055-.041.124-.055.193.167.028.292-.097.417-.18v-.207c-.125.055-.25.11-.362.194Zm-.987.013.236.014v-.152a.45.45 0 0 0-.236.138Zm17.747-.124v.235c.098.125.25.208.39.29l.028-.11c-.056-.208-.265-.29-.418-.415Zm-14.006.567c-.027.055-.014.11 0 .152.153-.11.32-.221.445-.36a.444.444 0 0 0 .084-.29c-.209.125-.445.263-.529.498Zm15.662-.498.014.18c.041.041.125.055.18.055l.07-.097-.264-.138Zm-17.887.263c-.07.055-.028.152 0 .221.125-.069.278-.124.362-.235.027-.07.014-.138.014-.207a1.28 1.28 0 0 0-.376.22Zm-1.001.055.25.014.014-.18a.33.33 0 0 0-.264.152v.014Zm16.76.056c.097.11.222.235.389.249-.014-.236-.223-.388-.417-.47-.084.055-.014.151.027.22Zm-15.23.083c-.084.069-.042.193-.056.29.125-.07.264-.124.375-.221.084-.07.098-.194.098-.305-.153.028-.292.125-.417.236Zm16.815-.111c.07.083.153.097.25.097l.056-.097-.264-.138-.042.138Zm-2.17-.055c-.027.262.223.428.418.567v-.235a1.23 1.23 0 0 0-.418-.332Zm-15.675.235c.084.027.209.097.278 0l-.055-.152-.223.152Zm15.147-.125c-.042.305.236.498.445.664.028-.097.042-.193-.028-.276a1.847 1.847 0 0 0-.417-.388Zm2.225 0 .014.235c.098.042.209.056.292-.041l-.306-.194ZM8.46 25.35c0 .056-.055.18.056.194.125-.055.236-.138.334-.235.041-.07.014-.152.028-.235-.153.055-.32.138-.418.276Zm-.973.083h.236l.028-.18c-.111 0-.292.042-.264.18Zm1.53.083c-.07.083-.098.194-.056.29.167-.082.334-.179.431-.331.042-.07.014-.152.014-.221a1.508 1.508 0 0 0-.39.262Zm14.812-.027c.098.041.195.014.293-.028a1.178 1.178 0 0 0-.265-.194.253.253 0 0 0-.028.222Zm-14.27.193c-.083.083-.097.208-.056.319.153-.097.306-.194.418-.332.055-.07.028-.166.041-.25a1.59 1.59 0 0 0-.403.263Zm13.714-.235c.014.097.014.235.111.29a.334.334 0 0 0 .209-.04.527.527 0 0 0-.32-.25Zm-15.327.18c.055.028.111.097.18.083.07-.014.098-.083.14-.11l-.042-.111c-.111 0-.195.055-.278.138Zm.486.235.126.07c.083.027.153-.028.222-.056l-.014-.207c-.111.055-.222.11-.334.193Zm14.452.11c.083 0 .208.015.25-.082l-.334-.25c-.083.125.014.236.084.333Zm-.626-.151c0 .083-.014.18.014.263.07.069.167.11.25.138l.097-.138-.361-.263Zm-13.31.276c.083.07.236.125.319.028.014-.083.042-.18-.028-.221-.111.055-.195.124-.292.193Zm.514.222.139.138c.07-.041.153-.07.195-.138.027-.056.013-.125.027-.18-.153-.014-.264.097-.361.194v-.014Z"/>
  <path fill="url(#b)" d="m16.983 4.968.01.002c.562.103 1.027.439 1.422.803l.03.027c.603.554 1.09 1.22 1.532 1.88l.043.066c.615.937 1.18 1.91 1.73 2.883l.11.195c.57 1.024 1.141 2.062 1.698 3.114l.23.428c1.128 2.107 2.249 4.23 3.242 6.413l.05.11v.001h.001c.284.646.556 1.32.776 2.007l.021.067.003.008.001.008c.021.132.053.247.081.392.027.138.047.286.031.44v.008l-.002.007a.961.961 0 0 1-.068.21.397.397 0 0 1-.167.183.4.4 0 0 1-.217.06h-.044a1.342 1.342 0 0 0-.074.005.525.525 0 0 0-.082.078c-.032.035-.082.092-.147.124l-.02.01-.233.026-.236.206-.252.034h-.008c-.022 0-.04.008-.084.055-.018.02-.046.053-.077.079a.304.304 0 0 1-.127.069.545.545 0 0 1-.164.021c-.025 0-.05 0-.072-.002h-.005a.648.648 0 0 1-.264.213l-.004.001-.005.002a.777.777 0 0 1-.248.02.99.99 0 0 1-.06.081.438.438 0 0 1-.165.129l-.006.003-.008.002a.674.674 0 0 1-.264.014.76.76 0 0 1-.05.075.303.303 0 0 1-.204.122h-.243a.658.658 0 0 1-.214.22l-.012.008-.014.003a.572.572 0 0 1-.195.015l-.085-.007a.92.92 0 0 1-.02.046.31.31 0 0 1-.139.146l-.025.012h-.309l-.154.252-.369-.014-.124.247h-.073c-.088 0-.192 0-.295-.011a.429.429 0 0 1-.108.198l-.022.021-.03.008a.588.588 0 0 1-.384-.032l-.005-.002-.004-.002a2.462 2.462 0 0 1-.64-.52 9.807 9.807 0 0 1-.643-.666c-.087-.087-.163-.181-.235-.27a3.211 3.211 0 0 0-.22-.252c-.212-.196-.402-.428-.588-.626l-.003-.003-.003-.003a4.833 4.833 0 0 0-.368-.395c-.127-.125-.262-.252-.388-.384l-.387-.357v-.001a7.497 7.497 0 0 0-.821-.653c-.384-.259-.794-.48-1.235-.532-.28-.011-.558.123-.834.287-.476.284-.9.65-1.3 1.035l-.002.002c-.638.579-1.23 1.195-1.844 1.792-.24.28-.492.531-.756.78l-.003.003-.003.002c-.114.094-.222.198-.336.306a4.761 4.761 0 0 1-.362.319l-.002.002-.003.001c-.11.078-.239.179-.369.256a.988.988 0 0 1-.458.153l-.028.001-.026-.011a.435.435 0 0 1-.191-.177c-.02-.031-.038-.065-.053-.093a2.508 2.508 0 0 0-.012-.022l-.019.001-.098.005a.655.655 0 0 1-.228-.028l-.027-.009-.02-.02a.416.416 0 0 1-.085-.135l-.018-.042-.119.001a.73.73 0 0 1-.232-.03l-.02-.007-.016-.013a.434.434 0 0 1-.11-.136 1.28 1.28 0 0 1-.03-.06h-.315l-.032-.025a.504.504 0 0 1-.11-.136c-.019-.03-.032-.052-.046-.07-.08-.013-.157-.004-.271-.004h-.058l-.18-.234h-.012a.935.935 0 0 1-.077.003.644.644 0 0 1-.178-.022l-.008-.002-.006-.003a.458.458 0 0 1-.165-.126 1.445 1.445 0 0 1-.055-.068l-.016-.021-.209-.012-.01-.002a.44.44 0 0 1-.196-.118l-.064-.064-.03-.03-.203-.036a.345.345 0 0 1-.163-.079c-.037-.03-.074-.07-.095-.092l-.005-.005-.005-.005c-.016-.021-.04-.032-.111-.04-.059-.008-.172-.012-.264-.073l-.006-.004-.185-.158a2.712 2.712 0 0 1-.508-.26.534.534 0 0 0-.114-.023.685.685 0 0 1-.184-.043l-.01-.004-.009-.006a.538.538 0 0 1-.078-.066l-.06-.06c-.038-.037-.06-.047-.075-.049H4.56l-.006-.002-.092-.017a1.202 1.202 0 0 1-.11-.022.407.407 0 0 1-.228-.143.63.63 0 0 1-.12-.332c-.008-.102-.001-.214-.001-.292v-.016l.004-.025c.075-.534.287-1.038.477-1.51v-.003c.518-1.21 1.146-2.361 1.786-3.482.196-.376.406-.724.613-1.068.113-.21.24-.413.364-.612.126-.201.249-.398.358-.602l.001-.002.935-1.569.003-.003c.088-.128.165-.26.248-.396.08-.133.166-.27.265-.405a130.261 130.261 0 0 1 2.364-3.734v-.001c.834-1.243 1.66-2.51 2.667-3.637l.002-.002.002-.002c.468-.48.971-1.01 1.636-1.298.19-.087.38-.145.573-.175l.009-.001h.673Zm4.974 21.59a.374.374 0 0 0 .12.017l-.015-.004a.219.219 0 0 0-.028-.004c-.014 0-.036-.003-.058-.006a.436.436 0 0 1-.02-.003Zm-10.855-.778-.002.003-.003.002c-.306.266-.619.539-.966.768.136-.033.251-.124.396-.229.233-.211.46-.428.683-.648l-.108.104Zm-1.013.517-.061.03-.142.068a.355.355 0 0 1-.104.097h.051l.026.04a.49.49 0 0 1 0-.02v-.064l.054-.035a4.46 4.46 0 0 0 .176-.116Zm-.622.197h.004l-.002-.002-.002.002Zm7.216-4.574c-.238-.083-.452-.137-.645-.07l-.001.002h-.002a3.657 3.657 0 0 0-1.031.535c.105-.073.212-.143.322-.208.275-.164.601-.331.953-.322h.021l.005.001c.486.057.924.292 1.309.548l.037.025.001.001h.001c.293.209.576.42.846.674l.39.36.003.002.002.003c.124.13.252.251.385.381.13.128.262.262.384.411.195.208.36.411.556.596l.02.018v.002l.002.001c.089.088.166.183.238.272.069.085.134.165.207.239l.014.015.003.002.002.003c.2.226.4.438.612.637l.02.019.003.003.003.003c.134.143.272.275.426.38a4.368 4.368 0 0 1-.475-.44c-.166-.175-.317-.345-.483-.51l-.004-.004-.004-.005a9.581 9.581 0 0 0-.618-.683l-.003-.003-.004-.004c-.22-.26-.45-.49-.69-.742l-.472-.483-.001-.001a10.416 10.416 0 0 0-.908-.82l-.004-.004-.004-.004c-.129-.128-.296-.23-.469-.345l-.003-.002-.003-.002a3.123 3.123 0 0 0-.938-.48h-.003Zm5.9 4.42h.005l.011-.023-.015.022Zm-5.62-5.11c-.295-.099-.575-.185-.849-.148-.476.079-.904.303-1.3.575l-.002.002h-.002a6.47 6.47 0 0 0-.629.436c-.36.289-.725.572-1.065.895.247-.218.5-.428.763-.621.256-.24.56-.428.812-.613l.004-.003.005-.003c.309-.187.616-.404.991-.534.3-.133.622-.12.914-.067l.028.005.005.001.004.001c.654.18 1.235.533 1.755.91l.05.036.004.003.004.003c.108.094.22.178.333.265.112.086.226.174.334.274.49.39.904.843 1.338 1.248.149.133.29.273.428.413.131.132.26.264.395.392l.027.026h.001l.001.002c.193.191.363.373.559.545l.02.016.007.007.007.009c.025.031.049.053.084.093.03.034.064.074.091.125l.005.01.004.008.003.007a.5.5 0 0 1 .023.162 1.51 1.51 0 0 1-.003.125v.257l-.196-.169c-.213-.183-.413-.397-.604-.586-.28-.278-.549-.563-.816-.845a28.18 28.18 0 0 0-.81-.828l-.913-.867-.813-.63a5.094 5.094 0 0 0-1.227-.631c-.323-.067-.644-.09-.933-.003-.211.08-.411.186-.6.306l-.005.003-.006.003c-.087.044-.166.1-.252.163-.082.06-.172.127-.27.18a2.117 2.117 0 0 0-.273.204c-.088.074-.183.158-.284.23a14.22 14.22 0 0 0-1.093.997l.053-.045.86-.773.002-.002.002-.001c.512-.427 1.053-.88 1.682-1.165l.007-.003.462-.144h.01c.13-.017.253 0 .365.023.055.012.11.026.162.039.046.012.09.023.133.032l.018.003h.002l.003.001c.47.114.872.42 1.227.658l.034.023h.001c.343.232.652.521.954.771l.029.024.003.003.003.003c.335.32.675.631 1.002.967l.031.032v.001h.001l.57.609c.406.418.79.84 1.204 1.239.05.044.103.08.161.124.053.04.11.084.159.138l.01.01.01.012.006.013a.276.276 0 0 1 .026.084l.088.02c.063.013.13.02.2.022l-.012-.004a.756.756 0 0 1-.297-.166l-.02-.02-.008-.026a.53.53 0 0 1-.024-.169 1.73 1.73 0 0 1 .004-.131v-.232l.643.468-.024.032.338.013.026-.043a.316.316 0 0 1-.077.024c-.061.012-.132.008-.162.008h-.061l-.036-.05c-.028-.04-.083-.108-.112-.18a.318.318 0 0 1-.025-.134v.002l-.05.17-.138-.11c-.099-.08-.233-.179-.333-.297a.723.723 0 0 1-.122-.199l-.22-.15a2.126 2.126 0 0 1-.322-.283c-.1-.103-.188-.201-.29-.295v-.002l-.723-.718a7.2 7.2 0 0 1-.387-.38c-.125-.129-.247-.257-.376-.378l-.762-.634-.001-.001a8.644 8.644 0 0 0-1.247-.886c-.242-.128-.464-.258-.714-.336h-.002Zm-7.62 4.986a.258.258 0 0 1-.074.053h.012l.013.002.05.005v-.06Zm-.412.014c.007.01.013.018.02.025a.37.37 0 0 0 .046.008.5.5 0 0 1-.066-.033Zm.54-.07v.001l.004-.003-.005.003Zm-.073-.103a.877.877 0 0 1-.004.028l.024.024-.02-.052Zm.681-.618a.294.294 0 0 0-.003.046v.069a.31.31 0 0 1-.063.188c-.104.13-.24.225-.368.308a.405.405 0 0 1 .19-.028l.045.004a.55.55 0 0 1 .159-.271c.05-.05.108-.096.152-.134l.002-.002.002-.001a9 9 0 0 0 .257-.21c-.06.047-.123.085-.186.117l-.155.077-.016-.172a.615.615 0 0 1-.002-.073l-.014.082Zm-1.177.529-.005-.012-.073.03a.298.298 0 0 0-.044.02l-.033.015h.078l.007.014.046-.033.097-.07-.073.036ZM8.44 26a.4.4 0 0 0 .014.02h.023L8.44 26Zm2.213-.455a9.146 9.146 0 0 1-.31.255c-.052.044-.097.08-.137.12a.456.456 0 0 0-.05.058c.083-.058.162-.124.24-.194a8.24 8.24 0 0 0 .22-.205l.037-.034Zm14.285-3.533c.03.079.055.162.066.252l.03.233-.206-.116c-.181-.103-.438-.234-.526-.505-.554-1.365-1.178-2.703-1.79-4.059l-.43-.91-.001-.001-.695-1.493c-.305-.594-.587-1.224-.875-1.81-.585-1.15-1.153-2.292-1.844-3.365l-.001-.002a7.499 7.499 0 0 0-.738-.992c-.311-.336-.676-.63-1.109-.736h-.474a1.84 1.84 0 0 0-.692.322c-.514.39-.923.89-1.31 1.427-.362.511-.72 1.033-1.038 1.568a116.042 116.042 0 0 0-2.902 5.124 7.359 7.359 0 0 1-.29.558c-.104.183-.206.36-.295.536l-.002.005-.003.004c-.22.357-.38.715-.58 1.086l-.362.699c.063-.109.124-.213.179-.322l.002-.004.002-.003c.195-.332.353-.677.54-1.02a161.11 161.11 0 0 1 1.725-3.113c.321-.624.67-1.221 1.016-1.828l.001-.001c.47-.799.933-1.634 1.45-2.425v-.001c.513-.773 1.05-1.576 1.775-2.183.344-.285.808-.504 1.274-.4l.011.002.007.001.006.002c.24.084.453.196.64.336l.018.014.002.001.002.002c.29.238.525.531.745.812l.093.119.001.001.002.002c.382.525.703 1.086 1.016 1.643l.062.112.001.001c.6 1.11 1.157 2.246 1.7 3.395a168.238 168.238 0 0 1 1.598 3.414l.224.488v.001c.346.77.71 1.534 1.03 2.309.05.1.139.257.121.434l-.018.182-.16-.092c-.166-.096-.364-.223-.464-.44l-.001-.001-.001-.002-.778-1.853c-.571-1.26-1.126-2.543-1.723-3.8-.07-.14-.134-.284-.198-.424a5.824 5.824 0 0 0-.202-.413l-.002-.004-.002-.004c-.584-1.257-1.18-2.497-1.87-3.694-.213-.31-.401-.618-.62-.904-.303-.396-.648-.762-1.088-.943-.166-.055-.323-.1-.474-.09-.53.078-.978.414-1.344.819h-.001c-.465.504-.85 1.09-1.225 1.685a43.348 43.348 0 0 0-1.373 2.346c-.2.37-.416.716-.596 1.075l-.001.002-.001.002-.515.94v.002l-.002.001c-.116.198-.222.402-.328.61-.106.206-.211.416-.324.619-.299.546-.57 1.097-.843 1.648l.106-.196c.133-.272.28-.54.426-.803.146-.265.29-.526.422-.786v-.002l.002-.002c.818-1.49 1.6-3.002 2.463-4.47.222-.4.48-.786.71-1.177l.001-.003.002-.003c.387-.577.784-1.184 1.324-1.68.294-.291.7-.6 1.182-.572.354-.012.653.18.889.384l.023.02c.279.25.528.55.748.862l.021.03.001.001c.565.83 1.022 1.724 1.462 2.61l.188.378v.001c.515 1.066 1.003 2.146 1.503 3.223.126.252.241.513.356.774.108.245.214.49.33.727l.023.048v.002l.697 1.593.028.064c.144.321.302.653.433 1.008l.093.248-.247-.098c-.14-.056-.308-.135-.413-.274a.837.837 0 0 1-.11-.21c-.027-.073-.044-.128-.07-.187v-.001l-1.53-3.554a160.08 160.08 0 0 0-1.612-3.51c-.431-.859-.858-1.72-1.421-2.5-.293-.387-.61-.763-1.036-.942l-.003-.002-.004-.001a.627.627 0 0 0-.253-.059c-.1-.005-.19.002-.306.002-.13 0-.257.065-.415.151-.448.25-.765.668-1.119 1.09-.48.657-.88 1.354-1.298 2.047a139.1 139.1 0 0 0-2.14 4.02v.001c-.544 1.031-1.05 2.086-1.569 3.146l.037-.07c.32-.665.67-1.32 1.002-1.979v-.001l1.559-2.988v-.001c.528-.995 1.058-2.008 1.645-2.967.278-.442.559-.889.882-1.309.174-.244.389-.457.61-.664.163-.161.355-.294.563-.383.183-.082.384-.065.521-.065.226 0 .427.107.584.219l.016.012.002.001c.448.351.766.826 1.055 1.281l.057.09.002.004.725 1.303.001.003.002.003.598 1.23v.002a227.958 227.958 0 0 1 2.418 5.45l.157.363v.001c.064.151.16.33.176.535l.015.193-.18-.076c-.092-.04-.216-.09-.306-.197a.831.831 0 0 1-.133-.219l-.043-.105a2.447 2.447 0 0 0-.038-.093v-.002l-.002-.002a193.421 193.421 0 0 0-1.64-3.911c-.445-.998-.874-2.003-1.373-2.967-.35-.667-.69-1.332-1.167-1.887l-.002-.002-.002-.003a1.763 1.763 0 0 0-.638-.518l-.003-.002-.003-.002a.895.895 0 0 0-.859.027h-.001l-.001.002c-.514.275-.875.762-1.225 1.25-.594.865-1.091 1.786-1.578 2.712-.336.654-.68 1.284-1 1.934l-1.057 2.116-.917 1.893a.571.571 0 0 1-.21.243 1.585 1.585 0 0 1-.252.133l-.167.075v-.182c0-.073.015-.14.036-.203l-.198.415c-.115.302-.398.515-.685.605l-.235.074a2.264 2.264 0 0 1-.075.137l-.003.005-.004.006a1.513 1.513 0 0 1-.415.352l.15-.082.023.168a.454.454 0 0 1-.101.346.942.942 0 0 1-.237.208 1.551 1.551 0 0 1-.056.046l.043-.028.018.195a.589.589 0 0 1-.24.505 2.335 2.335 0 0 1-.136.095l.04.157a.262.262 0 0 0 .01.028l.017.051a.21.21 0 0 1 .006.085.174.174 0 0 1-.034.08.687.687 0 0 1-.223.248c-.089.063-.188.112-.27.153l-.085.043-.115-.143a.704.704 0 0 1-.044.172.313.313 0 0 1-.14.161l-.026.015h.082a.257.257 0 0 1 .053-.076l.006-.006.007-.006c.123-.092.26-.152.384-.206l.166-.074v.278c0-.053 0-.128.015-.2a.385.385 0 0 1 .124-.222l.004-.003.003-.002c.046-.033.093-.067.142-.1l-.035-.153a.485.485 0 0 1 .144-.455l.201-.2v.041c.109-.075.224-.132.333-.182l.25-.115a.595.595 0 0 1 .12-.18l.002-.002.003-.003c.134-.119.283-.207.42-.29l.18-.106v.207c0 .099-.012.258-.136.364-.151.15-.318.24-.48.333l-.242.14.066-.26-.022.06a1.065 1.065 0 0 0-.025.078c-.009.029-.018.063-.03.097a.538.538 0 0 1-.126.212l-.002.002-.002.003a2.22 2.22 0 0 1-.257.194l.211-.105a.373.373 0 0 1 .117-.146c.143-.113.287-.213.447-.3l.175-.095v.198a.604.604 0 0 1-.23.462 1.176 1.176 0 0 1-.048.04v.217c0 .124-.012.298-.12.43a.385.385 0 0 1 .02-.02c.16-.144.335-.26.5-.369l.232-.154-.01.05a.362.362 0 0 1 .064-.087c.138-.15.296-.312.526-.378l.205-.058-.059.204c-.01.034-.026.104-.043.156a.471.471 0 0 1-.112.185c-.132.13-.28.25-.462.34l-.171.085v-.162a1.22 1.22 0 0 1-.055.194.556.556 0 0 1-.17.243c-.132.105-.276.233-.468.297l-.124.04a.35.35 0 0 1-.1.144 1 1 0 0 1-.189.128.44.44 0 0 1 .042-.002h.082l.024.063a.596.596 0 0 1 .007-.052l.004-.025.001-.007v-.037l.021-.03c.12-.17.316-.263.474-.32l.19-.069-.033.2c-.005.028-.002.05-.002.102a.33.33 0 0 1-.04.173l-.008.013-.01.01a1.393 1.393 0 0 1-.18.15l.118-.058.003.032a.462.462 0 0 1 .05-.075l.004-.004.004-.004c.124-.123.277-.213.42-.285l.171-.085v.19l.003.042c.002.017.005.04.006.064a.306.306 0 0 1-.04.176v.002l-.001.001a.848.848 0 0 1-.239.237l.047.028a.201.201 0 0 1 .063.058.384.384 0 0 1 .113-.262l.002-.002.003-.003a1.7 1.7 0 0 1 .433-.282l.198-.09a.547.547 0 0 1 .195-.296c.497-.399.965-.836 1.455-1.268l.67-.584.003-.002a6.74 6.74 0 0 0 .354-.3c.115-.102.232-.208.353-.307h.001c.486-.387.992-.793 1.542-1.13h.001c.475-.283 1.018-.623 1.64-.585l.015.001h.004c.416.043.82.158 1.197.36.274.136.547.298.807.473l.026.018h.001c.28.2.568.39.841.606l.027.021v.001h.002l.5.416h.002v.002c.642.56 1.259 1.156 1.871 1.74l.122.117h.001l.001.002c.08.079.126.173.157.262.03.084.05.18.068.246l.004.014.002-.013.026-.194.16.115c.155.112.32.244.442.41a.348.348 0 0 1 .07.285.32.32 0 0 1 .03-.056l.07-.104.507.38-.002.003h.098a.456.456 0 0 1-.01-.001l-.021-.004-.018-.01a.312.312 0 0 1-.143-.203c-.016-.061-.022-.139-.027-.173l-.001-.008v.261l-.187-.133c-.093-.066-.217-.15-.311-.253a.531.531 0 0 1-.155-.422l.018-.168.152.075c.182.09.334.212.457.364l.026.032v.077l.152.046c.166.049.303.15.39.304l.02.038.018-.03h.067c.06 0 .128.009.172.011a.397.397 0 0 0 .102-.003.329.329 0 0 0 .082-.082c-.1.042-.234.084-.375.024l-.045-.02-.018-.045a.327.327 0 0 1-.022-.152l-.115-.01c-.22-.017-.373-.18-.468-.288l-.007-.008-.006-.009c-.015-.025-.055-.084-.072-.142a.2.2 0 0 1 .08-.238l.053-.035.06.025c.202.087.47.265.488.572l.003.053a.426.426 0 0 1 .042-.093l.06-.099.1.057c.102.058.195.12.29.213l.05.05.01-.015h.145a.516.516 0 0 1-.127-.038l-.068-.028-.018-.302-.056.225-.137-.082c-.13-.077-.308-.172-.422-.319l-.025-.032v-.523l.193.157c.034.027.072.053.114.082.041.028.087.06.13.093a.6.6 0 0 1 .194.245l-.004-.081.616.39.047.006a.613.613 0 0 0 .235.006.217.217 0 0 0 .069-.06c.028-.033.05-.07.081-.116l.035-.052h.064c.095 0 .146.008.202 0h-.008a.513.513 0 0 1-.125-.016.305.305 0 0 1-.14-.074l-.03-.03-.004-.05-.14-.026a.791.791 0 0 1-.442-.273l-.014-.015-.007-.019a.265.265 0 0 1-.012-.038l-.216-.125a2.014 2.014 0 0 1-.488-.369l-.027-.03-.031-.464.19.105c.126.07.26.157.369.277l.01.011.001.001.001.001c.089.107.123.246.148.334l.04.138a.476.476 0 0 1 .047-.13l.058-.116.11.068c.1.062.236.138.344.242l.01.01.032.03v.009l.56.293-.166.232c.056-.033.1-.09.165-.169l.036-.042h.055c.024 0 .048 0 .07.002l.062.001a.31.31 0 0 0 .095-.011l.006-.002.006-.001a.062.062 0 0 0 .024-.014l-.045.009c-.097.019-.19-.001-.255-.014l-.095-.02V24.5a.2.2 0 0 1-.08.07l-.048.023-.05-.02a1.152 1.152 0 0 1-.284-.154.405.405 0 0 1-.164-.35l.007-.11h.111c.195 0 .346.13.441.224l.018.018.009.008.006.01a.467.467 0 0 1 .034.059v-.047l.423.18.028.255.008-.009c.046-.048.122-.127.248-.13l.167-.023.237-.208.262-.029a.119.119 0 0 0 .005-.003h-.363v-.106l-.084-.005a.597.597 0 0 1-.166-.035.718.718 0 0 1 .197.162l-.185.147a.37.37 0 0 0-.08-.072l-.17.068.002.013-.177-.07a1.757 1.757 0 0 1-.402-.223l-.047-.035v-.433l.166.073c.115.05.279.115.397.245l.005.006.026.03.019.236a.292.292 0 0 1 .005-.018c.014-.038.041-.085.048-.098l.052-.105a.656.656 0 0 1-.255-.366l-.01-.034-.004.005-.101.134-.088-.044c-.176-.087-.354-.211-.455-.394l-.014-.027v-.005a.206.206 0 0 1-.026-.117.335.335 0 0 1 .038-.126l.067-.133.115.095c.036.03.077.057.125.089.046.03.099.063.147.1.09.07.181.166.21.31h.11a.54.54 0 0 1 .307.108c.04.028.079.059.113.085.037.028.07.053.102.074l.055.034v.058h.076c.158 0 .26.113.315.183l.053.065a.483.483 0 0 1 .088-.066l.013-.008.014-.003a.446.446 0 0 1 .105-.015l.044-.001.04-.001c.05-.002.075-.008.094-.021l.008-.006.008-.004c.024-.012.047-.036.068-.08l.005-.009a.26.26 0 0 1-.12.09.548.548 0 0 1-.192.028h-.078l-.03-.071a.884.884 0 0 1-.042-.122l-.019.12-.133-.043c-.05-.017-.137-.04-.207-.073a.425.425 0 0 1-.209-.194l-.003-.007-.003-.008-.002-.007-.185-.057a1.06 1.06 0 0 1-.503-.357l-.012-.015-.007-.019c-.044-.126-.09-.25-.136-.375a.63.63 0 0 1 .004.073v.163l-.155-.05a.974.974 0 0 1-.49-.347l-.008-.011-.005-.012c-.057-.134-.107-.269-.156-.398a7.628 7.628 0 0 0-.087-.219ZM23.646 25.8a.523.523 0 0 1-.163.054h.142a.573.573 0 0 0 .031-.059l-.01.005Zm-15.237-.155-.077.05-.008.009-.03.035a.308.308 0 0 1-.067.055l.027.006.012.003.032.007.003.003.06-.046a1.91 1.91 0 0 1 .161-.105l-.02-.002a.206.206 0 0 1-.102-.04l.01.024Zm-.448.139h.009l-.003-.002-.014-.01.008.012Zm1.787-.105a1.632 1.632 0 0 0-.107.087l-.001.002a1.2 1.2 0 0 0 .108-.089Zm1.256-.134-.002.002-.003.002a5.528 5.528 0 0 0-.189.172l.13-.112.105-.103-.041.04Zm-3.203.03.012.016.05-.048v-.001l-.062.034Zm1.422-.079a1.024 1.024 0 0 0-.105.085.752.752 0 0 0 .105-.085Zm-1.712.054a.45.45 0 0 0 .066.004l.069-.002.077-.002h-.212Zm2.806-.92a.56.56 0 0 1-.11.366l-.002.002-.002.001c-.135.15-.317.27-.463.376l-.13.095-.052-.153a.31.31 0 0 1 .003-.234.798.798 0 0 1 .25-.336c.105-.086.225-.157.327-.218l.18-.107v.208Zm-2.998.594a.231.231 0 0 1-.124.09h-.002l.073.004.033.04c.02.022.038.046.054.067l.016.02a.23.23 0 0 1 .043-.178l-.027.015-.039-.096-.027.038Zm17.372.1a.313.313 0 0 1-.173.088h.095c.011-.003.023-.01.041-.033a.522.522 0 0 0 .035-.052l.002-.003Zm-13.67-.424-.092.081c-.134.118-.268.234-.398.356a22.755 22.755 0 0 0 .49-.437Zm-2.323.387a.586.586 0 0 0-.086.067.904.904 0 0 0 .086-.067Zm-1.764-.01c.016.012.03.02.044.025l.03.002a.865.865 0 0 1-.074-.027Zm2.825-.832c.013.077.041.242-.067.371l-.002.002-.001.001c-.136.15-.3.269-.463.357l-.175.095v-.198l-.002-.071a.799.799 0 0 1 0-.093.297.297 0 0 1 .097-.214c.146-.13.29-.23.429-.327l.153-.107.031.184Zm14.508-.168c.037.03.08.06.13.096.048.033.102.072.152.115a.589.589 0 0 1 .184.265l.026-.086.5.262-.15.261h-.07c-.11 0-.237-.015-.34-.139l-.041-.048V25l-.033-.003c-.196-.018-.335-.143-.427-.221l-.004-.003-.003-.003a.525.525 0 0 1-.127-.194.307.307 0 0 1 .027-.27l.072-.114.104.086Zm-16.024.756a1.193 1.193 0 0 0-.19.142H8.05a.869.869 0 0 0 .164-.108h.002v-.002a.103.103 0 0 0 .026-.032Zm-.304-.198a.351.351 0 0 1-.023.088l-.005.014-.01.013a.637.637 0 0 1-.201.165 1.75 1.75 0 0 1-.056.03.63.63 0 0 1 .107-.01h.061A.256.256 0 0 1 7.895 25l.012-.011c.048-.042.1-.084.157-.121l-.125.056v-.088Zm-1.136.25-.207-.01.15.026.024.02.007.006.22-.15a.409.409 0 0 1-.156.004l-.03-.005-.008.11Zm15.104-.961c.133.066.273.157.378.276.107.12.183.274.174.457l-.01.213-.176-.122a2.265 2.265 0 0 1-.39-.345.372.372 0 0 1-.108-.188c-.008-.03-.014-.061-.02-.087a.852.852 0 0 0-.014-.067l-.074-.257.24.12Zm-14.563.66c-.03.018-.057.04-.091.064a1.057 1.057 0 0 1-.014.01l.05.137a.22.22 0 0 1 .079-.191.803.803 0 0 1 .056-.046l-.028.015v-.025l-.052.035Zm15.123-.802c.1.074.234.168.338.285.106.12.192.272.183.465l-.01.218-.178-.128a3.489 3.489 0 0 1-.417-.372.35.35 0 0 1-.1-.207c-.008-.06-.004-.128-.004-.166v-.232l.188.137Zm-16.183.842-.343-.02c.03.014.07.017.144.026a.398.398 0 0 1 .24.095V24.9l.02-.03a.49.49 0 0 1 .113-.118.26.26 0 0 1-.175-.06v.133Zm9.5-4.401a1.27 1.27 0 0 1 .658-.06l.011.002h.003l.003.001c.213.053.448.098.662.169.133.044.26.102.383.161.117.057.227.113.342.165l.023.01.003.001.003.002c.597.303 1.142.705 1.666 1.107l.105.08.002.002.002.001c.27.23.572.458.826.71.107.1.225.194.346.294.12.098.242.202.351.317l.332.316v.001l.002.001c.052.052.08.112.1.166.016.048.03.11.041.148l.074.257-.24-.12c-.187-.093-.34-.245-.462-.367a28.457 28.457 0 0 0-1.174-1.072c-.123-.093-.231-.198-.332-.292a2.272 2.272 0 0 0-.31-.253l-.004-.002-.004-.003c-.503-.375-.981-.742-1.513-1.013l-.002-.001c-.186-.1-.367-.202-.546-.253-.125-.035-.267-.088-.38-.124a1.194 1.194 0 0 0-.35-.066c-.099.007-.202.004-.284.006a.864.864 0 0 0-.24.03l-.002.001h-.001c-.617.174-1.158.535-1.701.91l-.511.384c-.315.256-.636.48-.91.74l-.002.002-.653.552a5.048 5.048 0 0 1-.35.308c-.117.097-.226.19-.325.295l-.004.004-1.021.895v-.26c0-.045-.004-.116.004-.177a.31.31 0 0 1 .101-.199c.186-.198.399-.367.603-.53.218-.202.449-.393.678-.582.232-.19.463-.379.683-.577l.003-.003.004-.003.679-.524c.252-.222.544-.413.781-.597l.004-.002.004-.003c.562-.368 1.15-.782 1.839-.955Zm-7.205 4.13a1.26 1.26 0 0 1-.277.199.671.671 0 0 1 .068-.016l.122-.022a.468.468 0 0 1 .087-.16Zm4.512-1.542c-.272.203-.495.44-.768.683l-.999.924-.106.103c.095-.087.192-.174.29-.26.142-.14.289-.272.434-.401.147-.13.291-.257.429-.387.237-.222.476-.446.72-.662Zm9.874.817c.135.094.29.206.42.333l.013.012.005.005.004.005a.3.3 0 0 1 .06.193.837.837 0 0 1-.003.075.688.688 0 0 0-.003.055v.19l-.171-.085c-.234-.116-.51-.34-.51-.686V23.7l.185.13Zm-14.018.721c-.059.044-.116.09-.17.14l-.002.002h-.001l-.001.002.142-.113.001-.001a.22.22 0 0 0 .031-.03Zm-.744-.535c-.011.05-.025.107-.046.162a.473.473 0 0 1-.15.213 1.9 1.9 0 0 1-.245.18l.015-.007.162-.064v.188c.002-.094.016-.232.118-.333a1.548 1.548 0 0 1 .268-.208l-.122.079v-.21Zm-2.25.497-.074.014-.074.012-.075.025a.655.655 0 0 1-.1.025l.06.024.017.006.019.007.06.051.05-.063a.455.455 0 0 1 .116-.101Zm4.666-.665c-.013.043-.029.107-.05.164a.484.484 0 0 1-.106.178c-.127.127-.26.245-.412.335l-.153.091-.025-.175c-.014-.098-.024-.246.085-.358.137-.166.304-.285.497-.374l.234-.107-.07.246Zm-2.189.512a1.32 1.32 0 0 0-.216.173.972.972 0 0 0 .2-.147.208.208 0 0 0 .021-.03l-.005.004Zm14.302-1.316c.1.075.225.154.33.257a.423.423 0 0 1 .115.18l.028.084a.758.758 0 0 0 .024.066l.097.227v-.006a.299.299 0 0 0-.003-.044l-.051-.308.243.197c.035.029.073.056.114.086.04.029.085.06.127.093a.745.745 0 0 1 .221.262c.053.105.02.204-.014.27l-.061.122-.113-.078c-.135-.094-.29-.202-.402-.358a.298.298 0 0 1-.06-.178v-.039l-.247-.089a1.12 1.12 0 0 1-.452-.309l-.002-.002-.002-.003c-.066-.082-.139-.226-.072-.382l.06-.138.12.09ZM5.788 24.12v.002l-.009.01-.01.008a.74.74 0 0 1-.411.152l-.09.01v.054l-.09-.006.012.006.007.002.01.004.008.006a2.5 2.5 0 0 0 .197.117l.07-.138c.04.02.1.018.173-.006l.004.011.073-.031-.01-.097.046-.04c.058-.05.12-.095.185-.132l-.165.069Zm1.645-.424-.164.096-.202.12.01-.103a.375.375 0 0 1-.053.105l-.002.004-.003.004c-.13.144-.302.236-.466.295l-.056.02-.05-.033a.225.225 0 0 1-.05-.045l-.007.023a.42.42 0 0 1-.18.232l.074-.02v.05a.492.492 0 0 1 .18-.164.946.946 0 0 1 .31-.096l.127-.02a.59.59 0 0 1 .226-.278c.052-.036.106-.068.155-.097.052-.03.097-.055.137-.084l.014-.009Zm2.104-.151a.567.567 0 0 0-.006.051l-.006.068a.332.332 0 0 1-.068.17l-.001.001a2.106 2.106 0 0 1-.53.427l-.154.094-.025-.178c-.039-.267.172-.456.328-.556l.508-.353-.046.276Zm-1.733.709a5.078 5.078 0 0 0-.126.09c.044-.028.086-.058.126-.09Zm16.71-.9c.164.095.36.213.5.38l.006.008.024.028.03.432-.182-.086a1.38 1.38 0 0 1-.37-.236.547.547 0 0 1-.185-.43l.01-.193.168.098ZM4.703 24a.524.524 0 0 1-.018.037l-.034.061a.421.421 0 0 1 .154.1l.018-.035a.385.385 0 0 1 .093-.121c-.036.002-.07.001-.099.001h-.111L4.702 24Zm16.981-.712c.215.142.446.346.497.646l.04.238-.214-.116a1.49 1.49 0 0 1-.435-.37.269.269 0 0 1-.066-.179v-.064a.2.2 0 0 0-.003-.034l-.056-.278.237.157Zm-17.395.667a.311.311 0 0 0 .025.038c.019.026.049.044.101.058a.521.521 0 0 0 .02.005.498.498 0 0 1-.066-.034.336.336 0 0 1-.08-.067Zm3.515-1.896-.096.224-.001.004-.002.004c-.034.067-.075.183-.183.273H7.52l-.001.001c-.144.114-.32.232-.501.307l-.224.093.008-.027a.648.648 0 0 1-.158.193l-.001.001c-.141.112-.297.223-.49.271l-.136.034a.39.39 0 0 1-.126.166.958.958 0 0 1-.18.124l.138-.027a.34.34 0 0 1 .066-.093l.005-.005.006-.004c.132-.103.279-.19.423-.262l.061-.03.057.038a.2.2 0 0 1 .086.116.228.228 0 0 1-.002.117.48.48 0 0 1-.03.08.451.451 0 0 0-.023.05l-.01.025-.021.018c-.1.09-.212.16-.326.216l.046-.015.084-.025.082.123a.233.233 0 0 1 .007-.079.451.451 0 0 1 .089-.16l.006-.008.008-.006c.072-.063.149-.12.231-.171l-.059-.093a.304.304 0 0 1-.026-.27.445.445 0 0 1 .134-.188l.004-.003.004-.003c.142-.098.302-.2.464-.273l.223-.1-.06.235c-.02.087-.04.233-.153.345l.44-.288a1.506 1.506 0 0 1-.102.05l-.21.092.046-.222c.027-.138.075-.318.237-.43a2.325 2.325 0 0 1 .338-.246l-.174.093v-.197c0-.023.001-.046.003-.068Zm17.256 1.143c.098.06.23.132.335.227a.58.58 0 0 1 .209.408l.01.193-.177-.08a1.376 1.376 0 0 1-.457-.32l-.002-.002-.002-.002a.514.514 0 0 1-.096-.323v-.207l.18.106Zm-2.905-.067c.156.098.3.211.43.352l.012.014.002.003.002.002a.388.388 0 0 1 .074.167c.006.025.009.05.012.07l.008.049.046.229-.213-.1c-.253-.118-.52-.353-.554-.675l-.025-.242.206.13Zm-16.687.679a.832.832 0 0 1-.032.006l-.133.024a.48.48 0 0 1-.021.043l-.008.014-.012.011a.397.397 0 0 1-.058.048h.024l.052-.035c.06-.04.122-.078.188-.111Zm8.013-.096c-.068.058-.13.12-.193.187l.193-.187Zm2.286-4.044c.266-.058.534-.043.775-.043h.017c.585.084 1.113.314 1.628.568l.05.025c.874.449 1.674 1.05 2.439 1.658.103.077.241.17.348.29.048.05.058.11.062.146l.005.053a.307.307 0 0 0 .004.038l.053.263-.23-.14a3.001 3.001 0 0 1-.368-.275c-.116-.097-.222-.19-.334-.269l-.004-.002-.003-.003a14.77 14.77 0 0 0-1.946-1.345h-.002a5.074 5.074 0 0 0-2.114-.703c-.168.001-.342.061-.539.131l-.003.002H15.6a4.512 4.512 0 0 0-1.07.486l-.056.036c.386-.21.79-.386 1.21-.525l.005-.001.005-.002c.643-.145 1.323-.014 1.897.27.714.288 1.358.732 1.966 1.174l.059.042.002.002.001.001 1.118.89.005.004c.072.072.153.136.24.21.085.07.174.147.25.237a.36.36 0 0 1 .09.168.8.8 0 0 1 .014.073l.008.05.058.284-.24-.164a3.22 3.22 0 0 1-.323-.26c-.102-.09-.195-.176-.296-.257h-.001c-.121-.1-.237-.207-.347-.305a3.082 3.082 0 0 0-.34-.27l-.005-.003-.006-.005c-.553-.467-1.117-.891-1.748-1.246l-.002-.001-.002-.002a4.606 4.606 0 0 0-1.204-.525l-.524-.11h-.001a.737.737 0 0 0-.319.013c-.058.012-.115.027-.178.043-.06.015-.122.03-.186.04-.687.23-1.297.647-1.908 1.075-.996.702-1.893 1.512-2.843 2.304l-.115.096-.067-.133a.3.3 0 0 1-.001-.262.73.73 0 0 1 .113-.17l.006-.007.006-.006c.517-.458 1.08-.878 1.602-1.302.198-.168.431-.315.628-.459.14-.123.284-.241.432-.354-.343.247-.673.486-.992.745h-.002l-.737.582-.002.002-.002.001c-.093.066-.172.139-.268.218a1.37 1.37 0 0 1-.324.21l-.176.076.01-.19a.53.53 0 0 1 .198-.372c.048-.043.1-.08.147-.115.049-.035.091-.064.13-.096l.001-.001.002-.002 1.226-.928.002-.001c.264-.184.543-.415.838-.584.236-.166.49-.333.758-.474.432-.25.904-.493 1.424-.594Zm7.342 3.222a.382.382 0 0 1 .26.074c.061.042.114.098.151.135.155.123.204.297.244.444l.093.34-.655-.507-.002-.001-.002-.001a.472.472 0 0 1-.123-.17 1.429 1.429 0 0 1-.034-.08l-.029-.071-.063-.147.16-.016ZM9.757 13.614a222.562 222.562 0 0 0-2.892 4.741l-.002.004-.002.004a2.713 2.713 0 0 0-.159.265c-.048.09-.099.188-.156.28-.36.634-.707 1.296-1.055 1.96v.002a17.9 17.9 0 0 0-.868 1.874c-.03.121-.077.247-.111.355a1.088 1.088 0 0 0-.064.329c0 .137-.013.234.009.338l.002.01.001.005v.006c.002.007.005.018.032.035a.215.215 0 0 0 .018.01c.008-.034.013-.072.018-.116.01-.079.018-.182.049-.278.04-.175.084-.376.156-.563.238-.668.532-1.337.868-1.977.502-.998 1.046-1.968 1.588-2.936l.444-.815.001-.002.001-.002.486-.815c.139-.247.28-.5.436-.727.067-.099.124-.199.18-.302.057-.101.114-.208.178-.314l.001-.002.002-.002c.179-.275.348-.556.519-.84.105-.176.211-.352.32-.527Zm-.695 2.1-1.028 1.714-.445.76v.002c-.166.274-.322.556-.477.84-.153.282-.307.566-.467.844-.28.528-.57 1.049-.832 1.586h-.001v.002c-.195.374-.341.733-.527 1.117a3.01 3.01 0 0 0-.132.346c-.04.118-.079.243-.13.365a1.454 1.454 0 0 0-.092.515.26.26 0 0 0 .152-.049.492.492 0 0 0 .033-.107c.01-.046.023-.11.046-.172.05-.213.121-.413.196-.608.076-.2.154-.388.223-.586l.001-.005.002-.004c.42-.945.894-1.874 1.381-2.789.683-1.274 1.421-2.535 2.144-3.793v-.001c.138-.232.279-.45.385-.68l-.432.704Zm14.518-.702a157.34 157.34 0 0 1 1.781 3.492l.063.127v.001l.682 1.411v.002c.472 1.035.963 2.094 1.272 3.21.038.116.053.237.068.341.011.076.022.145.04.206a.142.142 0 0 0 .025-.007.042.042 0 0 0 .012-.006c.014-.238.024-.46-.049-.652l-.001-.004-.001-.003c-.22-.725-.524-1.41-.83-2.089-.949-2.05-1.997-4.044-3.062-6.029Zm4.183 8.712Zm-16.876-.711c0 .02.004.08 0 .127a.327.327 0 0 1-.067.181l-.002.003-.003.002c-.136.151-.301.27-.48.359l-.192.095.022-.212c.034-.343.326-.535.546-.658l.176-.098v.2Zm12.675-6.972a173.978 173.978 0 0 1 2.455 5.098l.078.17.002.005c.089.252.192.498.295.748.102.248.204.5.289.76.05.13.086.258.12.382.032.123.062.24.1.357.02.035.05.06.095.08a.529.529 0 0 0 .048.02l.003-.02c-.29-1.071-.78-2.09-1.239-3.124-.724-1.504-1.483-2.985-2.246-4.476Zm-13.166 6.88c-.024.084-.06.235-.175.332-.117.104-.26.246-.45.325l-.191.08.029-.206c.05-.354.367-.572.63-.673l.222-.086-.065.227Zm-3.397.52c-.058.038-.11.07-.16.101l.025-.012.011-.006.013-.003a.187.187 0 0 1 .093 0c.037.009.067.03.087.06a.17.17 0 0 1 .027.062.75.75 0 0 1 .057-.208H7.01l-.012.007Zm16.745-.704c.129.09.288.19.42.318l.013.013.005.005.004.005c.052.065.06.138.06.192 0 .027-.002.054-.003.075a.726.726 0 0 0-.003.055v.229l-.187-.133c-.09-.064-.219-.146-.317-.245a.552.552 0 0 1-.178-.424l.011-.212.175.122Zm-15.6.728a1.03 1.03 0 0 0-.139.11 1.582 1.582 0 0 0 .139-.11Zm6.033-.401a4.542 4.542 0 0 0-.372.336l-.17.17c.115-.11.232-.218.35-.325l.192-.181Zm-4.23-7.825a46.727 46.727 0 0 0-1.078 1.828l-.001.002-.002.003c-.235.372-.438.75-.664 1.13-.147.27-.304.538-.458.804a15.96 15.96 0 0 0-.444.809l-.585 1.094c-.36.704-.706 1.404-.995 2.131-.065.182-.13.338-.164.499a.73.73 0 0 0 .184-.117l.004-.004.005-.003a.174.174 0 0 0 .056-.083 1.11 1.11 0 0 0 .025-.076c.008-.025.017-.055.028-.085a2.18 2.18 0 0 1 .119-.33c.047-.107.093-.205.133-.312.238-.627.564-1.235.838-1.834l.001-.003.002-.003.514-.968.667-1.271c.238-.486.522-.94.767-1.386v-.002H8.9c.35-.608.696-1.217 1.046-1.823Zm-.105 7.474c.04.202-.084.351-.188.441-.122.12-.257.21-.404.282l-.17.085v-.19c0-.2.107-.34.226-.443a1.81 1.81 0 0 1 .184-.136c.062-.04.117-.075.166-.11l.15-.11.036.181Zm14.403-.143c.136.095.282.197.402.315.12.102.135.243.148.332l.032.223-.202-.1c-.225-.113-.53-.318-.566-.661l-.025-.255.21.146Zm.508-.156c.143.085.287.186.405.288.07.06.107.133.13.2.022.061.036.135.047.179l.077.305-.26-.18c-.131-.092-.298-.197-.419-.318a.471.471 0 0 1-.111-.185c-.018-.052-.034-.122-.044-.156l-.082-.286.257.153Zm-3.363.077c.218.101.5.31.5.646v.229l-.188-.133a1.821 1.821 0 0 1-.297-.25.67.67 0 0 1-.183-.372l-.024-.21.192.09Zm1.247-7.16a187.971 187.971 0 0 1 2.242 4.627l.073.156c.443.977.873 1.957 1.235 2.979a.957.957 0 0 0 .148.143c-.072-.218-.157-.434-.238-.666-.485-1.198-1.053-2.384-1.623-3.56-.57-1.202-1.18-2.39-1.793-3.593l-.044-.085ZM8.76 22.488c0 .07.007.212-.108.309a1.413 1.413 0 0 1-.496.34l-.193.074.034-.203c.004-.026.011-.09.022-.138a.358.358 0 0 1 .094-.175c.138-.136.304-.241.484-.316l.163-.067v.176Zm13.157-.114c.087.053.2.118.292.205a.581.581 0 0 1 .195.366l.019.168-.165-.04a.577.577 0 0 0-.035-.008l-.049-.01a.271.271 0 0 1-.12-.066c-.057-.05-.14-.117-.204-.196a.46.46 0 0 1-.113-.327l.014-.194.166.102Zm.963-.347c.057.05.12.094.192.147.066.049.137.104.2.172a.45.45 0 0 1 .139.203c.013.035.023.071.032.103.01.033.017.062.027.09l.12.356-.693-.516-.003-.003-.004-.002a.51.51 0 0 1-.143-.227 1.583 1.583 0 0 1-.032-.108c-.01-.034-.017-.063-.026-.09l-.14-.418.33.293Zm-12.735-6.132c-.247.416-.477.844-.718 1.27-.099.175-.205.344-.307.508a8.045 8.045 0 0 0-.29.498v.002l-.001.001a68.186 68.186 0 0 0-1.972 3.714c-.185.403-.374.786-.527 1.183.054-.035.108-.076.165-.12a.474.474 0 0 0 .13-.185c.038-.086.058-.16.099-.265v-.002l.002-.003c.474-1.081 1.017-2.148 1.56-3.185.099-.225.213-.424.321-.627l1.267-2.312.27-.477Zm5.445 3.437c.235-.086.47-.116.703-.102.16-.006.31.02.449.054.149.035.27.073.408.1.114.024.22.061.318.1.095.038.177.074.265.107l.017.006h.003l.003.002c1.013.42 1.925 1.034 2.787 1.67a.596.596 0 0 1 .302.394l.05.253-.225-.128a5.535 5.535 0 0 1-.574-.387c-.185-.139-.362-.277-.548-.407-.844-.578-1.732-1.107-2.724-1.35a3.351 3.351 0 0 0-.963-.027h-.006c-.09.006-.183.03-.284.064l-.153.054c-.05.019-.104.038-.156.055-.557.217-1.074.541-1.59.86a38.725 38.725 0 0 0-2.092 1.53l-.132.102-.053-.158-.011-.029a.496.496 0 0 1-.016-.044l-.086.194c-.055.121-.118.267-.234.381l-.002.003-.003.003a2.74 2.74 0 0 1-.393.289l-.2.119.022-.23c.033-.37.363-.634.668-.725l.22-.066a.186.186 0 0 1 .043-.16.846.846 0 0 1 .169-.16l.088-.063.082-.058c.945-.705 1.914-1.418 2.998-1.922h.001c.272-.122.546-.251.849-.324Zm6.813 2.91c.107.045.225.115.32.21a.58.58 0 0 1 .182.375l.011.185-.173-.069c-.228-.09-.47-.284-.504-.58l-.024-.201.188.08Zm-11.666-.119-.02.068c-.086.272-.337.43-.55.528l-.169.078v-.184c0-.062-.004-.18.088-.274.122-.137.272-.24.415-.325l.079-.048.157.157Zm12.702-.174.104.07c.035.022.072.046.108.072.072.05.146.107.21.178a.292.292 0 0 1 .075.171l.006.066c.001.02.002.032.004.042l.05.247-.222-.12a1.497 1.497 0 0 1-.453-.363l-.001-.001-.001-.001a.303.303 0 0 1-.055-.156l-.004-.054a.173.173 0 0 0-.003-.026l-.077-.305.26.18Zm-13.26.027c0 .033 0 .082-.009.131a.3.3 0 0 1-.079.157c-.135.15-.303.256-.447.36l-.165.12-.022-.201a.432.432 0 0 1 .165-.408c.123-.12.26-.195.381-.262l.176-.097v.2Zm12.754-4.965a115.078 115.078 0 0 1 1.623 3.5l.064.146v.001l.001.001c.148.361.32.72.459 1.092.064.134.116.267.167.398.049.128.095.253.147.377a.687.687 0 0 0 .152.146l-.295-.705c-.723-1.67-1.513-3.312-2.318-4.956Zm.995 4.778c.205.11.492.283.56.59l.044.195-.192-.056c-.265-.078-.534-.284-.585-.607l-.037-.233.21.111ZM9.62 17.868c-.352.645-.722 1.256-1.056 1.893-.322.626-.653 1.23-.943 1.849l-.001.001v.002c-.03.059-.065.116-.092.164a.852.852 0 0 0-.07.143c-.059.158-.135.31-.203.452a5.638 5.638 0 0 0-.065.14c.062-.04.123-.085.179-.13.058-.048.072-.097.12-.193.21-.5.448-.986.684-1.456v-.002a5.63 5.63 0 0 0 .185-.392c.059-.132.12-.268.192-.397l.472-.912v-.002c.189-.346.363-.733.586-1.094.091-.181.197-.363.297-.541.103-.182.201-.36.282-.542l.002-.004.002-.004.095-.178-.666 1.203Zm.028 3.997a.52.52 0 0 1-.2.37l-.082.066a1.13 1.13 0 0 1-.102.078.443.443 0 0 1-.287.087l-.149-.014.048-.14c.1-.298.361-.469.61-.57l.187-.077-.025.2Zm-.516-.13c-.07.343-.391.515-.628.612l-.163.067v-.176c0-.078.014-.2.102-.288.14-.155.338-.274.53-.347l.2-.077-.041.21Zm12.02.036c.077.035.173.082.254.15.084.07.156.168.175.3l.012.084-.076.038a.245.245 0 0 1-.231-.012c-.048-.026-.1-.07-.115-.082-.139-.1-.171-.254-.186-.354l-.03-.212.196.088Zm.524-.133c.095.054.208.118.306.23a.24.24 0 0 1 .06.16.708.708 0 0 1 0 .064v.252l-.178-.1c-.09-.052-.242-.134-.33-.256l-.018-.026-.034-.434.194.11Zm.489-.155c.034.027.073.054.122.088.046.032.098.07.144.112.096.09.18.216.151.395l-.032.19-.156-.116c-.103-.077-.24-.169-.346-.274a.265.265 0 0 1-.071-.183v-.064a.2.2 0 0 0-.003-.034l-.065-.322.256.208Zm-10.684.219-.021.027a1.172 1.172 0 0 1-.416.31l-.15.074-.02-.165c-.022-.167.068-.283.163-.36.047-.04.1-.072.147-.101.05-.03.092-.054.13-.08l.206-.136-.04.431Zm11.143-.367c.119.07.306.157.41.335a.213.213 0 0 1 .054.14c0 .059-.023.11-.055.153l-.074.098-.096-.078c-.035-.029-.073-.056-.119-.09a1.41 1.41 0 0 1-.133-.108.475.475 0 0 1-.166-.35v-.207l.179.107Zm-11.599.038a.529.529 0 0 1-.202.37 1.56 1.56 0 0 1-.322.199l-.182.09.011-.202a.524.524 0 0 1 .198-.374c.1-.087.225-.148.33-.196l.179-.083-.012.197Zm11.912-3.187c.534 1.177 1.072 2.35 1.559 3.543l.026.064.002.004.001.005a.44.44 0 0 0 .155.21v-.002c-.04-.09-.099-.205-.14-.31h-.001v-.002c-.126-.331-.272-.62-.416-.963-.387-.851-.784-1.7-1.186-2.549Zm.194 2.987c.042.03.088.057.142.091.052.033.107.07.159.113a.53.53 0 0 1 .209.385l.009.179-.17-.063a1.046 1.046 0 0 1-.352-.212.544.544 0 0 1-.183-.396v-.225l.186.128Zm-12.557-.035-.056.157c-.1.284-.364.44-.576.538l-.196.09.029-.212c.036-.268.263-.43.446-.529a.309.309 0 0 1 .17-.044h.183Zm-.242-3.512c-.177.323-.354.648-.53.974-.175.32-.35.694-.543 1.024-.071.141-.154.277-.228.405a2.93 2.93 0 0 0-.197.397l-.002.006-.002.005-.612 1.23v.001l-.068.126a2.643 2.643 0 0 0-.04.077 1.01 1.01 0 0 0 .21-.197c.063-.108.115-.225.168-.347.053-.122.107-.251.172-.374l.723-1.437v-.001c.318-.62.622-1.258.95-1.889Zm6.421-9.768a1.909 1.909 0 0 0-.47.013c-.368.076-.695.32-1.013.594-.6.543-1.066 1.21-1.525 1.874v.001c-.513.729-.97 1.5-1.429 2.262-.166.269-.322.54-.479.814-.155.272-.313.546-.48.817l-1.278 2.252-1.266 2.31c-.082.154-.162.295-.236.444.274-.496.567-.992.836-1.484l1.057-1.91c.82-1.425 1.629-2.852 2.492-4.25v-.001c.203-.322.39-.663.628-.972.086-.147.18-.287.275-.422.097-.138.192-.27.281-.406l.003-.004.002-.004c.218-.283.434-.598.705-.868.271-.283.55-.604.916-.808.234-.137.51-.28.825-.252.377-.026.702.163.962.351l.028.02.003.003c.54.454.956 1.04 1.323 1.604l.036.055c.685 1.083 1.262 2.208 1.833 3.332l.245.482v.002c1.092 2.224 2.184 4.463 3.213 6.715l.1.218v.004c.135.319.294.639.42.97.028.071.058.134.09.203-.136-.365-.294-.692-.449-1.069-.68-1.56-1.416-3.08-2.154-4.615l-.89-1.825v-.002a11.17 11.17 0 0 0-.262-.519c-.09-.17-.181-.34-.265-.516-.599-1.176-1.194-2.332-1.9-3.433v-.002l-.002-.001a8.007 8.007 0 0 0-.752-1.035c-.264-.289-.517-.553-.834-.75-.19-.108-.376-.191-.58-.191h-.007Zm4.098 13.2c.215.05.43.218.466.472l.03.204-.193-.08c-.175-.072-.39-.203-.446-.456l-.038-.181.18.041ZM16.453 6.503h-.002c-.395.025-.774.243-1.102.5v.001h-.002c-.515.392-.939.894-1.341 1.405l-.002.002-.002.002c-.094.107-.178.22-.263.338-.083.115-.168.234-.26.347a41.51 41.51 0 0 0-1.205 1.818l-.945 1.507-.723 1.202-.886 1.46c-.115.255-.272.498-.406.725l-.754 1.309c.034-.057.07-.114.105-.17.389-.691.793-1.384 1.225-2.063l1.195-2.004v-.001c.751-1.217 1.504-2.437 2.327-3.616.488-.693 1.008-1.393 1.629-1.982l.034-.033h.017c.326-.281.712-.588 1.188-.689h.004l.003-.001c.18-.028.371-.03.559-.017l.038.002h.005l.005.001c.282.045.53.188.75.337l.021.014.002.001.001.001c.43.315.787.726 1.108 1.143.268.337.493.687.716 1.046.298.432.547.895.81 1.33l.026.043.001.002.001.002a137.23 137.23 0 0 1 2.248 4.237l.314.607v.001c.611 1.202 1.224 2.394 1.795 3.599.451.93.903 1.87 1.314 2.821a9.61 9.61 0 0 1-.125-.333 173.6 173.6 0 0 0-5.183-10.335c-.57-1.036-1.164-2.067-1.867-3.014-.432-.54-.877-1.06-1.463-1.364l-.003-.002-.002-.001c-.212-.124-.467-.177-.732-.191l-.173.013Zm-6.431 14.615c-.07.276-.325.436-.516.544l-.05.03-.055-.024a.186.186 0 0 1-.109-.115.203.203 0 0 1 .006-.13.413.413 0 0 1 .094-.14c.123-.122.286-.274.495-.31l.178-.028-.043.173Zm10.786-8.832c.17.326.339.654.506.981l.117.231 1.67 3.32v.001a125.64 125.64 0 0 1 2.26 4.808c-.2-.474-.41-.944-.623-1.414l-.073-.155a188.065 188.065 0 0 0-3.857-7.772Zm.55 8.612a.96.96 0 0 1 .279.172.459.459 0 0 1 .155.338v.214l-.182-.115c-.063-.04-.175-.1-.257-.169a.402.402 0 0 1-.159-.339l.011-.164.152.063Zm-5.442-2.014a1.614 1.614 0 0 1 .633.003c.088.016.166.032.248.038.123.001.233.034.33.067.098.034.175.065.257.084l.017.004h.003l.004.002c.358.1.7.255 1.019.407.466.205.896.49 1.319.742l.04.025.006.003.004.003c.102.074.206.14.316.213.108.071.22.146.328.233.1.079.138.198.161.255l.107.267-.264-.115a1.832 1.832 0 0 1-.333-.198c-.105-.075-.194-.145-.297-.213l-.595-.385c-.49-.28-.952-.563-1.47-.766a5.867 5.867 0 0 0-1.26-.351c-.264 0-.479-.025-.687.048l-.004.002h-.005c-.08.023-.163.038-.236.053-.075.015-.143.03-.21.055-.297.126-.579.233-.849.38l-.003.002-.003.002c-.257.12-.498.28-.754.436l-.002.001-.001.001c-.384.218-.754.477-1.117.727-.234.168-.48.393-.787.524l-.242.103.083-.248a.58.58 0 0 1 .178-.276c.366-.294.779-.536 1.146-.779.311-.239.67-.426.98-.613l.002-.001.002-.001a7.368 7.368 0 0 1 1.612-.675l.004.014-.001-.017c.107-.014.205-.036.32-.056Zm5.908 1.866c.076.037.192.09.283.162a.404.404 0 0 1 .171.351l-.009.15-.143-.045a.663.663 0 0 1-.471-.49l-.047-.236.216.108Zm.5-.139c.11.055.215.113.307.188l.008.007.005.003.003.004a.54.54 0 0 1 .103.152l.032.07.027.058.144.287-.297-.127a1.179 1.179 0 0 1-.309-.182.535.535 0 0 1-.193-.34l-.027-.218.198.098Zm-10.505.196a.47.47 0 0 1-.17.326 1 1 0 0 1-.278.162l-.2.083.071-.392.017-.022a.653.653 0 0 1 .192-.163c.06-.037.142-.076.193-.104l.19-.105-.015.215Zm11.868.373a.513.513 0 0 0 .11.152 6.532 6.532 0 0 0-.018-.037l-.002-.004-.001-.004c-.258-.624-.542-1.237-.825-1.86l.736 1.753Zm-12.332-.513c-.084.286-.32.43-.52.528l-.195.098.026-.217a.546.546 0 0 1 .208-.356c.099-.083.219-.144.315-.192l.243-.12-.077.259Zm-.656-2.659c-.146.265-.29.529-.422.796v.002l-.002.002c-.346.634-.664 1.28-.998 1.93-.057.135-.125.266-.19.393l-.045.09a.73.73 0 0 0 .253-.324l.002-.005.267-.558v-.001c.41-.836.813-1.674 1.232-2.5l-.097.175Zm9.983 2.403c.04.026.076.045.126.075a.75.75 0 0 1 .134.098l.009.008.004.004.004.006c.04.048.062.1.078.143l.02.06a.788.788 0 0 0 .017.048l.141.351-.316-.21c-.07-.046-.18-.11-.26-.186a.277.277 0 0 1-.102-.15.658.658 0 0 1-.018-.064.327.327 0 0 0-.012-.041l-.142-.352.317.21Zm-9.85.119a.466.466 0 0 1-.208.352c-.1.073-.222.124-.306.162l-.192.088.025-.208a.513.513 0 0 1 .204-.348c.099-.078.218-.128.319-.164l.168-.06-.01.178Zm10.246-.276c.26.037.409.255.483.448l.121.312-.29-.168c-.157-.091-.372-.21-.443-.44l-.055-.178.184.026Zm-5.016-1.784a.905.905 0 0 1 .263-.002c.04.004.08.01.118.015.034.005.065.01.096.012l.013.002h.007l.007.002c.305.066.657.111.972.225.123.036.241.082.355.129.11.044.214.088.321.127l.022.007.008.003.007.004c.144.075.285.138.433.209.144.07.29.143.434.236.254.133.514.269.761.43l.026.018.002.001c.032.024.07.046.116.071.043.025.092.053.138.085.093.065.19.16.211.311l.03.226-.472-.248-.005-.003c-.801-.536-1.652-1.013-2.567-1.312-.377-.087-.71-.203-1.063-.19h-.004c-.182 0-.323-.012-.456.024h-.004c-.803.19-1.556.557-2.259.996h-.001c-.321.195-.637.386-.925.59l-.003.002-.002.002c-.145.092-.31.21-.484.297l-.23.114.063-.248a.486.486 0 0 0 .007-.035.464.464 0 0 1 .01-.052.272.272 0 0 1 .07-.134l.007-.007.383-.268.002-.002h.002c.572-.375 1.16-.723 1.776-1.03.328-.184.67-.311 1.016-.436l.007-.002.008-.002c.243-.053.516-.124.784-.167Zm5.501 1.62c.2.05.38.188.434.42l.055.236-.47-.22-.01-.008a.36.36 0 0 1-.108-.155c-.01-.024-.017-.048-.023-.067a.716.716 0 0 0-.016-.048l-.086-.213.224.055Zm-9.52-.028a.201.201 0 0 1 .02.23c-.027.052-.073.096-.098.12-.08.08-.186.136-.254.18l-.184.123v-.22l-.001-.038a.533.533 0 0 1 0-.057.23.23 0 0 1 .064-.154l.009-.009c.094-.09.201-.151.294-.204l.087-.05.064.079Zm10.727.248c.029.066.054.142.075.197.023.06.046.11.078.153a.33.33 0 0 0 .033.037c-.107-.254-.223-.499-.334-.75l-.565-1.293.713 1.656Zm-11.886-1.543c-.267.521-.535 1.034-.787 1.558l-.001.001c-.022.044-.046.087-.068.127l-.044.083a.316.316 0 0 0 .106-.128l.001-.003.001-.002.792-1.636Zm.764 1.235c-.071.247-.295.39-.489.465l-.172.065.012-.183a.451.451 0 0 1 .192-.337 1.22 1.22 0 0 1 .3-.152l.222-.085-.065.227Zm9.08-.063.139.45-.218-.073c-.147-.049-.318-.17-.357-.365l-.045-.221.48.209Zm-4.915-9.135c.23-.186.553-.349.893-.276l.016.004h.003c.267.073.507.218.694.42.276.275.497.604.705.92l.088.135.002.003.002.003c.55.965 1.015 1.978 1.46 2.978l.089.2v.001l1.183 2.74.722 1.726c.04.082.038.163.038.215v.2l-.175-.098c-.113-.062-.299-.15-.373-.35l-1.292-3.193c-.517-1.193-1-2.402-1.622-3.544l-.002-.003-.001-.002a6.299 6.299 0 0 0-.709-1.098c-.22-.26-.46-.505-.764-.594a6.761 6.761 0 0 0-.1-.007c.045.004.09.01.136.022l.017.005.01.002.01.005c.336.16.595.443.804.73l.02.027v.001c.48.687.845 1.457 1.193 2.203l.03.064c.309.658.591 1.33.861 2.013.145.289.255.594.368.874l.023.056.779 1.91v.002l.166.464-.23-.076a.593.593 0 0 0-.053-.014c-.02-.005-.046-.01-.07-.018a.274.274 0 0 1-.16-.11 1.134 1.134 0 0 1-.14-.278l-.048-.14a3.204 3.204 0 0 0-.046-.13 27.366 27.366 0 0 1-.377-.951c-.121-.32-.242-.64-.374-.957v-.002c-.474-1.19-.944-2.374-1.539-3.502a6.329 6.329 0 0 0-.49-.827c-.2-.255-.378-.493-.629-.631-.197-.098-.388-.168-.557-.105l-.004.002-.004.001c-.47.14-.797.547-1.09.965h-.001a11.23 11.23 0 0 0-.632 1.01c-.099.197-.208.386-.313.572a7.162 7.162 0 0 0-.296.57v.002l-.446.9-1.153 2.472c-.064.155-.138.31-.212.462-.075.155-.15.308-.219.465l-.001.003-.002.002-.143.285-.005.008c-.094.13-.242.183-.347.221l-.22.082.123-.427 1.354-2.79.162-.332a49.25 49.25 0 0 1 1.176-2.315c.27-.496.541-.983.852-1.445l.03-.045c.251-.374.524-.747.886-1.036h.001c.13-.1.265-.19.419-.252l.016-.006.017-.002a2.35 2.35 0 0 1 .273-.014 1.608 1.608 0 0 0-.303.01c-.404.143-.717.487-.992.843l-.001.001c-.507.627-.876 1.347-1.283 2.06l-.027.048c-.571 1.033-1.075 2.115-1.61 3.18-.182.416-.394.825-.585 1.232l-.61 1.283c-.079.2-.257.422-.524.458l-.176.023.046-.17c.06-.222.163-.413.26-.591l.805-1.644v-.001l.001-.001c.636-1.225 1.239-2.492 1.906-3.723l.071-.13c.354-.65.724-1.3 1.13-1.925l.03-.045c.245-.374.522-.752.857-1.074h-.035l.258-.21Zm-.252 7.002c.32-.071.642-.057.925-.057.178 0 .348.045.487.07.137.009.267.043.388.079.12.035.227.072.338.098l.022.005.006.001.005.002c.478.154.957.35 1.409.588.21.105.442.207.644.348a.27.27 0 0 1 .115.106l.027.048a.258.258 0 0 0 .02.03l.12.16v-.068h.118c.118 0 .206.054.27.12a.96.96 0 0 1 .14.203l.096.172-.056-.153.223.063a.733.733 0 0 1 .306.16l.009.009.006.005.005.007a.52.52 0 0 1 .09.227l.042.205-.197-.071a.662.662 0 0 1-.4-.377l-.262-.077a.875.875 0 0 1-.237-.1.323.323 0 0 1-.153-.262l-.233-.036a.94.94 0 0 1-.291-.102 2.863 2.863 0 0 1-.123-.068c-.04-.023-.076-.045-.112-.064-.675-.37-1.372-.683-2.093-.86-.117-.014-.23-.043-.332-.068a1.74 1.74 0 0 0-.294-.054h-.003c-.08-.008-.163-.023-.228-.032a.837.837 0 0 0-.195-.01h-.005c-.71.04-1.387.334-2.041.64-.211.1-.413.216-.616.335-.2.117-.402.239-.61.35a.358.358 0 0 1-.281.043l-.189-.038.119-.15c.09-.115.204-.19.313-.251.115-.065.212-.109.312-.175l.006-.004.87-.447.004-.002c.272-.121.56-.264.86-.363l.004-.002.004-.001c.105-.026.203-.062.311-.098.104-.034.216-.068.337-.084Zm1.348-11.959c-.305-.096-.614-.003-.953.11-.501.197-.9.578-1.32.968-.702.74-1.323 1.577-1.905 2.445l-.001.002c-.13.184-.254.379-.382.578a13.1 13.1 0 0 1-.396.596c-.61.953-1.208 1.905-1.79 2.872l-.002.002-.001.002c-.18.274-.349.556-.52.84-.17.282-.34.567-.522.845-.06.1-.114.201-.172.306a4.312 4.312 0 0 1-.192.32v.001c-.15.216-.286.46-.426.71v.001l-.487.816-.251.46.24-.411.001-.001 1.03-1.716 1.419-2.31c.903-1.48 1.808-2.962 2.826-4.39.182-.292.414-.568.614-.847l.002-.002.002-.002c.486-.608.995-1.228 1.634-1.709l.032-.023h.014c.334-.244.737-.456 1.192-.443.558-.028 1.044.27 1.425.607.26.19.467.444.671.687l.04.048h.001c.397.474.73.983 1.057 1.488l.065.101V8.8c.698 1.11 1.325 2.247 1.938 3.396.574 1.038 1.112 2.077 1.657 3.114l.11.207v.001c.798 1.561 1.597 3.11 2.36 4.685l-.027-.059-.68-1.408-.063-.127a159.491 159.491 0 0 0-2.008-3.923v-.001h-.001c-.584-1.147-1.194-2.265-1.793-3.387-.614-1.068-1.194-2.153-1.898-3.156l-.002-.002-.001-.003a9.908 9.908 0 0 0-.99-1.284c-.441-.467-.934-.884-1.534-1.001l-.007-.001-.006-.003Zm-.88 12.276c.304 0 .678-.03 1.005.074.115.034.23.06.348.09.117.03.236.062.353.105.684.232 1.326.568 1.948.916l.064.036.003.002c.026.017.056.033.095.054.035.02.077.043.117.07.08.058.164.144.174.283l.015.19-.178-.072a2.645 2.645 0 0 1-.355-.185c-.113-.068-.215-.133-.323-.194-.439-.225-.841-.466-1.275-.628-.103-.03-.201-.07-.293-.106a2.52 2.52 0 0 0-.282-.099c-.108-.022-.221-.059-.318-.086a1.105 1.105 0 0 0-.294-.05h-.007c-.122-.007-.24-.033-.342-.055a1.48 1.48 0 0 0-.281-.04l-.638.107c-.884.231-1.69.692-2.482 1.162l-.004.002-.004.002c-.102.051-.196.12-.31.195-.11.072-.235.147-.379.187l-.276.076.142-.248a.798.798 0 0 1 .278-.291l.778-.47a7.717 7.717 0 0 1 2.016-.897c.206-.069.446-.145.706-.13Zm5.797 1.24a105.718 105.718 0 0 1 .246.606.69.69 0 0 0 .072.131c-.023-.056-.05-.115-.079-.182l-.24-.555Zm-9.45.127a.336.336 0 0 1-.153.304c-.079.058-.183.1-.25.13l-.2.09.034-.215c.038-.25.266-.367.416-.412l.141-.042.011.145ZM11 19.661l-.001.002-.002.003a5.467 5.467 0 0 0-.127.244.61.61 0 0 0 .094-.163l.001-.004.199-.417-.164.335Zm5.91-14.458h.008l.008.003c.693.146 1.243.641 1.69 1.128l.022.024c.456.498.843 1.049 1.213 1.608.29.405.543.85.8 1.275l.052.085v.001c.878 1.47 1.686 2.965 2.492 4.473l.238.44c.92 1.71 1.836 3.426 2.694 5.175-.878-1.813-1.827-3.592-2.778-5.366a164.469 164.469 0 0 0-1.696-3.11c-.584-1.037-1.18-2.072-1.832-3.064l-.043-.064c-.445-.668-.928-1.325-1.523-1.864h-.001c-.381-.353-.803-.651-1.294-.744h-.054.004Zm-.585 6.663a.609.609 0 0 1 .347-.022l.012.003h.002l.001.001c.334.106.585.382.777.625l.019.025c.328.44.569.933.804 1.415l.025.05c.24.482.446.987.658 1.486l.044.103v.003c.235.59.488 1.176.71 1.771.207.52.432 1.04.601 1.585l.047.152h-.36l-.036-.05c-.136-.196-.21-.419-.279-.623-.445-1.19-.875-2.375-1.373-3.533-.307-.678-.607-1.33-1.056-1.912-.197-.247-.458-.45-.766-.48-.28.04-.53.2-.722.417l-.007.008.013-.014c.179-.192.412-.35.7-.383h.018c.377.016.642.292.826.545.189.237.333.497.476.759l.062.113.001.002.002.003c.55 1.13 1.003 2.314 1.443 3.49l.19.509.002.004c.032.118.078.228.125.352.046.12.09.25.114.395l.035.22-1.137-.54h-.001a6.36 6.36 0 0 0-1.065-.407c-.38-.112-.724-.216-1.078-.216-.321 0-.603-.027-.877.038-.943.217-1.82.666-2.682 1.15l-.267.15.167-.497.002-.006.002-.005a229.97 229.97 0 0 1 1.879-4.028l.001-.003.002-.003c.21-.381.422-.796.687-1.173-.283.4-.517.834-.756 1.269-.126.27-.262.535-.393.795-.132.262-.259.522-.368.787l-.001.002-.001.002-.974 2.13c-.057.129-.098.24-.157.375a2.19 2.19 0 0 1-.196.37.321.321 0 0 1-.168.146.207.207 0 0 1-.26-.092l-.025-.045.015-.048c.032-.1.077-.195.123-.283.048-.09.093-.17.133-.257.473-1.037.947-2.09 1.463-3.116.207-.413.417-.845.64-1.248.197-.376.407-.738.646-1.088.237-.374.51-.764.891-1.04l.008-.006.01-.005c.078-.039.178-.093.282-.127Zm.177.862a.879.879 0 0 0-.511.275v.015l-.034.034c-.43.441-.712 1.016-1.022 1.576a226.867 226.867 0 0 0-1.83 3.921c.764-.418 1.562-.803 2.417-1.007l.046-.011c.31-.073.64-.044.93-.044.347 0 .68.089 1.007.185l.14.04.001.001c.362.11.745.237 1.102.422l.704.334a3.577 3.577 0 0 0-.042-.116c-.043-.114-.094-.237-.13-.367-.501-1.34-1-2.688-1.621-3.966-.168-.307-.316-.586-.516-.839l-.002-.002-.001-.002c-.176-.242-.38-.433-.638-.449Zm.466-5.537a1.47 1.47 0 0 0-.96.09h-.003c-.587.265-1.046.732-1.475 1.229-.51.588-.936 1.232-1.368 1.883-.805 1.2-1.526 2.442-2.264 3.688-.612 1.023-1.194 2.058-1.793 3.096-.252.459-.52.884-.752 1.358.088-.159.177-.317.267-.476.092-.176.194-.344.297-.51.103-.167.206-.33.302-.5.303-.535.598-1.094.933-1.622l1.39-2.378.002-.002c.37-.601.724-1.232 1.113-1.827.307-.5.629-.973.947-1.455l.001-.001.001-.002c.46-.65.938-1.295 1.531-1.857h.001v-.001c.352-.321.764-.633 1.274-.708h.003a1.58 1.58 0 0 1 1.066.28c.274.165.496.392.703.611l.042.044.002.002.001.001c.436.5.798 1.048 1.15 1.593l.071.11.002.002c.381.64.743 1.293 1.093 1.95-.24-.455-.483-.909-.728-1.362-.515-.871-1.036-1.744-1.72-2.479-.345-.33-.701-.627-1.129-.757Zm-9.52 9.728c-.115.183-.227.362-.328.545l.34-.565-.013.02Zm8.879-11.716a1.923 1.923 0 0 0-.502.155h-.001l-.002.001c-.613.265-1.083.757-1.56 1.245-.993 1.112-1.809 2.362-2.644 3.609a129.98 129.98 0 0 0-2.362 3.73l-.003.005-.003.005a4.982 4.982 0 0 0-.257.392c-.08.132-.161.27-.253.403l-.929 1.558a5.97 5.97 0 0 1-.069.125 223.071 223.071 0 0 1 4.318-6.844l.035-.055c.367-.563.76-1.09 1.136-1.623l.001-.002.002-.002c.457-.593.921-1.195 1.485-1.714.425-.437.958-.826 1.586-.971l.004-.001h.005a1.98 1.98 0 0 1 .127-.016h-.114Zm-6.313 8a192.054 192.054 0 0 0-.056.092l.056-.091Zm5.74-.292c-.103.117-.2.239-.29.364.09-.123.186-.241.29-.352v-.012Zm.864-.838a.368.368 0 0 0-.218.016c-.08.027-.158.068-.243.11a2.353 2.353 0 0 0-.383.36 1.37 1.37 0 0 1 .71-.328l.011-.002.013.001c.29.022.534.162.73.338-.18-.22-.38-.418-.62-.495Zm.131-.638a1.155 1.155 0 0 0-.39-.01 1.54 1.54 0 0 0-.344.213 2.76 2.76 0 0 0-.308.289c.17-.143.363-.26.587-.327.266-.097.536.015.726.108l.02.01h.002c.115.064.217.144.309.232-.174-.216-.37-.402-.602-.515Zm-.085-.675c-.192-.045-.393.019-.574.134l-.115.092c-.15.121-.288.255-.418.399.191-.18.41-.334.667-.421l.01-.004.01-.001c.172-.027.342-.018.493-.006l.063.005h.012l.01.004c.27.075.49.245.673.43a3.297 3.297 0 0 0-.245-.275l-.002-.002-.002-.002a1.232 1.232 0 0 0-.582-.353Zm.001-.66c-.168 0-.3-.011-.424.045h-.002c-.18.077-.348.193-.491.335l-.002.002h-.001a7.692 7.692 0 0 0-.253.246c.145-.129.303-.244.477-.337a1.133 1.133 0 0 1 1.083-.03c.185.087.356.206.505.347a3.018 3.018 0 0 0-.434-.425c-.147-.105-.302-.183-.458-.183Zm-.077-.664c-.376-.025-.718.217-1.007.505l-.002.002-.002.001a4.49 4.49 0 0 0-.179.174c.14-.127.29-.242.459-.335.148-.08.328-.181.53-.181.093 0 .212-.007.317-.002a.873.873 0 0 1 .345.082c.252.107.466.27.655.458-.112-.13-.23-.25-.352-.36-.232-.204-.48-.356-.751-.344h-.012Zm.198-.669c-.364-.081-.755.086-1.074.351a5.245 5.245 0 0 0-.391.365c.325-.282.712-.506 1.16-.572h.01c.194-.015.384.04.543.092l.032.01.003.001.004.002c.275.112.512.285.72.484a3.449 3.449 0 0 0-.421-.422 2.125 2.125 0 0 0-.585-.31Zm-.202-.674c-.236-.023-.457.082-.693.22h-.001l-.001.001c-.266.148-.48.365-.704.6.103-.094.211-.185.324-.27a2.09 2.09 0 0 1 .798-.368l.012-.002h.527l.013.003c.459.107.837.394 1.146.709a4.775 4.775 0 0 0-.564-.572c-.262-.19-.536-.344-.836-.32h-.02Zm.765-.421c-.258-.18-.59-.28-.904-.243-.435.064-.801.332-1.145.647a7.82 7.82 0 0 0-.466.483 5.86 5.86 0 0 1 .278-.268V8.29l.002-.001c.32-.277.688-.56 1.124-.649h.005c.178-.03.353-.03.525-.016.258.001.482.104.675.212l.018.01.002.002.002.001c.32.199.576.457.82.722a7.93 7.93 0 0 0-.233-.28c-.224-.237-.435-.46-.696-.615l-.004-.002-.003-.002Zm-.488-.893a2.482 2.482 0 0 0-.536.013c-.424.09-.777.373-1.112.664l-.033.03h-.01a8.147 8.147 0 0 0-.402.415c.329-.332.698-.634 1.139-.834a1.706 1.706 0 0 1 1.102-.108l.018.004h.003l.004.002c.476.143.862.467 1.204.792a4.405 4.405 0 0 0-.71-.667c-.217-.149-.433-.273-.667-.31Zm1.006-.126c-.368-.325-.797-.576-1.265-.551h-.01c-.39-.013-.753.176-1.08.42l-.031.023h-.013a6.35 6.35 0 0 0-.808.75c.17-.17.35-.33.542-.477.34-.267.766-.52 1.233-.55l.18-.013.007-.001h.008c.287.015.585.072.844.222.387.202.714.488 1.007.803-.199-.237-.382-.454-.606-.619l-.005-.003-.003-.004Zm-.982-1.216a2.48 2.48 0 0 0-.53.013c-.567.132-1.06.488-1.468.907l-.003.002-.002.002c-.098.09-.193.183-.285.278.375-.349.776-.707 1.274-.902l.003-.001.003-.001c.326-.108.708-.234 1.096-.114.624.124 1.127.53 1.552.963a7.828 7.828 0 0 0-.083-.091c-.44-.48-.945-.923-1.557-1.056Z"/>
  <defs>
    <linearGradient id="a" x1="4.545" x2="28" y1="24.274" y2="23.735" gradientUnits="userSpaceOnUse">
      <stop stop-color="#8DF2EC"/>
      <stop offset="1" stop-color="#E4A0A1"/>
    </linearGradient>
    <linearGradient id="b" x1="4.545" x2="28" y1="24.274" y2="23.735" gradientUnits="userSpaceOnUse">
      <stop stop-color="#8DF2EC"/>
      <stop offset="1" stop-color="#E4A0A1"/>
    </linearGradient>
  </defs>
</svg>
