<svg width="88" height="88" viewBox="0 0 88 88" fill="none" xmlns="http://www.w3.org/2000/svg">
<g clip-path="url(#clip0_5_1031)">
<g clip-path="url(#clip1_5_1031)">
<path d="M0 44C0 25.2354 0 15.8531 4.95952 9.38972C6.23633 7.72575 7.72575 6.23633 9.38972 4.95952C15.8531 0 25.2354 0 44 0C62.7646 0 72.1469 0 78.6103 4.95952C80.2742 6.23633 81.7637 7.72575 83.0405 9.38972C88 15.8531 88 25.2354 88 44C88 62.7646 88 72.1469 83.0405 78.6103C81.7637 80.2742 80.2742 81.7637 78.6103 83.0405C72.1469 88 62.7646 88 44 88C25.2354 88 15.8531 88 9.38972 83.0405C7.72575 81.7637 6.23633 80.2742 4.95952 78.6103C0 72.1469 0 62.7646 0 44Z" fill="white"/>
<path fill-rule="evenodd" clip-rule="evenodd" d="M63.5921 55.9303L63.2228 56.2691C55.1929 63.638 42.2531 59.5315 39.8704 48.8582L39.1702 45.7212C39.0505 45.1851 38.9906 44.9168 38.9561 44.8139C38.324 42.9287 35.676 42.9287 35.0439 44.8139C35.0094 44.9168 34.9496 45.185 34.8298 45.7212L34.1296 48.8582C31.7469 59.5315 18.8071 63.638 10.7772 56.2691L10.4079 55.9303C6.96314 52.769 5 48.293 5 43.5999C5 39.4026 8.37918 36 12.5476 36H46H81C81.5 36 82 36.5 82 37C82 40.3926 79.2273 43 76 43H69.5774C69.2535 43 69 43.2761 69 43.5999C69 48.293 67.0369 52.769 63.5921 55.9303Z" fill="black"/>
</g>
</g>
<defs>
<clipPath id="clip0_5_1031">
<rect width="88" height="88" fill="white"/>
</clipPath>
<clipPath id="clip1_5_1031">
<rect width="88" height="88" fill="white"/>
</clipPath>
</defs>
</svg>
