<svg xmlns="http://www.w3.org/2000/svg" width="32" height="32" fill="none" viewBox="0 0 32 32">
  <path fill="#fff" d="M0 0h32v32H0z"/>
  <path fill="#000" fill-rule="evenodd" d="m23.306 19.4-.134.124c-2.92 2.694-7.626 1.192-8.492-2.71l-.255-1.147a5.494 5.494 0 0 0-.077-.332.748.748 0 0 0-1.423 0 5.624 5.624 0 0 0-.078.332l-.254 1.147c-.867 3.902-5.572 5.404-8.492 2.71l-.134-.124A6.135 6.135 0 0 1 2 14.89c0-1.534 1.229-2.779 2.745-2.779h24.891c.182 0 .364.183.364.366a2.19 2.19 0 0 1-2.182 2.194h-2.335a.215.215 0 0 0-.21.22 6.135 6.135 0 0 1-1.967 4.508Z" clip-rule="evenodd"/>
</svg>
