<svg xmlns="http://www.w3.org/2000/svg" width="32" height="32" fill="none" viewBox="0 0 32 32">
  <path fill="#fff" d="M0 0h32v32H0z"/>
  <path fill="#F0B90B" d="M6.717 18.695 9.41 16l-2.693-2.719L4 16l2.717 2.695Zm13.907-4.641-4.635-4.64-4.636 4.664-2.717-2.718L15.989 4l7.352 7.336-2.717 2.718ZM22.568 16l2.693-2.719L28 16l-2.715 2.719L22.568 16Zm-11.215 1.922 4.636 4.664 4.635-4.664 2.718 2.718L15.989 28l-7.353-7.359 2.717-2.719Z"/>
  <path fill="#F0B90B" d="m18.705 15.976-2.716 2.72v-.001L13.271 16l2.716-2.718 2.717 2.694Z"/>
</svg>
