<svg xmlns="http://www.w3.org/2000/svg" width="32" height="32" fill="none" viewBox="0 0 32 32">
  <path fill="#001F29" d="M0 0h32v32H0z"/>
  <path fill="#00F0FF" d="m13.725 7-3.087.001c-.624 0-.858.785-.394 1.25l7.026 7.042c.22.2.356.42.36.707-.004.288-.14.506-.36.707l-7.026 7.042c-.464.465-.23 1.25.394 1.25 1.032.002 2.059.001 3.087 0h1.548c.675 0 1.078-.362 1.439-.724l6.336-6.35c.506-.507.958-1.18.952-1.925.006-.745-.446-1.418-.952-1.925l-6.336-6.35C16.35 7.363 15.948 7 15.272 7h-1.547Z"/>
</svg>
