<svg width="49" height="48" viewBox="0 0 49 48" fill="none" xmlns="http://www.w3.org/2000/svg">
<path d="M48 24C48 26.0618 47.1442 27.9323 45.7538 29.3041L34.7624 39.8204C34.1402 40.4041 33.4186 40.8908 32.6238 41.2552C31.583 41.7326 30.417 42 29.1856 42C27.954 42 26.8412 41.6923 25.8002 41.2149C24.983 40.84 24.1794 40.3669 23.5458 39.7611L21.2258 37.5414L14.5141 31.1201C15.3892 30.0586 16.7457 29.377 18.2685 29.377C19.4023 29.377 20.444 29.7548 21.2634 30.386L27.008 35.8823C27.5782 36.3956 28.3402 36.7047 29.185 36.7047C30.03 36.7047 30.798 36.3899 31.3682 35.8764L41.6274 26.061C42.148 25.5184 42.466 24.7947 42.466 24C42.466 23.2054 42.1482 22.4818 41.6276 21.9393L31.34 12.0964C30.7728 11.5982 30.0164 11.2941 29.1858 11.2941C28.3552 11.2941 27.5988 11.5981 27.0318 12.0963L21.9992 16.9112L14.5894 24.0005L10.8312 27.5963L1.35459 36.6631C1.04345 36.9596 0.53992 36.9594 0.229216 36.6621C0.0942702 36.533 0.0178679 36.369 9.74413e-06 36.2005L9.73895e-06 31.3973C9.73853e-06 30.9984 0.16012 30.6354 0.422198 30.3637L4.9044 26.0754C5.43034 25.5318 5.75178 24.8044 5.75178 24.0053C5.75178 23.1638 5.40084 22.4011 4.82456 21.8495L0.454722 17.6686C0.426688 17.6412 0.399726 17.6127 0.3739 17.5833C0.141699 17.3186 0.00135247 16.975 9.72299e-06 16.6034L0 16.5981L9.72299e-06 16.5927L9.71781e-06 11.8013C0.0178679 11.6328 0.0942702 11.4689 0.229216 11.3398C0.54027 11.0422 1.04527 11.0422 1.35633 11.3398L8.60718 18.2771C9.1814 18.8133 9.96542 19.138 10.8312 19.138C11.6968 19.138 12.4823 18.8118 13.0565 18.2758L23.625 8.16428C24.2432 7.58758 24.959 7.10612 25.7466 6.74493C26.7876 6.26743 27.954 6 29.1856 6C30.4172 6 31.5836 6.26749 32.6248 6.74505C33.419 7.10943 34.1404 7.59606 34.7622 8.1795L45.7538 18.6956C46.3494 19.2833 46.8468 19.9626 47.221 20.7092C47.7202 21.7054 48 22.8215 48 24Z" fill="#2A5ADA"/>
</svg>
