<svg xmlns="http://www.w3.org/2000/svg" width="32" height="32" fill="none" viewBox="0 0 32 32">
  <path fill="#000" d="M0 0h32v32H0z"/>
  <path fill="#00D89A" d="M16.002 6C11.031 6 7 9.992 7 14.916a8.852 8.852 0 0 0 2.85 6.51l-1.03 4.423c.427.099.874.151 1.332.151a5.86 5.86 0 0 0 4.629-2.25c.399.055.807.082 1.221.082 4.875 0 8.845-3.838 8.998-8.63h-8.998v-.013c-1.93 0-3.496-1.55-3.496-3.463s1.565-3.463 3.496-3.463 3.497 1.55 3.497 3.463c0 .575-.142 1.118-.393 1.595 1.614 0 2.496-.565 2.647-1.694.413 1.12 1.45 1.685 3.108 1.694C24.1 9.158 20.424 6 16.002 6Z"/>
  <mask id="a" width="18" height="20" x="7" y="6" maskUnits="userSpaceOnUse" style="mask-type:luminance">
    <path fill="#fff" d="M16.002 6C11.031 6 7 9.992 7 14.916a8.852 8.852 0 0 0 2.85 6.51l-1.03 4.423c.427.099.874.151 1.332.151a5.86 5.86 0 0 0 4.629-2.25c.399.055.807.082 1.221.082 4.875 0 8.845-3.838 8.998-8.63h-8.998v-.013c-1.93 0-3.496-1.55-3.496-3.463s1.565-3.463 3.496-3.463 3.497 1.55 3.497 3.463c0 .575-.142 1.118-.393 1.595 1.614 0 2.496-.565 2.647-1.694.413 1.12 1.45 1.685 3.108 1.694C24.1 9.158 20.424 6 16.002 6Z"/>
  </mask>
  <g mask="url(#a)">
    <path fill="#00FFD6" d="M12.626 21.827c-5.078 0-9.195-4.077-9.195-9.107 0-5.03 4.117-9.107 9.195-9.107s9.195 4.078 9.195 9.107c0 5.03-4.117 9.107-9.195 9.107Z"/>
  </g>
</svg>
