<svg xmlns="http://www.w3.org/2000/svg" width="32" height="32" fill="none" viewBox="0 0 32 32">
  <path fill="#65D9FF" d="M0 0h32v32H0z"/>
  <path fill="#002275" fill-rule="evenodd" d="M13.344 24c-.52 0-1.027-.168-1.447-.482a2.506 2.506 0 0 1-.89-1.262l-1.662-5.34h-1.02c-.52 0-1.028-.168-1.448-.482a2.505 2.505 0 0 1-.89-1.262L5 12h3.702L6.75 9h18.5l-1.952 3H27l-.987 3.172c-.158.507-.47.95-.89 1.263-.42.313-.927.482-1.447.481h-1.021l-1.662 5.34c-.159.507-.47.949-.89 1.262-.42.314-.927.482-1.447.482h-5.312Zm-1.255-8.542c0 .806.59 1.459 1.317 1.459.728 0 1.317-.653 1.317-1.459 0-.805-.59-1.458-1.317-1.458s-1.317.653-1.317 1.458Zm7.822 0c0 .806-.59 1.459-1.317 1.459-.728 0-1.317-.653-1.317-1.459 0-.805.59-1.458 1.317-1.458s1.317.653 1.317 1.458Z" clip-rule="evenodd"/>
</svg>
