<svg xmlns="http://www.w3.org/2000/svg" width="32" height="32" fill="none" viewBox="0 0 32 32">
  <path fill="#161616" d="M0 0h32v32H0z"/>
  <mask id="a" width="9" height="9" x="7" y="7" maskUnits="userSpaceOnUse" style="mask-type:luminance">
    <path fill="#fff" fill-rule="evenodd" d="M15.041 7.045c-4.238.434-7.606 3.786-8.04 8.003h5.106l2.934-2.919V7.045Z" clip-rule="evenodd"/>
  </mask>
  <g mask="url(#a)">
    <path fill="#fff" d="m7 15.05-1.718-.175-.195 1.893H7V15.05Zm8.041-8.004h1.727V5.142l-1.904.195.177 1.71Zm-2.934 8.004v1.718h.715l.506-.503-1.221-1.215Zm2.934-2.92 1.222 1.216.505-.503v-.712h-1.727Zm-6.323 3.095c.351-3.407 3.076-6.119 6.5-6.47l-.354-3.418c-5.052.518-9.064 4.51-9.582 9.538l3.436.35Zm3.389-1.893H7v3.436h5.107v-3.436Zm1.221 2.933 2.935-2.92-2.443-2.429-2.934 2.919 2.442 2.43Zm-.014-9.219v5.085h3.454V7.046h-3.454Z"/>
  </g>
  <mask id="b" width="11" height="9" x="15" y="7" maskUnits="userSpaceOnUse" style="mask-type:luminance">
    <path fill="#fff" fill-rule="evenodd" d="M25 15.046c-.436-4.216-3.806-7.567-8.045-7.999v5.08l2.934 2.92H25ZM16.024 7h.028-.055.027Z" clip-rule="evenodd"/>
  </mask>
  <g mask="url(#b)">
    <path fill="#fff" d="m16.955 7.047.177-1.709-1.904-.194v1.903h1.727Zm8.046 8v1.717h1.914l-.196-1.894-1.718.176Zm-8.046-2.92h-1.727v.712l.506.503 1.221-1.214Zm2.935 2.92-1.222 1.214.506.503h.716v-1.718ZM16.052 7v1.718l.005-3.436L16.052 7Zm-.055 0-.005-1.718.005 3.436V7Zm.782 1.756c3.425.35 6.151 3.06 6.504 6.466l3.436-.352c-.52-5.026-4.534-9.017-9.588-9.532l-.352 3.418Zm1.904 3.372v-5.08h-3.455v5.08h3.455Zm-2.949 1.214 2.934 2.92 2.443-2.43-2.934-2.92-2.443 2.43Zm9.267-.014H19.89v3.436H25v-3.436Zm-8.944-8.046h-.033v3.436h.023l.01-3.436Zm-.06 3.436h.055V5.282h-.055v3.436Zm.027-3.436h-.032l.01 3.436h.022V5.282Z"/>
  </g>
  <mask id="c" width="10" height="10" x="16" y="16" maskUnits="userSpaceOnUse" style="mask-type:luminance">
    <path fill="#fff" fill-rule="evenodd" d="M16.96 25c4.238-.434 7.607-3.786 8.04-8.003h-5.106l-2.934 2.92V25Z" clip-rule="evenodd"/>
  </mask>
  <g mask="url(#c)">
    <path fill="#fff" d="m25.001 16.996 1.718.176.195-1.894h-1.913v1.718ZM16.96 25h-1.727v1.904l1.904-.195L16.96 25Zm2.934-8.004v-1.718h-.715l-.506.503 1.221 1.215Zm-2.934 2.92L15.738 18.7l-.505.503v.712h1.727Zm6.323-3.095c-.35 3.407-3.076 6.12-6.5 6.47l.354 3.418c5.052-.518 9.064-4.51 9.582-9.537l-3.436-.35Zm-3.389 1.893h5.107v-3.436h-5.107v3.437Zm-1.22-2.932L15.738 18.7l2.442 2.43 2.935-2.92-2.443-2.43ZM18.686 25v-5.084h-3.454V25h3.454Z"/>
  </g>
  <mask id="d" width="9" height="9" x="7" y="17" maskUnits="userSpaceOnUse" style="mask-type:luminance">
    <path fill="#fff" fill-rule="evenodd" d="M7 17.002c.437 4.217 3.806 7.568 8.045 8v-5.08l-2.934-2.92H7Z" clip-rule="evenodd"/>
  </mask>
  <g mask="url(#d)">
    <path fill="#fff" d="m15.046 25-.176 1.708 1.903.194V25h-1.727ZM7 17v-1.718H5.086l.196 1.894L7 17Zm8.046 2.92h1.727v-.713l-.506-.503-1.221 1.215ZM12.11 17l1.221-1.215-.505-.503h-.716V17Zm3.11 6.29c-3.424-.349-6.15-3.06-6.503-6.466l-3.436.352c.52 5.026 4.534 9.017 9.588 9.532l.352-3.418Zm-1.902-3.37V25h3.454v-5.08h-3.454Zm2.948-1.216-2.934-2.919-2.443 2.43 2.934 2.92 2.443-2.43ZM7 18.718h5.111v-3.436h-5.11v3.436Z"/>
  </g>
</svg>
