<svg xmlns="http://www.w3.org/2000/svg" width="32" height="32" fill="none" viewBox="0 0 32 32">
  <path fill="#F4E026" d="M0 0h32v32H0z"/>
  <path fill="#231815" d="M18.135 8.526a2.435 2.435 0 0 0 .372-1.113c.052-.475-.06-.859-.33-.974-.27-.115-.613.064-.91.42v-.07c0-.99-.45-1.789-1.006-1.789-.555 0-1.005.8-1.005 1.788 0 .07.003.139.007.209-.338-.462-.78-.699-1.098-.546-.396.19-.444.917-.107 1.622.075.146.16.287.252.423-4.304.684-6.754 4.166-7.062 9.876h2.407c.254-4.703 2.448-7.358 6.406-7.277 3.638.075 6.417 2.455 6.38 7.277h2.407c.044-5.688-2.76-8.959-6.716-9.844"/>
  <path fill="#231815" d="M14.326 14.322a.482.482 0 0 0-.481.48v1.183a.48.48 0 0 0 .827.35.48.48 0 0 0 .135-.35v-1.182a.48.48 0 0 0-.48-.481Zm3.732 0a.481.481 0 0 0-.48.48v1.183a.481.481 0 0 0 .962 0v-1.182a.481.481 0 0 0-.482-.481Zm-2.243 7.199a2.43 2.43 0 0 0-1.32-1.323 2.596 2.596 0 0 0-1.965 0 2.424 2.424 0 0 0-1.323 1.323 2.563 2.563 0 0 0 0 1.956A2.42 2.42 0 0 0 12.53 24.8c.63.258 1.336.258 1.966 0a2.52 2.52 0 0 0 1.319-3.279Zm-1.133 1.548a1.39 1.39 0 0 1-.266.456 1.207 1.207 0 0 1-1.817.002 1.393 1.393 0 0 1-.266-.456 1.727 1.727 0 0 1 0-1.14c.059-.167.15-.322.266-.455a1.207 1.207 0 0 1 1.817 0c.117.133.207.288.266.455.13.37.13.771 0 1.14m-4.327-1.545a2.467 2.467 0 0 0-1.336-1.33A2.475 2.475 0 0 0 8.036 20H6v5h2.036a2.52 2.52 0 0 0 .983-.193 2.456 2.456 0 0 0 1.336-1.322 2.43 2.43 0 0 0 .196-.971 2.494 2.494 0 0 0-.196-.99v.002Zm-1.172 1.552a1.43 1.43 0 0 1-.264.457 1.24 1.24 0 0 1-.397.304 1.1 1.1 0 0 1-.486.11H7.23v-2.9h.807c.17 0 .336.038.486.115.152.076.287.182.397.312.115.138.205.295.264.465.065.184.098.377.097.573 0 .192-.032.383-.097.564Zm17.273-1.557a2.469 2.469 0 0 0-2.301-1.516 2.506 2.506 0 0 0-1.779.722 2.422 2.422 0 0 0-.528.794 2.563 2.563 0 0 0 0 1.956A2.422 2.422 0 0 0 23.17 24.8c.63.258 1.335.258 1.965 0a2.43 2.43 0 0 0 1.32-1.323 2.569 2.569 0 0 0 0-1.956Zm-1.133 1.548a1.39 1.39 0 0 1-.267.456 1.207 1.207 0 0 1-1.817.002 1.39 1.39 0 0 1-.265-.456c-.13-.369-.13-.77 0-1.14a1.39 1.39 0 0 1 .266-.456 1.207 1.207 0 0 1 1.817 0c.116.134.207.289.266.456.129.37.129.771 0 1.14m-4.328-1.545a2.471 2.471 0 0 0-1.336-1.33 2.475 2.475 0 0 0-.982-.196H16.64v5h2.037a2.53 2.53 0 0 0 1.783-.721 2.481 2.481 0 0 0 .732-1.765 2.493 2.493 0 0 0-.197-.99v.002Zm-1.171 1.552c-.06.168-.15.323-.265.457a1.24 1.24 0 0 1-.396.304 1.1 1.1 0 0 1-.486.11h-.807v-2.9h.807c.169 0 .335.038.486.115.152.076.287.182.396.312.116.138.205.295.265.465.065.184.097.377.096.573.001.192-.031.383-.096.564Z"/>
</svg>
