<svg xmlns="http://www.w3.org/2000/svg" width="32" height="32" fill="none" viewBox="0 0 32 32">
  <path fill="url(#a)" d="M0 0h32v32H0z"/>
  <path fill="#fff" d="M20.084 22.22c-.04-.909-.08-1.853-.123-2.756a5.307 5.307 0 0 1-1.198 1.016l-4.512-1.475c-2.406 1.618-5.99 3.847-8.251 5.314 4.712 3.766 11.44.028 11.44.028l.561-.452h2.155l-.072-1.674v-.002Z"/>
  <path fill="#fff" d="M21.89 10.308c-.88.56-1.759 1.124-2.541 1.632a5.29 5.29 0 0 1 1.35 1.69l-.921 2.566c.2 2.926.323 6.8.477 9.802C25.872 23.801 26 16.104 26 16.104l-4.11-5.797v.001Z"/>
  <path fill="#fff" d="m14.56 7.654-.561.452h-2.156c.064 1.438.128 2.98.197 4.43a5.306 5.306 0 0 1 1.197-1.016l4.512 1.475c1.27-.857 2.738-1.792 4.14-2.688C23.42 9.332 24.951 8.36 26 7.68c-4.712-3.766-11.44-.028-11.44-.028v.001Z"/>
  <path fill="#fff" d="m11.301 18.37.921-2.567c-.2-2.927-.323-6.8-.477-9.802C6.126 8.198 6 15.895 6 15.895l4.11 5.797c.88-.56 1.758-1.124 2.541-1.632a5.287 5.287 0 0 1-1.35-1.69Z"/>
  <path fill="#DCDDDD" d="m14.56 7.654-.561.452h-2.156c.064 1.438.128 2.98.197 4.43a5.306 5.306 0 0 1 1.197-1.016l4.894-5.181c-2.074.484-3.572 1.314-3.572 1.315Zm7.33 2.654c-.88.56-1.759 1.124-2.541 1.632a5.29 5.29 0 0 1 1.35 1.69L26 16.104l-4.11-5.797Zm-4.45 14.039.561-.452h2.155c-.063-1.438-.127-2.98-.196-4.43a5.304 5.304 0 0 1-1.197 1.016l-4.895 5.181c2.075-.484 3.573-1.314 3.573-1.315Zm-7.33-2.655c.88-.56 1.758-1.124 2.541-1.632a5.287 5.287 0 0 1-1.35-1.69L6 15.896l4.11 5.797Z"/>
  <defs>
    <linearGradient id="a" x1="16" x2="16" y1="0" y2="32" gradientUnits="userSpaceOnUse">
      <stop stop-color="#101056"/>
      <stop offset="1" stop-color="#5C4387"/>
    </linearGradient>
  </defs>
</svg>
