<svg xmlns="http://www.w3.org/2000/svg" width="32" height="32" fill="none" viewBox="0 0 32 32">
  <path fill="#0F1729" d="M0 0h32v32H0z"/>
  <path fill="#fff" d="M16.234 27c5.259 0 9.2-3.377 10.612-7.372.004-.011-.013-.018-.019-.007-1.9 3.98-5.7 6.739-10.593 6.739-5.196 0-10.064-3.888-10.064-9.834 0-5.123 4.072-9.376 8.8-9.376 3.979 0 6.74 2.378 6.74 4.07 0 .778-.515 1.327-1.31 1.327-1.826 0-2.528-3.202-5.992-3.202-3.51 0-6.506 3.293-6.506 7.181a8.226 8.226 0 0 0 8.145 8.324c1.591 0 2.475-.409 2.73-.548.01-.006.004-.022-.008-.018-.254.078-1.05.292-2.16.292-5.009 0-7.022-3.796-7.022-6.266 0-1.875 1.217-2.653 2.2-2.653 2.621 0 2.247 5.489 8.707 5.489 3.37 0 6.506-2.242 6.506-6.678C27 9.437 22.132 5 16.234 5 10.055 5 5 9.894 5 15.977 5 22.106 10.242 27 16.234 27Z"/>
</svg>
