<svg xmlns="http://www.w3.org/2000/svg" width="32" height="32" fill="none" viewBox="0 0 32 32">
  <path fill="#000" d="M0 0h32v32H0z"/>
  <path fill="#02F994" d="m8.025 8.35 1.713 3.47a.554.554 0 0 0 .49.304h1.05c.206 0 .396.119.49.305l1.423 2.877a.56.56 0 0 0 .491.31h1.707a.247.247 0 0 0 .218-.355l-1.713-3.47a.553.553 0 0 0-.49-.304h-1.05a.553.553 0 0 1-.49-.305L10.44 8.305A.554.554 0 0 0 9.95 8H8.248a.24.24 0 0 0-.223.35Zm7.576 8.372-1.712 3.47a.559.559 0 0 1-.491.31h-1.05a.548.548 0 0 0-.49.31l-1.423 2.878a.559.559 0 0 1-.49.31H8.242a.247.247 0 0 1-.218-.355l1.713-3.47a.559.559 0 0 1 .49-.31h1.05a.548.548 0 0 0 .49-.31l1.423-2.878a.559.559 0 0 1 .491-.31h1.707c.179 0 .296.192.212.355Zm8.374-8.372-1.712 3.47a.553.553 0 0 1-.491.304h-1.05a.547.547 0 0 0-.49.305l-1.423 2.877a.559.559 0 0 1-.49.31h-1.702a.247.247 0 0 1-.218-.355l1.713-3.47a.554.554 0 0 1 .49-.304h1.05a.547.547 0 0 0 .49-.305l1.423-2.877A.553.553 0 0 1 22.056 8h1.702c.178-.006.296.186.217.35Zm-7.581 8.372 1.712 3.47a.56.56 0 0 0 .491.31h1.05c.206 0 .4.119.49.31l1.423 2.878c.095.186.284.31.49.31h1.708a.247.247 0 0 0 .217-.355l-1.712-3.47a.559.559 0 0 0-.491-.31h-1.05a.542.542 0 0 1-.49-.31l-1.423-2.878a.559.559 0 0 0-.49-.31h-1.702a.248.248 0 0 0-.223.355Z"/>
</svg>
