<svg xmlns="http://www.w3.org/2000/svg" width="32" height="32" fill="none" viewBox="0 0 32 32">
  <path fill="url(#a)" d="M0 0h32v32H0z"/>
  <path fill="#fff" d="M25.18 17.487c-.308-.53-.678-1.027-1.049-1.527-.414-.56-.826-1.118-1.154-1.718-.617-1.129-.893-2.514-.209-3.529.004-.005 0-.015-.007-.015a7.615 7.615 0 0 1-3.14-1.442 7.103 7.103 0 0 1-1.723-1.9 6.358 6.358 0 0 1-.652-1.468c-.036-.121-.278-.121-.291.002l-.09.878c-.022.211-.044.43-.166.605-.304.447-1.008.416-1.605.362-1.721-.157-3.474-.077-5.057.443-.91.3-1.756.752-2.455 1.347-.35.298-.664.634-.925 1.002-.248.347-.382.738-.487 1.145-.251.99.105 2.08.636 2.991.308.53.679 1.028 1.048 1.528.414.56.826 1.117 1.154 1.718.617 1.128.893 2.514.209 3.528-.004.006 0 .015.007.015a7.612 7.612 0 0 1 3.14 1.442 7.032 7.032 0 0 1 1.704 1.9c.282.467.502.961.651 1.467.036.12.397.15.442.035a4.76 4.76 0 0 0 .185-.55c.009-.036.018-.075.03-.114.095-.367.225-.865.333-1.024.239-.352.657-.289 1.113-.22.123.019.25.037.379.048 1.72.157 3.164.056 4.747-.464.91-.3 1.756-.752 2.455-1.347.351-.298.664-.634.925-1.001.246-.347.383-.739.487-1.145.252-.99-.105-2.08-.636-2.992Zm-2.941 2.968c-.575.637-1.546.856-2.47.943l-.273.026c-.75.075-.97.096-1.863-.014-.324-.042-.9-.22-1.083-.278a.105.105 0 0 1-.07-.077 8.4 8.4 0 0 1-.187-.996 13.715 13.715 0 0 1-.077-1.738c.002-.12-.162-.164-.203-.056l-.095.257c-.31.843-.617 1.683-1.385 2.194-1.031.688-2.646.641-4.078.602l-.43-.011c-.11-.002-.167-.175-.09-.252.458-.46.417-1.16.377-1.893l-.01-.157c-.048-.921-.302-1.828-.555-2.736-.198-.705-.396-1.41-.496-2.122-.125-.866-.08-1.808.505-2.457.574-.637 1.546-.856 2.47-.943a12.5 12.5 0 0 1 2.83.033c.385.049.461.101.573.314l.006.014c.072.224.186 1.187.186 1.198l.233 1.82c.013.107.148.129.18.03.092-.287.158-.593.221-.897.168-.793.334-1.576 1.001-2.022.942-.628 2.344-.537 3.662-.453.272.017.543.035.804.045.11.003.166.18.091.257-.423.438-.382 1.091-.337 1.78.005.089.01.178.017.27.048.921.301 1.828.555 2.736.198.705.395 1.41.496 2.122.125.866.08 1.808-.505 2.457v.003Z"/>
  <defs>
    <linearGradient id="a" x1="16" x2="16" y1="0" y2="32" gradientUnits="userSpaceOnUse">
      <stop stop-color="#C293FF"/>
      <stop offset="1" stop-color="#331EB2"/>
    </linearGradient>
  </defs>
</svg>
