<svg xmlns="http://www.w3.org/2000/svg" width="32" height="32" fill="none" viewBox="0 0 32 32">
  <path fill="#121E1D" d="M0 0h32v32H0z"/>
  <path fill="#fff" d="M14.496 19.518c-.007.169 0 .444 0 .444h-3.754v-.43s.337-.027.452-.034c.443-.027.684-.187.78-.587.203-.84.38-1.685.566-2.529.006-.023-.002-.05-.005-.09-.07-.007-.14-.02-.209-.021-1.056-.005-2.114-.004-3.17-.014-.195-.003-.28.05-.317.248-.139.737-.316 1.467-.446 2.205-.111.634.019.768.668.798.068.003.136.014.23.025l-.092.428H5.5l.068-.421c.151-.013.284-.023.416-.037.494-.05.72-.226.835-.71.171-.721.321-1.448.477-2.172.212-.99.421-1.98.631-2.97l.01-.051c.146-.808.057-.927-.77-1.031-.034-.004-.103-.016-.103-.016v-.421h.35c1.154-.004 3.462 0 3.462 0v.441s-.32.012-.43.021c-.511.042-.763.21-.886.69-.189.736-.339 1.48-.504 2.22-.01.05-.009.102-.016.19h.784c.869-.002 1.738-.011 2.606-.004.197.002.287-.051.324-.245.128-.65.272-1.298.408-1.947.018-.085.028-.173.034-.26.026-.385-.12-.567-.51-.634a5.289 5.289 0 0 0-.392-.039v-.433h3.766v.433s-.276.017-.401.028c-.563.05-.795.216-.914.753a404.47 404.47 0 0 0-1.155 5.346c-.126.602.042.776.671.805.079.004.235.018.235.018v.003Z"/>
  <path fill="#EBFAE6" d="M20.46 15.034h-.346v-.44c.668-.326 1.27-.748 1.71-1.364.1-.168.265-.308.396-.308h.616s-.307 1.263-.352 1.496h1.144c0 .264-.137.616-.22.616h-1.056s.036-.18-.088.396c-.224 1.034-.572 2.772-.616 2.948-.044.176-.152.706.088.792.153.055.245.035.396-.044.195-.101.543-.44.543-.44l.337.22s-.257.515-1.012 1.012c-.218.144-.841.223-1.364.22-.522-.003-.748-.66-.704-1.056.044-.396.082-.562.182-1.04.19-.915.392-1.826.587-2.74.023-.11.033-.115.054-.268h-.294Z"/>
  <path fill="#EBFAE6" d="M20.768 11.69s-3.564 1.848-3.564 5.764c0 3.482 1.496 4.356 1.496 4.356l-.396.44s-2.508-1.232-2.508-4.796c0-4.356 4.708-6.116 4.708-6.116l.264.352Zm3.652-.44s2.508 1.232 2.508 4.796c0 4.356-4.708 6.116-4.708 6.116l-.264-.352s3.564-1.848 3.564-5.764c0-3.482-1.496-4.356-1.496-4.356l.396-.44Z"/>
</svg>
