<svg xmlns="http://www.w3.org/2000/svg" width="32" height="32" fill="none" viewBox="0 0 32 32">
  <path fill="#08211C" stroke="#00A58D" stroke-width=".5" d="M.25.25h31.5v31.5H.25z"/>
  <path fill="#3BF7BF" d="M11.044 5.438c.15 0 .296.038.436.092a39.43 39.43 0 0 1 3.432 1.497c.34.167.678.377.916.647.253.29.457.652.57 1.045.432 1.444.68 2.914.776 4.417.162 2.473-.231 4.87-.878 7.24-.27.992-.587 1.972-1.007 2.915-.318.711-.781 1.31-1.422 1.762-.534.377-1.067.743-1.568 1.163-.329.275-.873.151-1.083-.226-.124-.226-.118-.442-.06-.705.232-.981.421-1.978.561-2.98.27-1.934.383-3.873.323-5.823-.091-2.915-.587-5.76-1.578-8.507-.13-.36-.28-.716-.415-1.077-.264-.711.21-1.444.997-1.46Z"/>
  <path fill="#00A58D" d="M19.356 12.614c-.016-.356-.038-.679-.043-.997-.01-.63.415-.975 1.072-.9.135.017.248.135.35.227a22.13 22.13 0 0 1 1.854 1.847c.377.426.355.922.307 1.444-.162 1.778-.776 3.421-1.568 4.989-.566 1.126-1.255 2.198-2.123 3.135-.07.076-.194.113-.301.151-.55.205-1.11.393-1.649.636-.162.075-.312.037-.43-.087-.125-.129-.146-.269-.06-.447a25.67 25.67 0 0 0 1.406-3.377c.469-1.412.824-2.85 1.024-4.326.113-.776.118-1.552.161-2.295Z"/>
</svg>
