<svg xmlns="http://www.w3.org/2000/svg" width="32" height="32" fill="none" viewBox="0 0 32 32">
  <path fill="#000" d="M0 0h32v32H0z"/>
  <path fill="#fff" d="M10.333 8a.11.11 0 0 1 .11.107 5.6 5.6 0 0 0 11.191 0 .11.11 0 0 1 .11-.107h2.04c.12 0 .216.097.216.216v2.037a.11.11 0 0 1-.107.11 5.6 5.6 0 0 0 0 11.192.11.11 0 0 1 .107.11v2.119c0 .12-.097.216-.216.216h-2.04a.11.11 0 0 1-.11-.107 5.6 5.6 0 0 0-11.192 0 .11.11 0 0 1-.11.107H8.216A.216.216 0 0 1 8 23.784v-2.12a.11.11 0 0 1 .107-.11 5.6 5.6 0 0 0 0-11.191.11.11 0 0 1-.107-.11V8.217c0-.12.097-.216.216-.216h2.117Z"/>
</svg>
