<svg xmlns="http://www.w3.org/2000/svg" width="32" height="32" fill="none" viewBox="0 0 32 32">
  <path fill="#111727" d="M0 0h32v32H0z"/>
  <path fill="url(#a)" d="M7.106 22.302a11.234 11.234 0 0 0 3.468 3.174c1.365.8 2.882 1.3 4.451 1.467-.808-1.226-1.981-2.354-3.447-3.213-1.465-.859-3.017-1.328-4.472-1.428Z"/>
  <path fill="url(#b)" d="M13.547 20.311c-2.823-1.655-5.878-2.076-8.065-1.331.211.703.49 1.385.832 2.034 1.9-.044 3.973.477 5.903 1.607 1.93 1.131 3.406 2.692 4.309 4.38a11.217 11.217 0 0 0 2.165-.28c-.442-2.285-2.321-4.755-5.144-6.41Z"/>
  <path fill="url(#c)" d="M27 13.594a11.334 11.334 0 0 0-1.91-4.072 11.223 11.223 0 0 0-3.335-2.994 11.094 11.094 0 0 0-8.682-1.097c2.416.298 5.097 1.213 7.727 2.754 2.63 1.542 4.747 3.438 6.2 5.41Z"/>
  <path fill="url(#d)" d="M23.485 18.996c-1.237-2.072-3.355-4.056-5.964-5.585-2.61-1.53-5.367-2.403-7.761-2.46-2.107-.051-3.688.567-4.336 1.694-.004.007-.01.013-.013.02-.059.21-.11.423-.155.635.906-.36 1.956-.562 3.124-.584 2.596-.05 5.501.789 8.182 2.36 2.681 1.572 4.844 3.704 6.087 6.003.557 1.036.905 2.056 1.043 3.03.16-.145.318-.294.47-.45l.011-.022c.649-1.128.398-2.82-.688-4.64Z"/>
  <path fill="url(#e)" d="M15.535 16.858C11.54 14.516 7.123 14.15 5 15.784c.004.511.043 1.022.116 1.528a8.721 8.721 0 0 1 1.92-.358c2.372-.18 4.989.487 7.363 1.879 2.374 1.392 4.245 3.356 5.266 5.523.282.594.497 1.218.641 1.86a11.24 11.24 0 0 0 1.375-.655c.355-2.671-2.149-6.36-6.146-8.703Z"/>
  <path fill="url(#f)" d="M25.54 15.528c-1.25-2.07-3.386-4.059-6.014-5.598-2.628-1.54-5.396-2.427-7.798-2.498-1.831-.054-3.25.394-3.985 1.24 3.054-.522 7.081.355 10.985 2.644 3.904 2.288 6.656 5.384 7.718 8.319.364-1.063.047-2.528-.905-4.107Z"/>
  <defs>
    <linearGradient id="a" x1="19.651" x2="9.408" y1="9.469" y2="26.921" gradientUnits="userSpaceOnUse">
      <stop offset="0" stop-color="#C7F284"/>
      <stop offset="1" stop-color="#00BEF0"/>
    </linearGradient>
    <linearGradient id="b" x1="19.651" x2="9.408" y1="9.469" y2="26.921" gradientUnits="userSpaceOnUse">
      <stop offset="0" stop-color="#C7F284"/>
      <stop offset="1" stop-color="#00BEF0"/>
    </linearGradient>
    <linearGradient id="c" x1="19.651" x2="9.408" y1="9.469" y2="26.921" gradientUnits="userSpaceOnUse">
      <stop offset="0" stop-color="#C7F284"/>
      <stop offset="1" stop-color="#00BEF0"/>
    </linearGradient>
    <linearGradient id="d" x1="19.651" x2="9.408" y1="9.469" y2="26.921" gradientUnits="userSpaceOnUse">
      <stop offset="0" stop-color="#C7F284"/>
      <stop offset="1" stop-color="#00BEF0"/>
    </linearGradient>
    <linearGradient id="e" x1="19.651" x2="9.408" y1="9.469" y2="26.921" gradientUnits="userSpaceOnUse">
      <stop offset="0" stop-color="#C7F284"/>
      <stop offset="1" stop-color="#00BEF0"/>
    </linearGradient>
    <linearGradient id="f" x1="19.651" x2="9.408" y1="9.469" y2="26.921" gradientUnits="userSpaceOnUse">
      <stop offset="0" stop-color="#C7F284"/>
      <stop offset="1" stop-color="#00BEF0"/>
    </linearGradient>
  </defs>
</svg>
