<svg xmlns="http://www.w3.org/2000/svg" width="32" height="32" fill="none" viewBox="0 0 32 32">
  <path fill="#D9BFB6" d="M0 0h32v32H0z"/>
  <path fill="#8C0200" d="M19.731 17.474c.17.96-.279 1.63-.52 1.711-.796-.446-1.149-1.037-1.383-1.875l-2.155-.07c.49 1.703 2.94 3.47 4.002 2.03.336-.424.348-1.23.177-1.795h-.12Zm-8.737-.383H8.43c-.172 2.608 4.97 3.885 4.369.524-.032-.174-.088-.349-.293-.376.184.355.196 1.898-.378 1.775-.135-.03-1.397-1.541-1.133-1.923Zm-4.526 3.116L3 16.584c1.358-.245 2.255-.278 3.164-.224l-3.016-4.224c.402-.07 3.609 0 3.609 0 .455-.632.202-4.163.313-5.1.236-.26 1.06.977 1.2 1.115.503.492 2.899 3.592 2.899 3.592l3.9-.05c.642-.98 3.402-4.567 3.996-4.66.332-.052.286.431.294.667.062 1.622-.325 2.775 0 4.357.87-.054 5.54-.075 6.957 0 .534.028 3.145.39 2.42 1.347-1.197 1.068-1.33 1-.993 2.059l-.98-.395-1.443 1.23.46 1.237-1.06-.506-1.136 1.101.235.734c-.531.008-1.042-.323-1.508.076l1.47.94.866-.422c.086.005.116.654.146 1.028.01.11 1.298 1.292 1.396 1.318l1.25-.423c.069 1.285-.439 1.683.766 2.28.531.264.795.85.795.85 0 .257-1.884.391-2.387.423-1.922.126-4.211.037-6.196 0-3.953-.074-8.031-.004-11.988 0-.385 0-2.76-1.995-3.23-2.453-.665-.65-1.425-1.212-2.051-1.906l3.318-.369.002.001Z"/>
</svg>
