<svg xmlns="http://www.w3.org/2000/svg" width="32" height="32" fill="none" viewBox="0 0 32 32">
  <path fill="#A4E977" d="M0 0h32v32H0z"/>
  <path fill="#0F1319" d="M12.656 7.012A1 1 0 0 0 11.66 6H6.996A1 1 0 0 0 6 7.012v4.932c0 .385.206.739.553.915l5.091 2.619a.71.71 0 0 0 1.028-.643h-.016V7.012Zm-1.012 9.51-5.09 2.619c-.348.176-.554.53-.554.915v4.932A1 1 0 0 0 6.996 26h4.664a1 1 0 0 0 .996-1.012v-7.823h.016a.71.71 0 0 0-1.028-.643ZM24.988 6h-5.122a.95.95 0 0 0-.822.45L13.7 14.466c-.364.546.126 1.253.759 1.092L25.24 12.86c.443-.112.759-.514.759-.995V7.011A1.024 1.024 0 0 0 24.988 6Zm.222 13.14-10.783-2.698c-.633-.16-1.123.546-.759 1.092l5.344 8.016c.174.29.49.45.822.45h5.122a1 1 0 0 0 .997-1.012v-4.851c0-.482-.317-.884-.76-.997h.016Z"/>
</svg>
