<svg xmlns="http://www.w3.org/2000/svg" width="32" height="32" fill="none" viewBox="0 0 32 32">
  <path fill="#31CB9E" d="M0 0h32v32H0z"/>
  <path fill="#fff" d="m14.973 15.996 7.438 4.289a.392.392 0 0 0 .588-.339L23 12.048a.398.398 0 0 0-.198-.338.391.391 0 0 0-.39 0l-7.44 4.286Zm7.005-6.135-4.937-3.795a.394.394 0 0 0-.623.23l-1.805 8.449 7.325-4.23a.39.39 0 0 0 .04-.654Zm-4.941 16.071 4.95-3.8a.394.394 0 0 0-.04-.654l-7.334-4.225 1.808 8.449a.39.39 0 0 0 .438.307.387.387 0 0 0 .178-.077Z"/>
  <path fill="#fff" d="m13.066 15.996 1.948-9.103a.394.394 0 0 0-.402-.474.389.389 0 0 0-.22.083L9.407 10.33a1.038 1.038 0 0 0-.405.826L9 20.851a1.043 1.043 0 0 0 .405.826l4.984 3.824a.393.393 0 0 0 .622-.39l-1.945-9.115Z"/>
</svg>
