<svg xmlns="http://www.w3.org/2000/svg" width="32" height="32" fill="none" viewBox="0 0 32 32">
  <path fill="#F7C2FF" d="M0 0h32v32H0z"/>
  <path fill="#000" d="m16 10 2.47 2.47a.75.75 0 0 1 0 1.06L17 15l-1-1a2.828 2.828 0 0 1 0-4Z"/>
  <path fill="#000" fill-rule="evenodd" d="m16 22-4-4a2.828 2.828 0 0 1 0-4l3.47 3.47a.75.75 0 0 0 1.06 0L20 14a2.828 2.828 0 0 1 0 4l-4 4Z" clip-rule="evenodd"/>
  <circle cx="15.986" cy="5.16" r=".66" fill="#000"/>
  <circle cx="7.865" cy="21.404" r=".66" fill="#000"/>
  <circle cx="18.68" cy="6.892" r=".878" fill="#000"/>
  <circle cx="10.572" cy="23.209" r=".66" fill="#000"/>
  <circle cx="21.4" cy="8.77" r=".66" fill="#000"/>
  <circle cx="13.498" cy="25.232" r=".878" fill="#000"/>
  <circle cx="24.109" cy="10.575" r=".66" fill="#000"/>
  <circle cx="7.878" cy="11.107" r=".878" fill="#000"/>
  <circle cx="10.572" cy="12.379" r=".66" fill="#000"/>
  <circle cx="13.28" cy="10.575" r=".66" fill="#000"/>
  <circle cx="15.986" cy="26.819" r=".66" fill="#000"/>
  <circle cx="24.121" cy="14.16" r=".878" fill="#000"/>
  <circle cx="21.4" cy="12.379" r=".66" fill="#000"/>
  <circle cx="7.865" cy="14.184" r=".66" fill="#000"/>
  <circle cx="10.589" cy="19.43" r=".439" fill="#000"/>
  <circle cx="21.256" cy="19.43" r=".878" fill="#000"/>
  <circle cx="18.693" cy="21.404" r=".66" fill="#000"/>
  <circle cx="18.568" cy="18.032" r=".439" fill="#000"/>
  <circle cx="7.865" cy="17.794" r=".66" fill="#000"/>
  <circle cx="24.107" cy="17.794" r=".66" fill="#000"/>
  <circle cx="24.109" cy="21.404" r=".66" fill="#000"/>
  <circle cx="21.4" cy="23.209" r=".66" fill="#000"/>
  <circle cx="13.28" cy="6.965" r=".66" fill="#000"/>
  <circle cx="18.693" cy="25.013" r=".66" fill="#000"/>
  <circle cx="10.572" cy="8.77" r=".66" fill="#000"/>
</svg>
