<svg xmlns="http://www.w3.org/2000/svg" width="32" height="32" fill="none" viewBox="0 0 32 32">
  <path fill="#184339" d="M0 0h32v32H0z"/>
  <path fill="#96FCE4" d="M17.015 31.997c-.668 0-1.338.006-2.008 0l-.086-.009c-.114-.007-.228-.006-.341-.018-.219-.023-.437-.052-.655-.079-.168-.02-.338-.036-.505-.066-.29-.053-.582-.11-.87-.175a18.913 18.913 0 0 1-1.008-.253 12.916 12.916 0 0 1-1.002-.326 27.25 27.25 0 0 1-1.27-.523c-.252-.11-.496-.24-.74-.368a13.536 13.536 0 0 1-1.65-1 22.81 22.81 0 0 1-.966-.722 9.66 9.66 0 0 1-.592-.51 21.988 21.988 0 0 1-.778-.748 22.053 22.053 0 0 1-.732-.794 7.658 7.658 0 0 1-.476-.577 26.859 26.859 0 0 1-.884-1.268 17.997 17.997 0 0 1-.706-1.229c-.17-.32-.321-.65-.465-.984a15.21 15.21 0 0 1-.387-.99 16.342 16.342 0 0 1-.591-2.097c-.053-.244-.09-.491-.13-.738a14.297 14.297 0 0 1-.08-.59c-.025-.214-.044-.428-.064-.642-.007-.076-.01-.153-.018-.229-.001-.014-.008-.025-.008-.047 0-.678-.006-1.305 0-1.986 0-.022.007-.064.008-.076.028-.3.053-.602.082-.903.018-.177.037-.354.066-.53.042-.25.087-.502.143-.75.093-.409.183-.82.3-1.223.113-.394.243-.785.39-1.168.177-.456.367-.906.572-1.35.237-.51.517-1 .815-1.48.285-.459.59-.902.92-1.329.2-.256.408-.506.622-.75.242-.275.49-.543.744-.806.154-.16.32-.31.486-.457.242-.216.482-.435.735-.637.318-.254.645-.496.974-.736.478-.347.984-.65 1.504-.93a17.248 17.248 0 0 1 2.162-.969c.412-.15.831-.282 1.253-.402.341-.098.69-.171 1.036-.246.219-.047.44-.079.662-.114.157-.025.316-.044.474-.065.17-.022.342-.046.513-.062.16-.016.321-.022.481-.035l.018-.009c.678 0 1.372-.005 2.052 0l.031.01c.301.027.602.052.903.081.177.018.354.036.53.066.276.047.553.095.826.16.478.114.955.233 1.428.367a9 9 0 0 1 .886.306c.452.18.9.368 1.343.567.256.115.502.25.746.388.317.18.633.36.939.556.314.202.62.418.923.637.206.148.404.308.6.469.173.142.343.29.507.442.263.245.526.49.778.748.254.259.497.529.737.8.164.185.327.372.471.571.304.419.604.84.889 1.272a15.22 15.22 0 0 1 .965 1.762c.127.27.256.54.36.818.172.457.338.916.481 1.383.126.413.221.836.323 1.257.047.194.08.391.113.588.032.19.056.383.082.574.027.202.057.404.078.607.017.167.022.336.035.505 0 .013-.002.036.008.049 0 .678.006 1.35 0 2.03 0 0 0 .022-.008.032-.028.3-.053.602-.082.903a7.57 7.57 0 0 1-.066.53c-.047.276-.095.553-.16.825-.114.478-.227.957-.369 1.427a16.42 16.42 0 0 1-.445 1.248c-.137.35-.293.691-.451 1.032-.11.235-.232.465-.36.692-.179.316-.36.632-.555.938a17.08 17.08 0 0 1-.597.867 12.45 12.45 0 0 1-.962 1.175c-.22.24-.439.483-.669.714-.197.198-.409.384-.617.572-.164.148-.328.298-.501.435-.258.204-.523.4-.786.597-.411.306-.838.59-1.286.838-.405.223-.813.44-1.227.646a9.376 9.376 0 0 1-.872.388c-.462.174-.928.34-1.399.485-.39.12-.79.212-1.187.306-.224.053-.453.09-.681.13-.177.03-.356.055-.534.08-.202.029-.403.058-.606.079-.173.017-.348.022-.521.035l-.041.008Zm.715-23.65c.005.022.014.044.015.067.012.181.025.363.032.544.009.202.015.403.017.605.002.299 0 .598 0 .897v.728c.092-.027.193-.063.297-.087.234-.052.468-.101.703-.146.17-.033.342-.057.513-.084l.599-.093c.126-.019.252-.034.378-.052.139-.02.277-.042.416-.06.142-.018.285-.032.427-.05.15-.019.298-.043.447-.062.153-.019.307-.03.46-.05.248-.03.495-.066.743-.095.207-.024.415-.045.623-.064.215-.018.43-.032.644-.048l.228-.016c.25-.021.501-.045.752-.064.173-.013.347-.023.52-.032a73.5 73.5 0 0 1 1.133-.049c.389-.01.779-.025 1.168-.03.239-.003.478.007.717.016.223.008.426.224.43.448.002.04.017.081.02.122.005.065.02.135.004.195a7.101 7.101 0 0 1-.187.64c-.12.337-.25.671-.384 1.003-.083.204-.179.402-.27.603-.082.182-.162.366-.25.546-.11.22-.226.437-.343.654-.1.187-.198.378-.31.558-.233.372-.473.74-.715 1.105a15.643 15.643 0 0 1-.94 1.271c-.193.242-.386.486-.59.718-.218.248-.453.48-.674.726-.08.09-.17.178-.184.316-.032.313-.1.62-.209.916-.084.232-.17.467-.283.686a8.003 8.003 0 0 1-.454.75 5.843 5.843 0 0 1-.412.535c-.11.127-.236.24-.355.359-.016.015-.03.032-.045.05l.261-.032c.163-.02.326-.056.488-.056.4 0 .802.017 1.202.028.06.002.121.01.18.02.155.024.309.052.463.078.182.03.366.057.547.094.178.037.355.08.529.13.2.06.402.117.593.199.309.133.601.3.867.508.158.123.323.24.462.383.178.183.342.384.455.641 2.24-3.468 3.01-7.222 2.222-11.255-.726-3.714-2.633-6.742-5.655-9.014-3.562-2.68-7.583-3.58-11.952-2.742-3.642.7-6.626 2.56-8.894 5.49-2.587 3.34-3.585 7.145-3.005 11.33.453 3.268 1.893 6.07 4.192 8.421.11-.137.22-.277.334-.413a.191.191 0 0 0 .026-.215c-.053-.092-.103-.186-.156-.278-.143-.251-.285-.504-.433-.753-.18-.302-.366-.6-.546-.903-.18-.303-.36-.605-.528-.914a20.765 20.765 0 0 1-.476-.933 9.997 9.997 0 0 1-.296-.69c-.18-.46-.353-.924-.465-1.408a9.996 9.996 0 0 1-.12-.59c-.022-.123-.024-.25-.034-.375-.017-.201-.039-.403-.047-.605-.008-.186-.001-.373-.001-.56 0-.035-.003-.07-.002-.104.002-.136-.003-.273.009-.409.01-.117.035-.234.057-.35.03-.165.058-.33.097-.493.081-.335.193-.66.344-.97.142-.29.31-.569.516-.821.146-.179.279-.37.433-.541.143-.16.301-.308.464-.449.228-.197.463-.387.7-.574a9.99 9.99 0 0 1 1.183-.782c.103-.06.216-.104.268-.224.026-.061.054-.122.088-.18.177-.296.351-.596.538-.888.11-.171.24-.329.361-.494.14-.192.273-.388.418-.576.202-.263.413-.52.62-.78.18-.228.356-.46.54-.684.2-.244.404-.486.612-.724.15-.171.31-.333.465-.5.147-.156.29-.315.44-.469.12-.123.248-.239.372-.359.044-.043.086-.089.131-.13.128-.119.255-.238.385-.353.208-.184.418-.365.628-.547.162-.141.32-.287.486-.422.215-.175.434-.346.656-.512a57.66 57.66 0 0 1 1.675-1.177c.204-.138.414-.267.622-.4.162-.102.327-.2.532-.165.022.004.048.004.066.015.153.095.27.224.327.395.061.184.113.373.162.562.086.333.167.668.25 1.002.05.202.103.403.15.606.066.286.13.572.191.859a16.597 16.597 0 0 1 .257 1.444c.027.204.044.41.065.631Zm.534 10.825c.017-.005.034-.013.052-.015.258-.027.516-.05.774-.08a19.18 19.18 0 0 0 1.603-.258 1.38 1.38 0 0 0 .606-.292.32.32 0 0 0 .116-.245c.009-.154-.083-.26-.196-.329a6.14 6.14 0 0 0-.657-.35c-.294-.135-.599-.247-.897-.371a4.769 4.769 0 0 0-.858-.27c-.29-.06-.58-.11-.872-.16-.184-.032-.37-.057-.555-.082-.135-.018-.27-.037-.406-.045-.129-.008-.259-.002-.363-.002.068.036.165.077.247.136.084.06.16.133.23.21.209.226.23.504.146.775-.127.41-.41.693-.807.86a1.29 1.29 0 0 1-.674.08 1.321 1.321 0 0 1-.674-.277c-.327-.261-.392-.578-.32-.916.05-.23.18-.422.349-.582.104-.098.229-.175.338-.257-.184.027-.383.047-.578.087-.276.055-.55.122-.824.187-.474.113-.918.295-1.304.598-.092.072-.18.156-.248.25a.865.865 0 0 0-.12.3c-.062.246.06.434.214.548.195.144.436.192.669.242.298.064.6.112.902.162a10.634 10.634 0 0 0 1.211.127c.262.015.524.03.787.031.48.002.961-.004 1.442-.015.217-.005.435-.03.667-.047ZM4.922 17.857c-.233-.308-.24-.637-.079-.974.157-.325.4-.56.755-.668a2.585 2.585 0 0 0-.705.043c-.183.039-.364.08-.546.123-.25.06-.478.173-.693.308a3.397 3.397 0 0 0-.411.306c-.057.049-.083.133-.125.2a.545.545 0 0 0-.069.406c.025.128.124.204.218.287.226.202.492.324.78.402.286.077.57.156.86.219.233.05.471.081.708.117.078.012.158.01.237.018.24.02.481.048.723.061.178.01.357.006.535.001.209-.006.417-.018.626-.03.239-.015.478-.03.717-.05.099-.008.199-.018.294-.043.162-.043.322-.095.481-.15.176-.06.319-.295.282-.453a.989.989 0 0 0-.142-.35c-.049-.068-.093-.142-.152-.199-.071-.067-.158-.119-.237-.178-.197-.148-.393-.298-.626-.39-.177-.07-.347-.157-.526-.22-.212-.074-.43-.132-.645-.195-.084-.025-.17-.045-.26-.068l.174.192c.202.221.222.493.15.756-.095.343-.322.602-.63.787-.266.16-.556.207-.854.172a1.273 1.273 0 0 1-.84-.43Zm7.66 3.14c-.09-.052-.187-.094-.268-.157-.215-.167-.431-.334-.631-.52-.184-.17-.35-.361-.516-.55-.048-.055-.07-.048-.105.002-.04.055-.082.109-.126.161-.109.132-.218.264-.33.393-.07.081-.146.16-.22.238-.052.054-.112.101-.158.16-.048.059-.036.19.01.237.034.035.172.058.212.036a.704.704 0 0 0 .248-.237c.118-.18.235-.362.354-.542.048-.072.082-.068.136-.001.157.19.31.387.477.568.138.149.29.285.446.414.113.093.237.174.4.17.157-.002.257-.155.201-.27-.02-.043-.077-.067-.13-.102Z"/>
</svg>
