<svg width="346" height="240" viewBox="0 0 346 240" fill="none" xmlns="http://www.w3.org/2000/svg">
<path d="M0 8.62926V231.371C0 236.137 3.86314 240 8.62856 240L55.9226 240C58.8023 240 61.4922 238.563 63.0937 236.17L138.583 123.355V8.62918C138.583 3.86341 134.72 -4.92113e-06 129.955 0L8.62856 6.9196e-05C3.86314 7.19138e-05 0 3.8635 0 8.62926Z" fill="black"/>
<path d="M345.3 231.371L345.3 8.62914C345.3 3.86339 341.437 -4.23094e-05 336.671 -4.2726e-05L221.677 -1.11512e-07C218.759 -3.66676e-07 216.038 1.47545 214.446 3.9216L138.194 121.07L138.126 231.365C138.123 236.133 141.987 240 146.754 240L336.671 240C341.437 240 345.3 236.136 345.3 231.371Z" fill="black"/>
</svg>
