<svg width="428" height="428" viewBox="0 0 428 428" fill="none" xmlns="http://www.w3.org/2000/svg">
<rect width="428" height="428" fill="white"/>
<path d="M39 99.6293V322.371C39 327.137 42.8631 331 47.6286 331H94.9226C97.8023 331 100.492 329.563 102.094 327.17L177.583 214.355V99.6292C177.583 94.8634 173.72 91 168.955 91L47.6286 91.0001C42.8631 91.0001 39 94.8635 39 99.6293Z" fill="black"/>
<path d="M384.3 322.371V99.6291C384.3 94.8634 380.437 91 375.671 91L260.677 91C257.759 91 255.038 92.4754 253.446 94.9216L177.194 212.07L177.126 322.365C177.123 327.133 180.987 331 185.754 331H375.671C380.437 331 384.3 327.136 384.3 322.371Z" fill="black"/>
</svg>
