<svg xmlns="http://www.w3.org/2000/svg" width="32" height="32" fill="none" viewBox="0 0 32 32">
  <path fill="#E8E8E8" d="M0 0h32v32H0z"/>
  <path fill="#000508" fill-rule="evenodd" d="M16.125 1.916c.924.01 1.49.04 1.857.096a16.21 16.21 0 0 1 2.333.572 16.331 16.331 0 0 1 1.982.824c.206.107.628.344.929.531.3.188.808.531 1.119.764.306.233.577.455.592.49.02.036-.166.259-.462.557-.276.268-.522.49-.547.49a1.454 1.454 0 0 1-.276-.196 10.434 10.434 0 0 0-.803-.587 13.51 13.51 0 0 0-1.38-.79c-.471-.232-1.113-.5-1.555-.647a15.229 15.229 0 0 0-1.38-.379 19.52 19.52 0 0 0-1.204-.187c-.361-.036-.989-.05-1.681-.03-.813.015-1.265.05-1.706.131-.332.06-.818.167-1.08.233-.26.065-.712.202-1.003.303-.29.101-.888.364-1.33.582-.441.217-.923.47-1.33.733l.929.936.401-.228c.221-.126.628-.328.904-.45.276-.121.717-.293.978-.384.261-.086.703-.213.979-.278.276-.066.762-.152 1.079-.198.316-.04.792-.086 1.053-.106.261-.015.793-.005 1.18.025.386.03.908.086 1.154.132.245.04.697.142 1.003.217.306.081.778.233 1.054.334.276.106.783.334 1.129.511s.828.455 1.079.617c.25.162.677.476.953.703.276.223.738.653 1.024.956.286.304.672.759.858 1.007.186.248.482.693.652.986.176.293.412.739.532.986.116.248.291.673.387.936.1.263.245.754.33 1.088.081.333.191.854.242 1.163.065.415.09.84.085 1.644 0 .647-.025 1.254-.065 1.492-.035.223-.096.577-.136.784-.045.207-.15.642-.246.961-.09.319-.27.835-.401 1.138-.126.303-.336.749-.462.986-.13.238-.411.693-.622 1.012a12.64 12.64 0 0 1-.567.784c-.095.111-.18.192-.19.177-.006-.015-.236-.253-1.004-1.037l.25-.329c.136-.182.352-.485.477-.683.12-.197.347-.607.497-.91.156-.303.346-.748.432-.986a11.548 11.548 0 0 0 .496-1.897c.06-.36.086-.794.086-1.492s-.025-1.133-.086-1.492a11.35 11.35 0 0 0-.497-1.897 11.892 11.892 0 0 0-.446-1.022c-.166-.329-.311-.597-.336-.597-.02 0-.236.203-.938.906l.26.546c.141.298.317.728.382.951.07.223.175.642.236.936.06.293.125.804.145 1.138.015.334.015.86-.005 1.163-.02.304-.08.784-.135 1.062-.055.279-.17.724-.256.987a9.927 9.927 0 0 1-.407 1.011c-.14.294-.426.794-.637 1.113-.21.319-.587.794-.838 1.057a9.603 9.603 0 0 1-.803.764c-.196.157-.532.41-.753.556-.22.142-.627.375-.903.506a9.576 9.576 0 0 1-1.028.425c-.291.096-.773.223-1.08.283-.305.06-.857.122-1.229.137-.411.02-.903.005-1.254-.036a9.209 9.209 0 0 1-2.083-.49 9.83 9.83 0 0 1-.803-.354 12.1 12.1 0 0 1-.888-.511c-.24-.162-.441-.319-.441-.35 0-.035.216-.293.953-1.077l.286.198c.16.106.482.293.718.41a9.84 9.84 0 0 0 1.003.41 8.66 8.66 0 0 0 1.154.272c.422.066.753.081 1.23.061a9.174 9.174 0 0 0 1.079-.111c.236-.046.617-.147.853-.228.236-.076.617-.233.853-.344.236-.111.642-.349.903-.52a7.473 7.473 0 0 0 1.004-.85c.33-.334.657-.729.863-1.043a7.96 7.96 0 0 0 .532-.935c.11-.238.255-.602.326-.81.065-.207.165-.571.215-.809.076-.334.096-.637.096-1.39 0-.755-.02-1.058-.096-1.392a8.582 8.582 0 0 0-.215-.81 7.448 7.448 0 0 0-.311-.783 8.132 8.132 0 0 0-.472-.845c-.155-.248-.286-.46-.286-.48.005-.026.431-.491 1.907-2.039l-.567-.571a11.944 11.944 0 0 0-.964-.88c-.22-.167-.572-.415-.777-.547a10.74 10.74 0 0 0-.979-.54 13.25 13.25 0 0 0-1.204-.492 10.006 10.006 0 0 0-1.154-.303 13.29 13.29 0 0 0-1.18-.162 9.591 9.591 0 0 0-1.129-.02c-.276.02-.727.066-1.003.106a9.957 9.957 0 0 0-2.283.637 11.39 11.39 0 0 0-1.029.506c-.276.157-.677.41-1.28.85L9 7.278c-.893-.92-.958-.982-1.069-.926-.06.03-.416.37-.788.744-.371.379-.848.915-1.058 1.193a13.74 13.74 0 0 0-.608.86 16.91 16.91 0 0 0-.466.784c-.126.238-.351.703-.502 1.037-.146.334-.346.855-.442 1.163-.095.309-.235.82-.3 1.139-.07.318-.161.773-.196 1.011-.04.278-.066.91-.066 1.77.005 1.179.015 1.422.12 1.998.066.36.196.941.292 1.29.095.35.27.895.396 1.214.126.319.362.845.522 1.163.16.32.472.855.693 1.19.22.333.537.778 1.008 1.365l-.487.52c-.265.284-.501.522-.526.517-.02 0-.14-.127-.276-.284a16.31 16.31 0 0 1-.587-.753 17.11 17.11 0 0 1-.663-.997c-.17-.288-.431-.773-.582-1.077-.15-.304-.366-.79-.482-1.072a17.24 17.24 0 0 1-.376-1.088 16.827 16.827 0 0 1-.296-1.178 26.2 26.2 0 0 1-.196-1.063C2.025 17.5 2 16.858 2 15.927c0-1.128.02-1.538.095-2.023a15.908 15.908 0 0 1 .628-2.555c.105-.318.29-.799.406-1.062.115-.263.336-.718.492-1.011.155-.294.476-.83.717-1.189.241-.36.618-.875.838-1.138.221-.263.678-.754 1.019-1.093a18.13 18.13 0 0 1 1.024-.93c.22-.177.672-.501 1.003-.724.331-.217.828-.52 1.104-.667.276-.152.718-.364.979-.48.26-.117.737-.304 1.053-.416.317-.106.894-.278 1.28-.369.386-.096.948-.207 1.255-.248.305-.045.632-.086.727-.1.095-.01.773-.016 1.505-.006Zm10.327 4.785c.03 0 .191.162.352.364.16.198.426.547.587.77.165.222.441.641.617.935.175.293.451.804.612 1.138.16.334.371.82.472 1.077.1.253.26.734.356 1.063.095.323.226.864.296 1.198.065.334.15.825.186 1.088.045.298.07.96.07 1.745-.005.946-.025 1.416-.09 1.871-.05.334-.15.87-.221 1.189-.07.319-.216.855-.321 1.189-.106.333-.296.86-.422 1.163-.125.303-.366.82-.532 1.138-.17.319-.451.81-.632 1.087-.18.279-.502.734-.712 1.012-.211.278-.698.824-1.084 1.219a17.5 17.5 0 0 1-1.205 1.118c-.276.217-.737.556-1.028.748-.291.193-.868.527-1.28.744-.416.212-1.024.496-1.355.622-.33.132-.863.309-1.179.405a18.41 18.41 0 0 1-1.104.273c-.29.056-.718.131-.953.167-.276.04-.939.066-1.882.066-1.28-.006-1.536-.016-2.107-.117a26.42 26.42 0 0 1-1.18-.243c-.29-.07-.762-.212-1.053-.308a17.917 17.917 0 0 1-.954-.354 17.519 17.519 0 0 1-1.054-.5 12.768 12.768 0 0 1-1.179-.684 14.87 14.87 0 0 1-.928-.652c-.206-.157-.407-.324-.442-.375-.05-.07.005-.151.402-.586.256-.279.486-.506.516-.506.026 0 .241.147.477.324.236.182.627.455.878.612.246.156.668.394.929.53.26.137.737.35 1.053.481.317.127.803.299 1.08.38a13.695 13.695 0 0 0 1.68.384c.276.046.929.091 1.556.106.828.02 1.234.01 1.756-.055.371-.046.938-.142 1.255-.213a13.91 13.91 0 0 0 2.409-.804c.29-.132.762-.374 1.053-.541.291-.167.552-.319.577-.33.025-.014-.16-.232-.883-.95l-.763.384c-.421.208-.998.466-1.29.567a12.198 12.198 0 0 1-2.283.572c-.401.057-.911.085-1.53.085-.617 0-1.13-.03-1.53-.085a13.619 13.619 0 0 1-1.255-.259 12.74 12.74 0 0 1-1.154-.354 12.35 12.35 0 0 1-1.054-.47 14.12 14.12 0 0 1-.978-.541 12.188 12.188 0 0 1-.879-.617 14.37 14.37 0 0 1-.948-.83 12.683 12.683 0 0 1-.878-.956c-.21-.263-.502-.652-.637-.86a11.36 11.36 0 0 1-.507-.834c-.14-.253-.336-.648-.442-.885-.1-.238-.276-.693-.381-1.012a11.792 11.792 0 0 1-.502-2.175c-.04-.263-.065-.91-.065-1.441 0-.663.03-1.143.09-1.543.045-.319.13-.774.186-1.012.055-.238.196-.713.311-1.062.11-.349.366-.961.567-1.366.2-.404.507-.95.682-1.214.176-.263.417-.612.542-.768.126-.157.261-.289.301-.294.04 0 .236.162.427.364.196.203.411.43.602.643l-.256.344a13.74 13.74 0 0 0-.502.723c-.13.207-.356.617-.501.91-.146.294-.357.805-.467 1.139-.11.333-.246.814-.301 1.062-.055.248-.126.672-.156.935-.04.299-.05.85-.035 1.442.015.582.06 1.153.11 1.442a11.227 11.227 0 0 0 .638 2.124c.11.263.296.652.612 1.24l.908-.997-.205-.435a9.742 9.742 0 0 1-.387-.971c-.095-.294-.23-.794-.296-1.113-.095-.49-.115-.739-.115-1.593 0-.86.02-1.098.12-1.594.06-.318.19-.82.286-1.113a9.74 9.74 0 0 1 .422-1.036c.135-.279.356-.678.491-.886.136-.207.382-.55.547-.758.166-.208.507-.572.753-.81a10.4 10.4 0 0 1 .848-.713c.22-.157.587-.4.823-.53.236-.137.677-.35.979-.471.306-.122.797-.283 1.104-.36.3-.075.787-.166 1.078-.202.322-.04.828-.055 1.305-.035.482.015.979.066 1.305.131.29.056.792.198 1.114.309.326.111.802.309 1.053.435.256.126.653.354.878.506.231.151.427.293.442.323.015.03-.196.279-.467.557-.265.283-.496.51-.511.51-.015 0-.251-.14-.527-.308a8.485 8.485 0 0 0-1.004-.506 8.825 8.825 0 0 0-.928-.298 8.076 8.076 0 0 0-.979-.162 7.407 7.407 0 0 0-1.053-.02 8.764 8.764 0 0 0-.979.126 8.26 8.26 0 0 0-.928.258 8.717 8.717 0 0 0-.954.415 8.148 8.148 0 0 0-.903.561c-.22.167-.557.45-.748.633a9.297 9.297 0 0 0-.702.814 8.241 8.241 0 0 0-.617.986 9.4 9.4 0 0 0-.412.961c-.09.248-.205.683-.266.961-.08.385-.105.698-.105 1.29-.005.536.025.936.085 1.265.045.263.16.708.251.986.095.278.251.678.356.885.106.208.312.567.728 1.214l-.953.986c-.778.805-.944 1.002-.909 1.078.025.045.301.339.618.642.31.309.757.703.993.88.236.177.642.45.903.602a10.193 10.193 0 0 0 2.158.936c.316.096.803.218 1.079.268.406.076.742.096 1.731.096 1.134-.005 1.28-.015 1.857-.136a11.598 11.598 0 0 0 2.243-.754 8.91 8.91 0 0 0 .843-.45c.22-.132.547-.354 1.053-.723l1.922 2.013.291-.258a14.345 14.345 0 0 0 1.772-1.943c.24-.318.562-.799.717-1.062.156-.263.407-.743.557-1.062.15-.319.361-.81.462-1.087.1-.279.26-.805.356-1.164.096-.359.221-.976.276-1.366.085-.55.11-.94.11-1.77 0-.748-.025-1.24-.085-1.669-.045-.334-.13-.8-.18-1.037a22.924 22.924 0 0 0-.226-.885 20.274 20.274 0 0 0-.356-1.037 14.466 14.466 0 0 0-.542-1.189 15.06 15.06 0 0 0-.643-1.112c-.18-.279-.476-.693-.662-.921-.18-.233-.331-.435-.331-.455 0-.026.21-.258.466-.526.251-.268.492-.49.522-.496h.005ZM15.98 12.513c2.674 0 4.877.02 4.887.04.015.02-1.069 2.155-2.403 4.74-1.34 2.59-2.449 4.709-2.469 4.719-.025.005-1.14-2.114-2.479-4.704-1.345-2.595-2.434-4.735-2.418-4.755.01-.02 2.207-.04 4.882-.04Zm-1.049 4.324a252.361 252.361 0 0 0 1.39 2.666c.02.02.683-1.204 1.475-2.716l1.446-2.757c-5.58 0-5.736.005-5.7.091.02.046.646 1.27 1.39 2.716Z" clip-rule="evenodd"/>
</svg>
