<svg xmlns="http://www.w3.org/2000/svg" width="32" height="32" fill="none" viewBox="0 0 32 32">
  <path fill="#121212" d="M0 0h32v32H0z"/>
  <path fill="#fff" d="M18.313 13.334h-4.622a.356.356 0 0 0-.356.355v4.622c0 .197.16.356.356.356h4.622c.197 0 .356-.16.356-.356V13.69a.356.356 0 0 0-.356-.355ZM12.978 8H8.356A.356.356 0 0 0 8 8.356v4.622c0 .196.16.356.356.356h4.622c.196 0 .356-.16.356-.356V8.356A.356.356 0 0 0 12.978 8Zm10.667 0h-4.623a.356.356 0 0 0-.355.356v4.622c0 .196.159.356.355.356h4.623c.196 0 .355-.16.355-.356V8.356A.355.355 0 0 0 23.645 8ZM12.978 18.666H8.356a.356.356 0 0 0-.356.356v4.622c0 .197.16.356.356.356h4.622c.196 0 .356-.16.356-.356v-4.622a.356.356 0 0 0-.356-.355Zm10.667 0h-4.623a.356.356 0 0 0-.355.356v4.622c0 .197.159.356.355.356h4.623c.196 0 .355-.16.355-.356v-4.622a.355.355 0 0 0-.355-.355Z"/>
</svg>
