<svg xmlns="http://www.w3.org/2000/svg" width="32" height="32" fill="none" viewBox="0 0 32 32">
  <path fill="url(#a)" d="M0 0h32v32H0z"/>
  <path fill="#fff" d="m9.068 17.224.673-5.072-5.85-4.062L9.236 9.9 10.5 7.964l4.61-2.862L25.272 10.7l.527 8.545-4.525 6.293-3.578.547 1.852-3.389v-3.262l-1.347-2.546-1.368-.905-2.105 2.167v2.294l-1.641 1.537-2.084.252-.926.526-1.515-.484-.631-2.272 1.136-1.6v-1.179Z"/>
  <path fill="#94A6C3" d="M18.413 8.048c-1.116-.231-2.337-.168-2.337-.168s-.4 1.852-2.883 2.336c.021 0 3.283 1.115 5.22-2.168Zm1.01 16.795c1.347-1.052 2.357-2.504 2.82-4.146.02-.063.21-.168.337-.253.21-.126.42-.231.463-.4.084-.483.126-.989.126-1.494 0-.19-.19-.379-.379-.568-.147-.126-.295-.274-.295-.379a8.02 8.02 0 0 0-2.504-5.009l-.147.148c1.368 1.283 2.252 3.03 2.44 4.882.022.169.19.337.359.505.147.127.315.316.315.4 0 .484-.042.968-.126 1.452-.02.085-.21.169-.358.253-.21.105-.4.21-.442.379a7.778 7.778 0 0 1-3.199 4.356c.274-.589 1.137-2.504 1.6-3.472l-.084-3.115-2.673-2.589-1.515.21-1.663 2.695s.779.989-.316 2.146c-1.073 1.137-1.915 1.39-1.915 1.39l-.779-.422c.232-.294.695-.736 1.053-1.03.61-.506 1.22-.548 1.22-1.095.021-1.137-1.2-.821-1.2-.821l-.441.42-.19 1.558-.926 1.158-.105-.021-1.515-.337s.926-.484 1.073-1.031c.147-.526-.295-2.273-.316-2.378.021.02.442.378.632.968.337-.926.778-1.81.905-1.894.126-.085 1.83-.99 1.83-.99l-.567 1.495.42-.232 1.01-2.483s.99-.484 1.726-.484c1.326-.021 3.284-1.642 2.4-4.546.252.105 4.63 2.294 5.387 6.587.569 3.304-1.304 6.398-4.461 8.187Z"/>
  <path fill="#1B314F" d="M14.414 8.511c.484-.568.294-1.41.294-1.41l-1.41 2.084c-.02 0 .505.02 1.116-.674ZM9.678 19.897l.169-.842s-.695 1.221-.758 1.39c-.063.189.042.526.316.505.273-.021.61-.421.61-.716 0-.379-.337-.337-.337-.337Z"/>
  <path fill="#000" d="M22.18 6.512s1.052.042 2.146.168c-2.462-1.936-4.798-2.504-6.692-2.504-2.61 0-4.378 1.073-4.483 1.136l.82-1.305s-3.283-.315-4.44 3.157c-.295-.736-.568-1.81-.568-1.81S7.258 6.85 8.058 9.332C6.1 8.617 3.3 7.627 3.196 7.606c-.147-.02-.19.042-.19.042s-.041.064.085.169c.231.19 4.651 3.451 5.62 4.083-.211.757-.211 1.115 0 1.473.294.484.315.737.273 1.094-.042.358-.421 3.452-.505 3.83-.084.38-.968 1.727-.926 2.126.042.4.589 2.105 1.073 2.295.358.126 1.242.4 1.831.4.21 0 .4-.043.484-.127.358-.316.463-.379.716-.379h.063c.105 0 .231.021.379.021.336 0 .778-.063 1.094-.357.463-.464 1.263-1.095 1.515-1.39.316-.4.484-.947.4-1.494-.063-.505.21-.947.526-1.389.4-.526 1.137-1.473 1.137-1.473 1.452 1.094 2.357 2.757 2.357 4.609 0 3.283-2.862 5.935-6.398 5.935a6.786 6.786 0 0 1-1.6-.19c1.621.569 2.99.758 4.104.758 2.379 0 3.641-.863 3.641-.863s-.442.569-1.157 1.221h.021c3.936-.547 5.85-3.788 5.85-3.788s-.146 1.052-.336 1.768c5.24-3.936 4.357-8.86 4.336-9.03.042.064.568.695.841 1.032.842-8.67-6.25-11.47-6.25-11.47ZM14.12 20.36c-.085.105-.443.421-.695.653-.253.231-.527.463-.737.673-.084.084-.253.126-.505.126h-.632c.316-.42 1.242-1.389 1.558-1.599.379-.253.568-.505.337-.947-.232-.442-.842-.337-.842-.337s.357-.147.673-.147c-.4-.105-.905 0-1.136.231-.253.232-.21 1.053-.316 1.579-.105.547-.463.82-1.01 1.326-.295.273-.505.358-.674.358a7.241 7.241 0 0 1-1.073-.274c-.21-.274-.526-1.179-.61-1.557.063-.211.315-.653.442-.905.252-.485.4-.758.442-1.01.084-.358.357-2.568.463-3.494.273.357.652.947.568 1.325.61-.862.168-1.704-.042-2.04-.19-.338-.442-1.011-.232-1.727.21-.715.968-2.694.968-2.694s.253.442.61.358c.359-.084 3.242-4.42 3.242-4.42s.778 1.705-.042 2.947c-.842 1.242-1.663 1.473-1.663 1.473s1.158.21 2.231-.568c.442 1.031.863 2.104.884 2.252-.063.147-.905 2.168-.99 2.294-.041.042-.336.126-.546.168-.358.105-.569.169-.653.232-.147.126-.82 1.978-1.136 2.883a1.738 1.738 0 0 0-1.032.737c.148-.106.61-.169.947-.21.295-.022 1.2.462 1.432 1.367v.042c.042.337-.064.653-.232.905Zm-1.98.253c.19-.274.17-.737.19-.884.021-.147.063-.421.232-.463.168-.042.568.02.568.316 0 .273-.295.336-.505.526-.148.147-.442.463-.484.505Zm8.398-4.02c.21-1.073.232-2 .168-2.757a7.713 7.713 0 0 1 1.474 3.788c.02.169.19.337.358.505.147.127.315.295.315.4 0 .484-.042.968-.126 1.452-.021.064-.21.169-.358.253-.21.105-.4.21-.442.379a7.837 7.837 0 0 1-2.778 4.062c1.957-2.042 2.904-5.41 1.39-8.082Zm-1.326 8.271c1.368-1.052 2.42-2.525 2.884-4.188.02-.063.21-.168.336-.253.21-.105.421-.231.463-.4.084-.483.127-.989.127-1.494 0-.19-.19-.379-.38-.568-.104-.126-.273-.274-.273-.379a8.222 8.222 0 0 0-1.726-4.188c-.42-2.526-2.104-3.304-2.146-3.325.042.063 1.136 1.641.378 3.493-.778 1.873-2.778 1.579-2.946 1.6-.168 0-.82.842-1.642 2.4-.105-.043-.547-.148-1.052-.064.379-1.052.947-2.547 1.052-2.673.042-.042.358-.126.569-.19.4-.104.589-.168.652-.252.042-.063.253-.547.463-1.052.19 0 .674-.042.716-.063.042-.042.442-1.074.442-1.2 0-.105-.821-2.147-1.137-2.925.148-.169.295-.38.442-.61a8.62 8.62 0 0 1 7.682 8.565c0 3.41-2 6.377-4.904 7.766Z"/>
  <path fill="#1B314F" d="M13.614 13.5c.4-.464.19-1.327-.547-1.474.19-.442.463-1.326.463-1.326s-2.147 3.368-2.336 3.43c-.19.064-.38-.673-.38-.673-.399 1.536.674 1.747.8 1.263.59-.147 1.6-.779 2-1.22Z"/>
  <path fill="#FFD923" d="m11.783 14.32 1.094-1.873s.632.316.316.82c-.4.59-1.41 1.053-1.41 1.053Z"/>
  <path fill="#D82122" d="M25.316 22.991c-.316.421-.674.863-1.095 1.284 2.715-5.22.127-9.997.021-10.186.19.189.38.4.547.589 2.084 2.315 2.336 5.787.527 8.313Zm2.525-6.714c-.947-2.546-2.294-4.714-5.261-6.671-2.863-1.894-5.935-1.747-6.104-1.726h-.042c.105-.042.21-.063.316-.084.652-.21 1.494-.38 2.336-.484 2.23-.316 4.483.442 6.02 2.062l.041.042c1.747 1.852 2.652 4.167 2.694 6.861ZM21.906 5.86c-3.136-.59-5.156-.295-6.608.252-.042-.168-.19-.505-.316-.779-.442.527-.905 1.158-1.2 1.558-.8.547-1.136 1.073-1.136 1.073.463-1.578 1.81-2.757 3.451-3.052a8.485 8.485 0 0 1 1.516-.126c1.452.021 2.904.38 4.293 1.074ZM10.31 9.9c-2.463-.084-1.642-2.946-1.6-3.114 0 .02.169 2.252 1.6 3.114Zm2.42-5.156c-1.894 1.137-1.515 3.852-1.515 3.852-1.81-2.757 1.368-3.789 1.515-3.852Z"/>
  <path fill="#fff" d="M9.615 10.658c.126.105.253.295.105.568-.084.148-.21.126-.4.042-.252-.126-1.767-1.01-3.135-1.915 1.557.547 3.136 1.137 3.388 1.263l.042.042Z"/>
  <defs>
    <linearGradient id="a" x1="0" x2="32" y1="0" y2="32" gradientUnits="userSpaceOnUse">
      <stop stop-color="#205EC5"/>
      <stop offset=".474" stop-color="#0A0C1B"/>
      <stop offset="1" stop-color="#4E0E40"/>
    </linearGradient>
  </defs>
</svg>
