<svg xmlns="http://www.w3.org/2000/svg" width="32" height="32" fill="none" viewBox="0 0 32 32">
  <path fill="#F5C142" d="M0 0h32v32H0z"/>
  <path fill="#654F36" d="m21.68 10.766-.06-.083a7.634 7.634 0 0 0-1.394-1.468s.105-1.822.596-2.192c.605-.456 2.425 2.312 2.222 2.784 0 0 .013.262-1.364.959Zm-1.788 12.011-.42-.13a.164.164 0 0 0-.21.162v2.511c0 .134.078.255.198.305l.361.15a.202.202 0 0 0 .277-.192v-2.52a.297.297 0 0 0-.206-.286Zm-9.739-11.855A8.547 8.547 0 0 1 11.66 9.33l.054-.043s-.03-1.732-.527-2.108c-.612-.464-2.453 2.347-2.247 2.827 0 0-.18.207 1.213.915Zm11.225 3.789H10.46a.24.24 0 0 0-.235.294c.153.632.678 2.063 2.32 2.124 1.531.056 2.246-.774 2.575-1.477h1.595c.299.66.902 1.433 2.098 1.477 2.07.076 2.648-1.467 2.8-2.126a.24.24 0 0 0-.235-.292Zm-6.172.74c.047-.122.084-.238.11-.34h1.205c.028.102.064.218.11.34h-1.425Zm-3.419 7.326.393-.13c.098-.032.196.05.196.162v2.511a.33.33 0 0 1-.185.305l-.338.15c-.123.056-.258-.044-.258-.192v-2.52c0-.132.078-.248.192-.286Zm1.615-9.387-.12.217c-.099.18.01.396.225.446l1.299.306a.423.423 0 0 0 .479-.21l.08-.171c.076-.159-.008-.342-.186-.405-.377-.135-1-.339-1.385-.376a.402.402 0 0 0-.392.193Zm5.049-.095.107.217a.317.317 0 0 1-.2.446l-1.157.306a.363.363 0 0 1-.427-.211l-.072-.17a.307.307 0 0 1 .166-.406c.336-.134.89-.338 1.234-.376a.347.347 0 0 1 .35.194Zm-1.369 6.575-.96-.518v-1.154l.805-.576a.192.192 0 0 0 .073-.219.194.194 0 0 0-.188-.135h-1.788a.194.194 0 0 0-.188.135.191.191 0 0 0 .072.219l.806.576v1.148l-.958.466a.2.2 0 0 0-.093.27.205.205 0 0 0 .274.092l.976-.474.979.529c.03.016.063.024.098.024a.204.204 0 0 0 .198-.152.206.206 0 0 0-.106-.23Z"/>
  <path fill="#654F36" d="M24.997 21.955c-.016-1.11-.106-2.498-.221-2.802a1.11 1.11 0 0 0-.236-.365.842.842 0 0 0-.65-.26c.564-1.582.068-3.189-.323-4.078-.656-1.496-.839-2.124-.89-2.37.678-.321 1.21-.647 1.586-.968.45-.385.602-.973.405-1.573-.69-2.114-1.763-3.228-2.541-3.79-.671-.484-1.645-.882-2.207-.707-.79.247-.953 1.74-1.057 3.233l-.071.058c-.884-.112-2.554-.124-2.95-.126-.37.002-1.921.014-2.772.123l-.076-.062c-.099-1.49-.255-2.976-1.009-3.224-.333-.11-.891 0-1.456.29-.786.4-2.232 1.482-3.078 4.21-.184.595-.04 1.18.385 1.563.357.321.863.647 1.506.97-.046.243-.218.87-.846 2.378-.366.88-.823 2.439-.333 3.985l-.013-.002a.79.79 0 0 0-.678.256 1.114 1.114 0 0 0-.224.361c-.111.302-.21 1.685-.238 2.795-.03 1.144-.007 2.61.261 3.097.357.647 2.1 1.405 3.497 1.927a1.118 1.118 0 0 0 .843-.025l1.064-.47a1.1 1.1 0 0 0 .66-1.005V25.1l4.892.03-.004.272a1.1 1.1 0 0 0 .688 1.016l1.133.483a1.228 1.228 0 0 0 .875.034c1.5-.504 3.369-1.238 3.758-1.879.294-.486.337-1.955.32-3.102ZM9.1 14.702c1.12-2.69.943-2.896.825-3.033l-.045-.051-.06-.03c-.68-.326-1.198-.65-1.544-.961-.336-.303-.251-.726-.2-.894.776-2.5 2.058-3.47 2.753-3.824.423-.216.724-.259.866-.259.043 0 .071.004.085.008.002.001.21.08.377.945.11.57.154 1.23.184 1.668.036.543.043.64.212.739.092.055.208.06.305.014.194-.077 1.391-.164 2.985-.169 1.695.006 2.96.094 3.158.17l.003.002c.098.042.21.036.302-.019.168-.098.175-.208.213-.736.031-.437.078-1.097.193-1.666.176-.865.396-.943.405-.946.14-.043.809.023 1.626.613.7.505 1.668 1.516 2.304 3.465.055.166.142.583-.21.884-.366.313-.914.637-1.63.964l-.062.028-.045.05c-.125.138-.315.347.869 3.044.403.92.94 2.696-.004 4.255-.732 1.208-2.196 2.062-4.369 2.554-1.913.433-3.908.412-5.798-.113-1.761-.49-2.98-1.271-3.636-2.34-.975-1.582-.457-3.412-.062-4.362Zm3.348 11.17-1.065.47a.551.551 0 0 1-.202.047l.022-3.56a.279.279 0 0 0-.279-.278.279.279 0 0 0-.281.276l-.021 3.397c-1.564-.607-2.67-1.201-2.86-1.543-.121-.22-.236-1.076-.193-2.814.034-1.33.146-2.458.205-2.62 0 0 .233-.422.68-.105.046.088.096.175.15.261.553.9 2.298 1.988 4.06 2.54a.68.68 0 0 1 .11.335v3.097a.544.544 0 0 1-.327.498Zm5.787-1.214-4.9-.03v-2.352c0-.053-.006-.171-.015-.223 1.682.395 3.432.327 4.958.039-.01.047-.015.162-.016.213l-.027 2.353Zm5.962.112c-.208.343-1.418.932-3.12 1.524l.02-3.407a.279.279 0 0 0-.278-.279.279.279 0 0 0-.282.276l-.021 3.56a.665.665 0 0 1-.25-.053l-1.133-.482a.547.547 0 0 1-.35-.5l.04-3.097a.38.38 0 0 1 .183-.311l.265-.067c1.943-.518 3.663-1.661 4.254-2.638.043-.069.275-.203.366-.212a.283.283 0 0 1 .24.084c.057.06.098.12.12.18.062.165.167 1.295.186 2.621.025 1.733-.108 2.583-.24 2.801Z"/>
</svg>
