<svg xmlns="http://www.w3.org/2000/svg" width="32" height="32" fill="none" viewBox="0 0 32 32">
  <path fill="#000" d="M0 0h32v32H0z"/>
  <path fill="#fff" fill-rule="evenodd" d="M27.5 13.12a.374.374 0 0 1 .446.36v1.669a.375.375 0 0 1-.21.304l-.115.034a9.145 9.145 0 0 1-1.585.293l-.069.006a.183.183 0 0 0-.133.162V16c0 .228-.01.453-.024.677v.016a.185.185 0 0 0 .17.179h.002l.035-.002a6.16 6.16 0 0 0 1.419-.231l.012-.004.055-.017a.377.377 0 0 1 .442.307v1.711a.375.375 0 0 1-.218.32l-.01.003a9.274 9.274 0 0 1-2.304.359h-.026a.183.183 0 0 0-.16.132v.002C23.831 23.273 20.19 26 15.916 26c-5.716 0-10.304-4.878-9.89-10.732.348-4.933 4.313-8.913 9.206-9.245 4.823-.327 8.97 2.827 10.218 7.216v.002a.153.153 0 0 0 .011.037.184.184 0 0 0 .152.104h.03c.811-.01 1.404-.128 1.783-.24l.073-.023Zm-4.162 3.296v-.026l.006-.092v-.003c.005-.098.011-.196.011-.295 0-.047-.001-.093-.003-.139l-.002-.06v-.017l-.001-.036a.185.185 0 0 0-.112-.143l-.005-.002a7.51 7.51 0 0 1-.666-.187l-.096-.032c-2.065-.722-4.045-.388-4.96-.156a5.453 5.453 0 0 0-.157.04h-.009a.373.373 0 0 1-.364-.3v-1.857a.372.372 0 0 1 .273-.288c.614-.226 2.279-.635 5.084.085a.055.055 0 0 0 .017.005l.01.002.01.003a.137.137 0 0 0 .038.007.187.187 0 0 0 .186-.187.129.129 0 0 0-.006-.036l-.003-.01a.187.187 0 0 0-.03-.065s-.427-1.508-2.391-2.869C18.203 8.398 15.917 8.5 15.917 8.5c-4.108 0-7.438 3.357-7.438 7.5 0 4.142 3.33 7.5 7.438 7.5 3.404 0 5.795-1.899 6.716-4.283l.006-.014a6.02 6.02 0 0 0 .04-.09l.001-.003a.084.084 0 0 0 .004-.021.187.187 0 0 0-.107-.168l-.008-.003-.003-.001-.014-.005-.082-.028c-2.127-.744-4.164-.367-5.04-.136l-.005.002h-.005l-.004.002a.373.373 0 0 1-.436-.293v-1.845a.374.374 0 0 1 .222-.27l.001-.001.006-.003c.582-.224 2.298-.688 5.261.101a14.597 14.597 0 0 0 .695.167.183.183 0 0 0 .17-.138l.002-.046v-.008Z" clip-rule="evenodd"/>
</svg>
