<svg xmlns="http://www.w3.org/2000/svg" width="32" height="32" fill="none" viewBox="0 0 32 32">
  <path fill="#D6C4A3" d="M0 0h32v32H0z"/>
  <path fill="#101011" d="m6 16 .042.616c.156 2.316 2.875 3.678 5.05 2.531l1.86-.981c.262-.138.567.102.462.363l-.926 2.32c-.684 1.711.432 3.586 2.358 3.962l.789.154c.24.047.49.047.73 0l.79-.154c1.925-.376 3.041-2.25 2.358-3.962l-.924-2.31c-.104-.263.203-.503.464-.363l2.037 1.093c2.047 1.099 4.63-.153 4.826-2.337L26 16H6Zm10.365-8.965a1.909 1.909 0 0 0-.73 0l-.79.154c-1.925.376-3.041 2.25-2.357 3.962l.926 2.32c.105.261-.2.501-.461.363l-1.86-.981c-2.176-1.147-4.895.215-5.051 2.531L6 16h20l-.084-.931c-.196-2.186-2.78-3.437-4.826-2.338l-2.037 1.093c-.261.14-.569-.1-.464-.362l.924-2.311c.683-1.711-.433-3.586-2.359-3.962l-.789-.154Z"/>
</svg>
