<svg xmlns="http://www.w3.org/2000/svg" width="32" height="32" fill="none" viewBox="0 0 32 32">
  <path fill="#301748" d="M0 0h32v32H0z"/>
  <path fill="url(#a)" d="M16.608 26.656a16.029 16.029 0 0 1-1.514-1.602c-1.116-1.436-3.602-3.96-4.22-4.59-.712-.726-1.43-1.45-2.136-2.188-.103-.107-.27-.23-.168-.408.1-.178.296-.151.468-.141a.733.733 0 0 1 .223.05c.505.2 1.01.403 1.515.608 1.01.407 1.998.83 3.01 1.212.609.23.867 0 .752-.638a18.451 18.451 0 0 0-.374-1.582.83.83 0 0 1 .7-1.05c.21-.03.42-.036.628-.053.21-.017.423-.067.505-.31a.534.534 0 0 0-.175-.609c-.686-.661-1.365-1.33-2.045-2a10967.98 10967.98 0 0 1-5.106-5.049A1087.77 1087.77 0 0 1 5.654 5.33c-.099-.098-.203-.184-.124-.337.079-.153.212-.135.348-.108.418.085.719.384 1.049.61.88.606 1.8 1.148 2.693 1.722.623.395 1.256.776 1.877 1.178.62.402 1.21.8 1.82 1.188.88.557 1.766 1.1 2.643 1.658.946.602 1.885 1.215 2.825 1.828.168.111.325.168.505.01s.153-.316.072-.53c-.189-.505-.54-.912-.673-1.43-.047-.168-.084-.336.084-.467a.407.407 0 0 1 .481-.022c.638.302 1.26.64 1.86 1.01.732.46 1.495.868 2.282 1.224 1.281.609 2.505 1.322 3.717 2.046.668.426 1.245.98 1.695 1.633.352.484.647 1.007.877 1.56.327.801.544 1.643.644 2.503.199 1.535-.361 3.508-1.077 4.565a8.646 8.646 0 0 1-2.34 2.444 9.587 9.587 0 0 1-2.02 1.048c-.745.293-1.514.337-2.34.367a1.62 1.62 0 0 1-.203 0c-1.703-.102-3.38-.345-5.74-2.373Zm11.027-5.127a5 5 0 0 0-5.05-5.103c-2.703.015-4.928 2.222-4.937 5.14 0 2.387 2.325 5.05 4.966 4.881 2.728.111 5.004-2.353 5.02-4.918Z"/>
  <path fill="url(#b)" d="M10.604 15.03a.785.785 0 0 0 .757.792.754.754 0 0 0 .744-.806.806.806 0 0 0-.79-.773.768.768 0 0 0-.711.788Z"/>
  <path fill="url(#c)" d="M13.786 5.405c.456 0 .727-.293.726-.76a.776.776 0 0 0-.744-.727c-.337 0-.8.428-.803.75a.783.783 0 0 0 .821.737Z"/>
  <path fill="url(#d)" d="M5.554 12.149a.662.662 0 0 0-.695-.693.77.77 0 0 0-.699.725.727.727 0 0 0 .699.673.675.675 0 0 0 .695-.705Z"/>
  <path fill="url(#e)" d="M22.612 26.439c2.728.12 5.004-2.345 5.02-4.91a5 5 0 0 0-5.049-5.104c-2.703.016-4.928 2.222-4.936 5.14-.009 2.388 2.324 5.042 4.965 4.874Z"/>
  <defs>
    <linearGradient id="a" x1="30.37" x2="5.5" y1="16.953" y2="16.953" gradientUnits="userSpaceOnUse">
      <stop stop-color="#E2107B"/>
      <stop offset="1" stop-color="#301748"/>
    </linearGradient>
    <linearGradient id="b" x1="12.105" x2="10.597" y1="15.031" y2="15.031" gradientUnits="userSpaceOnUse">
      <stop stop-color="#E2107B"/>
      <stop offset="1" stop-color="#0D1126"/>
    </linearGradient>
    <linearGradient id="c" x1="14.512" x2="12.966" y1="4.662" y2="4.662" gradientUnits="userSpaceOnUse">
      <stop stop-color="#E2107B"/>
      <stop offset="1" stop-color="#0D1126"/>
    </linearGradient>
    <linearGradient id="d" x1="5.557" x2="4.164" y1="12.152" y2="12.152" gradientUnits="userSpaceOnUse">
      <stop stop-color="#E2107B"/>
      <stop offset="1" stop-color="#0D1126"/>
    </linearGradient>
    <linearGradient id="e" x1="30.322" x2="17.901" y1="24.41" y2="19.622" gradientUnits="userSpaceOnUse">
      <stop stop-color="#301748"/>
      <stop offset="1" stop-color="#E2107B"/>
    </linearGradient>
  </defs>
</svg>
