<svg xmlns="http://www.w3.org/2000/svg" width="33" height="33" fill="none" viewBox="0 0 33 33">
  <path fill="#FFFFFE" d="M.125.125h32v32h-32z"/>
  <path fill="#fff" d="M19.43 14.359c1.182-.302 2.404-.107 3.299.522.71.502 1.205 1.31 1.396 2.276.067.34.116 1.106.09 1.388l-.018.194h-5.523v.084c0 .128.076.465.148.656a1.76 1.76 0 0 0 1.11 1.08c.21.07.274.078.683.078.495.003.628-.023.982-.194.228-.11.57-.438.651-.621l.055-.125h.866c.715 0 .863.006.863.04 0 .062-.133.404-.234.607-.45.891-1.246 1.478-2.32 1.707-.362.078-1.2.099-1.587.04-1.648-.252-2.77-1.367-3.09-3.073-.073-.39-.073-1.42.002-1.76q.328-1.511 1.422-2.336c.284-.215.823-.467 1.205-.563m1.692 1.448c-.197-.06-.287-.072-.594-.07-.403 0-.617.047-.921.192-.22.105-.533.392-.663.61a2.5 2.5 0 0 0-.255.728l-.017.137h3.651l-.017-.093c-.139-.793-.541-1.306-1.184-1.504m-13.997-4.44h2.36c2.828 0 3.032.014 3.85.279a3.95 3.95 0 0 1 1.52.893c.785.732 1.246 1.623 1.464 2.84.081.443.111 1.583.06 2.115-.144 1.458-.712 2.675-1.599 3.43-.772.653-1.685.99-2.865 1.053-.569.032-4.74.038-4.77.008-.011-.013-.02-2.407-.02-5.32zm2.156 1.88v.098c0 .05-.003 1.443-.01 3.091-.008 1.65-.005 3.166.004 3.374l.015.374h1.039c.574 0 1.176-.015 1.344-.03a3.1 3.1 0 0 0 1.018-.264c1.095-.515 1.586-1.476 1.59-3.107.002-1.796-.623-2.889-1.908-3.339-.446-.158-.616-.173-1.9-.185zm15.177-3.122-.068.124c-.168.302-.609.614-.947.668l-.13.024v.493h.923v2.618h.889v-3.927z"/>
  <path fill="#F7B640" fill-rule="evenodd" stroke="#F7B640" stroke-linejoin="round" stroke-width=".25" d="M14.582.125h.845l-.026 4.713q-.405.052-.81.107zm1.548 0h1.383l.027 4.766-1.351-.053zm-2.395.138-.02 4.788-2.793 1.002c-.333-.533-.89-2.732-1.062-3.442-.081-.338-.355-.767-.246-1.106l.31-.104c.452.426 1.286 2.382 1.677 3.053.168.287.273.765.582.917q.276-.081.553-.165l.035-4.72zm4.636.025.895.164.067 4.546.56.16L22.1 1.26l.08.003.4.245c.103.255-.118.594-.187.844-.227.815-.408 1.7-.72 2.483-.165.415-.498 1.036-.029 1.284-.222.138-.504-.155-.746-.237-.515-.173-2.182-.624-2.518-.83zm1.644.314 1.292.365-1.26 2.422zM11.91.693c.235.183.13 1.792.13 2.171-.002.215.057.477-.105.61l-1.306-2.41zM23.382 1.87l1.22.714-1.993 2.012c-.143-.182.041-.451.083-.666.088-.445.412-1.75.69-2.06Zm-14.621.043c.233.056.269.463.325.682.144.575.706 1.702.608 2.25L7.486 2.677zm16.49 1.083.134.028.624.506-3.24 3.356-1.113-.607c1.135-.371 2.559-2.448 3.595-3.283Zm-18.464.147q1.703 1.65 3.406 3.296l-.712.553L6.146 3.64zm19.904.967.594.54-3.235 3.303-.701-.552zm-21.193.059 3.261 3.23c-.029.302-.74.928-1.039.992L4.545 5.08zm22.317 1.074.91 1.009-2.274 2.246-.32-.815-.8 1.814-.767-.977zm-11.8 5.096c-2.788.436-6.12.439-8.694 1.654-.525.248-.919.624-1.394.927.066-1.026 1.07-2.443 1.682-3.255 1.848-2.45 5.78-4.684 8.926-4.134q-.262 2.405-.52 4.808ZM4.01 5.724Q5.65 7.362 7.293 9l-.534.714-3.296-3.355zm25.263 1.22.47.803-2.332 2.403c-.447-.176-.519-.368-.621-.83zm-26.325.11 3.39 3.388-.54.874-3.402-3.409zM30.2 8.496l.49 1.06-2.211.678c.01-.191 1.508-1.709 1.72-1.738Zm-28.217.146 2.161 2.131-2.75-.839zM31 10.312l.17.467q-1.863 1.033-3.727 2.064c.043.176.017.445.173.568.229.181.845.072 1.128.072.834 0 2.443-.208 3.18.076q.012 0 .022.003l.076.912-4.64.023c-.171-.404-.645-2.322-.386-2.629.282-.331 1.859-.74 2.336-.914q.052-.103.107-.203zm-29.92.363 4.458 1.368q-.191.59-.38 1.183L.961 10.988l-.022-.066zm30.43.852q.128.595.254 1.191l-2.592-.035q1.17-.576 2.339-1.156ZM.443 13.125l.266-1.275c.232-.118.528.14.731.253.628.356 1.256.676 1.851 1.06zm-.152.762q2.327.021 4.655.046l-.1.618c-.75.245-2.55.05-3.41.053-.351 0-.923.117-1.21-.09zm31.835 1.393v.943l-4.555-.018-.051-.885zm-32 .048 4.66.075-.054 1.329q-2.302.016-4.606.03zm5.33-.002c.166.253.185.666.291.96.255.721.71 1.51 1.287 2.021 1.878 1.659 5.104.657 6.945-.62.538-.374.839-.96 1.326-1.35.398.207 1.037-.146 1.381.183l-.056 2.3 3.738-.24c.325.43.113 1.25-.044 1.719-.447 1.337-1.47 2.313-2.784 2.817-.38.148-.835.13-1.195.293q-.122 1.71-.246 3.417c-.938.222-2.229-.136-3.124-.426-3.447-1.116-6.06-3.711-7.129-7.17-.309-.995-.744-2.903-.39-3.904Zm26.67 1.603v.797l-.07-.002-.092.644-4.658-.082.21-1.333zM.263 18.43l-.068-.698-.07-.004v-.113c1.005-.315 2.366-.099 3.432-.099.381 0 .93-.1 1.273.077l.09.746zm31.542.729q-.067.465-.131.93-1.83.03-3.662.066l-.149.586 2.978 1.633-.014.158-.157.397-.1.072-3.318-.903c-.082.133-.274.352-.274.512 0 .255.466.567.632.735.522.522 1.403 1.139 1.724 1.798q-.332.462-.669.922c-.331-.054-.645-.528-.879-.763q-.88-.882-1.76-1.761c-.225-.223-.58-.458-.654-.772.464-.738.954-1.471 1.28-2.29.103-.259.313-1.194.48-1.328.246-.2 2.297-.066 2.734-.067.319 0 1.776-.087 1.939.075Zm-11.88-.02-7.99.673c-.099.496.327 1.14.62 1.511 1.194 1.52 3.195 1.881 4.953 1.232.56-.207 1.803-.841 1.816-1.547-.437-.123-2.096.194-2.12-.32.47-.396 2.064.198 2.478-.18.141-.128.132-.331.197-.497.093-.239.202-.647.047-.871Zm-19.473.034q2.353.019 4.706.035c.317.622.436 1.349.758 1.974.272.526.752 1.048.95 1.598l-3.281 3.282q-.339-.457-.68-.91l2.41-2.543-.317-.522-3.282.927-.312-.592 2.919-1.574c-.04-.175-.016-.445-.17-.567-.21-.166-.712-.072-.969-.072-.843.003-1.695.032-2.535-.013zm30.91 1.808q-.028.175-.052.347l-.12.354-1.585-.834 1.65-.034q.051.083.106.167Zm-30.233.752-.226-.752q.847.014 1.694.025zm1.335 2.72q-.196-.321-.387-.643c.115-.345 1.16-.44 1.496-.56.012.316-.798 1.094-1.109 1.203Zm27.716-.643-.394.605-1.178-1.166c.24-.016 1.519.365 1.572.56ZM5.026 27.666l-.903-.968 3.27-3.236.889 1.015zm23.1-.962-.581.621-3.252-3.275.557-.581zM26.96 27.92l-1.07.857q-1.631-1.643-3.267-3.285l1.107-.865zm-20.604.85-.658-.53 3.143-3.232.758.484zm7.475 3.198q-.535-.105-1.068-.205l-.053-3.017q-.333-.043-.667-.09l-1.361 2.508-.482-.159q.407-1.475.818-2.952l-.576-.387q-1.187 1.143-2.375 2.29l-1.088-.702 3.302-3.34c.798.39 1.571.815 2.423 1.073.264.08.904.104 1.07.322.196.254.065.962.065 1.277 0 1.127.005 2.254-.008 3.381Zm11.432-2.714-.92.616-2.375-2.276-.493.3.842 2.951-.742.316-1.376-2.628-.685.122-.027 3.108-1.114.198.051-4.708c.463-.202 1.013-.261 1.495-.425.701-.238 1.355-.622 2.041-.909zm-9.252 2.872h-1.426l-.002-4.713 1.41.155q.008 2.28.018 4.558Zm1.552 0h-.802l-.023-4.56.796-.153c.243.258.118.888.117 1.228-.005 1.127.153 2.401-.088 3.485ZM9.4 30.657l-.08.016-.461-.301.948-1.04c.102.264-.156 1.19-.407 1.325Zm14.2-.387-.58.259-.36-1.206c.262.016.93.68.94.947Zm-2.73 1.117-.53.176c-.284-.194-.138-.95-.138-1.27.267.265.602.673.669 1.094Zm-8.961.178-.477-.124c.065-.353.281-.856.61-1.005.01.285.134.973-.133 1.129Z" clip-rule="evenodd"/>
  <path fill="#FFFFFE" fill-rule="evenodd" stroke="#FFFFFE" stroke-linejoin="round" stroke-width=".25" d="M14.524.125h.058l.01 4.82.81-.107.025-4.713h.703l.059 4.713 1.351.053-.027-4.766h.235l.005.098q.24-.01.48-.016l.138.081.01 4.763c.336.207 2.003.658 2.518.831.242.082.524.375.746.237-.469-.248-.136-.87.029-1.284.312-.783.493-1.668.72-2.483.07-.25.29-.59.188-.844l.8.362c-.278.31-.602 1.615-.69 2.06-.041.215-.226.484-.083.666l1.993-2.012.248.024.268.31.133.078c-1.036.835-2.46 2.912-3.595 3.283l1.113.607 3.24-3.356.682.58L23.35 7.4l.7.552q1.619-1.65 3.236-3.301l.116.027.01.107.404.458-3.251 3.277.767.977.8-1.814.32.815q1.136-1.124 2.274-2.246l.116.08.252.427.18.184-2.482 2.378c.102.461.174.653.62.83l2.333-2.404.457.75c-.213.028-1.71 1.546-1.721 1.736l2.21-.677.233.192c-.084.209-.02.25.09.426q-.005.07-.012.138l-1.56.439-.108.203c-.477.174-2.054.583-2.336.914-.26.307.215 2.225.386 2.629l4.64-.023q.05.026.102.05v.756l-4.606.04.051.885 4.555.018v.706l-4.61.024-.21 1.333 4.658.082.08.078v.213l-.121.215q-.06.142-.117.285c-.163-.162-1.62-.075-1.939-.075-.437.001-2.488-.133-2.734.067-.167.134-.377 1.07-.48 1.329-.326.818-.816 1.55-1.28 2.289.074.314.43.55.653.772.59.586 1.174 1.173 1.761 1.76.234.236.548.71.88.764l-.214.226-.326.413-3.276-3.235-.557.58 3.252 3.276q-.232.258-.465.514l-.12.08-3.23-3.293-1.107.865 3.268 3.285q-.209.171-.416.344l-.145.202-.067-.07-3.303-3.334c-.686.287-1.34.67-2.04.91-.483.163-1.033.222-1.496.424l-.051 4.708-.14-.038-.16.052-.32.053-.005.098h-.185c.241-1.084.083-2.358.088-3.485.001-.34.126-.97-.117-1.228l-.796.154.023 4.559h-.75l-.019-4.558-1.409-.155.002 4.713h-.083l-.005-.098-.373-.053q-.147-.003-.293-.008c.013-1.127.008-2.254.008-3.38 0-.316.131-1.024-.064-1.278-.167-.218-.807-.242-1.071-.322-.852-.258-1.625-.682-2.423-1.073l-3.302 3.34-.06.069-.148-.15-.415-.403L9.6 25.491l-.758-.484-3.143 3.232-.38-.198-.16-.16q-.067-.107-.132-.215l3.256-3.189-.889-1.015-3.27 3.236q-.164-.203-.325-.407-.106-.116-.213-.229 1.64-1.642 3.282-3.282c-.199-.55-.68-1.073-.951-1.598-.322-.625-.44-1.352-.758-1.974q-2.353-.015-4.706-.035l-.07-.086-.054-.213-.121-.215q.026-.113.056-.229l4.657-.09-.09-.747c-.342-.178-.892-.077-1.273-.077-1.066 0-2.427-.216-3.432.1v-.854l4.606-.03.054-1.329-4.66-.075v-.804l.1-.01c.287.207.859.09 1.21.09.86-.003 2.66.192 3.41-.053l.1-.618-4.656-.046-.083-.083.121-.268.055-.373.059-.038 2.848.038c-.595-.384-1.223-.704-1.85-1.06-.204-.113-.5-.371-.732-.253l-.005-.075-.016-.266c.154-.136.237-.268.16-.48q.057-.022.115-.041l4.196 2.238.381-1.183-4.458-1.368q-.037-.065-.074-.126l.282-.535.106-.08 2.75.839-2.161-2.13.144-.443.269-.293q1.702 1.703 3.402 3.409l.54-.874-3.39-3.388-.02-.135.534-.56 3.296 3.356L7.293 9 4.01 5.724l.198-.405.16-.16.176-.077L7.72 8.39c.3-.064 1.01-.69 1.039-.991l-3.261-3.23.472-.451.176-.077 3.335 3.35.712-.552Q8.49 4.793 6.787 3.143l.132-.215.567-.251 2.208 2.168c.098-.548-.464-1.675-.608-2.25-.056-.22-.092-.626-.325-.682l.08-.105q.08.006.16.016l.48-.329.133.01c-.109.34.165.768.246 1.106.172.71.729 2.91 1.062 3.442l2.794-1.002.019-4.788q.034-.03.069-.056l.32.068.373-.052zm4.742.327.194-.085.214.121.341.114.032 2.787 1.26-2.422.074.056.32-.016.4.253-2.209 3.898-.559-.16zm-6.495.033-.035 4.721-.553.165c-.309-.152-.414-.63-.582-.917-.39-.67-1.225-2.627-1.677-3.053l.25-.165h.16q.107-.116.215-.229l.08.058 1.306 2.41c.162-.134.103-.396.104-.61 0-.38.106-1.99-.13-2.172q.12-.085.24-.166l.16.069q.134-.053.267-.108zM5.927 12.92c-.464.824-.623 1.433-.472 2.406-.354 1 .081 2.91.39 3.905 1.07 3.458 3.682 6.053 7.13 7.169.894.29 2.185.648 3.123.426l.246-3.417c.36-.163.815-.145 1.195-.293 1.314-.504 2.337-1.48 2.784-2.817.157-.47.37-1.29.044-1.72l-3.738.24.056-2.299c-.344-.33-.983.024-1.381-.184l.576-1.304c.578.515.988 1.15 1.702 1.532 1.979 1.06 4.473 1.173 6.671.821 1.415-.226 2.134-2.088 2.291-3.314.046-.367.245-.821.067-1.175l-.48 1.263-.453-1.023-.455-1.253-1.567-.602-.807-.36c.267-.202 1.092-.297 1.166-.587-.191-.206-1.734-.272-2.1-.281a36 36 0 0 0-3.201.04c-.89.057-1.814.26-2.7.246l.52-4.808c-3.145-.55-7.077 1.685-8.925 4.134-.611.812-1.616 2.229-1.682 3.255Zm25.244-2.14.232.25-.042.306.08.119.07.072q-1.168.58-2.338 1.156l2.592.035.118.072-.069.32.053.213.058.236c-.737-.284-2.346-.076-3.18-.076-.283 0-.9.11-1.128-.072-.156-.123-.13-.392-.173-.568q1.864-1.031 3.727-2.064Zm-11.245 8.36c.155.224.046.632-.047.87-.065.167-.056.37-.197.498-.414.378-2.007-.216-2.478.18.024.514 1.683.197 2.12.32-.013.706-1.255 1.34-1.816 1.547-1.758.65-3.759.288-4.953-1.232-.293-.371-.719-1.015-.62-1.511zm11.748.949-.11.599-.203.293-.107-.167-1.649.034 1.585.834-.176.287-.087.32-.086.084-2.978-1.632.15-.586zm-31.025.107c.84.045 1.692.016 2.535.013.257 0 .76-.094.969.072.154.122.13.392.17.567l-2.919 1.574-.168-.454q-.052-.08-.107-.16v-.075l1.468-.727-1.694-.025-.216-.24-.038-.426zm2.257 4.955-.143-.14-.155-.16-.144-.398c.31-.109 1.12-.887 1.11-1.204-.337.12-1.382.216-1.497.56l-.11-.08-.25-.715 3.281-.927q.16.261.317.522-1.203 1.271-2.41 2.542Zm27.665-2.15-.037.195q-.178.306-.354.614c-.053-.196-1.332-.577-1.572-.56l1.178 1.165-.144.435-.308.293c-.321-.66-1.202-1.276-1.724-1.798-.166-.168-.632-.48-.632-.735 0-.16.192-.379.274-.512zm-6.228 6.868-.741.4c-.012-.267-.68-.93-.94-.946l.36 1.206-.2.165-.32.229-.184-.079-.843-2.952.493-.3zM10.2 31.004l-.232-.123-.487-.118-.08-.106c.251-.135.51-1.061.407-1.324l-.948 1.039-.66-.25-.133-.168 2.375-2.29.576.388zm11.375.156-.087.081-.267.162-.35-.016c-.066-.421-.401-.83-.668-1.093 0 .318-.146 1.075.137 1.27l-.133.038-.107.121-.16-.069q-.227.052-.453.108l.027-3.108.685-.122zm-8.812.602h-.133l-.32-.108-.16.07q-.055-.061-.107-.122l-.133-.037c.267-.156.144-.844.133-1.129-.329.149-.545.652-.61 1.005l-.18-.027q-.113-.004-.224-.011l-.347-.24 1.36-2.507.668.09z" clip-rule="evenodd"/>
  <path fill="#000101" fill-rule="evenodd" stroke="#000101" stroke-linejoin="round" stroke-width=".25" d="m23.657 11.28 1.567.603.454 1.253c-.142.21-.09.664-.126.93-.087.639-.371 1.848-.996 2.19-.828.453-2.222.397-3.123.261-2.232-.333-3.726-.584-5.011-2.584-.256-.398-.52-.98-.559-1.463-.074-.96 1.084-1.16 1.784-1.261 1.412-.21 2.952-.093 4.375-.057.464.013 1.213.225 1.635.129Zm-10.275.386c1.914-.096 2.164 1.398 1.588 2.954-.732 1.979-2.525 2.896-4.475 3.319-.871.189-1.956.279-2.643-.399-.356-.35-.658-.813-.882-1.253-.274-.54-.726-1.486-.56-2.107.179-.676.864-1.007 1.423-1.305 1.594-.853 3.754-1.117 5.549-1.209Z" clip-rule="evenodd"/>
  <path fill="#04BFAC" fill-rule="evenodd" stroke="#04BFAC" stroke-linejoin="round" stroke-width=".25" d="M23.656 11.28c-.421.096-1.17-.115-1.635-.128-1.423-.036-2.963-.153-4.375.056-.7.103-1.857.301-1.783 1.262.038.483.302 1.064.558 1.463 1.286 2 2.78 2.251 5.011 2.584.902.136 2.296.192 3.124-.26.624-.344.91-1.552.995-2.191.036-.266-.015-.72.127-.93l.453 1.023.48-1.263c.178.353-.02.808-.067 1.175-.157 1.226-.876 3.088-2.29 3.314-2.199.352-4.693.238-6.672-.822-.714-.38-1.124-1.016-1.702-1.532l-.576 1.305c-.487.39-.788.977-1.326 1.351-1.84 1.276-5.067 2.279-6.945.62-.578-.51-1.032-1.3-1.287-2.02-.106-.295-.125-.708-.291-.961-.15-.973.008-1.582.472-2.406.475-.303.87-.68 1.394-.927 2.575-1.215 5.906-1.219 8.694-1.654.885.014 1.809-.189 2.699-.247a36 36 0 0 1 3.202-.04c.365.01 1.908.076 2.099.282-.074.29-.899.384-1.166.588zm-10.275.386c-1.795.091-3.954.356-5.549 1.209-.559.298-1.244.63-1.423 1.305-.165.62.286 1.567.56 2.107.224.44.527.902.882 1.253.687.677 1.773.588 2.644.399 1.95-.423 3.743-1.34 4.474-3.319.577-1.556.327-3.05-1.588-2.954Z" clip-rule="evenodd"/>
</svg>
