<svg xmlns="http://www.w3.org/2000/svg" width="32" height="32" fill="none" viewBox="0 0 32 32">
  <path fill="#0F172A" d="M0 0h32v32H0z"/>
  <path fill="url(#a)" d="m10.377 8.212 14.98 10.159-3.705 5.439-14.98-10.239 3.705-5.36Z"/>
  <path fill="url(#b)" d="M25.359 18.37c-1.289 1.84-5.638 1.12-9.745-1.76-4.188-2.8-6.443-6.559-5.235-8.399 1.289-1.84 5.638-1.12 9.745 1.76 4.188 2.72 6.443 6.56 5.235 8.4Z"/>
  <path fill="url(#c)" d="M21.653 23.73c-1.289 1.84-5.637 1.12-9.745-1.76-4.107-2.88-6.442-6.56-5.154-8.48 1.289-1.84 5.638-1.12 9.745 1.76 4.107 2.88 6.362 6.64 5.154 8.48Z"/>
  <path fill="#fff" fill-rule="evenodd" d="M24.794 18.05c-1.128 1.6-5.074.8-8.859-1.84-3.866-2.64-6.12-5.999-4.993-7.599 1.127-1.6 5.074-.8 8.859 1.84s6.04 6 4.993 7.6Zm-3.544-2.4c-.563.8-2.496.4-4.429-.88-1.852-1.28-2.98-2.959-2.416-3.759.564-.8 2.496-.4 4.43.88 1.852 1.28 2.98 2.96 2.415 3.76Z" clip-rule="evenodd"/>
  <path fill="#fff" d="M10.056 10.05c0-.08-.081-.16-.162-.08-.08.08-.16.08-.16.16.08.24.16.4.16.56 0 .08.081.16.162.08.08 0 .16-.08.08-.16 0-.16 0-.32-.08-.56Zm.402 1.28c0-.08-.08-.16-.16-.08-.081.08-.081.08-.081.16.886 2 2.738 4.16 5.154 5.76.08.08.161 0 .242 0 .08-.08 0-.16 0-.24-2.497-1.6-4.269-3.68-5.155-5.6Zm9.745 7.84c-.08 0-.161 0-.161.08s0 .16.08.16c.242.08.564.16.806.24.08 0 .16 0 .16-.08s0-.16-.08-.16c-.241-.08-.563-.16-.805-.24Zm1.451.32c-.08 0-.16.08-.16.16s.08.16.16.16c.645.08 1.37.16 1.933.08.08 0 .161-.08.161-.16s-.08-.16-.16-.16c-.645.08-1.29 0-1.934-.08Z"/>
  <defs>
    <linearGradient id="a" x1="13.312" x2="16.246" y1="6.767" y2="16.91" gradientUnits="userSpaceOnUse">
      <stop stop-color="#03B8FF"/>
      <stop offset="1" stop-color="#FA52A0"/>
    </linearGradient>
    <linearGradient id="b" x1="15.761" x2="18.694" y1="6.059" y2="16.202" gradientUnits="userSpaceOnUse">
      <stop stop-color="#03B8FF"/>
      <stop offset="1" stop-color="#FA52A0"/>
    </linearGradient>
    <linearGradient id="c" x1="10.874" x2="13.808" y1="7.472" y2="17.615" gradientUnits="userSpaceOnUse">
      <stop stop-color="#03B8FF"/>
      <stop offset="1" stop-color="#FA52A0"/>
    </linearGradient>
  </defs>
</svg>
