<svg xmlns="http://www.w3.org/2000/svg" width="32" height="32" fill="none" viewBox="0 0 32 32">
  <path fill="#19150C" d="M0 0h32v32H0z"/>
  <path fill="#FAFAF9" d="M16.334 25.871c.137.096.287.192.438.26.233.123.521.26.781.314.165.041.562.055.686.151.137.11-.055.356-.137.465-.63.862-1.576 1.026-2.604.903-.686-.082-1.18-.328-1.59-.89-.055-.081-.233-.328-.192-.423.055-.123.562-.165.699-.192.452-.096.822-.355 1.22-.56.013 0 .04 0 .027-.028-.247 0-.48.11-.726.15-.425.055-.987.028-1.398-.123-.891-.328-1.33-1.326-2.029-1.9-.329-.274-.726-.33-1.124-.493-.616-.274-1.26-.876-1.685-1.382-.562-.656-.96-2.243-1.097-3.105-.055-.342-.068-.697-.123-1.026-.069-.382-.206-.752-.288-1.135-.165-.78-.096-1.627-.192-2.434v-.862c.26-5.376 5.208-9.356 10.553-8.426 4.496.78 7.58 4.72 7.443 9.247a38.313 38.313 0 0 1-.083 1.75c-.027.657-.329 1.3-.425 1.956-.164 1.245-.301 2.284-.85 3.447-.26.547-.959 1.272-1.452 1.628-.48.342-.863.383-1.357.602-.59.26-1.069 1.066-1.508 1.532-.63.642-1.37.861-2.261.724-.247-.04-.48-.15-.726-.15Zm1.905-4.979c.452-.095.89-.287 1.315-.506 3.742-1.956 5.181-6.661 3.125-10.381-2.124-3.83-7.1-5.102-10.8-2.709-4.509 2.914-4.619 9.425-.26 12.543.644.465 1.398.89 2.193 1.04v.889c-.398.205-.891.136-1.275-.055-.356-.178-.617-.383-1.014-.52-.137-.04-.439-.11-.52-.15-.056-.028-.138-.164-.193-.22-.343-.368-.685-.505-1.055-.806a4.35 4.35 0 0 1-.713-.793 4.198 4.198 0 0 1-.575-1.026v.123c.04.861.48 2.106 1.137 2.694.548.493 1.275.643 1.768 1.218.082.095.15.205.233.3 0-.082-.041-.177-.068-.26a2.95 2.95 0 0 0-.302-.533c-.027-.04-.164-.191-.164-.205 0-.014.013-.04.04-.04.124 0 .398.122.508.177.74.397 1.288 1.149 2.028 1.56.74.41 1.631.519 2.371.93.782-.384 1.672-.52 2.44-.944.74-.41 1.275-1.15 2.015-1.546.15-.082.342-.178.52-.15-.178.232-.356.478-.465.752l-.069.246c.165-.219.329-.424.548-.602.452-.355 1.028-.533 1.467-.916.562-.506.945-1.464 1.082-2.189.042-.219.069-.451.069-.67-.11.26-.206.492-.356.739-.247.383-.644.875-.987 1.162-.357.274-.672.397-1 .753-.138.15-.11.205-.33.273-.123.041-.246.055-.37.096-.548.178-.973.615-1.562.697-.26.041-.52.014-.754-.109v-.903l-.027.041Z"/>
  <path fill="#FAFAF9" d="M15.498 19.25c.054.028.41-.081.507-.095.123 0 .41.123.493.096l.233-.465c.027-.014.343.191.384.232.438.342.548.862.534 1.395a4.893 4.893 0 0 1-.904-.246l-.466-.205c.438.37.973.602 1.521.752v1.067c0 .643-.781 1.327-1.425 1.696l.068-1.409s.672-.41.795-.437c.069-.014.22.096.233.082l-.027-.82a4.147 4.147 0 0 1-1.07.382l-.082.315-.301.177-.33-.177-.081-.315a5.844 5.844 0 0 1-1.07-.383v.848c.056-.027.11-.123.206-.096.11.055.823.438.823.438l.095 1.409c-.63-.315-1.466-1.053-1.466-1.696v-1.026c.535-.191 1.097-.397 1.535-.78-.274.11-.288.123-.329.137a4.716 4.716 0 0 1-1.042.287c.028-.547.11-1.067.562-1.408.055-.041.33-.22.37-.22l.234.466Z"/>
  <path fill="#FAFAF9" d="M16.456 17.664c.014 0-.274 1.245-.274 1.245l-.178-1.792-.192 1.792-.274-1.245v1.354c.013 0-.782-2.516-.782-2.516.055-.028.11-.082.165-.123.343-.233.822-.384 1.247-.329.398.041.781.205 1.083.465l-.795 2.517v-1.368Z"/>
</svg>
