<svg xmlns="http://www.w3.org/2000/svg" width="32" height="32" fill="none" viewBox="0 0 32 32">
  <path fill="url(#a)" d="M0 0h32v32H0z"/>
  <path fill="#fff" fill-rule="evenodd" d="M8.516 12.767s-2.194-3.545.255-4.783c1.554-.682 3.129-.193 3.947.23l.246.114c.549.256.62.29 1.386.129 1.893-.432 3.85-.207 5.258.381 1.767-1.697 5.733-1.776 3.646 2.54 0 0 .392.442.638.803.066.147-.024.28-.122.425-.112.167-.234.348-.143.583.135.35.349.693.594 1.086.308.496.667 1.073.984 1.848.57 1.39-.232 3.54-1 4.787-1.319 2.042-3.5 1.229-5.29.349a.486.486 0 0 0-.666.25l-.953 2.34c-.152.37-.542.587-.927.477-2.714-.776-7.326-3.512-9.706-9.367-.175-.431.056-.918.468-1.134.458-.24 1.02-.599 1.385-1.058ZM23.96 11.28c.13.157.295.365.428.56l.03.044.023.05a.875.875 0 0 1 0 .708 1.851 1.851 0 0 1-.178.308l-.014.022a1.348 1.348 0 0 0-.038.058c.115.274.288.553.522.93l.096.154c.29.47.63 1.039.933 1.78.357.873.264 1.911.026 2.826a9.546 9.546 0 0 1-1.072 2.505l-.004.005-.003.005c-.383.593-.848 1.007-1.38 1.258-.529.25-1.086.321-1.631.287-1.022-.063-2.066-.503-2.94-.928l-.906 2.222c-.253.623-.936 1.034-1.65.83-2.865-.819-7.638-3.669-10.098-9.72-.314-.772.114-1.562.746-1.893.317-.167.655-.378.925-.62a7.436 7.436 0 0 1-.638-1.696c-.133-.571-.197-1.241-.02-1.882.182-.667.614-1.26 1.382-1.648l.014-.007.015-.007c1.783-.782 3.553-.221 4.452.24l.248.114c.073.035.133.063.198.091a.932.932 0 0 0 .191.07c.064.012.158.015.603-.079 1.86-.423 3.782-.254 5.266.278a4.766 4.766 0 0 1 1.554-.81c.662-.201 1.39-.26 2.02-.056.667.216 1.195.722 1.344 1.532.125.675-.024 1.498-.444 2.469Z" clip-rule="evenodd"/>
  <path fill="#fff" d="M20.252 9.077c.376-.34 1.586-.953 2.506-.63-1.17.056-1.463 1.196-2.506.63ZM8.571 15.139c-.184-.625-.647-1.26-1.424-.627 1.588 4.151 4.401 6.365 4.401 6.365-1.498-1.572-2.473-4.245-2.977-5.738Zm6.574 2.852c.775.68 2.232.726 4.425.638-.997.556-2.622.538-2.622.538.734.497 2.241 1.075 3.794 1.158 1.553.083 2.693-.33 2.69-1.733 0-1.464-2.544-3.09-8.287-.6Zm9.694-.898c-.31.217-.661.768-.769 1.445-.466 2.754.99.03.769-1.445Zm-5.656 3.513c1.205.64 3.608 1.727 4.563-.095l-.072-.075a.123.123 0 0 0-.14-.025c-1.023.473-2.568.637-4.351.195Zm.932-7.191c.283.78.635 1.68.945 2.261.172.324.506.51.87.552 1.584.183 2.08.036 2.392-.107.14-.064.217-.223.131-.351 0 0-1.228-2.045-1.835-2.843-.333-.487-.729-.99.335-.971-2.947-3.05-5.645-3.538-8.781-2.85-.61.12-.943.032-1.575-.285-.673-.341-1.632-.727-2.87-.509.88.576 1.61 1.48 2.121 2.27.64.991 1.727 1.719 2.904 1.631l3.075-.228c.96-.071 1.96.525 2.288 1.43Z"/>
  <path fill="#fff" d="m15.955 12.732-2.331.14c-4.493.334-2.244 5.362 3.233 3.86 2.968-.815 3.444-1.354 2.815-2.803a.53.53 0 0 0-.486-.264c-1.467.057-2.298-.297-2.62-.627-.163-.168-.376-.32-.61-.306Z"/>
  <defs>
    <linearGradient id="a" x1="1.5" x2="30" y1="24" y2="6.5" gradientUnits="userSpaceOnUse">
      <stop stop-color="#FF7431"/>
      <stop offset="1" stop-color="#FF900A"/>
    </linearGradient>
  </defs>
</svg>
