<svg xmlns="http://www.w3.org/2000/svg" width="32" height="32" fill="none" viewBox="0 0 32 32">
  <path fill="#000" d="M0 0h32v32H0z"/>
  <path fill="#fff" d="m9.041 19.168 1.863-1.927-2.316-3.126L5.64 9.943A11.942 11.942 0 0 0 4 16c0 3.66 1.64 6.937 4.224 9.138l3.743-2.645a7.68 7.68 0 0 1-2.926-3.325Zm3.791-10.127 1.927 1.863 3.126-2.316 4.172-2.949A11.943 11.943 0 0 0 16 4a11.97 11.97 0 0 0-9.138 4.224l2.645 3.743a7.679 7.679 0 0 1 3.325-2.926Zm8.264 5.718 2.316 3.126 2.949 4.172A11.943 11.943 0 0 0 28 16c0-3.66-1.64-6.937-4.224-9.138l-3.744 2.645a7.677 7.677 0 0 1 2.926 3.324l-1.862 1.928Zm4.042 9.017-2.645-3.743a7.677 7.677 0 0 1-3.324 2.926l-1.928-1.863-3.126 2.316-4.172 2.949A11.942 11.942 0 0 0 16 28c3.66 0 6.937-1.64 9.138-4.224Z"/>
</svg>
