<svg width="256" height="256" viewBox="0 0 256 256" fill="none" xmlns="http://www.w3.org/2000/svg">
<g clip-path="url(#clip0_16410_9738)">
<path d="M128 256C198.692 256 256 198.692 256 128C256 57.3076 198.692 0 128 0C57.3076 0 0 57.3076 0 128C0 198.692 57.3076 256 128 256Z" fill="#BDC5D1"/>
<path d="M178.768 116.818C178.594 116.295 178.594 115.772 178.246 115.248C178.246 115.074 195.809 92.3997 179.637 78.4463C163.465 64.4929 144.685 82.6323 144.511 82.8067C141.555 81.9346 138.425 81.4114 135.469 81.0626C129.383 80.1905 120.688 81.0626 120.688 81.0626C117.732 81.237 114.776 81.7602 111.82 82.6323C111.646 82.4579 92.8658 64.3185 76.694 78.2719C60.5222 92.2253 77.9112 114.9 78.0851 115.074C77.9112 115.597 77.7374 116.121 77.5635 116.644C75.8246 126.411 64 129.376 64 146.295C64 163.562 76.3462 177.167 101.734 177.167H112.168C112.168 177.167 116.167 182.574 124.514 182.922C124.514 182.922 126.427 183.097 130.774 182.922C139.642 182.922 143.816 177.341 143.816 177.167H154.249C179.637 177.167 191.983 163.562 191.983 146.295C192.505 129.551 180.507 126.411 178.768 116.818Z" fill="white"/>
</g>
<defs>
<clipPath id="clip0_16410_9738">
<rect width="256" height="256" fill="white"/>
</clipPath>
</defs>
</svg>
