<svg xmlns="http://www.w3.org/2000/svg" width="32" height="32" fill="none" viewBox="0 0 32 32">
  <path fill="#ECE8E8" d="M0 0h32v32H0z"/>
  <path fill="#19191A" d="M16.003 2C23.733 2 30 8.266 30 16s-6.267 14-13.997 14C8.267 30 2 23.734 2 16S8.267 2 16.003 2Zm0 2.227C9.504 4.227 4.23 9.503 4.23 16s5.274 11.773 11.773 11.773S27.776 22.497 27.776 16 22.482 4.227 16.003 4.227Zm-2.839 16.488c.86 0 1.548.694 1.548 1.55 0 .856-.688 1.55-1.548 1.55a1.55 1.55 0 0 1 0-3.1Zm5.57-.047c.86 0 1.553.695 1.553 1.55a1.551 1.551 0 1 1-1.554-1.55ZM13.461 7.621c.695 1.88 2.508 7.205 2.64 7.503.034-.148 1.86-5.952 2.377-7.47h3.838v13.241a98.445 98.445 0 0 1-1.47-.824c-.357-.181-.687-.38-1.051-.528a456.372 456.372 0 0 0-.146-7.8c-.516 1.533-2.295 6.94-2.442 7.091h-2.376a2398.71 2398.71 0 0 0-2.422-6.86 380.934 380.934 0 0 1-.152 7.652c-1.416.725-2.257 1.137-2.522 1.236V7.622h3.726Z"/>
</svg>
