<svg xmlns="http://www.w3.org/2000/svg" width="32" height="32" fill="none" viewBox="0 0 32 32">
  <path fill="#F7C2FF" d="M0 0h32v32H0z"/>
  <path fill="#000" d="M14.185 19.128v-.258c.005-.888.082-1.596.23-2.124.153-.528.376-.954.668-1.279a5.15 5.15 0 0 1 1.054-.883c.307-.203.582-.413.824-.632a2.72 2.72 0 0 0 .58-.723c.143-.269.215-.568.215-.898 0-.35-.082-.657-.245-.92a1.646 1.646 0 0 0-.661-.61 1.928 1.928 0 0 0-.906-.213 1.99 1.99 0 0 0-.913.22 1.757 1.757 0 0 0-.705.64c-.183.28-.282.627-.297 1.043H11c.025-1.015.262-1.852.713-2.512a4.104 4.104 0 0 1 1.789-1.484c.742-.33 1.561-.495 2.457-.495.985 0 1.856.167 2.613.502.758.33 1.352.81 1.782 1.439.43.63.646 1.388.646 2.276 0 .594-.096 1.121-.29 1.583a3.866 3.866 0 0 1-.794 1.218c-.341.35-.745.667-1.21.952a4.92 4.92 0 0 0-.965.745 2.543 2.543 0 0 0-.557.899c-.119.34-.18.758-.186 1.256v.258h-2.813ZM15.655 24c-.495 0-.918-.178-1.27-.533a1.774 1.774 0 0 1-.512-1.294 1.74 1.74 0 0 1 .512-1.279 1.721 1.721 0 0 1 1.27-.532c.47 0 .883.177 1.24.532a1.768 1.768 0 0 1 .282 2.2 1.944 1.944 0 0 1-.646.662c-.267.163-.56.244-.876.244Z"/>
</svg>
